<svg width="70" height="51" viewBox="0 0 70 51" fill="none" xmlns="http://www.w3.org/2000/svg">
<path d="M22.9592 51C12.551 50.0642 2.7551 34.0002 0 28.3855C0.612245 25.4222 3.67347 21.0864 25.1021 0L27.398 2.02723C17.9082 28.0733 7.0408 25.8898 12.3979 26.8255C16.6837 27.5742 20.8163 34.3118 17.7551 37.2752C17.7551 37.2752 29.5408 37.2752 30 44.7614L22.9592 51Z" fill="#D62F2F"/>
<path d="M47.0408 51C57.449 50.0642 67.2449 34.0002 70 28.3855C69.3878 25.4222 66.3265 21.0864 44.8979 0L42.602 2.02723C52.0918 28.0733 62.9592 25.8898 57.6021 26.8255C53.3163 27.5742 49.1837 34.3118 52.2449 37.2752C52.2449 37.2752 40.4592 37.2752 40 44.7614L47.0408 51Z" fill="#D62F2F"/>
</svg>
