<svg width="121" height="120" viewBox="0 0 121 120" fill="none" xmlns="http://www.w3.org/2000/svg">
<g clip-path="url(#clip0_1709_858)">
<path d="M77.6305 37.9305C77.166 36.2874 76.3069 34.7828 75.1278 33.5478C73.9487 32.3128 72.4855 31.3849 70.8656 30.845L20.6128 20.0508L47.2354 42.544C48.2595 42.0548 49.3916 41.7587 50.6022 41.7587C54.9393 41.7587 58.455 45.2744 58.455 49.6115C58.455 53.9485 54.9393 57.4642 50.6022 57.4642C46.2652 57.4642 42.7495 53.9485 42.7495 49.6114C42.7495 48.4008 43.0456 47.2687 43.5348 46.2446L20.6128 20.0508L31.8358 69.8748C32.3757 71.4947 33.3036 72.9579 34.5386 74.137C35.7736 75.3161 37.2782 76.1753 38.9213 76.6397L63.6902 83.6401L84.6309 62.6994L77.6305 37.9305ZM88.2022 97.0454L98.0362 87.2115C101.104 84.144 101.104 79.1689 98.0362 76.1014L88.7847 66.8499L67.8407 87.7939L77.0922 97.0454C80.1597 100.113 85.1331 100.113 88.2022 97.0454Z" fill="#1B49BE" fill-opacity="0.8"/>
</g>
<defs>
<clipPath id="clip0_1709_858">
<rect width="79.5092" height="80" fill="white" transform="translate(100.5 20) rotate(90)"/>
</clipPath>
</defs>
</svg>
