<svg width="120" height="120" viewBox="0 0 120 120" fill="none" xmlns="http://www.w3.org/2000/svg">
<path fill-rule="evenodd" clip-rule="evenodd" d="M46.6667 60H36.5867C35.6083 61.6946 34.0981 63.019 32.2903 63.7678C30.4825 64.5166 28.4782 64.648 26.5881 64.1416C24.698 63.6351 23.0279 62.5192 21.8367 60.9668C20.6455 59.4144 19.9998 57.5123 19.9998 55.5556C19.9998 53.5988 20.6455 51.6967 21.8367 50.1443C23.0279 48.592 24.698 47.476 26.5881 46.9696C28.4782 46.4631 30.4825 46.5945 32.2903 47.3433C34.0981 48.0921 35.6083 49.4165 36.5867 51.1111H46.6667V28.8889C46.6667 26.5314 47.6032 24.2705 49.2702 22.6035C50.9372 20.9365 53.1981 20 55.5556 20H91.1112C93.4686 20 95.7296 20.9365 97.3966 22.6035C99.0635 24.2705 100 26.5314 100 28.8889V91.1111C100 93.4686 99.0635 95.7295 97.3966 97.3965C95.7296 99.0635 93.4686 100 91.1112 100H55.5556C53.1981 100 50.9372 99.0635 49.2702 97.3965C47.6032 95.7295 46.6667 93.4686 46.6667 91.1111V60ZM55.5556 60V91.1111H91.1112V28.8889H55.5556V51.1111H65.6356C66.614 49.4165 68.1242 48.0921 69.932 47.3433C71.7398 46.5945 73.7441 46.4631 75.6342 46.9696C77.5243 47.476 79.1944 48.592 80.3856 50.1443C81.5768 51.6967 82.2225 53.5988 82.2225 55.5556C82.2225 57.5123 81.5768 59.4144 80.3856 60.9668C79.1944 62.5192 77.5243 63.6351 75.6342 64.1416C73.7441 64.648 71.7398 64.5166 69.932 63.7678C68.1242 63.019 66.614 61.6946 65.6356 60H55.5556Z" fill="#1B49BE" fill-opacity="0.8"/>
</svg>
