<svg width="121" height="120" viewBox="0 0 121 120" fill="none" xmlns="http://www.w3.org/2000/svg">
<path d="M50 23.3333C50 22.4493 50.3512 21.6014 50.9763 20.9763C51.6014 20.3512 52.4493 20 53.3333 20H66.6667C67.5507 20 68.3986 20.3512 69.0237 20.9763C69.6488 21.6014 70 22.4493 70 23.3333C70 24.2174 69.6488 25.0652 69.0237 25.6904C68.3986 26.3155 67.5507 26.6667 66.6667 26.6667H53.3333C52.4493 26.6667 51.6014 26.3155 50.9763 25.6904C50.3512 25.0652 50 24.2174 50 23.3333ZM66.6667 93.3333H53.3333C52.4493 93.3333 51.6014 93.6845 50.9763 94.3096C50.3512 94.9348 50 95.7826 50 96.6667C50 97.5507 50.3512 98.3986 50.9763 99.0237C51.6014 99.6488 52.4493 100 53.3333 100H66.6667C67.5507 100 68.3986 99.6488 69.0237 99.0237C69.6488 98.3986 70 97.5507 70 96.6667C70 95.7826 69.6488 94.9348 69.0237 94.3096C68.3986 93.6845 67.5507 93.3333 66.6667 93.3333ZM93.3333 20H83.3333C82.4493 20 81.6014 20.3512 80.9763 20.9763C80.3512 21.6014 80 22.4493 80 23.3333C80 24.2174 80.3512 25.0652 80.9763 25.6904C81.6014 26.3155 82.4493 26.6667 83.3333 26.6667H93.3333V36.6667C93.3333 37.5507 93.6845 38.3986 94.3096 39.0237C94.9348 39.6488 95.7826 40 96.6667 40C97.5507 40 98.3986 39.6488 99.0237 39.0237C99.6488 38.3986 100 37.5507 100 36.6667V26.6667C100 24.8986 99.2976 23.2029 98.0474 21.9526C96.7971 20.7024 95.1014 20 93.3333 20ZM96.6667 50C95.7826 50 94.9348 50.3512 94.3096 50.9763C93.6845 51.6014 93.3333 52.4493 93.3333 53.3333V66.6667C93.3333 67.5507 93.6845 68.3986 94.3096 69.0237C94.9348 69.6488 95.7826 70 96.6667 70C97.5507 70 98.3986 69.6488 99.0237 69.0237C99.6488 68.3986 100 67.5507 100 66.6667V53.3333C100 52.4493 99.6488 51.6014 99.0237 50.9763C98.3986 50.3512 97.5507 50 96.6667 50ZM96.6667 80C95.7826 80 94.9348 80.3512 94.3096 80.9763C93.6845 81.6014 93.3333 82.4493 93.3333 83.3333V93.3333H83.3333C82.4493 93.3333 81.6014 93.6845 80.9763 94.3096C80.3512 94.9348 80 95.7826 80 96.6667C80 97.5507 80.3512 98.3986 80.9763 99.0237C81.6014 99.6488 82.4493 100 83.3333 100H93.3333C95.1014 100 96.7971 99.2976 98.0474 98.0474C99.2976 96.7971 100 95.1014 100 93.3333V83.3333C100 82.4493 99.6488 81.6014 99.0237 80.9763C98.3986 80.3512 97.5507 80 96.6667 80Z" fill="#1B49BE" fill-opacity="0.8"/>
<path d="M23.3333 70C24.2174 70 25.0652 69.6488 25.6904 69.0237C26.3155 68.3986 26.6667 67.5507 26.6667 66.6667V53.3333C26.6667 52.4493 26.3155 51.6014 25.6904 50.9763C25.0652 50.3512 24.2174 50 23.3333 50C22.4493 50 21.6014 50.3512 20.9763 50.9763C20.3512 51.6014 20 52.4493 20 53.3333V66.6667C20 67.5507 20.3512 68.3986 20.9763 69.0237C21.6014 69.6488 22.4493 70 23.3333 70ZM36.6667 93.3333H26.6667V83.3333C26.6667 82.4493 26.3155 81.6014 25.6904 80.9763C25.0652 80.3512 24.2174 80 23.3333 80C22.4493 80 21.6014 80.3512 20.9763 80.9763C20.3512 81.6014 20 82.4493 20 83.3333V93.3333C20 95.1014 20.7024 96.7971 21.9526 98.0474C23.2029 99.2976 24.8986 100 26.6667 100H36.6667C37.5507 100 38.3986 99.6488 39.0237 99.0237C39.6488 98.3986 40 97.5507 40 96.6667C40 95.7826 39.6488 94.9348 39.0237 94.3096C38.3986 93.6845 37.5507 93.3333 36.6667 93.3333Z" fill="#1B49BE" fill-opacity="0.8"/>
<path d="M23.3333 40C24.2174 40 25.0652 39.6488 25.6904 39.0237C26.3155 38.3986 26.6667 37.5507 26.6667 36.6667V26.6667H36.6667C37.5507 26.6667 38.3986 26.3155 39.0237 25.6904C39.6488 25.0652 40 24.2174 40 23.3333C40 22.4493 39.6488 21.6014 39.0237 20.9763C38.3986 20.3512 37.5507 20 36.6667 20H26.6667C24.8986 20 23.2029 20.7024 21.9526 21.9526C20.7024 23.2029 20 24.8986 20 26.6667V36.6667C20 37.5507 20.3512 38.3986 20.9763 39.0237C21.6014 39.6488 22.4493 40 23.3333 40ZM80 83.3333H40C39.1159 83.3333 38.2681 82.9821 37.643 82.357C37.0179 81.7319 36.6667 80.8841 36.6667 80V40C36.6667 39.1159 37.0179 38.2681 37.643 37.643C38.2681 37.0179 39.1159 36.6667 40 36.6667H80C80.8841 36.6667 81.7319 37.0179 82.357 37.643C82.9821 38.2681 83.3333 39.1159 83.3333 40V80C83.3333 80.8841 82.9821 81.7319 82.357 82.357C81.7319 82.9821 80.8841 83.3333 80 83.3333ZM76.6667 43.3333H43.3333V76.6667H76.6667V43.3333Z" fill="#1B49BE" fill-opacity="0.8"/>
</svg>
