<svg width="547" height="550" viewBox="0 0 547 550" fill="none" xmlns="http://www.w3.org/2000/svg">
<g clip-path="url(#clip0_2200_719)">
<path d="M192.896 100.103C177.253 122.908 195.595 159.879 172.383 177.029C149.787 193.724 122.029 166.359 100.734 180.73C69.1445 202.048 74.9133 299.597 121.099 360.206C134.989 378.433 146.595 385.525 151.735 406.139C162.772 450.403 123.981 476.733 131.363 498.626C147.984 547.918 403.605 589.281 506.171 441.14C554.073 371.951 561.241 272.043 518.441 196.162C441.103 59.0461 227.998 48.935 192.896 100.103Z" fill="#DAECFF"/>
<path d="M0.508012 153.068L0.00453281 168.431C-0.14316 172.939 3.33661 176.425 7.77401 176.22L15.8379 175.846C16.5805 182.978 18.1086 190.006 20.3946 196.803L13.5831 201.048C9.67091 203.485 8.192 208.535 10.2812 212.326L17.3961 225.232C19.4814 229.015 29.551 231.264 33.4524 228.821L34.6821 223.618C38.9771 229.197 43.9155 234.25 49.3947 238.672L45.6674 245.076C43.3377 249.079 44.4819 253.978 48.2215 256.017L60.9495 262.955C64.6775 264.987 76.781 265.303 79.0996 261.306L75.467 253.244C82.208 255.626 89.2067 257.205 96.3178 257.947L96.0948 264.754C95.9483 269.22 99.3651 272.643 103.723 272.401L118.553 271.576C122.895 271.335 126.531 267.53 126.678 263.076L126.9 256.289C134.141 254.743 141.193 252.417 147.933 249.352L151.066 255.101C153.098 258.832 165.579 260.751 169.385 258.327L174.595 249.215C178.39 246.798 179.826 241.823 177.804 238.098L174.565 232.134C180.214 227.191 185.358 221.698 189.918 215.736L195.935 219.083C199.57 221.105 210.337 222.139 212.601 218.2L214.321 202.2C216.581 198.269 215.475 193.44 211.85 191.411L205.526 187.871C208.148 181.058 210.076 173.998 211.279 166.798L219.045 166.438C223.308 166.241 226.879 162.504 227.023 158.09L227.516 143.048C227.661 138.634 224.325 135.207 220.062 135.392L211.84 135.749C210.933 128.913 209.297 122.194 206.961 115.705L214.486 110.993C218.254 108.631 219.68 103.689 217.673 99.949L219.105 85.001C217.093 81.2544 204.119 82.3139 200.34 84.6684L192.422 89.6031C188.319 84.4482 183.659 79.7623 178.527 75.6307L183.404 67.2252C185.677 63.3088 184.564 58.4471 180.917 56.3647L175.492 48.2093C171.833 46.1206 159.987 48.6501 157.704 52.5741L152.691 61.1873C146.461 58.9703 140.007 57.4412 133.444 56.6274L133.767 46.7666C133.913 42.313 130.516 38.8233 126.177 38.9711L111.358 39.4759C107.003 39.6242 103.351 43.3644 103.205 47.8307L102.881 57.7194C96.1035 59.0405 89.4782 61.0468 83.1068 63.7075L86.0515 53.2751C83.9883 49.4753 71.7103 50.4192 67.8379 52.792L54.6169 60.8942C50.7326 63.2744 49.2632 68.2916 51.3371 72.0965L55.7818 80.2523C50.231 84.8459 45.1331 89.9607 40.5582 95.5268L40.8929 90.3009C37.1405 88.2007 24.0196 90.5567 21.6797 94.5385L13.6965 108.122C11.3525 112.111 12.5042 117.043 16.2678 119.137L23.7671 123.308C20.9337 130.036 18.7834 137.031 17.3486 144.189L8.81162 144.559C4.37482 144.752 0.655686 148.561 0.508012 153.068ZM38.2555 160.594C39.68 117.129 75.2936 80.5387 117.566 78.8752C159.582 77.2219 192.315 110.737 190.906 153.726C189.497 196.715 154.467 233.278 112.436 235.405C70.1474 237.546 36.831 204.058 38.2555 160.594Z" fill="#AEB7C4"/>
<path d="M10.4377 152.938L9.93423 168.301C9.78642 172.808 13.2663 176.295 17.7035 176.089L25.7676 175.716C26.5102 182.848 28.0383 189.876 30.3242 196.672L23.5128 200.917C19.6005 203.355 18.1216 208.405 20.2107 212.195L27.3257 225.101C29.4111 228.885 34.2655 229.968 38.1668 227.524L44.6118 223.487C48.9068 229.066 53.8451 234.119 59.3243 238.541L55.597 244.945C53.2673 248.949 54.4116 253.848 58.1511 255.887L70.8791 262.825C74.6072 264.856 79.5077 263.262 81.8263 259.266L85.3967 253.113C92.1377 255.496 99.1364 257.075 106.248 257.817L106.024 264.624C105.878 269.09 109.295 272.513 113.653 272.271L128.482 271.446C132.825 271.204 136.461 267.399 136.607 262.945L136.83 256.159C144.07 254.613 151.123 252.287 157.862 249.221L160.995 254.971C163.028 258.701 167.763 259.758 171.569 257.334L184.525 249.085C188.32 246.668 189.756 241.693 187.733 237.968L184.494 232.003C190.144 227.061 195.287 221.567 199.848 215.605L205.864 218.952C209.5 220.974 214.28 219.419 216.543 215.481L224.251 202.069C226.51 198.138 225.404 193.309 221.78 191.281L215.456 187.741C218.078 180.928 220.005 173.867 221.209 166.667L228.974 166.308C233.237 166.11 236.808 162.373 236.953 157.96L237.446 142.917C237.591 138.504 234.255 135.076 229.992 135.261L221.77 135.618C220.862 128.782 219.227 122.063 216.89 115.575L224.416 110.862C228.184 108.501 229.61 103.559 227.602 99.8187L220.752 87.0601C218.741 83.3135 214.049 82.1833 210.27 84.5379L202.351 89.4727C198.248 84.3177 193.588 79.6318 188.457 75.5001L193.334 67.0947C195.607 63.1782 194.494 58.3165 190.846 56.2341L178.394 49.1234C174.735 47.0347 169.917 48.5196 167.633 52.4437L162.621 61.0568C156.39 58.8398 149.936 57.3107 143.374 56.4968L143.697 46.6361C143.843 42.1825 140.446 38.6927 136.106 38.8405L121.287 39.3454C116.932 39.4938 113.281 43.2339 113.134 47.7001L112.81 57.5888C106.033 58.9099 99.4079 60.9163 93.0365 63.5771L88.5133 55.2471C86.4502 51.4472 81.6399 50.2886 77.7675 52.6614L64.5466 60.7638C60.6622 63.1438 59.193 68.161 61.2667 71.9659L65.7115 80.1219C60.1606 84.7153 55.0628 89.8301 50.4879 95.3962L42.6416 91.0041C38.8891 88.9039 33.9493 90.4262 31.6095 94.4078L23.6262 107.991C21.2822 111.98 22.4339 116.912 26.1975 119.007L33.6968 123.178C30.8633 129.905 28.713 136.901 27.2783 144.058L18.7412 144.429C14.3044 144.621 10.5854 148.431 10.4377 152.938ZM44.9471 160.609C46.4321 115.3 83.5562 77.1578 127.622 75.4236C171.421 73.7 205.542 108.638 204.073 153.45C202.605 198.262 166.089 236.376 122.274 238.594C78.1919 240.826 43.4621 205.917 44.9471 160.609V160.609Z" fill="#D8DEE8"/>
<path d="M469.779 5.80764L464.007 0.000244141L456.913 36.2525L412.404 131.823L417.354 137.631L448.108 137.617V271.142C448.108 358.576 380.826 431.287 293.653 438.058L20.1953 456.287L20.6409 460.559L118.76 488.635L329.165 468.36C428.298 459.785 504.404 376.812 504.404 277.31V136.686L532.134 135.085L469.779 5.80764Z" fill="url(#paint0_linear_2200_719)"/>
<path d="M464.007 0.000244141L412.404 131.823L442.676 131.81V265.334C442.676 352.769 376.449 425.48 290.644 432.251L20.1953 456.287L119.332 482.542L325.599 462.552C423.177 453.978 498.089 371.005 498.089 271.502V130.878L525.384 129.278L464.007 0.000244141Z" fill="url(#paint1_linear_2200_719)"/>
<g style="mix-blend-mode:soft-light" opacity="0.3">
<g style="mix-blend-mode:soft-light" opacity="0.3">
<path d="M482.767 278.83C474.749 243.001 455.813 226.244 456.613 182.809C457.241 148.753 469.359 133.151 476.691 105.842C481.655 87.3575 484.45 63.4071 479.726 33.1077L464.007 0L412.404 131.823L442.676 131.81V265.334C442.676 352.769 376.449 425.48 290.644 432.25L20.1953 456.287L119.332 482.542L325.599 462.552C395.809 456.383 454.282 411.694 481.56 350.046C486.845 327.065 488.097 302.651 482.767 278.83Z" fill="#F4F7FA"/>
</g>
</g>
<path d="M133.604 372.871C136.271 371.141 133.841 366.109 133.697 355.301C133.521 342.057 137.038 339.589 134.213 334.393C130.758 328.039 122.062 325.409 116.3 325.285C115.029 325.258 114.732 324.564 104.085 327.321C84.9046 332.289 80.1029 326.964 71.5133 332.283C63.2146 337.422 66.8486 343.051 58.7899 349.078C45.7275 358.847 31.9912 348.285 22.6555 356.457C13.8252 364.187 13.6218 383.88 22.9099 394.628C33.4394 406.811 52.4257 403.151 65.1515 400.735C67.829 400.227 81.3526 397.387 95.4334 386.994C101.713 382.352 107.284 376.824 111.974 370.58C112.772 369.682 114.019 368.593 115.664 368.418C117.638 368.207 119.225 369.415 119.99 369.944C124.004 372.724 130.983 374.57 133.604 372.871Z" fill="url(#paint2_linear_2200_719)"/>
<path d="M122.884 365.612C126.314 362.487 138.556 368.51 146.668 376.504C156.199 385.896 155.467 393.511 163.784 405.179C167.919 410.98 175.008 418.789 187.569 425.629C186.68 427.852 185.79 430.074 184.901 432.297C178.828 432.663 166.905 432.448 155.782 425.185C148.055 420.139 144.079 413.454 136.443 400.289C128.78 387.076 118.596 369.519 122.884 365.612Z" fill="#C40000"/>
<path d="M181.506 432.498C174.149 432.498 164.584 431.05 155.728 425.267C147.824 420.106 143.751 413.084 136.358 400.338C132.468 393.632 128.061 386.033 125.092 379.5C121.624 371.871 120.88 367.305 122.817 365.539C126.417 362.259 138.978 368.789 146.737 376.434C152.149 381.767 154.303 386.627 156.585 391.773C158.393 395.853 160.263 400.071 163.864 405.122C169.651 413.241 177.642 420.111 187.615 425.542L187.692 425.584L184.969 432.392L184.907 432.396C183.84 432.46 182.701 432.498 181.506 432.498ZM122.95 365.685C118.721 369.538 129.012 387.281 136.527 400.237C143.906 412.959 147.971 419.966 155.835 425.102C166.059 431.778 177.235 432.653 184.833 432.203L187.445 425.673C177.481 420.234 169.494 413.359 163.704 405.236C160.092 400.169 158.217 395.941 156.405 391.853C154.131 386.725 151.984 381.881 146.599 376.574C138.127 368.227 126.192 362.732 122.95 365.685Z" fill="#470000"/>
<path d="M200.2 544.247L190.644 538.505H186.331C186.331 538.505 184.862 543.974 185.029 544.247C186.95 547.395 195.897 549.791 201.48 549.989C202.406 550.022 203.7 550.027 204.034 549.355C204.6 548.217 202.072 545.83 200.2 544.247Z" fill="url(#paint3_linear_2200_719)"/>
<path d="M190.474 532.239C189.86 535.794 190.637 537.647 191.474 538.685C192.064 539.416 192.587 539.624 196.086 542.648C197.243 543.648 197.832 544.184 197.698 544.464C197.545 544.785 196.524 544.611 194.319 544.081C189.514 542.926 187.1 542.324 186.51 541.168C185.977 540.121 186.448 539.649 186.417 536.796C186.399 535.324 186.163 533.862 185.715 532.46C187.301 532.386 188.888 532.312 190.474 532.239Z" fill="url(#paint4_linear_2200_719)"/>
<path d="M197.383 504.067C197.383 504.067 201.7 509.219 200.998 514.866C200.295 520.513 192.734 512.257 191.68 509.467C190.626 506.676 189.395 502.701 189.395 502.701C189.395 502.701 194.697 499.402 197.383 504.067Z" fill="url(#paint5_linear_2200_719)"/>
<path d="M195.738 496.007C195.738 496.007 194.567 502.008 196.801 505.176C197.913 506.754 199.414 508.092 198.973 509.376C198.677 510.237 197.554 510.855 196.603 510.757C194.782 510.57 193.772 507.778 193.06 505.809C192.008 502.9 191.422 496.676 191.422 496.676L195.738 496.007Z" fill="url(#paint6_linear_2200_719)"/>
<path d="M192.297 501.066C193.625 500.582 194.953 500.099 196.281 499.615C198.352 494.884 200.88 487.113 200.036 477.668C197.864 453.378 175.399 440.507 172.903 439.129C166.782 442.2 160.582 446.533 160.358 451.994C160.076 458.85 169.416 462.475 178.196 472.5C183.466 478.518 189.097 487.484 192.297 501.066Z" fill="url(#paint7_linear_2200_719)"/>
<path d="M190.863 535.017C195.25 517.88 194.129 503.896 192.864 495.84C190.951 483.664 187.06 458.896 170.524 449.66C166.913 447.643 161.751 445.837 155.459 440.23C151.253 436.461 147.672 432.047 144.85 427.154C122.735 420.667 102.337 423.296 93.3359 435.156C92.2959 436.527 89.692 439.499 89.1884 443.883C88.0517 453.773 97.7693 465.679 108.673 468.166C122.532 471.326 130.571 457.096 142.85 461.83C146.284 463.155 149.196 466.436 155.02 473C160.186 478.804 164.604 485.233 168.169 492.137C172.86 501.318 176.418 508.095 176.937 516.877C177.058 518.923 177.13 523.057 179.527 527.515C181.055 530.303 183.166 532.729 185.715 534.629C187.431 534.759 189.147 534.888 190.863 535.017Z" fill="url(#paint8_linear_2200_719)"/>
<path style="mix-blend-mode:multiply" opacity="0.3" d="M89.1884 443.883C89.692 439.499 92.2959 436.527 93.3359 435.156C102.337 423.296 122.735 420.667 144.85 427.154C147.672 432.047 151.253 436.461 155.459 440.23C161.751 445.837 166.913 447.643 170.524 449.66C180.622 455.3 185.999 466.73 189.096 477.549C184.502 470.426 180.569 468.533 177.526 468.499C173.17 468.45 171.224 472.175 166.023 471.666C160.464 471.123 159.193 466.526 154.686 465.998C153.338 465.84 151.678 466.048 149.685 467.11C147.025 464.324 145.042 462.676 142.85 461.83C130.571 457.096 122.532 471.326 108.673 468.166C97.7693 465.679 88.0517 453.773 89.1884 443.883Z" fill="url(#paint9_linear_2200_719)"/>
<path d="M179.408 457.325C175.738 457.13 172.058 457.214 168.4 457.575C146.334 459.755 140.251 470.67 122.014 473.334C117.7 473.964 98.4912 476.769 90.1715 465.665C84.1987 457.693 85.1023 443.956 91.6354 438.553C94.4003 436.266 97.1377 436.33 114.845 436.49C121.514 436.55 128.182 436.572 134.851 436.657C163.078 437.017 168.476 435.062 173.612 439.731C176.008 441.908 179.512 446.587 179.408 457.325Z" fill="url(#paint10_linear_2200_719)"/>
<path d="M119.817 366.758C119.817 366.758 86.8777 357.151 83.4607 381.266C80.1856 404.379 96.9636 414.985 89.3296 438.396C88.4447 441.11 152.032 428.679 152.032 428.679C143.544 418.09 141.571 409.354 141.368 403.28C141.146 396.62 143.065 393.593 141.368 385.721C141.368 385.721 139.475 376.938 132.643 369.395C131.662 368.312 130.493 367.185 119.817 366.758Z" fill="#C40000"/>
<path d="M90.841 438.867C89.9532 438.867 89.4352 438.783 89.2869 438.616C89.2566 438.583 89.2358 438.542 89.2268 438.498C89.2177 438.454 89.2209 438.408 89.2358 438.366C93.3634 425.708 90.3765 416.919 87.2143 407.615C84.5819 399.87 81.8598 391.86 83.3631 381.252C84.1803 375.484 86.7655 371.159 91.0468 368.396C94.1313 366.405 99.8375 364.185 109.506 364.912C112.994 365.175 116.451 365.76 119.832 366.66C130.692 367.095 131.767 368.282 132.715 369.329C139.487 376.805 141.445 385.612 141.464 385.7C142.52 390.598 142.182 393.614 141.824 396.808C141.607 398.748 141.382 400.753 141.466 403.276C141.745 411.63 145.326 420.156 152.108 428.618L152.21 428.745L152.05 428.776C151.898 428.806 136.654 431.782 121.386 434.473C104.804 437.395 94.5691 438.866 90.841 438.867ZM105.821 364.986C100.84 364.986 95.4137 365.811 91.153 368.561C86.9221 371.292 84.3667 375.571 83.5578 381.28C82.0611 391.842 84.7755 399.828 87.4005 407.552C90.5736 416.888 93.5708 425.706 89.4228 438.427C89.4183 438.437 89.417 438.448 89.4191 438.458C89.4211 438.469 89.4264 438.478 89.4343 438.486C89.8399 438.944 94.5251 439.007 121.352 434.279C135.778 431.737 150.184 428.939 151.853 428.614C145.11 420.16 141.549 411.638 141.27 403.283C141.185 400.746 141.411 398.733 141.629 396.786C141.985 393.609 142.321 390.607 141.272 385.742C141.253 385.654 139.304 376.896 132.57 369.461C131.647 368.442 130.601 367.287 119.812 366.856L119.789 366.852C115.229 365.65 110.536 365.023 105.821 364.986H105.821Z" fill="#470000"/>
<path d="M112.661 352.306C112.963 353.715 114.499 361.28 111.404 363.227C110.733 363.649 109.444 363.89 106.865 364.373C105.177 364.69 103.761 364.884 102.762 365.003C102.906 366.272 103.333 368.336 104.797 370.215C108.901 375.479 117.129 374.117 118.303 373.903C122.441 373.15 126.514 371.871 127.498 371.089C128.995 369.899 130.173 369.006 130.869 368.099C129.268 367.325 126.034 365.284 123.864 364.616C122.377 364.159 120.865 363.788 119.335 363.506C119.108 362.044 118.88 360.583 118.652 359.122C116.655 356.85 114.658 354.578 112.661 352.306Z" fill="url(#paint11_linear_2200_719)"/>
<path d="M112.515 356.076C112.515 356.076 113.074 361.619 118.463 362.596C123.288 363.471 126.92 351.811 124.451 348.795C123.627 347.789 121.594 346.832 119.831 346.883C118.591 346.919 114.404 348.514 113.819 352.704C112.985 351.825 111.946 351.573 111.434 351.941C110.784 352.407 111.132 353.764 111.211 354.072C111.425 354.86 111.881 355.56 112.515 356.076V356.076Z" fill="url(#paint12_linear_2200_719)"/>
<path d="M158.743 431.387L108.329 433.84C107.987 433.857 107.654 433.956 107.359 434.129C107.064 434.302 106.816 434.545 106.635 434.835L105.24 437.074C105.083 437.327 104.997 437.617 104.992 437.914C104.988 438.212 105.064 438.505 105.213 438.762C105.363 439.019 105.579 439.231 105.84 439.374C106.1 439.518 106.395 439.587 106.692 439.576L160.093 437.542L158.743 431.387Z" fill="url(#paint13_linear_2200_719)"/>
<path d="M211.177 403.313L159.093 404.322C158.336 404.337 157.595 404.548 156.944 404.936C156.293 405.323 155.754 405.873 155.38 406.531L137.344 438.264L192.35 436.072C193.094 436.043 193.818 435.828 194.457 435.449C195.097 435.069 195.632 434.536 196.014 433.898L212.724 405.981C212.886 405.711 212.972 405.403 212.974 405.088C212.977 404.773 212.894 404.464 212.737 404.191C212.579 403.919 212.351 403.694 212.077 403.539C211.802 403.385 211.492 403.307 211.177 403.313Z" fill="url(#paint14_linear_2200_719)"/>
<path style="mix-blend-mode:multiply" opacity="0.3" d="M155.379 406.532C155.754 405.873 156.293 405.323 156.944 404.935C157.595 404.548 158.336 404.337 159.093 404.322L160.235 404.3C160.405 405.981 160.921 407.519 161.95 408.761C165.161 412.637 170.497 410.246 174.474 414.349C178.843 418.855 174.807 424.22 178.713 428.414C182.824 432.829 189.472 429.234 197.114 432.059L196.014 433.898C195.632 434.536 195.097 435.069 194.457 435.449C193.818 435.828 193.094 436.043 192.35 436.072L137.344 438.264L155.379 406.532Z" fill="url(#paint15_linear_2200_719)"/>
<path d="M112.437 429.702C113.093 427.97 113.749 426.237 114.405 424.504C107.153 422.515 97.123 419.578 86.8351 415.902C85.2239 415.326 83.3098 414.613 82.6827 412.917C80.9235 408.161 92.107 403.233 96.4546 392.848C100.475 383.244 98.2623 369.915 93.596 368.34C83.8858 365.064 49.4519 407.926 61.7501 425.994C68.7019 436.208 90.1347 437.834 112.437 429.702Z" fill="#C40000"/>
<path d="M85.3405 434.97C83.9722 434.97 82.6353 434.922 81.3299 434.826C72.0355 434.138 65.0531 431.022 61.669 426.049C58.4735 421.355 58.1887 414.494 60.8454 406.208C63.0803 399.238 67.3383 391.411 72.8352 384.17C80.9969 373.418 89.5474 366.87 93.6275 368.247C94.8648 368.665 95.9798 369.906 96.852 371.836C98.9925 376.572 99.6124 385.56 96.5455 392.886C94.4063 397.995 90.5939 401.813 87.5305 404.88C84.3849 408.03 81.9003 410.518 82.775 412.883C83.3987 414.569 85.4041 415.286 86.8684 415.809C95.1869 418.781 104.46 421.675 114.432 424.409L114.536 424.438L112.513 429.779L112.471 429.795C103.2 433.175 93.7238 434.97 85.3405 434.97ZM92.4623 368.265C88.1617 368.265 80.2969 374.666 72.9919 384.289C67.5082 391.513 63.261 399.318 61.0327 406.268C58.3952 414.494 58.6715 421.296 61.8317 425.939C65.1813 430.86 72.111 433.947 81.3444 434.63C90.6031 435.316 101.615 433.538 112.361 429.625L114.275 424.57C104.339 421.843 95.0964 418.958 86.8021 415.994C85.3014 415.458 83.2461 414.723 82.5906 412.951C81.6721 410.468 84.196 407.941 87.3913 404.741C90.4425 401.686 94.2398 397.884 96.364 392.81C99.4096 385.535 98.7961 376.615 96.6728 371.917C95.8237 370.038 94.7489 368.833 93.5647 368.433C93.2088 368.318 92.8365 368.261 92.4623 368.265V368.265Z" fill="#470000"/>
<path d="M114.406 424.504C118.959 422.085 124.409 424.564 124.76 424.73C126.227 425.427 127.557 426.381 128.687 427.546C128.854 427.773 130.829 430.51 130.109 431.387C129.532 432.089 127.299 431.507 124.615 429.837C123.022 429.613 121.409 429.573 119.808 429.72C116.123 430.059 114.435 431.224 113.097 430.219C112.118 429.483 111.784 427.928 112.136 426.772C112.515 425.529 113.635 424.913 114.406 424.504Z" fill="url(#paint16_linear_2200_719)"/>
<path d="M371.589 126.786C371.589 159.153 346.281 184.614 313.933 183.62C280.269 182.587 251.957 153.513 251.957 118.721C251.957 83.9291 280.269 58.6728 313.933 62.1782C346.281 65.5463 371.589 94.4198 371.589 126.786Z" fill="url(#paint17_linear_2200_719)"/>
<path d="M380.328 123.995C380.328 156.362 355.019 181.823 322.672 180.83C289.008 179.796 260.695 150.722 260.695 115.93C260.695 81.1383 289.008 55.8821 322.672 59.3874C355.019 62.7556 380.328 91.6291 380.328 123.995Z" fill="url(#paint18_linear_2200_719)"/>
<path d="M377.79 123.824C377.79 154.765 353.575 179.064 322.673 178.063C290.573 177.024 263.621 149.278 263.621 116.127C263.621 82.9769 290.573 58.8646 322.673 62.1534C353.575 65.3193 377.79 92.8831 377.79 123.824Z" fill="url(#paint19_linear_2200_719)"/>
<path style="mix-blend-mode:multiply" opacity="0.3" d="M313.028 131.029C314.829 113.243 331.174 105.714 329.041 89.3541C327.727 79.2708 320.084 70.7731 311.559 64.1382C285.699 66.8501 265.703 88.2623 265.703 116.268C265.703 148.249 291.687 175.048 322.673 176.088C325.614 176.186 328.559 176.042 331.477 175.658C319.171 163.413 311.481 146.309 313.028 131.029Z" fill="url(#paint20_linear_2200_719)"/>
<mask id="mask0_2200_719" style="mask-type:alpha" maskUnits="userSpaceOnUse" x="266" y="64" width="110" height="112">
<path opacity="0.53" d="M375.113 123.644C375.113 153.098 352.046 176.201 322.645 175.214C292.142 174.19 266.562 147.809 266.562 116.326C266.562 84.8425 292.142 61.9105 322.645 64.9992C352.046 67.9764 375.113 94.1896 375.113 123.644Z" fill="white"/>
</mask>
<g mask="url(#mask0_2200_719)">
<path d="M322.364 127.328C331.469 126.096 337.157 112.591 335.45 99.9803C333.743 87.3698 325.288 80.4295 316.183 81.662C307.078 82.8944 300.772 91.8331 302.479 104.443C304.186 117.054 313.259 128.561 322.364 127.328Z" fill="white"/>
<path d="M322.957 131.714C300.311 134.78 284.438 155.623 287.504 178.268L287.764 180.191L369.771 169.09L369.511 167.167C366.445 144.522 345.602 128.649 322.957 131.714Z" fill="white"/>
</g>
<path d="M316.144 420.772C329.495 420.772 340.318 418.419 340.318 415.515C340.318 412.612 329.495 410.259 316.144 410.259C302.792 410.259 291.969 412.612 291.969 415.515C291.969 418.419 302.792 420.772 316.144 420.772Z" fill="url(#paint21_linear_2200_719)"/>
<path d="M357.932 349.32L340.319 415.515H291.969L274.355 349.32H357.932Z" fill="url(#paint22_linear_2200_719)"/>
<path d="M316.142 212.135C390.901 212.135 451.506 204.746 451.506 195.631C451.506 186.517 390.901 179.127 316.142 179.127C241.382 179.127 180.777 186.517 180.777 195.631C180.777 204.746 241.382 212.135 316.142 212.135Z" fill="url(#paint23_linear_2200_719)"/>
<path d="M180.779 206.278L451.508 206.278V195.631L180.779 195.631V206.278Z" fill="url(#paint24_linear_2200_719)"/>
<path d="M316.142 221.935C390.901 221.935 451.506 214.546 451.506 205.431C451.506 196.316 390.901 188.927 316.142 188.927C241.382 188.927 180.777 196.316 180.777 205.431C180.777 214.546 241.382 221.935 316.142 221.935Z" fill="url(#paint25_linear_2200_719)"/>
<path d="M316.144 354.415C339.223 354.415 357.932 352.134 357.932 349.32C357.932 346.506 339.223 344.225 316.144 344.225C293.065 344.225 274.355 346.506 274.355 349.32C274.355 352.134 293.065 354.415 316.144 354.415Z" fill="url(#paint26_linear_2200_719)"/>
<path d="M451.506 205.431L357.93 349.32H274.353L180.777 205.431H451.506Z" fill="url(#paint27_linear_2200_719)"/>
<g style="mix-blend-mode:multiply" opacity="0.3">
<path style="mix-blend-mode:multiply" opacity="0.3" d="M318.507 312.327C331.403 293.057 318.285 280.857 331.844 259.532C354.569 223.79 410.246 228.448 417.134 203.287C417.8 200.853 418.064 197.937 417.391 194.476C438.616 197.39 451.508 201.227 451.508 205.431C451.508 206.325 450.922 207.203 449.799 208.058L357.932 349.32C357.932 352.134 339.223 354.415 316.144 354.415C293.064 354.415 274.355 352.134 274.355 349.32L269.078 341.206C290.106 335.975 308.594 327.139 318.507 312.327Z" fill="url(#paint28_linear_2200_719)"/>
</g>
<path d="M232.406 168.782C232.406 196.882 210.433 218.987 182.35 218.125C153.123 217.227 128.543 191.986 128.543 161.78C128.543 131.574 153.123 109.647 182.35 112.691C210.433 115.615 232.406 140.682 232.406 168.782Z" fill="url(#paint29_linear_2200_719)"/>
<path d="M239.992 166.359C239.992 194.459 218.019 216.564 189.936 215.702C160.709 214.804 136.129 189.563 136.129 159.357C136.129 129.151 160.709 107.224 189.936 110.267C218.019 113.192 239.992 138.259 239.992 166.359Z" fill="url(#paint30_linear_2200_719)"/>
<path d="M237.788 166.211C237.788 193.073 216.764 214.169 189.936 213.3C162.067 212.398 138.668 188.309 138.668 159.528C138.668 130.748 162.067 109.814 189.936 112.669C216.764 115.418 237.788 139.348 237.788 166.211Z" fill="url(#paint31_linear_2200_719)"/>
<path style="mix-blend-mode:multiply" opacity="0.3" d="M181.563 172.465C183.127 157.024 197.318 150.488 195.466 136.284C194.324 127.53 187.689 120.152 180.287 114.392C157.837 116.747 140.477 135.336 140.477 159.65C140.477 187.416 163.036 210.682 189.937 211.585C192.491 211.67 195.047 211.545 197.58 211.212C186.897 200.581 180.22 185.731 181.563 172.465Z" fill="url(#paint32_linear_2200_719)"/>
<mask id="mask1_2200_719" style="mask-type:alpha" maskUnits="userSpaceOnUse" x="141" y="114" width="95" height="97">
<path opacity="0.53" d="M235.465 166.053C235.465 191.625 215.439 211.683 189.913 210.826C163.43 209.937 141.223 187.033 141.223 159.7C141.223 132.367 163.43 112.458 189.913 115.139C215.439 117.724 235.465 140.482 235.465 166.053Z" fill="white"/>
</mask>
<g mask="url(#mask1_2200_719)">
<path d="M189.667 169.253C197.572 168.183 202.51 156.458 201.028 145.51C199.546 134.562 192.205 128.536 184.3 129.606C176.396 130.676 170.921 138.436 172.403 149.385C173.885 160.333 181.762 170.323 189.667 169.253Z" fill="white"/>
<path d="M190.183 173.061C180.741 174.339 172.194 179.315 166.422 186.895C160.65 194.475 158.125 204.037 159.403 213.478L159.629 215.148L230.826 205.51L230.6 203.841C229.967 199.166 228.42 194.661 226.046 190.584C223.672 186.508 220.519 182.938 216.766 180.08C213.013 177.222 208.733 175.131 204.172 173.927C199.611 172.722 194.857 172.428 190.183 173.061V173.061Z" fill="white"/>
</g>
<path d="M189.327 267.671C189.327 289.529 172.235 306.724 150.39 306.053C127.656 305.355 108.535 285.72 108.535 262.224C108.535 238.728 127.656 221.672 150.39 224.039C172.235 226.314 189.327 245.813 189.327 267.671Z" fill="url(#paint33_linear_2200_719)"/>
<path d="M195.233 265.786C195.233 287.644 178.141 304.839 156.296 304.168C133.562 303.47 114.441 283.836 114.441 260.339C114.441 236.843 133.562 219.787 156.296 222.154C178.141 224.429 195.233 243.928 195.233 265.786Z" fill="url(#paint34_linear_2200_719)"/>
<path d="M193.516 265.671C193.516 286.566 177.163 302.976 156.294 302.3C134.615 301.598 116.414 282.86 116.414 260.473C116.414 238.085 134.615 221.801 156.294 224.022C177.163 226.16 193.516 244.775 193.516 265.671Z" fill="url(#paint35_linear_2200_719)"/>
<path style="mix-blend-mode:multiply" opacity="0.3" d="M149.78 270.536C150.997 258.525 162.035 253.44 160.595 242.392C159.707 235.582 154.546 229.843 148.788 225.363C131.324 227.194 117.82 241.654 117.82 260.567C117.82 282.166 135.368 300.263 156.294 300.966C158.28 301.032 160.269 300.935 162.239 300.676C153.929 292.406 148.736 280.855 149.78 270.536Z" fill="url(#paint36_linear_2200_719)"/>
<mask id="mask2_2200_719" style="mask-type:alpha" maskUnits="userSpaceOnUse" x="118" y="225" width="74" height="76">
<path opacity="0.53" d="M191.71 265.549C191.71 285.44 176.133 301.042 156.277 300.376C135.677 299.684 118.402 281.868 118.402 260.607C118.402 239.345 135.677 223.858 156.277 225.944C176.133 227.955 191.71 245.657 191.71 265.549Z" fill="white"/>
</mask>
<g mask="url(#mask2_2200_719)">
<path d="M156.087 268.037C162.236 267.205 166.077 258.084 164.924 249.568C163.771 241.052 158.061 236.365 151.912 237.197C145.763 238.029 141.505 244.066 142.657 252.582C143.81 261.098 149.938 268.87 156.087 268.037Z" fill="white"/>
<path d="M156.488 270.999C149.144 271.994 142.496 275.864 138.006 281.76C133.516 287.656 131.552 295.095 132.546 302.439L132.721 303.737L188.103 296.241L187.927 294.942C187.435 291.305 186.232 287.802 184.385 284.63C182.539 281.459 180.086 278.683 177.166 276.459C174.247 274.236 170.918 272.61 167.37 271.673C163.822 270.736 160.125 270.507 156.488 270.999Z" fill="white"/>
</g>
<path d="M235.933 347.391C235.933 366.263 221.177 381.109 202.316 380.53C182.688 379.927 166.18 362.975 166.18 342.689C166.18 322.403 182.688 307.677 202.316 309.721C221.177 311.685 235.933 328.52 235.933 347.391Z" fill="url(#paint37_linear_2200_719)"/>
<path d="M241.027 345.764C241.027 364.636 226.27 379.482 207.41 378.902C187.782 378.3 171.273 361.348 171.273 341.062C171.273 320.776 187.782 306.05 207.41 308.093C226.27 310.057 241.027 326.893 241.027 345.764Z" fill="url(#paint38_linear_2200_719)"/>
<path d="M239.549 345.664C239.549 363.705 225.429 377.873 207.412 377.29C188.695 376.684 172.98 360.506 172.98 341.177C172.98 321.848 188.695 307.789 207.412 309.706C225.429 311.552 239.549 327.624 239.549 345.664Z" fill="url(#paint39_linear_2200_719)"/>
<path style="mix-blend-mode:multiply" opacity="0.3" d="M201.789 349.865C202.839 339.495 212.369 335.105 211.126 325.566C210.359 319.687 205.903 314.732 200.932 310.864C185.854 312.445 174.195 324.929 174.195 341.259C174.195 359.906 189.346 375.531 207.413 376.138C209.128 376.195 210.844 376.111 212.546 375.887C205.371 368.747 200.887 358.774 201.789 349.865Z" fill="url(#paint40_linear_2200_719)"/>
<mask id="mask3_2200_719" style="mask-type:alpha" maskUnits="userSpaceOnUse" x="174" y="311" width="64" height="65">
<path opacity="0.53" d="M237.988 345.559C237.988 362.733 224.538 376.203 207.395 375.628C189.61 375.031 174.695 359.649 174.695 341.292C174.695 322.935 189.61 309.565 207.395 311.365C224.538 313.101 237.988 328.385 237.988 345.559Z" fill="white"/>
</mask>
<g mask="url(#mask3_2200_719)">
<path d="M207.23 347.708C212.539 346.989 215.856 339.115 214.86 331.762C213.865 324.409 208.935 320.363 203.626 321.081C198.317 321.8 194.64 327.012 195.636 334.364C196.631 341.717 201.922 348.426 207.23 347.708Z" fill="white"/>
<path d="M207.577 350.265C201.236 351.123 195.496 354.465 191.62 359.556C187.743 364.646 186.047 371.068 186.906 377.409L187.057 378.53L234.873 372.058L234.721 370.937C234.296 367.797 233.257 364.772 231.663 362.034C230.069 359.296 227.951 356.899 225.43 354.979C222.91 353.06 220.036 351.655 216.972 350.847C213.909 350.038 210.717 349.84 207.577 350.265V350.265Z" fill="white"/>
</g>
<path d="M347.855 458.407C347.855 473.404 336.128 485.202 321.139 484.742C305.541 484.263 292.422 470.791 292.422 454.67C292.422 438.549 305.541 426.846 321.139 428.47C336.128 430.031 347.855 443.409 347.855 458.407Z" fill="url(#paint41_linear_2200_719)"/>
<path d="M351.906 457.114C351.906 472.111 340.179 483.909 325.19 483.449C309.592 482.97 296.473 469.498 296.473 453.377C296.473 437.255 309.592 425.552 325.19 427.177C340.179 428.737 351.906 442.116 351.906 457.114Z" fill="url(#paint42_linear_2200_719)"/>
<path d="M350.73 457.034C350.73 471.371 339.509 482.63 325.191 482.167C310.317 481.685 297.828 468.829 297.828 453.468C297.828 438.107 310.317 426.934 325.191 428.458C339.509 429.925 350.73 442.697 350.73 457.034Z" fill="url(#paint43_linear_2200_719)"/>
<path d="M349.887 456.978C349.887 470.842 339.03 481.716 325.191 481.251C310.833 480.769 298.793 468.352 298.793 453.533C298.793 438.714 310.833 427.92 325.191 429.374C339.03 430.775 349.887 443.114 349.887 456.978Z" fill="url(#paint44_linear_2200_719)"/>
<path d="M325.051 434.09C325.415 434.133 325.751 434.307 325.997 434.58C326.242 434.852 326.379 435.205 326.384 435.571V438.124C327.872 438.291 329.35 438.547 330.808 438.891C331.897 439.147 332.978 439.452 334.052 439.805C334.368 439.91 334.64 440.118 334.825 440.396C335.009 440.673 335.095 441.005 335.069 441.337L334.756 444.538C334.741 444.732 334.68 444.921 334.576 445.086C334.473 445.252 334.331 445.389 334.162 445.487C333.993 445.585 333.803 445.641 333.608 445.649C333.413 445.657 333.219 445.617 333.043 445.533C332.335 445.217 331.608 444.947 330.866 444.722C329.528 444.322 328.152 444.065 326.76 443.955L326.384 443.924V451.234C330.225 452.309 333.047 453.755 334.87 455.574C336.685 457.384 337.591 459.642 337.589 462.348C337.589 465.276 336.587 467.624 334.582 469.39C332.565 471.168 329.73 472.166 326.078 472.384V475.202C326.08 475.376 326.048 475.549 325.981 475.711C325.915 475.872 325.816 476.018 325.691 476.14C325.566 476.262 325.418 476.357 325.255 476.419C325.092 476.482 324.918 476.51 324.744 476.503L324.72 476.502C324.359 476.483 324.019 476.325 323.77 476.062C323.521 475.8 323.382 475.452 323.382 475.09V472.311L322.788 472.284C321.137 472.213 319.491 472.038 317.861 471.758C316.713 471.56 315.576 471.298 314.456 470.975C314.131 470.884 313.847 470.684 313.652 470.407C313.458 470.131 313.364 469.796 313.388 469.458L313.757 465.344C313.776 465.138 313.843 464.94 313.954 464.766C314.064 464.592 314.214 464.446 314.392 464.341C314.569 464.236 314.77 464.175 314.975 464.163C315.181 464.151 315.387 464.187 315.576 464.27C316.554 464.657 317.554 464.985 318.571 465.253C320.138 465.667 321.741 465.935 323.358 466.053L323.382 457.921C319.694 457.009 316.94 455.658 315.12 453.867C313.297 452.069 312.385 449.769 312.383 446.968C312.383 444.072 313.372 441.838 315.35 440.267C317.315 438.706 320.109 437.93 323.714 437.932V435.322C323.709 435.15 323.741 434.979 323.808 434.82C323.875 434.661 323.976 434.518 324.102 434.402C324.229 434.285 324.379 434.197 324.543 434.143C324.707 434.089 324.88 434.071 325.051 434.09V434.09ZM323.714 443.848C322.574 443.931 321.686 444.244 321.05 444.788C320.735 445.057 320.485 445.395 320.319 445.775C320.154 446.155 320.076 446.568 320.093 446.982C320.083 447.387 320.156 447.789 320.308 448.165C320.461 448.54 320.688 448.88 320.978 449.163C321.566 449.746 322.478 450.211 323.714 450.559V443.848ZM326.078 458.573V466.03C327.316 466.033 328.267 465.737 328.93 465.144C329.592 464.551 329.923 463.715 329.922 462.633C329.952 461.725 329.62 460.843 329 460.179C328.384 459.528 327.41 458.992 326.078 458.573V458.573Z" fill="url(#paint45_linear_2200_719)"/>
<path style="mix-blend-mode:multiply" opacity="0.3" d="M320.722 460.373C321.556 452.131 329.13 448.643 328.142 441.062C327.532 436.39 323.991 432.452 320.041 429.378C308.058 430.635 298.793 440.556 298.793 453.533C298.793 468.352 310.833 480.769 325.191 481.251C326.554 481.297 327.918 481.23 329.27 481.052C323.568 475.378 320.005 467.453 320.722 460.373Z" fill="url(#paint46_linear_2200_719)"/>
<path d="M453.112 447.252C453.112 473.625 432.49 494.371 406.133 493.562C378.702 492.719 355.633 469.029 355.633 440.68C355.633 412.331 378.702 391.751 406.133 394.608C432.49 397.352 453.112 420.879 453.112 447.252Z" fill="url(#paint47_linear_2200_719)"/>
<path d="M460.233 444.978C460.233 471.351 439.611 492.097 413.254 491.287C385.824 490.445 362.754 466.755 362.754 438.406C362.754 410.056 385.824 389.477 413.254 392.333C439.611 395.078 460.233 418.605 460.233 444.978Z" fill="url(#paint48_linear_2200_719)"/>
<path d="M458.165 444.838C458.165 470.05 438.433 489.849 413.254 489.034C387.098 488.187 365.137 465.578 365.137 438.567C365.137 411.555 387.098 391.908 413.254 394.587C438.433 397.167 458.165 419.627 458.165 444.838Z" fill="url(#paint49_linear_2200_719)"/>
<path d="M456.681 444.738C456.681 469.118 437.589 488.241 413.252 487.424C388.004 486.576 366.832 464.74 366.832 438.681C366.832 412.622 388.004 393.64 413.252 396.197C437.589 398.661 456.681 420.358 456.681 444.738Z" fill="url(#paint50_linear_2200_719)"/>
<path d="M413.004 404.491C413.644 404.567 414.235 404.872 414.666 405.352C415.097 405.831 415.339 406.451 415.347 407.095V411.584C417.965 411.878 420.563 412.329 423.127 412.934C425.041 413.384 426.943 413.919 428.832 414.54C429.388 414.725 429.866 415.091 430.19 415.579C430.514 416.067 430.666 416.65 430.62 417.234L430.069 422.863C430.044 423.205 429.936 423.536 429.754 423.827C429.572 424.118 429.322 424.36 429.025 424.533C428.728 424.705 428.394 424.803 428.051 424.817C427.708 424.831 427.367 424.761 427.057 424.613C425.812 424.058 424.534 423.582 423.229 423.187C420.877 422.484 418.457 422.031 416.009 421.838L415.347 421.784V434.639C422.103 436.529 427.064 439.072 430.27 442.27C433.461 445.453 435.055 449.423 435.051 454.182C435.051 459.332 433.289 463.459 429.764 466.565C426.216 469.692 421.231 471.447 414.809 471.831V476.785C414.814 477.092 414.756 477.397 414.639 477.681C414.523 477.964 414.349 478.221 414.13 478.436C413.91 478.65 413.649 478.817 413.363 478.927C413.076 479.037 412.77 479.087 412.464 479.075L412.422 479.073C411.787 479.038 411.189 478.761 410.751 478.299C410.313 477.837 410.069 477.225 410.069 476.589V471.701L409.025 471.654C406.12 471.53 403.226 471.222 400.36 470.731C398.341 470.381 396.342 469.921 394.373 469.354C393.801 469.193 393.301 468.84 392.959 468.354C392.617 467.868 392.453 467.279 392.495 466.686L393.143 459.45C393.284 457.886 394.855 456.976 396.342 457.563C398.062 458.242 399.82 458.819 401.608 459.291C404.365 460.019 407.183 460.49 410.027 460.698L410.069 446.398C403.584 444.794 398.741 442.417 395.539 439.269C392.335 436.106 390.73 432.062 390.727 427.137C390.727 422.044 392.466 418.116 395.944 415.354C399.4 412.608 404.314 411.243 410.653 411.246V406.657C410.644 406.354 410.701 406.053 410.818 405.774C410.936 405.495 411.112 405.244 411.335 405.039C411.558 404.834 411.822 404.678 412.11 404.584C412.398 404.489 412.703 404.458 413.004 404.491V404.491ZM410.653 421.651C408.648 421.797 407.087 422.347 405.967 423.303C404.847 424.26 404.286 425.546 404.286 427.161C404.267 427.873 404.396 428.581 404.664 429.241C404.931 429.901 405.332 430.498 405.841 430.996C406.876 432.021 408.48 432.839 410.653 433.451V421.651ZM414.809 447.544V460.657C416.987 460.662 418.659 460.142 419.824 459.098C420.988 458.057 421.57 456.586 421.57 454.684C421.57 452.95 421.029 451.512 419.948 450.368C418.864 449.223 417.151 448.282 414.809 447.544V447.544Z" fill="url(#paint51_linear_2200_719)"/>
<path style="mix-blend-mode:multiply" opacity="0.3" d="M405.394 450.708C406.861 436.216 420.18 430.081 418.442 416.751C417.37 408.535 411.143 401.611 404.196 396.204C383.125 398.414 366.832 415.861 366.832 438.681C366.832 464.74 388.005 486.576 413.252 487.424C415.649 487.503 418.048 487.386 420.426 487.073C410.399 477.096 404.133 463.159 405.394 450.708Z" fill="url(#paint52_linear_2200_719)"/>
<path d="M522.186 344.953C522.186 383.189 492.287 413.268 454.073 412.095C414.303 410.874 380.855 376.527 380.855 335.425C380.855 294.322 414.303 264.485 454.073 268.627C492.287 272.606 522.186 306.716 522.186 344.953Z" fill="url(#paint53_linear_2200_719)"/>
<path d="M532.51 341.656C532.51 379.893 502.611 409.972 464.397 408.798C424.627 407.577 391.18 373.23 391.18 332.128C391.18 291.026 424.627 261.189 464.397 265.33C502.611 269.309 532.51 303.419 532.51 341.656Z" fill="url(#paint54_linear_2200_719)"/>
<path d="M529.509 341.453C529.509 378.006 500.901 406.712 464.396 405.53C426.473 404.302 394.633 371.523 394.633 332.36C394.633 293.198 426.473 264.712 464.396 268.597C500.901 272.337 529.509 304.9 529.509 341.453Z" fill="url(#paint55_linear_2200_719)"/>
<path d="M527.362 341.309C527.362 376.656 499.68 404.381 464.396 403.196C427.791 401.967 397.094 370.308 397.094 332.527C397.094 294.745 427.791 267.225 464.396 270.931C499.68 274.504 527.362 305.962 527.362 341.309Z" fill="url(#paint56_linear_2200_719)"/>
<path d="M464.037 282.957C464.965 283.066 465.822 283.509 466.447 284.204C467.072 284.899 467.423 285.798 467.435 286.732V293.24C471.23 293.667 474.996 294.32 478.714 295.197C481.49 295.849 484.247 296.626 486.986 297.526C487.792 297.795 488.485 298.325 488.955 299.033C489.425 299.74 489.644 300.585 489.578 301.432L488.779 309.593C488.742 310.089 488.586 310.569 488.322 310.991C488.058 311.413 487.695 311.764 487.265 312.014C486.835 312.264 486.35 312.406 485.853 312.426C485.355 312.446 484.861 312.345 484.412 312.131C482.607 311.326 480.753 310.635 478.862 310.063C475.452 309.043 471.943 308.387 468.394 308.107L467.435 308.028V326.666C477.229 329.407 484.422 333.093 489.071 337.73C493.697 342.345 496.008 348.101 496.002 355C496.002 362.467 493.447 368.452 488.337 372.955C483.193 377.488 475.965 380.033 466.654 380.589V387.772C466.661 388.217 466.578 388.659 466.408 389.07C466.239 389.482 465.988 389.854 465.669 390.165C465.351 390.475 464.972 390.718 464.557 390.877C464.142 391.037 463.698 391.109 463.254 391.091L463.193 391.089C462.272 391.038 461.405 390.637 460.771 389.967C460.136 389.297 459.782 388.41 459.781 387.487V380.401L458.268 380.333C454.056 380.153 449.861 379.706 445.706 378.994C442.778 378.487 439.88 377.82 437.025 376.997C436.195 376.765 435.471 376.253 434.975 375.549C434.479 374.844 434.241 373.989 434.302 373.13L435.243 362.639C435.446 360.371 437.724 359.052 439.88 359.902C442.374 360.887 444.923 361.724 447.515 362.409C451.512 363.464 455.598 364.147 459.721 364.448L459.781 343.715C450.379 341.389 443.358 337.944 438.716 333.379C434.07 328.793 431.744 322.93 431.738 315.79C431.738 308.405 434.26 302.711 439.303 298.705C444.314 294.725 451.438 292.745 460.628 292.75V286.097C460.628 284.183 462.156 282.778 464.037 282.957ZM460.628 307.835C457.722 308.047 455.458 308.845 453.835 310.23C452.21 311.618 451.398 313.483 451.397 315.825C451.397 318.043 452.149 319.896 453.652 321.385C455.152 322.871 457.478 324.057 460.628 324.944V307.835ZM466.654 345.377V364.389C469.812 364.395 472.236 363.642 473.926 362.129C475.613 360.619 476.457 358.486 476.456 355.729C476.456 353.215 475.672 351.129 474.104 349.472C472.533 347.811 470.05 346.446 466.654 345.377Z" fill="url(#paint57_linear_2200_719)"/>
<path style="mix-blend-mode:multiply" opacity="0.3" d="M453.002 349.965C455.129 328.953 474.44 320.058 471.92 300.731C470.366 288.819 461.338 278.78 451.266 270.942C420.717 274.146 397.094 299.441 397.094 332.526C397.094 370.308 427.791 401.967 464.396 403.196C467.871 403.312 471.35 403.142 474.797 402.688C460.259 388.222 451.174 368.016 453.002 349.965Z" fill="url(#paint58_linear_2200_719)"/>
<path d="M108.465 390.6L107.928 395.542L106.725 395.411L107.046 392.448L105.619 395.291L104.648 395.186L103.858 392.095L103.536 395.065L102.332 394.935L102.868 389.993L104.29 390.147L105.306 393.719L107.05 390.447L108.465 390.6Z" fill="white"/>
<path d="M110.412 390.7L110.263 393.67C110.234 393.918 110.3 394.167 110.448 394.367C110.528 394.455 110.625 394.525 110.734 394.572C110.843 394.619 110.961 394.642 111.08 394.64C111.198 394.654 111.319 394.642 111.433 394.607C111.547 394.571 111.653 394.511 111.742 394.432C111.913 394.249 112.007 394.007 112.003 393.757L112.151 390.787L113.361 390.848L113.212 393.811C113.205 394.205 113.088 394.59 112.873 394.921C112.677 395.212 112.401 395.439 112.078 395.576C111.738 395.718 111.37 395.78 111.002 395.756C110.639 395.744 110.283 395.648 109.964 395.474C109.663 395.306 109.421 395.052 109.267 394.744C109.095 394.389 109.022 393.995 109.054 393.603L109.202 390.64L110.412 390.7Z" fill="white"/>
<path d="M114.952 395.699C114.678 395.593 114.438 395.413 114.26 395.178C114.083 394.936 113.986 394.644 113.984 394.343L115.273 394.339C115.281 394.498 115.35 394.649 115.466 394.759C115.584 394.859 115.736 394.91 115.891 394.903C116.043 394.911 116.193 394.866 116.316 394.777C116.367 394.736 116.407 394.684 116.434 394.624C116.461 394.564 116.473 394.499 116.47 394.433C116.472 394.377 116.461 394.32 116.44 394.268C116.418 394.216 116.386 394.168 116.345 394.129C116.256 394.045 116.153 393.979 116.04 393.932C115.872 393.864 115.7 393.806 115.526 393.757C115.256 393.679 114.993 393.58 114.739 393.463C114.531 393.361 114.351 393.211 114.213 393.026C114.058 392.805 113.979 392.539 113.991 392.269C113.981 392.061 114.021 391.853 114.108 391.664C114.194 391.474 114.325 391.308 114.49 391.18C114.868 390.903 115.329 390.762 115.798 390.782C116.271 390.758 116.738 390.894 117.124 391.17C117.29 391.3 117.425 391.465 117.519 391.654C117.613 391.843 117.663 392.051 117.666 392.262L116.356 392.267C116.354 392.195 116.338 392.124 116.307 392.059C116.276 391.994 116.232 391.936 116.177 391.889C116.059 391.794 115.911 391.746 115.759 391.752C115.631 391.747 115.505 391.789 115.406 391.87C115.36 391.913 115.324 391.966 115.301 392.024C115.278 392.082 115.268 392.145 115.272 392.207C115.272 392.285 115.293 392.361 115.333 392.427C115.373 392.493 115.431 392.547 115.5 392.582C115.726 392.702 115.964 392.798 116.209 392.869C116.477 392.955 116.739 393.059 116.993 393.178C117.198 393.28 117.376 393.427 117.515 393.608C117.669 393.819 117.748 394.076 117.737 394.337C117.741 394.609 117.667 394.877 117.524 395.109C117.372 395.349 117.156 395.541 116.9 395.664C116.597 395.808 116.265 395.88 115.93 395.873C115.596 395.879 115.264 395.821 114.952 395.699Z" fill="white"/>
<path d="M118.536 391.996C118.714 391.604 118.999 391.271 119.358 391.035C119.737 390.789 120.173 390.646 120.624 390.621C121.164 390.568 121.707 390.694 122.169 390.979C122.612 391.262 122.941 391.69 123.1 392.19L121.773 392.285C121.669 392.095 121.511 391.941 121.319 391.842C121.123 391.746 120.906 391.705 120.689 391.724C120.518 391.73 120.352 391.774 120.2 391.853C120.049 391.931 119.916 392.042 119.813 392.177C119.61 392.493 119.514 392.866 119.541 393.24C119.568 393.615 119.715 393.97 119.961 394.254C120.083 394.373 120.23 394.464 120.391 394.52C120.552 394.576 120.724 394.596 120.893 394.578C121.111 394.566 121.32 394.494 121.5 394.371C121.676 394.246 121.811 394.07 121.886 393.867L123.214 393.772C123.128 394.289 122.862 394.76 122.464 395.1C122.047 395.447 121.528 395.647 120.986 395.671C120.536 395.711 120.084 395.632 119.674 395.442C119.285 395.26 118.956 394.973 118.724 394.612C118.486 394.223 118.345 393.782 118.312 393.327C118.279 392.871 118.356 392.415 118.536 391.996V391.996Z" fill="white"/>
<path d="M125.367 394.218L126.936 393.982L127.075 394.906L124.309 395.322L123.57 390.406L124.768 390.226L125.367 394.218Z" fill="white"/>
<path d="M128.155 390.58L128.385 391.559L129.964 391.187L130.178 392.097L128.6 392.469L128.85 393.53L130.635 393.11L130.857 394.054L127.893 394.752L126.754 389.914L129.718 389.216L129.94 390.16L128.155 390.58Z" fill="white"/>
<path d="M133.371 388.232C133.798 388.278 134.203 388.447 134.536 388.717C134.878 389.013 135.143 389.388 135.306 389.81C135.47 390.232 135.529 390.687 135.476 391.136C135.414 391.563 135.229 391.962 134.943 392.285C134.625 392.639 134.225 392.909 133.779 393.072L132.043 393.747L130.242 389.114L131.978 388.439C132.418 388.256 132.897 388.185 133.371 388.232V388.232ZM134.187 391.386C134.26 391.206 134.295 391.013 134.29 390.819C134.285 390.625 134.24 390.434 134.159 390.258C134.106 390.069 134.012 389.894 133.883 389.745C133.755 389.597 133.595 389.479 133.415 389.4C133.235 389.321 133.04 389.283 132.844 389.288C132.648 389.293 132.455 389.342 132.28 389.431L131.745 389.638L132.792 392.331L133.326 392.124C133.512 392.064 133.683 391.968 133.831 391.842C133.979 391.715 134.1 391.56 134.187 391.386V391.386Z" fill="white"/>
</g>
<defs>
<linearGradient id="paint0_linear_2200_719" x1="344.727" y1="754.991" x2="255.002" y2="154.762" gradientUnits="userSpaceOnUse">
<stop stop-color="#40447E"/>
<stop offset="0.9964" stop-color="#3C3B6B"/>
</linearGradient>
<linearGradient id="paint1_linear_2200_719" x1="20.1953" y1="241.271" x2="525.384" y2="241.271" gradientUnits="userSpaceOnUse">
<stop offset="0.0036" stop-color="#E38DDD"/>
<stop offset="1" stop-color="#9571F6"/>
</linearGradient>
<linearGradient id="paint2_linear_2200_719" x1="141.395" y1="321.632" x2="-0.421715" y2="417.96" gradientUnits="userSpaceOnUse">
<stop stop-color="#311944"/>
<stop offset="1" stop-color="#6B3976"/>
</linearGradient>
<linearGradient id="paint3_linear_2200_719" x1="204.115" y1="544.252" x2="185.016" y2="544.252" gradientUnits="userSpaceOnUse">
<stop stop-color="#311944"/>
<stop offset="1" stop-color="#6B3976"/>
</linearGradient>
<linearGradient id="paint4_linear_2200_719" x1="195.107" y1="551.779" x2="166.612" y2="466.295" gradientUnits="userSpaceOnUse">
<stop stop-color="#FFC444"/>
<stop offset="0.9964" stop-color="#F36F56"/>
</linearGradient>
<linearGradient id="paint5_linear_2200_719" x1="201.075" y1="509.183" x2="189.395" y2="509.183" gradientUnits="userSpaceOnUse">
<stop stop-color="#311944"/>
<stop offset="1" stop-color="#6B3976"/>
</linearGradient>
<linearGradient id="paint6_linear_2200_719" x1="207.847" y1="541.256" x2="188.774" y2="484.037" gradientUnits="userSpaceOnUse">
<stop stop-color="#FFC444"/>
<stop offset="0.9964" stop-color="#F36F56"/>
</linearGradient>
<linearGradient id="paint7_linear_2200_719" x1="245.631" y1="547.77" x2="126.587" y2="393.929" gradientUnits="userSpaceOnUse">
<stop stop-color="#311944"/>
<stop offset="1" stop-color="#893976"/>
</linearGradient>
<linearGradient id="paint8_linear_2200_719" x1="221.047" y1="566.79" x2="102.003" y2="412.95" gradientUnits="userSpaceOnUse">
<stop stop-color="#311944"/>
<stop offset="1" stop-color="#893976"/>
</linearGradient>
<linearGradient id="paint9_linear_2200_719" x1="164.25" y1="542.328" x2="144.022" y2="478.31" gradientUnits="userSpaceOnUse">
<stop offset="0.0036" stop-color="#E38DDD"/>
<stop offset="1" stop-color="#9571F6"/>
</linearGradient>
<linearGradient id="paint10_linear_2200_719" x1="220.588" y1="567.148" x2="101.544" y2="413.307" gradientUnits="userSpaceOnUse">
<stop stop-color="#311944"/>
<stop offset="1" stop-color="#893976"/>
</linearGradient>
<linearGradient id="paint11_linear_2200_719" x1="113.177" y1="382.947" x2="121.491" y2="345.216" gradientUnits="userSpaceOnUse">
<stop stop-color="#FFC444"/>
<stop offset="0.9964" stop-color="#F36F56"/>
</linearGradient>
<linearGradient id="paint12_linear_2200_719" x1="118.812" y1="349.329" x2="109.284" y2="398.404" gradientUnits="userSpaceOnUse">
<stop stop-color="#FFC444"/>
<stop offset="0.9964" stop-color="#F36F56"/>
</linearGradient>
<linearGradient id="paint13_linear_2200_719" x1="160.093" y1="435.482" x2="104.989" y2="435.482" gradientUnits="userSpaceOnUse">
<stop stop-color="#40447E"/>
<stop offset="0.9964" stop-color="#3C3B6B"/>
</linearGradient>
<linearGradient id="paint14_linear_2200_719" x1="195.33" y1="400.723" x2="159.203" y2="436.561" gradientUnits="userSpaceOnUse">
<stop stop-color="#40447E"/>
<stop offset="0.9964" stop-color="#3C3B6B"/>
</linearGradient>
<linearGradient id="paint15_linear_2200_719" x1="195.33" y1="400.723" x2="159.203" y2="436.561" gradientUnits="userSpaceOnUse">
<stop stop-color="#40447E"/>
<stop offset="0.9964" stop-color="#3C3B6B"/>
</linearGradient>
<linearGradient id="paint16_linear_2200_719" x1="125.585" y1="424.616" x2="107.267" y2="441.878" gradientUnits="userSpaceOnUse">
<stop stop-color="#FFC444"/>
<stop offset="0.9964" stop-color="#F36F56"/>
</linearGradient>
<linearGradient id="paint17_linear_2200_719" x1="291.271" y1="129.318" x2="221.502" y2="151.709" gradientUnits="userSpaceOnUse">
<stop stop-color="#AB316D"/>
<stop offset="1" stop-color="#792D3D"/>
</linearGradient>
<linearGradient id="paint18_linear_2200_719" x1="347.707" y1="59.8704" x2="285.422" y2="197.283" gradientUnits="userSpaceOnUse">
<stop stop-color="#FF9085"/>
<stop offset="1" stop-color="#FB6FBB"/>
</linearGradient>
<linearGradient id="paint19_linear_2200_719" x1="281.882" y1="181.555" x2="314.333" y2="130.015" gradientUnits="userSpaceOnUse">
<stop stop-color="#FF9085"/>
<stop offset="1" stop-color="#FB6FBB"/>
</linearGradient>
<linearGradient id="paint20_linear_2200_719" x1="296.2" y1="105.498" x2="345.627" y2="210.424" gradientUnits="userSpaceOnUse">
<stop stop-color="#FF9085"/>
<stop offset="1" stop-color="#FB6FBB"/>
</linearGradient>
<linearGradient id="paint21_linear_2200_719" x1="292.286" y1="447.325" x2="357.57" y2="360.28" gradientUnits="userSpaceOnUse">
<stop stop-color="#FCB148"/>
<stop offset="0.05207" stop-color="#FDBA46"/>
<stop offset="0.14245" stop-color="#FFC244"/>
<stop offset="0.31827" stop-color="#FFC444"/>
<stop offset="0.48489" stop-color="#FDB946"/>
<stop offset="0.77539" stop-color="#F99C4D"/>
<stop offset="0.86581" stop-color="#F8924F"/>
<stop offset="1" stop-color="#F8924F"/>
</linearGradient>
<linearGradient id="paint22_linear_2200_719" x1="270.763" y1="431.183" x2="336.047" y2="344.138" gradientUnits="userSpaceOnUse">
<stop stop-color="#FCB148"/>
<stop offset="0.05207" stop-color="#FDBA46"/>
<stop offset="0.14245" stop-color="#FFC244"/>
<stop offset="0.31827" stop-color="#FFC444"/>
<stop offset="0.48489" stop-color="#FDB946"/>
<stop offset="0.77539" stop-color="#F99C4D"/>
<stop offset="0.86581" stop-color="#F8924F"/>
<stop offset="1" stop-color="#F8924F"/>
</linearGradient>
<linearGradient id="paint23_linear_2200_719" x1="315.237" y1="327.775" x2="315.577" y2="278.056" gradientUnits="userSpaceOnUse">
<stop stop-color="#FCB148"/>
<stop offset="0.05207" stop-color="#FDBA46"/>
<stop offset="0.14245" stop-color="#FFC244"/>
<stop offset="0.31827" stop-color="#FFC444"/>
<stop offset="0.48489" stop-color="#FDB946"/>
<stop offset="0.77539" stop-color="#F99C4D"/>
<stop offset="0.86581" stop-color="#F8924F"/>
<stop offset="1" stop-color="#F8924F"/>
</linearGradient>
<linearGradient id="paint24_linear_2200_719" x1="315.275" y1="327.774" x2="315.615" y2="278.055" gradientUnits="userSpaceOnUse">
<stop stop-color="#FCB148"/>
<stop offset="0.05207" stop-color="#FDBA46"/>
<stop offset="0.14245" stop-color="#FFC244"/>
<stop offset="0.31827" stop-color="#FFC444"/>
<stop offset="0.48489" stop-color="#FDB946"/>
<stop offset="0.77539" stop-color="#F99C4D"/>
<stop offset="0.86581" stop-color="#F8924F"/>
<stop offset="1" stop-color="#F8924F"/>
</linearGradient>
<linearGradient id="paint25_linear_2200_719" x1="364.434" y1="109.445" x2="209.455" y2="417.479" gradientUnits="userSpaceOnUse">
<stop stop-color="#FCB148"/>
<stop offset="0.05207" stop-color="#FDBA46"/>
<stop offset="0.14245" stop-color="#FFC244"/>
<stop offset="0.31827" stop-color="#FFC444"/>
<stop offset="0.48489" stop-color="#FDB946"/>
<stop offset="0.77539" stop-color="#F99C4D"/>
<stop offset="0.86581" stop-color="#F8924F"/>
<stop offset="1" stop-color="#F8924F"/>
</linearGradient>
<linearGradient id="paint26_linear_2200_719" x1="432.542" y1="117.97" x2="277.562" y2="426.004" gradientUnits="userSpaceOnUse">
<stop stop-color="#FCB148"/>
<stop offset="0.05207" stop-color="#FDBA46"/>
<stop offset="0.14245" stop-color="#FFC244"/>
<stop offset="0.31827" stop-color="#FFC444"/>
<stop offset="0.48489" stop-color="#FDB946"/>
<stop offset="0.77539" stop-color="#F99C4D"/>
<stop offset="0.86581" stop-color="#F8924F"/>
<stop offset="1" stop-color="#F8924F"/>
</linearGradient>
<linearGradient id="paint27_linear_2200_719" x1="362.711" y1="112.871" x2="222.591" y2="391.37" gradientUnits="userSpaceOnUse">
<stop stop-color="#FCB148"/>
<stop offset="0.05207" stop-color="#FDBA46"/>
<stop offset="0.14245" stop-color="#FFC244"/>
<stop offset="0.31827" stop-color="#FFC444"/>
<stop offset="0.48489" stop-color="#FDB946"/>
<stop offset="0.77539" stop-color="#F99C4D"/>
<stop offset="0.86581" stop-color="#F8924F"/>
<stop offset="1" stop-color="#F8924F"/>
</linearGradient>
<linearGradient id="paint28_linear_2200_719" x1="426.316" y1="142.349" x2="284.632" y2="423.957" gradientUnits="userSpaceOnUse">
<stop stop-color="#FCB148"/>
<stop offset="0.05207" stop-color="#FDBA46"/>
<stop offset="0.14245" stop-color="#FFC244"/>
<stop offset="0.31827" stop-color="#FFC444"/>
<stop offset="0.48489" stop-color="#FDB946"/>
<stop offset="0.77539" stop-color="#F99C4D"/>
<stop offset="0.86581" stop-color="#F8924F"/>
<stop offset="1" stop-color="#F8924F"/>
</linearGradient>
<linearGradient id="paint29_linear_2200_719" x1="162.675" y1="170.98" x2="102.103" y2="190.419" gradientUnits="userSpaceOnUse">
<stop stop-color="#AB316D"/>
<stop offset="1" stop-color="#792D3D"/>
</linearGradient>
<linearGradient id="paint30_linear_2200_719" x1="211.671" y1="110.687" x2="157.596" y2="229.986" gradientUnits="userSpaceOnUse">
<stop stop-color="#FF9085"/>
<stop offset="1" stop-color="#FB6FBB"/>
</linearGradient>
<linearGradient id="paint31_linear_2200_719" x1="154.522" y1="216.331" x2="182.696" y2="171.585" gradientUnits="userSpaceOnUse">
<stop stop-color="#FF9085"/>
<stop offset="1" stop-color="#FB6FBB"/>
</linearGradient>
<linearGradient id="paint32_linear_2200_719" x1="166.953" y1="150.3" x2="209.866" y2="241.395" gradientUnits="userSpaceOnUse">
<stop stop-color="#FF9085"/>
<stop offset="1" stop-color="#FB6FBB"/>
</linearGradient>
<linearGradient id="paint33_linear_2200_719" x1="135.085" y1="269.381" x2="87.9682" y2="284.502" gradientUnits="userSpaceOnUse">
<stop stop-color="#AB316D"/>
<stop offset="1" stop-color="#792D3D"/>
</linearGradient>
<linearGradient id="paint34_linear_2200_719" x1="173.203" y1="222.48" x2="131.14" y2="315.279" gradientUnits="userSpaceOnUse">
<stop stop-color="#FF9085"/>
<stop offset="1" stop-color="#FB6FBB"/>
</linearGradient>
<linearGradient id="paint35_linear_2200_719" x1="128.747" y1="304.658" x2="150.662" y2="269.852" gradientUnits="userSpaceOnUse">
<stop stop-color="#FF9085"/>
<stop offset="1" stop-color="#FB6FBB"/>
</linearGradient>
<linearGradient id="paint36_linear_2200_719" x1="138.416" y1="253.295" x2="171.796" y2="324.155" gradientUnits="userSpaceOnUse">
<stop stop-color="#FF9085"/>
<stop offset="1" stop-color="#FB6FBB"/>
</linearGradient>
<linearGradient id="paint37_linear_2200_719" x1="189.102" y1="348.868" x2="148.423" y2="361.923" gradientUnits="userSpaceOnUse">
<stop stop-color="#AB316D"/>
<stop offset="1" stop-color="#792D3D"/>
</linearGradient>
<linearGradient id="paint38_linear_2200_719" x1="222.007" y1="308.375" x2="185.691" y2="388.496" gradientUnits="userSpaceOnUse">
<stop stop-color="#FF9085"/>
<stop offset="1" stop-color="#FB6FBB"/>
</linearGradient>
<linearGradient id="paint39_linear_2200_719" x1="183.628" y1="379.325" x2="202.549" y2="349.274" gradientUnits="userSpaceOnUse">
<stop stop-color="#FF9085"/>
<stop offset="1" stop-color="#FB6FBB"/>
</linearGradient>
<linearGradient id="paint40_linear_2200_719" x1="191.977" y1="334.979" x2="220.797" y2="396.158" gradientUnits="userSpaceOnUse">
<stop stop-color="#FF9085"/>
<stop offset="1" stop-color="#FB6FBB"/>
</linearGradient>
<linearGradient id="paint41_linear_2200_719" x1="310.638" y1="459.58" x2="278.31" y2="469.955" gradientUnits="userSpaceOnUse">
<stop stop-color="#FCB148"/>
<stop offset="0.05207" stop-color="#FDBA46"/>
<stop offset="0.14245" stop-color="#FFC244"/>
<stop offset="0.31827" stop-color="#FFC444"/>
<stop offset="0.48489" stop-color="#FDB946"/>
<stop offset="0.77539" stop-color="#F99C4D"/>
<stop offset="0.86581" stop-color="#F8924F"/>
<stop offset="1" stop-color="#F8924F"/>
</linearGradient>
<linearGradient id="paint42_linear_2200_719" x1="336.791" y1="427.4" x2="307.93" y2="491.072" gradientUnits="userSpaceOnUse">
<stop stop-color="#FFDB44"/>
<stop offset="1" stop-color="#FEEF06"/>
</linearGradient>
<linearGradient id="paint43_linear_2200_719" x1="331.482" y1="494.631" x2="325.914" y2="464.209" gradientUnits="userSpaceOnUse">
<stop stop-color="#FCB148"/>
<stop offset="0.05207" stop-color="#FDBA46"/>
<stop offset="0.14245" stop-color="#FFC244"/>
<stop offset="0.31827" stop-color="#FFC444"/>
<stop offset="0.48489" stop-color="#FDB946"/>
<stop offset="0.77539" stop-color="#F99C4D"/>
<stop offset="0.86581" stop-color="#F8924F"/>
<stop offset="1" stop-color="#F8924F"/>
</linearGradient>
<linearGradient id="paint44_linear_2200_719" x1="319.675" y1="445.39" x2="342.625" y2="494.107" gradientUnits="userSpaceOnUse">
<stop stop-color="#FCB148"/>
<stop offset="0.05207" stop-color="#FDBA46"/>
<stop offset="0.14245" stop-color="#FFC244"/>
<stop offset="0.31827" stop-color="#FFC444"/>
<stop offset="0.48489" stop-color="#FDB946"/>
<stop offset="0.77539" stop-color="#F99C4D"/>
<stop offset="0.86581" stop-color="#F8924F"/>
<stop offset="1" stop-color="#F8924F"/>
</linearGradient>
<linearGradient id="paint45_linear_2200_719" x1="318.763" y1="434.907" x2="330.303" y2="478.156" gradientUnits="userSpaceOnUse">
<stop stop-color="#FFDB44"/>
<stop offset="1" stop-color="#FEEF06"/>
</linearGradient>
<linearGradient id="paint46_linear_2200_719" x1="312.924" y1="448.543" x2="335.827" y2="497.162" gradientUnits="userSpaceOnUse">
<stop stop-color="#FCB148"/>
<stop offset="0.05207" stop-color="#FDBA46"/>
<stop offset="0.14245" stop-color="#FFC244"/>
<stop offset="0.31827" stop-color="#FFC444"/>
<stop offset="0.48489" stop-color="#FDB946"/>
<stop offset="0.77539" stop-color="#F99C4D"/>
<stop offset="0.86581" stop-color="#F8924F"/>
<stop offset="1" stop-color="#F8924F"/>
</linearGradient>
<linearGradient id="paint47_linear_2200_719" x1="387.667" y1="449.315" x2="330.818" y2="467.559" gradientUnits="userSpaceOnUse">
<stop stop-color="#FCB148"/>
<stop offset="0.05207" stop-color="#FDBA46"/>
<stop offset="0.14245" stop-color="#FFC244"/>
<stop offset="0.31827" stop-color="#FFC444"/>
<stop offset="0.48489" stop-color="#FDB946"/>
<stop offset="0.77539" stop-color="#F99C4D"/>
<stop offset="0.86581" stop-color="#F8924F"/>
<stop offset="1" stop-color="#F8924F"/>
</linearGradient>
<linearGradient id="paint48_linear_2200_719" x1="433.653" y1="392.727" x2="382.902" y2="504.694" gradientUnits="userSpaceOnUse">
<stop stop-color="#FFDB44"/>
<stop offset="1" stop-color="#FEEF06"/>
</linearGradient>
<linearGradient id="paint49_linear_2200_719" x1="424.318" y1="510.952" x2="414.525" y2="457.455" gradientUnits="userSpaceOnUse">
<stop stop-color="#FCB148"/>
<stop offset="0.05207" stop-color="#FDBA46"/>
<stop offset="0.14245" stop-color="#FFC244"/>
<stop offset="0.31827" stop-color="#FFC444"/>
<stop offset="0.48489" stop-color="#FDB946"/>
<stop offset="0.77539" stop-color="#F99C4D"/>
<stop offset="0.86581" stop-color="#F8924F"/>
<stop offset="1" stop-color="#F8924F"/>
</linearGradient>
<linearGradient id="paint50_linear_2200_719" x1="403.554" y1="424.362" x2="443.91" y2="510.031" gradientUnits="userSpaceOnUse">
<stop stop-color="#FCB148"/>
<stop offset="0.05207" stop-color="#FDBA46"/>
<stop offset="0.14245" stop-color="#FFC244"/>
<stop offset="0.31827" stop-color="#FFC444"/>
<stop offset="0.48489" stop-color="#FDB946"/>
<stop offset="0.77539" stop-color="#F99C4D"/>
<stop offset="0.86581" stop-color="#F8924F"/>
<stop offset="1" stop-color="#F8924F"/>
</linearGradient>
<linearGradient id="paint51_linear_2200_719" x1="401.947" y1="405.927" x2="422.239" y2="481.98" gradientUnits="userSpaceOnUse">
<stop stop-color="#FFDB44"/>
<stop offset="1" stop-color="#FEEF06"/>
</linearGradient>
<linearGradient id="paint52_linear_2200_719" x1="391.681" y1="429.906" x2="431.956" y2="515.402" gradientUnits="userSpaceOnUse">
<stop stop-color="#FCB148"/>
<stop offset="0.05207" stop-color="#FDBA46"/>
<stop offset="0.14245" stop-color="#FFC244"/>
<stop offset="0.31827" stop-color="#FFC444"/>
<stop offset="0.48489" stop-color="#FDB946"/>
<stop offset="0.77539" stop-color="#F99C4D"/>
<stop offset="0.86581" stop-color="#F8924F"/>
<stop offset="1" stop-color="#F8924F"/>
</linearGradient>
<linearGradient id="paint53_linear_2200_719" x1="427.3" y1="347.943" x2="344.877" y2="374.395" gradientUnits="userSpaceOnUse">
<stop stop-color="#FCB148"/>
<stop offset="0.05207" stop-color="#FDBA46"/>
<stop offset="0.14245" stop-color="#FFC244"/>
<stop offset="0.31827" stop-color="#FFC444"/>
<stop offset="0.48489" stop-color="#FDB946"/>
<stop offset="0.77539" stop-color="#F99C4D"/>
<stop offset="0.86581" stop-color="#F8924F"/>
<stop offset="1" stop-color="#F8924F"/>
</linearGradient>
<linearGradient id="paint54_linear_2200_719" x1="493.973" y1="265.9" x2="420.391" y2="428.235" gradientUnits="userSpaceOnUse">
<stop stop-color="#FFDB44"/>
<stop offset="1" stop-color="#FEEF06"/>
</linearGradient>
<linearGradient id="paint55_linear_2200_719" x1="480.436" y1="437.308" x2="466.238" y2="359.746" gradientUnits="userSpaceOnUse">
<stop stop-color="#FCB148"/>
<stop offset="0.05207" stop-color="#FDBA46"/>
<stop offset="0.14245" stop-color="#FFC244"/>
<stop offset="0.31827" stop-color="#FFC444"/>
<stop offset="0.48489" stop-color="#FDB946"/>
<stop offset="0.77539" stop-color="#F99C4D"/>
<stop offset="0.86581" stop-color="#F8924F"/>
<stop offset="1" stop-color="#F8924F"/>
</linearGradient>
<linearGradient id="paint56_linear_2200_719" x1="450.335" y1="311.766" x2="508.846" y2="435.973" gradientUnits="userSpaceOnUse">
<stop stop-color="#FCB148"/>
<stop offset="0.05207" stop-color="#FDBA46"/>
<stop offset="0.14245" stop-color="#FFC244"/>
<stop offset="0.31827" stop-color="#FFC444"/>
<stop offset="0.48489" stop-color="#FDB946"/>
<stop offset="0.77539" stop-color="#F99C4D"/>
<stop offset="0.86581" stop-color="#F8924F"/>
<stop offset="1" stop-color="#F8924F"/>
</linearGradient>
<linearGradient id="paint57_linear_2200_719" x1="448.006" y1="285.038" x2="477.427" y2="395.304" gradientUnits="userSpaceOnUse">
<stop stop-color="#FFDB44"/>
<stop offset="1" stop-color="#FEEF06"/>
</linearGradient>
<linearGradient id="paint58_linear_2200_719" x1="433.121" y1="319.804" x2="491.514" y2="443.76" gradientUnits="userSpaceOnUse">
<stop stop-color="#FCB148"/>
<stop offset="0.05207" stop-color="#FDBA46"/>
<stop offset="0.14245" stop-color="#FFC244"/>
<stop offset="0.31827" stop-color="#FFC444"/>
<stop offset="0.48489" stop-color="#FDB946"/>
<stop offset="0.77539" stop-color="#F99C4D"/>
<stop offset="0.86581" stop-color="#F8924F"/>
<stop offset="1" stop-color="#F8924F"/>
</linearGradient>
<clipPath id="clip0_2200_719">
<rect width="546.708" height="550" fill="white"/>
</clipPath>
</defs>
</svg>
