<svg width="729" height="450" viewBox="0 0 729 450" fill="none" xmlns="http://www.w3.org/2000/svg">
<g clip-path="url(#clip0_2178_1433)">
<path d="M605.844 15.5941L692.702 3.51855L684.734 90.1788L605.844 15.5941Z" fill="#F5F5F5"/>
<path d="M671.143 62.31L635.213 28.3408L497.842 173.641L533.772 207.61L671.143 62.31Z" fill="#F5F5F5"/>
<path d="M684.691 130.64L728.429 124.56L724.416 168.198L684.691 130.64Z" fill="#F5F5F5"/>
<path d="M717.573 154.164L699.48 137.059L630.307 210.225L648.4 227.33L717.573 154.164Z" fill="#F5F5F5"/>
<path d="M62 186.26L105.738 180.18L101.725 223.818L62 186.26Z" fill="#F5F5F5"/>
<path d="M94.8816 209.784L76.7891 192.679L7.61621 265.845L25.7087 282.95L94.8816 209.784Z" fill="#F5F5F5"/>
<path d="M204.272 262.296L168.342 228.327L0.000912704 406.385L35.9308 440.354L204.272 262.296Z" fill="#F5F5F5"/>
<path d="M127.283 68.6431C128.653 77.916 127.24 87.3867 123.225 95.8566C119.21 104.326 112.772 111.415 104.726 116.224C96.6806 121.033 87.389 123.347 78.0275 122.874C68.6661 122.4 59.6556 119.159 52.1367 113.562C44.6178 107.965 38.9285 100.263 35.7889 91.431C32.6493 82.599 32.2006 73.0341 34.4996 63.947C36.7985 54.8598 41.7418 46.659 48.7037 40.3826C55.6656 34.1061 64.333 30.0363 73.609 28.6881C86.0248 26.8698 98.6545 30.0576 108.72 37.5505C118.786 45.0433 125.463 56.2276 127.283 68.6431V68.6431Z" fill="#F5F5F5"/>
<path d="M116.128 70.2652C117.172 77.3318 116.095 84.549 113.035 91.0036C109.975 97.4581 105.069 102.86 98.9377 106.525C92.8063 110.189 85.7255 111.953 78.5915 111.592C71.4575 111.23 64.591 108.761 58.8612 104.495C53.1313 100.23 48.7958 94.3604 46.4033 87.6298C44.0109 80.8992 43.669 73.6101 45.421 66.6852C47.1731 59.7602 50.9402 53.5107 56.2457 48.7277C61.5512 43.9448 68.1564 40.8433 75.2253 39.816C84.6871 38.4299 94.3121 40.8592 101.983 46.5695C109.654 52.2798 114.742 60.8034 116.128 70.2652V70.2652Z" fill="#EBEBEB"/>
<path d="M115.959 69.1468C115.743 69.1862 115.363 67.6403 114.39 64.988C113.033 61.2632 111.106 57.7715 108.678 54.6379C107.006 52.5007 105.103 50.5542 103.005 48.8336C100.596 46.8767 97.9451 45.238 95.1176 43.9579C92.0001 42.5468 88.6944 41.5952 85.3038 41.133C83.5149 40.8889 81.7099 40.7835 79.9047 40.8177C76.1793 40.8828 72.4877 41.5377 68.9673 42.7581C67.2603 43.3478 65.6013 44.068 64.0049 44.9122C60.9804 46.5136 58.2042 48.5451 55.7629 50.9435C53.549 53.1188 51.6246 55.5704 50.0372 58.2376C48.66 60.5756 47.544 63.0579 46.7093 65.6399C45.5102 69.4173 44.9043 73.358 44.9133 77.3212C44.9142 80.1457 45.0899 81.7283 44.8731 81.7643C44.7142 81.796 44.1757 80.2726 43.838 77.3787C43.4038 73.2568 43.7409 69.0901 44.8321 65.0917C46.451 59.081 49.5939 53.5899 53.9568 49.1498C55.2091 47.8586 56.5593 46.6661 57.9954 45.5829C59.4881 44.441 61.0696 43.4199 62.7247 42.5295C64.4385 41.6009 66.2235 40.8102 68.0628 40.1648C71.8553 38.8304 75.8401 38.1233 79.8602 38.0713C81.809 38.0449 83.7568 38.173 85.6853 38.4544C89.3291 38.9883 92.8722 40.0662 96.1961 41.6518C101.821 44.3183 106.663 48.3916 110.253 53.4775C112.655 56.8562 114.407 60.6521 115.42 64.6716C116.1 67.505 116.118 69.1203 115.959 69.1468Z" fill="#E0E0E0"/>
<path d="M87.5427 96.1766L88.5375 102.386L82.994 103.272L82.0267 97.2305C76.4852 97.7757 70.944 96.9021 67.5138 95.0059L69.4785 87.754C73.0178 89.4661 76.9412 90.2291 80.8642 89.9681L79.3809 80.7095C72.9881 80.1999 65.786 79.2489 64.517 71.3206C63.5766 65.4441 67.037 59.7168 75.6355 57.3174L74.6502 51.1627L80.1944 50.2749L81.1618 56.3189C85.1626 55.9034 89.2049 56.4445 92.9556 57.8975L91.2767 65.1609C88.4261 64.0638 85.3857 63.5451 82.3326 63.6349L83.8422 73.0603C90.2255 73.515 97.3179 74.4852 98.569 82.3002C99.4921 88.0665 96.0775 93.73 87.5427 96.1766ZM78.0772 72.5608L76.8153 64.6899C73.9845 65.8251 73.0782 67.6197 73.3703 69.4494C73.6816 71.3885 75.5132 72.177 78.0772 72.5608V72.5608ZM89.7517 84.3954C89.4403 82.4539 87.6647 81.6595 85.147 81.2076L86.3718 88.8583C89.0466 87.8055 90.0353 86.1692 89.7517 84.3954V84.3954Z" fill="#E0E0E0"/>
<path d="M708.142 344.077C709.512 353.35 708.1 362.821 704.084 371.291C700.069 379.76 693.631 386.849 685.586 391.658C677.54 396.467 668.248 398.781 658.887 398.308C649.525 397.834 640.515 394.593 632.996 388.996C625.477 383.399 619.788 375.697 616.648 366.865C613.509 358.033 613.06 348.468 615.359 339.381C617.658 330.294 622.601 322.093 629.563 315.817C636.525 309.54 645.192 305.47 654.468 304.122C666.884 302.304 679.514 305.492 689.579 312.985C699.645 320.477 706.322 331.662 708.142 344.077V344.077Z" fill="#F5F5F5"/>
<path d="M696.987 345.699C698.031 352.766 696.955 359.983 693.895 366.437C690.835 372.892 685.928 378.294 679.797 381.958C673.666 385.623 666.585 387.387 659.451 387.026C652.317 386.664 645.45 384.195 639.72 379.929C633.991 375.664 629.655 369.794 627.263 363.064C624.87 356.333 624.528 349.044 626.28 342.119C628.032 335.194 631.8 328.945 637.105 324.162C642.41 319.379 649.016 316.277 656.085 315.25C665.546 313.864 675.171 316.293 682.842 322.004C690.513 327.714 695.601 336.237 696.987 345.699Z" fill="#EBEBEB"/>
<path d="M696.816 344.581C696.6 344.62 696.22 343.074 695.247 340.422C693.89 336.697 691.963 333.206 689.535 330.072C687.863 327.935 685.961 325.988 683.863 324.268C681.453 322.311 678.802 320.672 675.975 319.392C672.857 317.981 669.552 317.029 666.161 316.567C664.372 316.323 662.567 316.218 660.762 316.252C657.037 316.317 653.345 316.972 649.825 318.192C648.118 318.782 646.459 319.502 644.862 320.346C641.838 321.948 639.062 323.979 636.62 326.378C634.406 328.553 632.482 331.005 630.895 333.672C629.517 336.01 628.401 338.492 627.567 341.074C626.368 344.852 625.762 348.792 625.771 352.755C625.772 355.58 625.947 357.162 625.73 357.198C625.572 357.23 625.033 355.707 624.695 352.813C624.261 348.691 624.598 344.524 625.689 340.526C627.309 334.515 630.451 329.024 634.814 324.584C636.067 323.293 637.417 322.1 638.853 321.017C640.346 319.875 641.927 318.854 643.582 317.964C645.296 317.035 647.081 316.244 648.92 315.599C652.713 314.265 656.698 313.557 660.718 313.505C662.666 313.479 664.614 313.607 666.543 313.889C670.187 314.422 673.73 315.5 677.054 317.086C682.679 319.753 687.521 323.826 691.11 328.912C693.512 332.29 695.264 336.086 696.277 340.106C696.957 342.939 696.976 344.554 696.816 344.581Z" fill="#E0E0E0"/>
<path d="M668.402 371.611L669.397 377.82L663.853 378.706L662.886 372.665C657.345 373.21 651.803 372.336 648.373 370.44L650.338 363.188C653.877 364.9 657.801 365.663 661.724 365.402L660.24 356.143C653.847 355.634 646.645 354.683 645.376 346.755C644.436 340.878 647.896 335.151 656.495 332.751L655.51 326.597L661.054 325.709L662.021 331.753C666.022 331.337 670.064 331.879 673.815 333.332L672.136 340.595C669.285 339.498 666.245 338.979 663.192 339.069L664.702 348.494C671.085 348.949 678.177 349.919 679.428 357.734C680.351 363.501 676.937 369.164 668.402 371.611ZM658.937 347.995L657.675 340.124C654.844 341.259 653.938 343.054 654.23 344.884C654.541 346.822 656.373 347.611 658.937 347.995V347.995ZM670.611 359.829C670.3 357.888 668.524 357.094 666.006 356.642L667.231 364.292C669.906 363.239 670.895 361.603 670.611 359.829V359.829Z" fill="#E0E0E0"/>
<path d="M725.68 449.721C725.68 449.875 563.458 450 363.393 450C163.259 450 1.07227 449.875 1.07227 449.721C1.07227 449.567 163.259 449.442 363.393 449.442C563.458 449.442 725.68 449.567 725.68 449.721Z" fill="#263238"/>
<path d="M661.963 345.449H573.295V363.329H661.963V345.449Z" fill="#FF725E"/>
<path d="M578.994 345.748C579.207 345.748 579.379 349.629 579.379 354.416C579.379 359.204 579.207 363.085 578.994 363.085C578.782 363.085 578.609 359.204 578.609 354.416C578.609 349.629 578.782 345.748 578.994 345.748Z" fill="#263238"/>
<path d="M587.217 345.748C587.429 345.748 587.602 349.629 587.602 354.416C587.602 359.204 587.429 363.085 587.217 363.085C587.004 363.085 586.832 359.204 586.832 354.416C586.832 349.629 587.004 345.748 587.217 345.748Z" fill="#263238"/>
<path d="M595.342 345.748C595.554 345.748 595.727 349.629 595.727 354.416C595.727 359.204 595.554 363.085 595.342 363.085C595.129 363.085 594.957 359.204 594.957 354.416C594.957 349.629 595.129 345.748 595.342 345.748Z" fill="#263238"/>
<path d="M603.424 345.748C603.636 345.748 603.809 349.629 603.809 354.416C603.809 359.204 603.636 363.085 603.424 363.085C603.211 363.085 603.039 359.204 603.039 354.416C603.039 349.629 603.211 345.748 603.424 345.748Z" fill="#263238"/>
<path d="M611.504 345.748C611.716 345.748 611.889 349.629 611.889 354.416C611.889 359.204 611.716 363.085 611.504 363.085C611.291 363.085 611.119 359.204 611.119 354.416C611.119 349.629 611.291 345.748 611.504 345.748Z" fill="#263238"/>
<path d="M619.586 345.748C619.799 345.748 619.971 349.629 619.971 354.416C619.971 359.204 619.799 363.085 619.586 363.085C619.374 363.085 619.201 359.204 619.201 354.416C619.201 349.629 619.374 345.748 619.586 345.748Z" fill="#263238"/>
<path d="M627.668 345.748C627.881 345.748 628.053 349.629 628.053 354.416C628.053 359.204 627.881 363.085 627.668 363.085C627.456 363.085 627.283 359.204 627.283 354.416C627.283 349.629 627.456 345.748 627.668 345.748Z" fill="#263238"/>
<path d="M635.748 345.748C635.961 345.748 636.133 349.629 636.133 354.416C636.133 359.204 635.961 363.085 635.748 363.085C635.536 363.085 635.363 359.204 635.363 354.416C635.363 349.629 635.536 345.748 635.748 345.748Z" fill="#263238"/>
<path d="M643.83 345.748C644.043 345.748 644.215 349.629 644.215 354.416C644.215 359.204 644.043 363.085 643.83 363.085C643.618 363.085 643.445 359.204 643.445 354.416C643.445 349.629 643.618 345.748 643.83 345.748Z" fill="#263238"/>
<path d="M651.912 345.748C652.125 345.748 652.297 349.629 652.297 354.416C652.297 359.204 652.125 363.085 651.912 363.085C651.7 363.085 651.527 359.204 651.527 354.416C651.527 349.629 651.7 345.748 651.912 345.748Z" fill="#263238"/>
<path d="M659.994 345.748C660.207 345.748 660.379 349.629 660.379 354.416C660.379 359.204 660.207 363.085 659.994 363.085C659.782 363.085 659.609 359.204 659.609 354.416C659.609 349.629 659.782 345.748 659.994 345.748Z" fill="#263238"/>
<g opacity="0.3">
<path opacity="0.3" d="M574.721 345.468C603.201 349.29 632.063 349.296 660.545 345.487L574.721 345.468Z" fill="black"/>
</g>
<path d="M661.985 345.506C661.985 345.718 642.17 345.89 617.732 345.89C593.286 345.89 573.475 345.718 573.475 345.506C573.475 345.293 593.286 345.121 617.732 345.121C642.17 345.121 661.985 345.293 661.985 345.506Z" fill="#263238"/>
<path d="M663.953 363.031H575.285V380.91H663.953V363.031Z" fill="#FF725E"/>
<path d="M580.986 363.329C581.199 363.329 581.371 367.21 581.371 371.997C581.371 376.785 581.199 380.666 580.986 380.666C580.774 380.666 580.602 376.785 580.602 371.997C580.602 367.21 580.774 363.329 580.986 363.329Z" fill="#263238"/>
<path d="M589.207 363.329C589.42 363.329 589.592 367.21 589.592 371.997C589.592 376.785 589.42 380.666 589.207 380.666C588.995 380.666 588.822 376.785 588.822 371.997C588.822 367.21 588.995 363.329 589.207 363.329Z" fill="#263238"/>
<path d="M597.332 363.329C597.545 363.329 597.717 367.21 597.717 371.997C597.717 376.785 597.545 380.666 597.332 380.666C597.12 380.666 596.947 376.785 596.947 371.997C596.947 367.21 597.12 363.329 597.332 363.329Z" fill="#263238"/>
<path d="M605.414 363.329C605.627 363.329 605.799 367.21 605.799 371.997C605.799 376.785 605.627 380.666 605.414 380.666C605.202 380.666 605.029 376.785 605.029 371.997C605.029 367.21 605.202 363.329 605.414 363.329Z" fill="#263238"/>
<path d="M613.496 363.329C613.709 363.329 613.881 367.21 613.881 371.997C613.881 376.785 613.709 380.666 613.496 380.666C613.284 380.666 613.111 376.785 613.111 371.997C613.111 367.21 613.284 363.329 613.496 363.329Z" fill="#263238"/>
<path d="M621.578 363.329C621.791 363.329 621.963 367.21 621.963 371.997C621.963 376.785 621.791 380.666 621.578 380.666C621.366 380.666 621.193 376.785 621.193 371.997C621.193 367.21 621.366 363.329 621.578 363.329Z" fill="#263238"/>
<path d="M629.658 363.329C629.871 363.329 630.043 367.21 630.043 371.997C630.043 376.785 629.871 380.666 629.658 380.666C629.446 380.666 629.273 376.785 629.273 371.997C629.273 367.21 629.446 363.329 629.658 363.329Z" fill="#263238"/>
<path d="M637.74 363.329C637.953 363.329 638.125 367.21 638.125 371.997C638.125 376.785 637.953 380.666 637.74 380.666C637.528 380.666 637.355 376.785 637.355 371.997C637.355 367.21 637.528 363.329 637.74 363.329Z" fill="#263238"/>
<path d="M645.822 363.329C646.035 363.329 646.207 367.21 646.207 371.997C646.207 376.785 646.035 380.666 645.822 380.666C645.61 380.666 645.438 376.785 645.438 371.997C645.438 367.21 645.61 363.329 645.822 363.329Z" fill="#263238"/>
<path d="M653.904 363.329C654.117 363.329 654.289 367.21 654.289 371.997C654.289 376.785 654.117 380.666 653.904 380.666C653.692 380.666 653.52 376.785 653.52 371.997C653.52 367.21 653.692 363.329 653.904 363.329Z" fill="#263238"/>
<path d="M661.984 363.329C662.197 363.329 662.369 367.21 662.369 371.997C662.369 376.785 662.197 380.666 661.984 380.666C661.772 380.666 661.6 376.785 661.6 371.997C661.6 367.21 661.772 363.329 661.984 363.329Z" fill="#263238"/>
<g opacity="0.3">
<path opacity="0.3" d="M576.711 363.05C605.191 366.872 634.054 366.878 662.535 363.068L576.711 363.05Z" fill="black"/>
</g>
<path d="M663.976 363.086C663.976 363.299 644.16 363.471 619.722 363.471C595.276 363.471 575.465 363.299 575.465 363.086C575.465 362.874 595.276 362.702 619.722 362.702C644.16 362.702 663.976 362.874 663.976 363.086Z" fill="#263238"/>
<path d="M655.535 380.333H566.867V398.212H655.535V380.333Z" fill="#FF725E"/>
<path d="M572.568 380.631C572.781 380.631 572.953 384.512 572.953 389.299C572.953 394.087 572.781 397.968 572.568 397.968C572.356 397.968 572.184 394.087 572.184 389.299C572.184 384.512 572.356 380.631 572.568 380.631Z" fill="#263238"/>
<path d="M580.789 380.631C581.002 380.631 581.174 384.512 581.174 389.299C581.174 394.087 581.002 397.968 580.789 397.968C580.577 397.968 580.404 394.087 580.404 389.299C580.404 384.512 580.577 380.631 580.789 380.631Z" fill="#263238"/>
<path d="M588.914 380.631C589.127 380.631 589.299 384.512 589.299 389.299C589.299 394.087 589.127 397.968 588.914 397.968C588.702 397.968 588.529 394.087 588.529 389.299C588.529 384.512 588.702 380.631 588.914 380.631Z" fill="#263238"/>
<path d="M596.996 380.631C597.209 380.631 597.381 384.512 597.381 389.299C597.381 394.087 597.209 397.968 596.996 397.968C596.784 397.968 596.611 394.087 596.611 389.299C596.611 384.512 596.784 380.631 596.996 380.631Z" fill="#263238"/>
<path d="M605.078 380.631C605.291 380.631 605.463 384.512 605.463 389.299C605.463 394.087 605.291 397.968 605.078 397.968C604.866 397.968 604.693 394.087 604.693 389.299C604.693 384.512 604.866 380.631 605.078 380.631Z" fill="#263238"/>
<path d="M613.158 380.631C613.371 380.631 613.543 384.512 613.543 389.299C613.543 394.087 613.371 397.968 613.158 397.968C612.946 397.968 612.773 394.087 612.773 389.299C612.773 384.512 612.946 380.631 613.158 380.631Z" fill="#263238"/>
<path d="M621.24 380.631C621.453 380.631 621.625 384.512 621.625 389.299C621.625 394.087 621.453 397.968 621.24 397.968C621.028 397.968 620.855 394.087 620.855 389.299C620.855 384.512 621.028 380.631 621.24 380.631Z" fill="#263238"/>
<path d="M629.322 380.631C629.535 380.631 629.707 384.512 629.707 389.299C629.707 394.087 629.535 397.968 629.322 397.968C629.11 397.968 628.938 394.087 628.938 389.299C628.938 384.512 629.11 380.631 629.322 380.631Z" fill="#263238"/>
<path d="M637.404 380.631C637.617 380.631 637.789 384.512 637.789 389.299C637.789 394.087 637.617 397.968 637.404 397.968C637.192 397.968 637.02 394.087 637.02 389.299C637.02 384.512 637.192 380.631 637.404 380.631Z" fill="#263238"/>
<path d="M645.484 380.631C645.697 380.631 645.869 384.512 645.869 389.299C645.869 394.087 645.697 397.968 645.484 397.968C645.272 397.968 645.1 394.087 645.1 389.299C645.1 384.512 645.272 380.631 645.484 380.631Z" fill="#263238"/>
<path d="M653.566 380.631C653.779 380.631 653.951 384.512 653.951 389.299C653.951 394.087 653.779 397.968 653.566 397.968C653.354 397.968 653.182 394.087 653.182 389.299C653.182 384.512 653.354 380.631 653.566 380.631Z" fill="#263238"/>
<g opacity="0.3">
<path opacity="0.3" d="M568.293 380.352C596.773 384.173 625.636 384.18 654.118 380.37L568.293 380.352Z" fill="black"/>
</g>
<path d="M655.558 380.388C655.558 380.601 635.742 380.773 611.304 380.773C586.858 380.773 567.047 380.601 567.047 380.388C567.047 380.176 586.858 380.004 611.304 380.004C635.742 380.004 655.558 380.176 655.558 380.388Z" fill="#263238"/>
<path d="M665.922 398.08H577.254V415.276H665.922V398.08Z" fill="#FF725E"/>
<path d="M582.955 398.367C583.168 398.367 583.34 402.1 583.34 406.703C583.34 411.309 583.168 415.041 582.955 415.041C582.743 415.041 582.57 411.309 582.57 406.703C582.57 402.1 582.743 398.367 582.955 398.367Z" fill="#263238"/>
<path d="M591.176 398.367C591.388 398.367 591.561 402.1 591.561 406.703C591.561 411.309 591.388 415.041 591.176 415.041C590.963 415.041 590.791 411.309 590.791 406.703C590.791 402.1 590.963 398.367 591.176 398.367Z" fill="#263238"/>
<path d="M599.301 398.367C599.514 398.367 599.686 402.1 599.686 406.703C599.686 411.309 599.514 415.041 599.301 415.041C599.088 415.041 598.916 411.309 598.916 406.703C598.916 402.1 599.088 398.367 599.301 398.367Z" fill="#263238"/>
<path d="M607.383 398.367C607.595 398.367 607.768 402.1 607.768 406.703C607.768 411.309 607.595 415.041 607.383 415.041C607.17 415.041 606.998 411.309 606.998 406.703C606.998 402.1 607.17 398.367 607.383 398.367Z" fill="#263238"/>
<path d="M615.465 398.367C615.677 398.367 615.85 402.1 615.85 406.703C615.85 411.309 615.677 415.041 615.465 415.041C615.252 415.041 615.08 411.309 615.08 406.703C615.08 402.1 615.252 398.367 615.465 398.367Z" fill="#263238"/>
<path d="M623.547 398.367C623.759 398.367 623.932 402.1 623.932 406.703C623.932 411.309 623.759 415.041 623.547 415.041C623.334 415.041 623.162 411.309 623.162 406.703C623.162 402.1 623.334 398.367 623.547 398.367Z" fill="#263238"/>
<path d="M631.627 398.367C631.839 398.367 632.012 402.1 632.012 406.703C632.012 411.309 631.839 415.041 631.627 415.041C631.414 415.041 631.242 411.309 631.242 406.703C631.242 402.1 631.414 398.367 631.627 398.367Z" fill="#263238"/>
<path d="M639.709 398.367C639.921 398.367 640.094 402.1 640.094 406.703C640.094 411.309 639.921 415.041 639.709 415.041C639.496 415.041 639.324 411.309 639.324 406.703C639.324 402.1 639.496 398.367 639.709 398.367Z" fill="#263238"/>
<path d="M647.791 398.367C648.004 398.367 648.176 402.1 648.176 406.703C648.176 411.309 648.004 415.041 647.791 415.041C647.579 415.041 647.406 411.309 647.406 406.703C647.406 402.1 647.579 398.367 647.791 398.367Z" fill="#263238"/>
<path d="M655.871 398.367C656.084 398.367 656.256 402.1 656.256 406.703C656.256 411.309 656.084 415.041 655.871 415.041C655.659 415.041 655.486 411.309 655.486 406.703C655.486 402.1 655.659 398.367 655.871 398.367Z" fill="#263238"/>
<path d="M663.953 398.367C664.166 398.367 664.338 402.1 664.338 406.703C664.338 411.309 664.166 415.041 663.953 415.041C663.741 415.041 663.568 411.309 663.568 406.703C663.568 402.1 663.741 398.367 663.953 398.367Z" fill="#263238"/>
<g opacity="0.3">
<path opacity="0.3" d="M578.68 398.099C607.079 402.981 636.102 402.989 664.504 398.122L578.68 398.099Z" fill="black"/>
</g>
<path d="M665.944 398.134C665.944 398.347 646.129 398.519 621.691 398.519C597.245 398.519 577.434 398.347 577.434 398.134C577.434 397.922 597.245 397.75 621.691 397.75C646.129 397.75 665.944 397.922 665.944 398.134Z" fill="#263238"/>
<path d="M660.22 415.286H571.553V432.482H660.22V415.286Z" fill="#FF725E"/>
<path d="M577.254 415.573C577.467 415.573 577.639 419.306 577.639 423.91C577.639 428.515 577.467 432.247 577.254 432.247C577.041 432.247 576.869 428.515 576.869 423.91C576.869 419.306 577.041 415.573 577.254 415.573Z" fill="#263238"/>
<path d="M585.475 415.573C585.687 415.573 585.86 419.306 585.86 423.91C585.86 428.515 585.687 432.247 585.475 432.247C585.262 432.247 585.09 428.515 585.09 423.91C585.09 419.306 585.262 415.573 585.475 415.573Z" fill="#263238"/>
<path d="M593.6 415.573C593.812 415.573 593.984 419.306 593.984 423.91C593.984 428.515 593.812 432.247 593.6 432.247C593.387 432.247 593.215 428.515 593.215 423.91C593.215 419.306 593.387 415.573 593.6 415.573Z" fill="#263238"/>
<path d="M601.682 415.573C601.894 415.573 602.066 419.306 602.066 423.91C602.066 428.515 601.894 432.247 601.682 432.247C601.469 432.247 601.297 428.515 601.297 423.91C601.297 419.306 601.469 415.573 601.682 415.573Z" fill="#263238"/>
<path d="M609.764 415.573C609.976 415.573 610.149 419.306 610.149 423.91C610.149 428.515 609.976 432.247 609.764 432.247C609.551 432.247 609.379 428.515 609.379 423.91C609.379 419.306 609.551 415.573 609.764 415.573Z" fill="#263238"/>
<path d="M617.846 415.573C618.058 415.573 618.231 419.306 618.231 423.91C618.231 428.515 618.058 432.247 617.846 432.247C617.633 432.247 617.461 428.515 617.461 423.91C617.461 419.306 617.633 415.573 617.846 415.573Z" fill="#263238"/>
<path d="M625.926 415.573C626.138 415.573 626.311 419.306 626.311 423.91C626.311 428.515 626.138 432.247 625.926 432.247C625.713 432.247 625.541 428.515 625.541 423.91C625.541 419.306 625.713 415.573 625.926 415.573Z" fill="#263238"/>
<path d="M634.008 415.573C634.22 415.573 634.393 419.306 634.393 423.91C634.393 428.515 634.22 432.247 634.008 432.247C633.795 432.247 633.623 428.515 633.623 423.91C633.623 419.306 633.795 415.573 634.008 415.573Z" fill="#263238"/>
<path d="M642.09 415.573C642.303 415.573 642.475 419.306 642.475 423.91C642.475 428.515 642.303 432.247 642.09 432.247C641.878 432.247 641.705 428.515 641.705 423.91C641.705 419.306 641.878 415.573 642.09 415.573Z" fill="#263238"/>
<path d="M650.17 415.573C650.383 415.573 650.555 419.306 650.555 423.91C650.555 428.515 650.383 432.247 650.17 432.247C649.957 432.247 649.785 428.515 649.785 423.91C649.785 419.306 649.957 415.573 650.17 415.573Z" fill="#263238"/>
<path d="M658.252 415.573C658.464 415.573 658.637 419.306 658.637 423.91C658.637 428.515 658.464 432.247 658.252 432.247C658.04 432.247 657.867 428.515 657.867 423.91C657.867 419.306 658.04 415.573 658.252 415.573Z" fill="#263238"/>
<g opacity="0.3">
<path opacity="0.3" d="M572.979 415.304C601.319 420.829 630.459 420.838 658.803 415.331L572.979 415.304Z" fill="black"/>
</g>
<path d="M660.243 415.34C660.243 415.553 640.428 415.725 615.99 415.725C591.543 415.725 571.732 415.553 571.732 415.34C571.732 415.127 591.543 414.955 615.99 414.955C640.428 414.955 660.243 415.127 660.243 415.34Z" fill="#263238"/>
<path d="M665.287 432.247H576.619V449.442H665.287V432.247Z" fill="#FF725E"/>
<path d="M582.32 432.533C582.533 432.533 582.705 436.266 582.705 440.87C582.705 445.475 582.533 449.208 582.32 449.208C582.108 449.208 581.936 445.475 581.936 440.87C581.936 436.266 582.108 432.533 582.32 432.533Z" fill="#263238"/>
<path d="M590.541 432.533C590.754 432.533 590.926 436.266 590.926 440.87C590.926 445.475 590.754 449.208 590.541 449.208C590.329 449.208 590.156 445.475 590.156 440.87C590.156 436.266 590.329 432.533 590.541 432.533Z" fill="#263238"/>
<path d="M598.666 432.533C598.879 432.533 599.051 436.266 599.051 440.87C599.051 445.475 598.879 449.208 598.666 449.208C598.454 449.208 598.281 445.475 598.281 440.87C598.281 436.266 598.454 432.533 598.666 432.533Z" fill="#263238"/>
<path d="M606.748 432.533C606.961 432.533 607.133 436.266 607.133 440.87C607.133 445.475 606.961 449.208 606.748 449.208C606.536 449.208 606.363 445.475 606.363 440.87C606.363 436.266 606.536 432.533 606.748 432.533Z" fill="#263238"/>
<path d="M614.83 432.533C615.043 432.533 615.215 436.266 615.215 440.87C615.215 445.475 615.043 449.208 614.83 449.208C614.618 449.208 614.445 445.475 614.445 440.87C614.445 436.266 614.618 432.533 614.83 432.533Z" fill="#263238"/>
<path d="M622.91 432.533C623.123 432.533 623.295 436.266 623.295 440.87C623.295 445.475 623.123 449.208 622.91 449.208C622.698 449.208 622.525 445.475 622.525 440.87C622.525 436.266 622.698 432.533 622.91 432.533Z" fill="#263238"/>
<path d="M630.992 432.533C631.205 432.533 631.377 436.266 631.377 440.87C631.377 445.475 631.205 449.208 630.992 449.208C630.78 449.208 630.607 445.475 630.607 440.87C630.607 436.266 630.78 432.533 630.992 432.533Z" fill="#263238"/>
<path d="M639.074 432.533C639.287 432.533 639.459 436.266 639.459 440.87C639.459 445.475 639.287 449.208 639.074 449.208C638.862 449.208 638.689 445.475 638.689 440.87C638.689 436.266 638.862 432.533 639.074 432.533Z" fill="#263238"/>
<path d="M647.154 432.533C647.367 432.533 647.539 436.266 647.539 440.87C647.539 445.475 647.367 449.208 647.154 449.208C646.942 449.208 646.77 445.475 646.77 440.87C646.77 436.266 646.942 432.533 647.154 432.533Z" fill="#263238"/>
<path d="M655.236 432.533C655.449 432.533 655.621 436.266 655.621 440.87C655.621 445.475 655.449 449.208 655.236 449.208C655.024 449.208 654.852 445.475 654.852 440.87C654.852 436.266 655.024 432.533 655.236 432.533Z" fill="#263238"/>
<path d="M663.318 432.533C663.531 432.533 663.703 436.266 663.703 440.87C663.703 445.475 663.531 449.208 663.318 449.208C663.106 449.208 662.934 445.475 662.934 440.87C662.934 436.266 663.106 432.533 663.318 432.533Z" fill="#263238"/>
<g opacity="0.3">
<path opacity="0.3" d="M578.045 432.265C606.444 437.147 635.467 437.155 663.869 432.289L578.045 432.265Z" fill="black"/>
</g>
<path d="M665.31 432.301C665.31 432.513 645.494 432.686 621.056 432.686C596.61 432.686 576.799 432.513 576.799 432.301C576.799 432.088 596.61 431.916 621.056 431.916C645.494 431.916 665.31 432.088 665.31 432.301Z" fill="#263238"/>
<path d="M576.62 449.443C576.641 449.346 576.65 449.247 576.647 449.148C576.654 448.924 576.663 448.639 576.674 448.283C576.686 447.482 576.702 446.364 576.724 444.937C576.745 441.982 576.774 437.752 576.812 432.482L576.813 432.291L576.62 432.29C575.08 432.283 573.448 432.276 571.734 432.269L571.947 432.482C571.962 427.458 571.978 421.642 571.997 415.276L571.734 415.539C573.526 415.542 575.459 415.545 577.435 415.549L577.708 415.55L577.708 415.276C577.713 409.96 577.719 404.199 577.724 398.212L577.725 397.923L577.435 397.923C575.547 397.922 573.536 397.922 571.505 397.921C570.006 397.922 568.52 397.922 567.048 397.922L567.338 398.212C567.332 391.85 567.327 385.736 567.322 380.004L567.048 380.278L575.466 380.262L575.725 380.262L575.725 380.004C575.705 373.781 575.687 368.167 575.672 363.329L575.671 363.122L575.466 363.123C574.684 363.127 573.981 363.13 573.295 363.133L573.491 363.33C573.509 357.791 573.524 353.345 573.534 350.241C573.527 348.74 573.521 347.564 573.518 346.724C573.51 346.349 573.504 346.05 573.5 345.815C573.538 345.808 573.573 345.787 573.596 345.757C573.62 345.726 573.632 345.687 573.629 345.649C573.625 345.61 573.608 345.574 573.579 345.547C573.551 345.521 573.514 345.506 573.475 345.505C573.436 345.505 573.398 345.519 573.369 345.545C573.34 345.571 573.322 345.607 573.318 345.646C573.314 345.684 573.325 345.723 573.348 345.754C573.372 345.785 573.406 345.807 573.444 345.814L573.408 346.723C573.387 347.563 573.358 348.738 573.32 350.239C573.268 353.343 573.193 357.788 573.099 363.326L573.096 363.523L573.295 363.524C573.981 363.527 574.684 363.53 575.466 363.534L575.261 363.329C575.246 368.167 575.228 373.781 575.208 380.004L575.466 379.746L567.048 379.73L566.774 379.729L566.774 380.004C566.769 385.736 566.764 391.85 566.758 398.212L566.758 398.502H567.048C568.518 398.502 570.004 398.502 571.505 398.503C573.536 398.502 575.547 398.502 577.435 398.501L577.146 398.212C577.151 404.199 577.157 409.96 577.162 415.276L577.435 415.003C575.459 415.006 573.526 415.01 571.734 415.013L571.47 415.013L571.471 415.276C571.49 421.642 571.506 427.458 571.521 432.482L571.522 432.696L571.734 432.695C573.448 432.687 575.08 432.68 576.62 432.673L576.428 432.482C576.465 437.752 576.495 441.982 576.516 444.937C576.537 446.364 576.554 447.482 576.566 448.283C576.577 448.639 576.586 448.924 576.593 449.148C576.59 449.247 576.599 449.346 576.62 449.443V449.443Z" fill="#263238"/>
<path d="M654.695 293.758H566.027V310.954H654.695V293.758Z" fill="#FF725E"/>
<path d="M571.729 294.044C571.941 294.044 572.113 297.777 572.113 302.381C572.113 306.987 571.941 310.719 571.729 310.719C571.516 310.719 571.344 306.987 571.344 302.381C571.344 297.777 571.516 294.044 571.729 294.044Z" fill="#263238"/>
<path d="M579.949 294.044C580.162 294.044 580.334 297.777 580.334 302.381C580.334 306.987 580.162 310.719 579.949 310.719C579.737 310.719 579.564 306.987 579.564 302.381C579.564 297.777 579.737 294.044 579.949 294.044Z" fill="#263238"/>
<path d="M588.074 294.044C588.287 294.044 588.459 297.777 588.459 302.381C588.459 306.987 588.287 310.719 588.074 310.719C587.862 310.719 587.689 306.987 587.689 302.381C587.689 297.777 587.862 294.044 588.074 294.044Z" fill="#263238"/>
<path d="M596.156 294.044C596.369 294.044 596.541 297.777 596.541 302.381C596.541 306.987 596.369 310.719 596.156 310.719C595.944 310.719 595.771 306.987 595.771 302.381C595.771 297.777 595.944 294.044 596.156 294.044Z" fill="#263238"/>
<path d="M604.238 294.044C604.451 294.044 604.623 297.777 604.623 302.381C604.623 306.987 604.451 310.719 604.238 310.719C604.026 310.719 603.854 306.987 603.854 302.381C603.854 297.777 604.026 294.044 604.238 294.044Z" fill="#263238"/>
<path d="M612.318 294.044C612.531 294.044 612.703 297.777 612.703 302.381C612.703 306.987 612.531 310.719 612.318 310.719C612.106 310.719 611.934 306.987 611.934 302.381C611.934 297.777 612.106 294.044 612.318 294.044Z" fill="#263238"/>
<path d="M620.4 294.044C620.613 294.044 620.785 297.777 620.785 302.381C620.785 306.987 620.613 310.719 620.4 310.719C620.188 310.719 620.016 306.987 620.016 302.381C620.016 297.777 620.188 294.044 620.4 294.044Z" fill="#263238"/>
<path d="M628.482 294.044C628.695 294.044 628.867 297.777 628.867 302.381C628.867 306.987 628.695 310.719 628.482 310.719C628.27 310.719 628.098 306.987 628.098 302.381C628.098 297.777 628.27 294.044 628.482 294.044Z" fill="#263238"/>
<path d="M636.563 294.044C636.775 294.044 636.948 297.777 636.948 302.381C636.948 306.987 636.775 310.719 636.563 310.719C636.35 310.719 636.178 306.987 636.178 302.381C636.178 297.777 636.35 294.044 636.563 294.044Z" fill="#263238"/>
<path d="M644.645 294.044C644.857 294.044 645.029 297.777 645.029 302.381C645.029 306.987 644.857 310.719 644.645 310.719C644.432 310.719 644.26 306.987 644.26 302.381C644.26 297.777 644.432 294.044 644.645 294.044Z" fill="#263238"/>
<path d="M652.726 294.044C652.939 294.044 653.112 297.777 653.112 302.381C653.112 306.987 652.939 310.719 652.726 310.719C652.514 310.719 652.342 306.987 652.342 302.381C652.342 297.777 652.514 294.044 652.726 294.044Z" fill="#263238"/>
<g opacity="0.3">
<path opacity="0.3" d="M567.453 293.776C595.852 298.658 624.876 298.666 653.278 293.8L567.453 293.776Z" fill="black"/>
</g>
<path d="M654.718 293.812C654.718 294.025 634.902 294.197 610.464 294.197C586.018 294.197 566.207 294.025 566.207 293.812C566.207 293.6 586.018 293.427 610.464 293.427C634.902 293.427 654.718 293.6 654.718 293.812Z" fill="#263238"/>
<path d="M648.994 310.964H560.326V328.16H648.994V310.964Z" fill="#FF725E"/>
<path d="M566.027 311.25C566.24 311.25 566.412 314.984 566.412 319.587C566.412 324.193 566.24 327.925 566.027 327.925C565.815 327.925 565.643 324.193 565.643 319.587C565.643 314.984 565.815 311.25 566.027 311.25Z" fill="#263238"/>
<path d="M574.248 311.25C574.461 311.25 574.633 314.984 574.633 319.587C574.633 324.193 574.461 327.925 574.248 327.925C574.036 327.925 573.863 324.193 573.863 319.587C573.863 314.984 574.036 311.25 574.248 311.25Z" fill="#263238"/>
<path d="M582.373 311.25C582.586 311.25 582.758 314.984 582.758 319.587C582.758 324.193 582.586 327.925 582.373 327.925C582.161 327.925 581.988 324.193 581.988 319.587C581.988 314.984 582.161 311.25 582.373 311.25Z" fill="#263238"/>
<path d="M590.455 311.25C590.668 311.25 590.84 314.984 590.84 319.587C590.84 324.193 590.668 327.925 590.455 327.925C590.242 327.925 590.07 324.193 590.07 319.587C590.07 314.984 590.242 311.25 590.455 311.25Z" fill="#263238"/>
<path d="M598.537 311.25C598.75 311.25 598.922 314.984 598.922 319.587C598.922 324.193 598.75 327.925 598.537 327.925C598.325 327.925 598.152 324.193 598.152 319.587C598.152 314.984 598.325 311.25 598.537 311.25Z" fill="#263238"/>
<path d="M606.617 311.25C606.83 311.25 607.002 314.984 607.002 319.587C607.002 324.193 606.83 327.925 606.617 327.925C606.405 327.925 606.232 324.193 606.232 319.587C606.232 314.984 606.405 311.25 606.617 311.25Z" fill="#263238"/>
<path d="M614.699 311.25C614.912 311.25 615.084 314.984 615.084 319.587C615.084 324.193 614.912 327.925 614.699 327.925C614.487 327.925 614.314 324.193 614.314 319.587C614.314 314.984 614.487 311.25 614.699 311.25Z" fill="#263238"/>
<path d="M622.781 311.25C622.994 311.25 623.166 314.984 623.166 319.587C623.166 324.193 622.994 327.925 622.781 327.925C622.569 327.925 622.396 324.193 622.396 319.587C622.396 314.984 622.569 311.25 622.781 311.25Z" fill="#263238"/>
<path d="M630.863 311.25C631.076 311.25 631.248 314.984 631.248 319.587C631.248 324.193 631.076 327.925 630.863 327.925C630.651 327.925 630.479 324.193 630.479 319.587C630.479 314.984 630.651 311.25 630.863 311.25Z" fill="#263238"/>
<path d="M638.943 311.25C639.156 311.25 639.328 314.984 639.328 319.587C639.328 324.193 639.156 327.925 638.943 327.925C638.731 327.925 638.559 324.193 638.559 319.587C638.559 314.984 638.731 311.25 638.943 311.25Z" fill="#263238"/>
<path d="M647.025 311.25C647.238 311.25 647.41 314.984 647.41 319.587C647.41 324.193 647.238 327.925 647.025 327.925C646.813 327.925 646.641 324.193 646.641 319.587C646.641 314.984 646.813 311.25 647.025 311.25Z" fill="#263238"/>
<g opacity="0.3">
<path opacity="0.3" d="M561.752 310.982C590.092 316.507 619.232 316.516 647.576 311.009L561.752 310.982Z" fill="black"/>
</g>
<path d="M649.017 311.018C649.017 311.23 629.201 311.403 604.763 311.403C580.317 311.403 560.506 311.23 560.506 311.018C560.506 310.805 580.317 310.633 604.763 310.633C629.201 310.633 649.017 310.805 649.017 311.018Z" fill="#263238"/>
<path d="M654.06 327.925H565.393V345.121H654.06V327.925Z" fill="#FF725E"/>
<path d="M571.094 328.211C571.306 328.211 571.478 331.944 571.478 336.548C571.478 341.154 571.306 344.886 571.094 344.886C570.881 344.886 570.709 341.154 570.709 336.548C570.709 331.944 570.881 328.211 571.094 328.211Z" fill="#263238"/>
<path d="M579.314 328.211C579.527 328.211 579.699 331.944 579.699 336.548C579.699 341.154 579.527 344.886 579.314 344.886C579.102 344.886 578.93 341.154 578.93 336.548C578.93 331.944 579.102 328.211 579.314 328.211Z" fill="#263238"/>
<path d="M587.439 328.211C587.652 328.211 587.824 331.944 587.824 336.548C587.824 341.154 587.652 344.886 587.439 344.886C587.227 344.886 587.055 341.154 587.055 336.548C587.055 331.944 587.227 328.211 587.439 328.211Z" fill="#263238"/>
<path d="M595.522 328.211C595.734 328.211 595.906 331.944 595.906 336.548C595.906 341.154 595.734 344.886 595.522 344.886C595.309 344.886 595.137 341.154 595.137 336.548C595.137 331.944 595.309 328.211 595.522 328.211Z" fill="#263238"/>
<path d="M603.602 328.211C603.814 328.211 603.987 331.944 603.987 336.548C603.987 341.154 603.814 344.886 603.602 344.886C603.389 344.886 603.217 341.154 603.217 336.548C603.217 331.944 603.389 328.211 603.602 328.211Z" fill="#263238"/>
<path d="M611.684 328.211C611.896 328.211 612.069 331.944 612.069 336.548C612.069 341.154 611.896 344.886 611.684 344.886C611.471 344.886 611.299 341.154 611.299 336.548C611.299 331.944 611.471 328.211 611.684 328.211Z" fill="#263238"/>
<path d="M619.766 328.211C619.978 328.211 620.151 331.944 620.151 336.548C620.151 341.154 619.978 344.886 619.766 344.886C619.553 344.886 619.381 341.154 619.381 336.548C619.381 331.944 619.553 328.211 619.766 328.211Z" fill="#263238"/>
<path d="M627.848 328.211C628.06 328.211 628.233 331.944 628.233 336.548C628.233 341.154 628.06 344.886 627.848 344.886C627.635 344.886 627.463 341.154 627.463 336.548C627.463 331.944 627.635 328.211 627.848 328.211Z" fill="#263238"/>
<path d="M635.928 328.211C636.14 328.211 636.312 331.944 636.312 336.548C636.312 341.154 636.14 344.886 635.928 344.886C635.715 344.886 635.543 341.154 635.543 336.548C635.543 331.944 635.715 328.211 635.928 328.211Z" fill="#263238"/>
<path d="M644.01 328.211C644.222 328.211 644.395 331.944 644.395 336.548C644.395 341.154 644.222 344.886 644.01 344.886C643.797 344.886 643.625 341.154 643.625 336.548C643.625 331.944 643.797 328.211 644.01 328.211Z" fill="#263238"/>
<path d="M652.092 328.211C652.304 328.211 652.477 331.944 652.477 336.548C652.477 341.154 652.304 344.886 652.092 344.886C651.879 344.886 651.707 341.154 651.707 336.548C651.707 331.944 651.879 328.211 652.092 328.211Z" fill="#263238"/>
<g opacity="0.3">
<path opacity="0.3" d="M566.818 327.943C595.217 332.825 624.241 332.833 652.643 327.966L566.818 327.943Z" fill="black"/>
</g>
<path d="M654.083 327.978C654.083 328.191 634.268 328.363 609.83 328.363C585.383 328.363 565.572 328.191 565.572 327.978C565.572 327.766 585.383 327.594 609.83 327.594C634.268 327.594 654.083 327.766 654.083 327.978Z" fill="#263238"/>
<path d="M640.711 259.768H552.043V276.963H640.711V259.768Z" fill="#FF725E"/>
<path d="M557.744 260.054C557.957 260.054 558.129 263.787 558.129 268.391C558.129 272.996 557.957 276.728 557.744 276.728C557.532 276.728 557.359 272.996 557.359 268.391C557.359 263.787 557.532 260.054 557.744 260.054Z" fill="#263238"/>
<path d="M565.965 260.054C566.177 260.054 566.35 263.787 566.35 268.391C566.35 272.996 566.177 276.728 565.965 276.728C565.752 276.728 565.58 272.996 565.58 268.391C565.58 263.787 565.752 260.054 565.965 260.054Z" fill="#263238"/>
<path d="M574.09 260.054C574.302 260.054 574.475 263.787 574.475 268.391C574.475 272.996 574.302 276.728 574.09 276.728C573.877 276.728 573.705 272.996 573.705 268.391C573.705 263.787 573.877 260.054 574.09 260.054Z" fill="#263238"/>
<path d="M582.172 260.054C582.384 260.054 582.557 263.787 582.557 268.391C582.557 272.996 582.384 276.728 582.172 276.728C581.959 276.728 581.787 272.996 581.787 268.391C581.787 263.787 581.959 260.054 582.172 260.054Z" fill="#263238"/>
<path d="M590.254 260.054C590.466 260.054 590.639 263.787 590.639 268.391C590.639 272.996 590.466 276.728 590.254 276.728C590.041 276.728 589.869 272.996 589.869 268.391C589.869 263.787 590.041 260.054 590.254 260.054Z" fill="#263238"/>
<path d="M598.334 260.054C598.547 260.054 598.719 263.787 598.719 268.391C598.719 272.996 598.547 276.728 598.334 276.728C598.122 276.728 597.949 272.996 597.949 268.391C597.949 263.787 598.122 260.054 598.334 260.054Z" fill="#263238"/>
<path d="M606.416 260.054C606.629 260.054 606.801 263.787 606.801 268.391C606.801 272.996 606.629 276.728 606.416 276.728C606.204 276.728 606.031 272.996 606.031 268.391C606.031 263.787 606.204 260.054 606.416 260.054Z" fill="#263238"/>
<path d="M614.498 260.054C614.711 260.054 614.883 263.787 614.883 268.391C614.883 272.996 614.711 276.728 614.498 276.728C614.286 276.728 614.113 272.996 614.113 268.391C614.113 263.787 614.286 260.054 614.498 260.054Z" fill="#263238"/>
<path d="M622.58 260.054C622.793 260.054 622.965 263.787 622.965 268.391C622.965 272.996 622.793 276.728 622.58 276.728C622.368 276.728 622.195 272.996 622.195 268.391C622.195 263.787 622.368 260.054 622.58 260.054Z" fill="#263238"/>
<path d="M630.66 260.054C630.873 260.054 631.045 263.787 631.045 268.391C631.045 272.996 630.873 276.728 630.66 276.728C630.448 276.728 630.275 272.996 630.275 268.391C630.275 263.787 630.448 260.054 630.66 260.054Z" fill="#263238"/>
<path d="M638.742 260.054C638.955 260.054 639.127 263.787 639.127 268.391C639.127 272.996 638.955 276.728 638.742 276.728C638.53 276.728 638.357 272.996 638.357 268.391C638.357 263.787 638.53 260.054 638.742 260.054Z" fill="#263238"/>
<g opacity="0.3">
<path opacity="0.3" d="M553.469 259.786C581.809 265.31 610.949 265.319 639.293 259.813L553.469 259.786Z" fill="black"/>
</g>
<path d="M640.733 259.821C640.733 260.034 620.918 260.206 596.48 260.206C572.034 260.206 552.223 260.034 552.223 259.821C552.223 259.609 572.034 259.437 596.48 259.437C620.918 259.437 640.733 259.609 640.733 259.821Z" fill="#263238"/>
<path d="M645.777 276.728H557.109V293.924H645.777V276.728Z" fill="#FF725E"/>
<path d="M562.811 277.015C563.023 277.015 563.195 280.748 563.195 285.351C563.195 289.957 563.023 293.689 562.811 293.689C562.598 293.689 562.426 289.957 562.426 285.351C562.426 280.748 562.598 277.015 562.811 277.015Z" fill="#263238"/>
<path d="M571.031 277.015C571.244 277.015 571.416 280.748 571.416 285.351C571.416 289.957 571.244 293.689 571.031 293.689C570.819 293.689 570.646 289.957 570.646 285.351C570.646 280.748 570.819 277.015 571.031 277.015Z" fill="#263238"/>
<path d="M579.156 277.015C579.369 277.015 579.541 280.748 579.541 285.351C579.541 289.957 579.369 293.689 579.156 293.689C578.944 293.689 578.771 289.957 578.771 285.351C578.771 280.748 578.944 277.015 579.156 277.015Z" fill="#263238"/>
<path d="M587.238 277.015C587.451 277.015 587.623 280.748 587.623 285.351C587.623 289.957 587.451 293.689 587.238 293.689C587.026 293.689 586.854 289.957 586.854 285.351C586.854 280.748 587.026 277.015 587.238 277.015Z" fill="#263238"/>
<path d="M595.318 277.015C595.531 277.015 595.703 280.748 595.703 285.351C595.703 289.957 595.531 293.689 595.318 293.689C595.106 293.689 594.934 289.957 594.934 285.351C594.934 280.748 595.106 277.015 595.318 277.015Z" fill="#263238"/>
<path d="M603.4 277.015C603.613 277.015 603.785 280.748 603.785 285.351C603.785 289.957 603.613 293.689 603.4 293.689C603.188 293.689 603.016 289.957 603.016 285.351C603.016 280.748 603.188 277.015 603.4 277.015Z" fill="#263238"/>
<path d="M611.482 277.015C611.695 277.015 611.867 280.748 611.867 285.351C611.867 289.957 611.695 293.689 611.482 293.689C611.27 293.689 611.098 289.957 611.098 285.351C611.098 280.748 611.27 277.015 611.482 277.015Z" fill="#263238"/>
<path d="M619.564 277.015C619.777 277.015 619.949 280.748 619.949 285.351C619.949 289.957 619.777 293.689 619.564 293.689C619.352 293.689 619.18 289.957 619.18 285.351C619.18 280.748 619.352 277.015 619.564 277.015Z" fill="#263238"/>
<path d="M627.644 277.015C627.857 277.015 628.029 280.748 628.029 285.351C628.029 289.957 627.857 293.689 627.644 293.689C627.432 293.689 627.26 289.957 627.26 285.351C627.26 280.748 627.432 277.015 627.644 277.015Z" fill="#263238"/>
<path d="M635.727 277.015C635.939 277.015 636.111 280.748 636.111 285.351C636.111 289.957 635.939 293.689 635.727 293.689C635.514 293.689 635.342 289.957 635.342 285.351C635.342 280.748 635.514 277.015 635.727 277.015Z" fill="#263238"/>
<path d="M643.809 277.015C644.021 277.015 644.193 280.748 644.193 285.351C644.193 289.957 644.021 293.689 643.809 293.689C643.596 293.689 643.424 289.957 643.424 285.351C643.424 280.748 643.596 277.015 643.809 277.015Z" fill="#263238"/>
<g opacity="0.3">
<path opacity="0.3" d="M558.535 276.747C586.934 281.629 615.958 281.636 644.36 276.77L558.535 276.747Z" fill="black"/>
</g>
<path d="M645.8 276.782C645.8 276.995 625.984 277.167 601.547 277.167C577.1 277.167 557.289 276.995 557.289 276.782C557.289 276.57 577.1 276.397 601.547 276.397C625.984 276.397 645.8 276.57 645.8 276.782Z" fill="#263238"/>
<path d="M70.4298 363.472H159.098V345.593H70.4298V363.472Z" fill="#FF725E"/>
<path d="M153.397 345.891C153.184 345.891 153.012 349.772 153.012 354.559C153.012 359.348 153.184 363.228 153.397 363.228C153.609 363.228 153.781 359.348 153.781 354.559C153.781 349.772 153.609 345.891 153.397 345.891Z" fill="#263238"/>
<path d="M145.176 345.891C144.963 345.891 144.791 349.772 144.791 354.559C144.791 359.348 144.963 363.228 145.176 363.228C145.388 363.228 145.561 359.348 145.561 354.559C145.561 349.772 145.388 345.891 145.176 345.891Z" fill="#263238"/>
<path d="M137.051 345.891C136.838 345.891 136.666 349.772 136.666 354.559C136.666 359.348 136.838 363.228 137.051 363.228C137.263 363.228 137.436 359.348 137.436 354.559C137.436 349.772 137.263 345.891 137.051 345.891Z" fill="#263238"/>
<path d="M128.969 345.891C128.756 345.891 128.584 349.772 128.584 354.559C128.584 359.348 128.756 363.228 128.969 363.228C129.181 363.228 129.354 359.348 129.354 354.559C129.354 349.772 129.181 345.891 128.969 345.891Z" fill="#263238"/>
<path d="M120.887 345.891C120.674 345.891 120.502 349.772 120.502 354.559C120.502 359.348 120.674 363.228 120.887 363.228C121.099 363.228 121.272 359.348 121.272 354.559C121.272 349.772 121.099 345.891 120.887 345.891Z" fill="#263238"/>
<path d="M112.807 345.891C112.594 345.891 112.422 349.772 112.422 354.559C112.422 359.348 112.594 363.228 112.807 363.228C113.019 363.228 113.192 359.348 113.192 354.559C113.192 349.772 113.019 345.891 112.807 345.891Z" fill="#263238"/>
<path d="M104.725 345.891C104.512 345.891 104.34 349.772 104.34 354.559C104.34 359.348 104.512 363.228 104.725 363.228C104.937 363.228 105.109 359.348 105.109 354.559C105.109 349.772 104.937 345.891 104.725 345.891Z" fill="#263238"/>
<path d="M96.6426 345.891C96.4301 345.891 96.2578 349.772 96.2578 354.559C96.2578 359.348 96.4301 363.228 96.6426 363.228C96.8551 363.228 97.0274 359.348 97.0274 354.559C97.0274 349.772 96.8551 345.891 96.6426 345.891Z" fill="#263238"/>
<path d="M88.5626 345.891C88.35 345.891 88.1777 349.772 88.1777 354.559C88.1777 359.348 88.35 363.228 88.5626 363.228C88.775 363.228 88.9474 359.348 88.9474 354.559C88.9474 349.772 88.775 345.891 88.5626 345.891Z" fill="#263238"/>
<path d="M80.4806 345.891C80.268 345.891 80.0957 349.772 80.0957 354.559C80.0957 359.348 80.268 363.228 80.4806 363.228C80.6929 363.228 80.8653 359.348 80.8653 354.559C80.8653 349.772 80.6929 345.891 80.4806 345.891Z" fill="#263238"/>
<path d="M72.3985 345.891C72.1858 345.891 72.0137 349.772 72.0137 354.559C72.0137 359.348 72.1858 363.228 72.3985 363.228C72.6109 363.228 72.7832 359.348 72.7832 354.559C72.7832 349.772 72.6109 345.891 72.3985 345.891Z" fill="#263238"/>
<g opacity="0.3">
<path opacity="0.3" d="M157.672 345.612C129.192 349.434 100.329 349.44 71.8477 345.631L157.672 345.612Z" fill="black"/>
</g>
<path d="M70.4082 345.649C70.4082 345.862 90.2237 346.034 114.662 346.034C139.108 346.034 158.919 345.862 158.919 345.649C158.919 345.436 139.108 345.264 114.662 345.264C90.2237 345.264 70.4082 345.436 70.4082 345.649Z" fill="#263238"/>
<path d="M68.4398 381.054H157.107V363.174H68.4398V381.054Z" fill="#FF725E"/>
<path d="M151.406 363.472C151.194 363.472 151.021 367.354 151.021 372.14C151.021 376.929 151.194 380.809 151.406 380.809C151.619 380.809 151.791 376.929 151.791 372.14C151.791 367.354 151.619 363.472 151.406 363.472Z" fill="#263238"/>
<path d="M143.186 363.472C142.973 363.472 142.801 367.354 142.801 372.14C142.801 376.929 142.973 380.809 143.186 380.809C143.398 380.809 143.57 376.929 143.57 372.14C143.57 367.354 143.398 363.472 143.186 363.472Z" fill="#263238"/>
<path d="M135.059 363.472C134.846 363.472 134.674 367.354 134.674 372.14C134.674 376.929 134.846 380.809 135.059 380.809C135.271 380.809 135.444 376.929 135.444 372.14C135.444 367.354 135.271 363.472 135.059 363.472Z" fill="#263238"/>
<path d="M126.979 363.472C126.766 363.472 126.594 367.354 126.594 372.14C126.594 376.929 126.766 380.809 126.979 380.809C127.191 380.809 127.363 376.929 127.363 372.14C127.363 367.354 127.191 363.472 126.979 363.472Z" fill="#263238"/>
<path d="M118.897 363.472C118.684 363.472 118.512 367.354 118.512 372.14C118.512 376.929 118.684 380.809 118.897 380.809C119.109 380.809 119.281 376.929 119.281 372.14C119.281 367.354 119.109 363.472 118.897 363.472Z" fill="#263238"/>
<path d="M110.815 363.472C110.602 363.472 110.43 367.354 110.43 372.14C110.43 376.929 110.602 380.809 110.815 380.809C111.027 380.809 111.199 376.929 111.199 372.14C111.199 367.354 111.027 363.472 110.815 363.472Z" fill="#263238"/>
<path d="M102.732 363.472C102.52 363.472 102.348 367.354 102.348 372.14C102.348 376.929 102.52 380.809 102.732 380.809C102.945 380.809 103.117 376.929 103.117 372.14C103.117 367.354 102.945 363.472 102.732 363.472Z" fill="#263238"/>
<path d="M94.6525 363.472C94.44 363.472 94.2676 367.354 94.2676 372.14C94.2676 376.929 94.44 380.809 94.6525 380.809C94.865 380.809 95.0373 376.929 95.0373 372.14C95.0373 367.354 94.865 363.472 94.6525 363.472Z" fill="#263238"/>
<path d="M86.5705 363.472C86.3579 363.472 86.1855 367.354 86.1855 372.14C86.1855 376.929 86.3579 380.809 86.5705 380.809C86.7829 380.809 86.9552 376.929 86.9552 372.14C86.9552 367.354 86.7829 363.472 86.5705 363.472Z" fill="#263238"/>
<path d="M78.4883 363.472C78.2758 363.472 78.1035 367.354 78.1035 372.14C78.1035 376.929 78.2758 380.809 78.4883 380.809C78.7008 380.809 78.873 376.929 78.873 372.14C78.873 367.354 78.7008 363.472 78.4883 363.472Z" fill="#263238"/>
<path d="M70.4082 363.472C70.1957 363.472 70.0234 367.354 70.0234 372.14C70.0234 376.929 70.1957 380.809 70.4082 380.809C70.6207 380.809 70.793 376.929 70.793 372.14C70.793 367.354 70.6207 363.472 70.4082 363.472Z" fill="#263238"/>
<g opacity="0.3">
<path opacity="0.3" d="M155.68 363.193C127.2 367.015 98.3372 367.021 69.8555 363.212L155.68 363.193Z" fill="black"/>
</g>
<path d="M68.416 363.231C68.416 363.443 88.2314 363.615 112.669 363.615C137.116 363.615 156.927 363.443 156.927 363.231C156.927 363.018 137.116 362.846 112.669 362.846C88.2314 362.846 68.416 363.018 68.416 363.231Z" fill="#263238"/>
<path d="M76.8576 398.356H165.525V380.476H76.8576V398.356Z" fill="#FF725E"/>
<path d="M159.824 380.774C159.612 380.774 159.439 384.656 159.439 389.443C159.439 394.231 159.612 398.112 159.824 398.112C160.037 398.112 160.209 394.231 160.209 389.443C160.209 384.656 160.037 380.774 159.824 380.774Z" fill="#263238"/>
<path d="M151.604 380.774C151.391 380.774 151.219 384.656 151.219 389.443C151.219 394.231 151.391 398.112 151.604 398.112C151.816 398.112 151.988 394.231 151.988 389.443C151.988 384.656 151.816 380.774 151.604 380.774Z" fill="#263238"/>
<path d="M143.477 380.774C143.264 380.774 143.092 384.656 143.092 389.443C143.092 394.231 143.264 398.112 143.477 398.112C143.689 398.112 143.862 394.231 143.862 389.443C143.862 384.656 143.689 380.774 143.477 380.774Z" fill="#263238"/>
<path d="M135.397 380.774C135.184 380.774 135.012 384.656 135.012 389.443C135.012 394.231 135.184 398.112 135.397 398.112C135.609 398.112 135.781 394.231 135.781 389.443C135.781 384.656 135.609 380.774 135.397 380.774Z" fill="#263238"/>
<path d="M127.315 380.774C127.102 380.774 126.93 384.656 126.93 389.443C126.93 394.231 127.102 398.112 127.315 398.112C127.527 398.112 127.699 394.231 127.699 389.443C127.699 384.656 127.527 380.774 127.315 380.774Z" fill="#263238"/>
<path d="M119.233 380.774C119.02 380.774 118.848 384.656 118.848 389.443C118.848 394.231 119.02 398.112 119.233 398.112C119.445 398.112 119.617 394.231 119.617 389.443C119.617 384.656 119.445 380.774 119.233 380.774Z" fill="#263238"/>
<path d="M111.152 380.774C110.94 380.774 110.768 384.656 110.768 389.443C110.768 394.231 110.94 398.112 111.152 398.112C111.365 398.112 111.537 394.231 111.537 389.443C111.537 384.656 111.365 380.774 111.152 380.774Z" fill="#263238"/>
<path d="M103.07 380.774C102.858 380.774 102.686 384.656 102.686 389.443C102.686 394.231 102.858 398.112 103.07 398.112C103.283 398.112 103.455 394.231 103.455 389.443C103.455 384.656 103.283 380.774 103.07 380.774Z" fill="#263238"/>
<path d="M94.9884 380.774C94.7758 380.774 94.6035 384.656 94.6035 389.443C94.6035 394.231 94.7758 398.112 94.9884 398.112C95.2009 398.112 95.3731 394.231 95.3731 389.443C95.3731 384.656 95.2009 380.774 94.9884 380.774Z" fill="#263238"/>
<path d="M86.9063 380.774C86.6937 380.774 86.5215 384.656 86.5215 389.443C86.5215 394.231 86.6937 398.112 86.9063 398.112C87.1187 398.112 87.291 394.231 87.291 389.443C87.291 384.656 87.1187 380.774 86.9063 380.774Z" fill="#263238"/>
<path d="M78.8262 380.774C78.6137 380.774 78.4414 384.656 78.4414 389.443C78.4414 394.231 78.6137 398.112 78.8262 398.112C79.0389 398.112 79.2109 394.231 79.2109 389.443C79.2109 384.656 79.0389 380.774 78.8262 380.774Z" fill="#263238"/>
<g opacity="0.3">
<path opacity="0.3" d="M164.1 380.496C135.62 384.317 106.757 384.324 78.2754 380.514L164.1 380.496Z" fill="black"/>
</g>
<path d="M76.834 380.532C76.834 380.745 96.6493 380.917 121.087 380.917C145.534 380.917 165.345 380.745 165.345 380.532C165.345 380.32 145.534 380.147 121.087 380.147C96.6493 380.147 76.834 380.32 76.834 380.532Z" fill="#263238"/>
<path d="M66.4708 415.419H155.139V398.224H66.4708V415.419Z" fill="#FF725E"/>
<path d="M149.438 398.51C149.225 398.51 149.053 402.243 149.053 406.847C149.053 411.452 149.225 415.185 149.438 415.185C149.65 415.185 149.822 411.452 149.822 406.847C149.822 402.243 149.65 398.51 149.438 398.51Z" fill="#263238"/>
<path d="M141.217 398.51C141.004 398.51 140.832 402.243 140.832 406.847C140.832 411.452 141.004 415.185 141.217 415.185C141.429 415.185 141.602 411.452 141.602 406.847C141.602 402.243 141.429 398.51 141.217 398.51Z" fill="#263238"/>
<path d="M133.09 398.51C132.877 398.51 132.705 402.243 132.705 406.847C132.705 411.452 132.877 415.185 133.09 415.185C133.302 415.185 133.475 411.452 133.475 406.847C133.475 402.243 133.302 398.51 133.09 398.51Z" fill="#263238"/>
<path d="M125.01 398.51C124.797 398.51 124.625 402.243 124.625 406.847C124.625 411.452 124.797 415.185 125.01 415.185C125.222 415.185 125.395 411.452 125.395 406.847C125.395 402.243 125.222 398.51 125.01 398.51Z" fill="#263238"/>
<path d="M116.928 398.51C116.715 398.51 116.543 402.243 116.543 406.847C116.543 411.452 116.715 415.185 116.928 415.185C117.14 415.185 117.313 411.452 117.313 406.847C117.313 402.243 117.14 398.51 116.928 398.51Z" fill="#263238"/>
<path d="M108.846 398.51C108.633 398.51 108.461 402.243 108.461 406.847C108.461 411.452 108.633 415.185 108.846 415.185C109.058 415.185 109.231 411.452 109.231 406.847C109.231 402.243 109.058 398.51 108.846 398.51Z" fill="#263238"/>
<path d="M100.766 398.51C100.553 398.51 100.381 402.243 100.381 406.847C100.381 411.452 100.553 415.185 100.766 415.185C100.978 415.185 101.15 411.452 101.15 406.847C101.15 402.243 100.978 398.51 100.766 398.51Z" fill="#263238"/>
<path d="M92.6836 398.51C92.4711 398.51 92.2988 402.243 92.2988 406.847C92.2988 411.452 92.4711 415.185 92.6836 415.185C92.8961 415.185 93.0683 411.452 93.0683 406.847C93.0683 402.243 92.8961 398.51 92.6836 398.51Z" fill="#263238"/>
<path d="M84.6015 398.51C84.3891 398.51 84.2168 402.243 84.2168 406.847C84.2168 411.452 84.3891 415.185 84.6015 415.185C84.8141 415.185 84.9864 411.452 84.9864 406.847C84.9864 402.243 84.8141 398.51 84.6015 398.51Z" fill="#263238"/>
<path d="M76.5197 398.51C76.3072 398.51 76.1348 402.243 76.1348 406.847C76.1348 411.452 76.3072 415.185 76.5197 415.185C76.7322 415.185 76.9045 411.452 76.9045 406.847C76.9045 402.243 76.7322 398.51 76.5197 398.51Z" fill="#263238"/>
<path d="M68.4397 398.51C68.227 398.51 68.0547 402.243 68.0547 406.847C68.0547 411.452 68.227 415.185 68.4397 415.185C68.652 415.185 68.8244 411.452 68.8244 406.847C68.8244 402.243 68.652 398.51 68.4397 398.51Z" fill="#263238"/>
<g opacity="0.3">
<path opacity="0.3" d="M153.711 398.242C125.312 403.124 96.2886 403.132 67.8867 398.266L153.711 398.242Z" fill="black"/>
</g>
<path d="M66.4473 398.278C66.4473 398.49 86.2629 398.663 110.701 398.663C135.147 398.663 154.958 398.49 154.958 398.278C154.958 398.065 135.147 397.893 110.701 397.893C86.2629 397.893 66.4473 398.065 66.4473 398.278Z" fill="#263238"/>
<path d="M72.1721 432.625H160.84V415.43H72.1721V432.625Z" fill="#FF725E"/>
<path d="M155.139 415.716C154.926 415.716 154.754 419.449 154.754 424.053C154.754 428.658 154.926 432.391 155.139 432.391C155.351 432.391 155.524 428.658 155.524 424.053C155.524 419.449 155.351 415.716 155.139 415.716Z" fill="#263238"/>
<path d="M146.918 415.716C146.706 415.716 146.533 419.449 146.533 424.053C146.533 428.658 146.706 432.391 146.918 432.391C147.131 432.391 147.303 428.658 147.303 424.053C147.303 419.449 147.131 415.716 146.918 415.716Z" fill="#263238"/>
<path d="M138.791 415.716C138.578 415.716 138.406 419.449 138.406 424.053C138.406 428.658 138.578 432.391 138.791 432.391C139.003 432.391 139.176 428.658 139.176 424.053C139.176 419.449 139.003 415.716 138.791 415.716Z" fill="#263238"/>
<path d="M130.711 415.716C130.498 415.716 130.326 419.449 130.326 424.053C130.326 428.658 130.498 432.391 130.711 432.391C130.924 432.391 131.096 428.658 131.096 424.053C131.096 419.449 130.924 415.716 130.711 415.716Z" fill="#263238"/>
<path d="M122.629 415.716C122.416 415.716 122.244 419.449 122.244 424.053C122.244 428.658 122.416 432.391 122.629 432.391C122.842 432.391 123.014 428.658 123.014 424.053C123.014 419.449 122.842 415.716 122.629 415.716Z" fill="#263238"/>
<path d="M114.547 415.716C114.334 415.716 114.162 419.449 114.162 424.053C114.162 428.658 114.334 432.391 114.547 432.391C114.76 432.391 114.932 428.658 114.932 424.053C114.932 419.449 114.76 415.716 114.547 415.716Z" fill="#263238"/>
<path d="M106.465 415.716C106.252 415.716 106.08 419.449 106.08 424.053C106.08 428.658 106.252 432.391 106.465 432.391C106.678 432.391 106.85 428.658 106.85 424.053C106.85 419.449 106.678 415.716 106.465 415.716Z" fill="#263238"/>
<path d="M98.385 415.716C98.1723 415.716 98 419.449 98 424.053C98 428.658 98.1723 432.391 98.385 432.391C98.5975 432.391 98.7697 428.658 98.7697 424.053C98.7697 419.449 98.5975 415.716 98.385 415.716Z" fill="#263238"/>
<path d="M90.3028 415.716C90.0901 415.716 89.918 419.449 89.918 424.053C89.918 428.658 90.0901 432.391 90.3028 432.391C90.5152 432.391 90.6876 428.658 90.6876 424.053C90.6876 419.449 90.5152 415.716 90.3028 415.716Z" fill="#263238"/>
<path d="M82.2207 415.716C82.0081 415.716 81.8359 419.449 81.8359 424.053C81.8359 428.658 82.0081 432.391 82.2207 432.391C82.4333 432.391 82.6056 428.658 82.6056 424.053C82.6056 419.449 82.4333 415.716 82.2207 415.716Z" fill="#263238"/>
<path d="M74.1407 415.716C73.9282 415.716 73.7559 419.449 73.7559 424.053C73.7559 428.658 73.9282 432.391 74.1407 432.391C74.3532 432.391 74.5255 428.658 74.5255 424.053C74.5255 419.449 74.3532 415.716 74.1407 415.716Z" fill="#263238"/>
<g opacity="0.3">
<path opacity="0.3" d="M159.412 415.448C131.072 420.973 101.932 420.982 73.5879 415.475L159.412 415.448Z" fill="black"/>
</g>
<path d="M72.1484 415.483C72.1484 415.696 91.9638 415.868 116.402 415.868C140.848 415.868 160.659 415.696 160.659 415.483C160.659 415.271 140.848 415.099 116.402 415.099C91.9638 415.099 72.1484 415.271 72.1484 415.483Z" fill="#263238"/>
<path d="M67.1058 449.586H155.773V432.391H67.1058V449.586Z" fill="#FF725E"/>
<path d="M150.072 432.677C149.86 432.677 149.688 436.41 149.688 441.014C149.688 445.619 149.86 449.352 150.072 449.352C150.285 449.352 150.457 445.619 150.457 441.014C150.457 436.41 150.285 432.677 150.072 432.677Z" fill="#263238"/>
<path d="M141.852 432.677C141.639 432.677 141.467 436.41 141.467 441.014C141.467 445.619 141.639 449.352 141.852 449.352C142.064 449.352 142.237 445.619 142.237 441.014C142.237 436.41 142.064 432.677 141.852 432.677Z" fill="#263238"/>
<path d="M133.727 432.677C133.514 432.677 133.342 436.41 133.342 441.014C133.342 445.619 133.514 449.352 133.727 449.352C133.939 449.352 134.112 445.619 134.112 441.014C134.112 436.41 133.939 432.677 133.727 432.677Z" fill="#263238"/>
<path d="M125.645 432.677C125.432 432.677 125.26 436.41 125.26 441.014C125.26 445.619 125.432 449.352 125.645 449.352C125.857 449.352 126.03 445.619 126.03 441.014C126.03 436.41 125.857 432.677 125.645 432.677Z" fill="#263238"/>
<path d="M117.563 432.677C117.35 432.677 117.178 436.41 117.178 441.014C117.178 445.619 117.35 449.352 117.563 449.352C117.775 449.352 117.947 445.619 117.947 441.014C117.947 436.41 117.775 432.677 117.563 432.677Z" fill="#263238"/>
<path d="M109.481 432.677C109.268 432.677 109.096 436.41 109.096 441.014C109.096 445.619 109.268 449.352 109.481 449.352C109.693 449.352 109.865 445.619 109.865 441.014C109.865 436.41 109.693 432.677 109.481 432.677Z" fill="#263238"/>
<path d="M101.401 432.677C101.188 432.677 101.016 436.41 101.016 441.014C101.016 445.619 101.188 449.352 101.401 449.352C101.613 449.352 101.785 445.619 101.785 441.014C101.785 436.41 101.613 432.677 101.401 432.677Z" fill="#263238"/>
<path d="M93.3186 432.677C93.106 432.677 92.9336 436.41 92.9336 441.014C92.9336 445.619 93.106 449.352 93.3186 449.352C93.531 449.352 93.7033 445.619 93.7033 441.014C93.7033 436.41 93.531 432.677 93.3186 432.677Z" fill="#263238"/>
<path d="M85.2364 432.677C85.0237 432.677 84.8516 436.41 84.8516 441.014C84.8516 445.619 85.0237 449.352 85.2364 449.352C85.4488 449.352 85.6211 445.619 85.6211 441.014C85.6211 436.41 85.4488 432.677 85.2364 432.677Z" fill="#263238"/>
<path d="M77.1562 432.677C76.9438 432.677 76.7715 436.41 76.7715 441.014C76.7715 445.619 76.9438 449.352 77.1562 449.352C77.3687 449.352 77.541 445.619 77.541 441.014C77.541 436.41 77.3687 432.677 77.1562 432.677Z" fill="#263238"/>
<path d="M69.0743 432.677C68.8617 432.677 68.6895 436.41 68.6895 441.014C68.6895 445.619 68.8617 449.352 69.0743 449.352C69.2867 449.352 69.4591 445.619 69.4591 441.014C69.4591 436.41 69.2867 432.677 69.0743 432.677Z" fill="#263238"/>
<g opacity="0.3">
<path opacity="0.3" d="M154.348 432.409C125.949 437.291 96.9253 437.299 68.5234 432.433L154.348 432.409Z" fill="black"/>
</g>
<path d="M67.082 432.444C67.082 432.657 86.8974 432.829 111.335 432.829C135.782 432.829 155.593 432.657 155.593 432.444C155.593 432.232 135.782 432.06 111.335 432.06C86.8974 432.06 67.082 432.232 67.082 432.444Z" fill="#263238"/>
<path d="M155.773 449.586C155.752 449.49 155.743 449.391 155.746 449.292C155.739 449.067 155.73 448.782 155.719 448.427C155.707 447.626 155.69 446.508 155.669 445.081C155.648 442.125 155.618 437.896 155.581 432.625L155.58 432.434L155.773 432.434C157.313 432.427 158.945 432.42 160.659 432.412L160.446 432.625C160.431 427.602 160.414 421.785 160.396 415.42L160.659 415.682C158.867 415.686 156.934 415.689 154.958 415.693L154.685 415.693L154.685 415.419C154.679 410.104 154.674 404.342 154.668 398.356L154.668 398.066L154.958 398.066C156.846 398.066 158.857 398.065 160.888 398.065C162.387 398.065 163.872 398.065 165.344 398.066L165.055 398.356C165.06 391.994 165.066 385.88 165.071 380.148L165.344 380.421L156.926 380.406L156.667 380.405L156.668 380.147C156.688 373.924 156.706 368.31 156.721 363.472L156.722 363.266L156.926 363.267C157.709 363.27 158.412 363.274 159.098 363.277L158.902 363.474C158.884 357.935 158.869 353.489 158.859 350.385C158.866 348.883 158.871 347.708 158.875 346.868C158.883 346.493 158.888 346.194 158.893 345.958C158.889 345.854 158.897 345.751 158.918 345.649C158.94 345.75 158.951 345.854 158.949 345.958C158.958 346.193 158.97 346.492 158.985 346.867C159.006 347.707 159.035 348.882 159.072 350.383C159.125 353.486 159.2 357.931 159.293 363.47L159.297 363.667L159.098 363.668C158.412 363.671 157.709 363.674 156.926 363.677L157.132 363.472C157.147 368.31 157.165 373.924 157.184 380.147L156.926 379.889L165.344 379.874L165.618 379.873L165.618 380.148C165.624 385.88 165.629 391.994 165.635 398.356L165.635 398.646H165.344C163.874 398.646 162.389 398.646 160.888 398.646C158.857 398.646 156.846 398.645 154.958 398.645L155.247 398.356C155.241 404.342 155.236 410.104 155.231 415.419L154.958 415.146C156.934 415.15 158.867 415.153 160.659 415.157L160.922 415.157L160.922 415.42C160.903 421.785 160.886 427.602 160.872 432.625L160.871 432.839L160.659 432.838C158.945 432.831 157.313 432.824 155.773 432.817L155.965 432.625C155.928 437.896 155.898 442.125 155.877 445.081C155.856 446.508 155.839 447.626 155.827 448.427C155.816 448.783 155.807 449.067 155.8 449.292C155.803 449.391 155.794 449.49 155.773 449.586V449.586Z" fill="#263238"/>
<path d="M171.226 163.983H562.444C566.58 163.983 570.548 165.626 573.473 168.551C576.398 171.476 578.041 175.444 578.041 179.58V427.723C578.041 431.859 576.398 435.827 573.473 438.752C570.548 441.677 566.58 443.32 562.444 443.32H171.226C167.09 443.32 163.122 441.677 160.197 438.752C157.272 435.827 155.629 431.859 155.629 427.723V179.58C155.629 175.444 157.272 171.476 160.197 168.551C163.122 165.626 167.09 163.983 171.226 163.983V163.983Z" fill="#455A64"/>
<path d="M139.121 425.279H596.773V431.307C596.773 436.191 594.832 440.874 591.379 444.328C587.926 447.781 583.242 449.721 578.359 449.721H157.535C152.651 449.721 147.968 447.781 144.514 444.328C141.061 440.874 139.121 436.191 139.121 431.307V425.279V425.279Z" fill="#455A64"/>
<path d="M325.195 422.66L330.873 431.693H410.786L416.059 422.66H325.195Z" fill="#263238"/>
<path d="M574.411 422.66C574.411 422.811 480.656 422.934 365.03 422.934C249.364 422.934 155.629 422.811 155.629 422.66C155.629 422.509 249.364 422.387 365.03 422.387C480.656 422.387 574.411 422.509 574.411 422.66Z" fill="#263238"/>
<path d="M557.723 410.555H174.768L175.178 183.067H557.723V410.555Z" fill="#FAFAFA"/>
<path d="M557.722 410.555C557.721 408.807 557.639 322.512 557.506 183.067L557.722 183.283C454.617 183.3 320.859 183.322 175.177 183.346L175.456 183.068L175.455 183.243C175.303 263.745 175.158 340.601 175.026 410.555L174.767 410.296C399.392 410.448 555.378 410.553 557.722 410.555C555.38 410.556 399.392 410.662 174.767 410.813L174.508 410.814L174.508 410.554C174.628 340.6 174.76 263.744 174.898 183.242L174.898 183.066L174.899 182.788H175.177C320.859 182.812 454.617 182.834 557.722 182.85H557.939L557.939 183.067C557.806 322.512 557.724 408.808 557.722 410.555Z" fill="#263238"/>
<path d="M549.398 361.641C549.398 361.795 467.997 361.92 367.607 361.92C267.182 361.92 185.799 361.795 185.799 361.641C185.799 361.487 267.182 361.362 367.607 361.362C467.997 361.362 549.398 361.487 549.398 361.641Z" fill="#E0E0E0"/>
<path d="M549.398 324.489C549.398 324.643 467.997 324.768 367.607 324.768C267.182 324.768 185.799 324.643 185.799 324.489C185.799 324.335 267.182 324.21 367.607 324.21C467.997 324.21 549.398 324.335 549.398 324.489Z" fill="#E0E0E0"/>
<path d="M549.398 398.793C549.398 398.947 467.997 399.072 367.607 399.072C267.182 399.072 185.799 398.947 185.799 398.793C185.799 398.639 267.182 398.515 367.607 398.515C467.997 398.515 549.398 398.639 549.398 398.793Z" fill="#E0E0E0"/>
<path d="M549.398 287.337C549.398 287.491 467.997 287.616 367.607 287.616C267.182 287.616 185.799 287.491 185.799 287.337C185.799 287.183 267.182 287.058 367.607 287.058C467.997 287.058 549.398 287.183 549.398 287.337Z" fill="#E0E0E0"/>
<path d="M549.398 250.185C549.398 250.339 467.997 250.463 367.607 250.463C267.182 250.463 185.799 250.339 185.799 250.185C185.799 250.031 267.182 249.906 367.607 249.906C467.997 249.906 549.398 250.031 549.398 250.185Z" fill="#E0E0E0"/>
<path d="M549.398 213.032C549.398 213.186 467.997 213.311 367.607 213.311C267.182 213.311 185.799 213.186 185.799 213.032C185.799 212.878 267.182 212.753 367.607 212.753C467.997 212.753 549.398 212.878 549.398 213.032Z" fill="#E0E0E0"/>
<path d="M375.748 366.408L375.379 366.201L287.103 317.007L218.354 364.496L217.746 363.615L287.043 315.748L375.531 365.061L515.228 212.67L516.016 213.394L375.748 366.408Z" fill="#263238"/>
<path d="M412.825 352.194C413.042 358.386 411.417 364.504 408.157 369.773C404.897 375.042 400.147 379.226 394.509 381.796C388.871 384.366 382.597 385.206 376.482 384.21C370.366 383.215 364.683 380.428 360.151 376.202C355.619 371.977 352.442 366.502 351.022 360.471C349.601 354.44 350.001 348.123 352.171 342.319C354.34 336.515 358.182 331.485 363.211 327.865C368.239 324.244 374.229 322.196 380.421 321.98C388.725 321.689 396.804 324.709 402.881 330.376C408.958 336.042 412.535 343.89 412.825 352.194V352.194Z" fill="#FF725E"/>
<g opacity="0.1">
<path opacity="0.1" d="M380.421 321.979C376.309 322.123 372.266 323.075 368.523 324.782C364.779 326.488 361.408 328.915 358.602 331.924C355.797 334.933 353.611 338.465 352.171 342.319C350.73 346.173 350.063 350.273 350.207 354.384C350.207 354.384 372.242 354.599 377.224 345.554C382.207 336.508 380.421 321.979 380.421 321.979Z" fill="white"/>
</g>
<path d="M404.805 351.978C404.97 356.686 403.735 361.336 401.256 365.342C398.778 369.347 395.167 372.528 390.881 374.482C386.595 376.435 381.826 377.074 377.177 376.317C372.527 375.56 368.207 373.442 364.762 370.23C361.317 367.017 358.902 362.856 357.822 358.271C356.742 353.686 357.046 348.884 358.695 344.471C360.345 340.059 363.265 336.235 367.088 333.483C370.911 330.731 375.464 329.174 380.171 329.009C383.297 328.9 386.413 329.407 389.343 330.502C392.273 331.597 394.958 333.259 397.245 335.392C399.533 337.524 401.378 340.087 402.675 342.933C403.972 345.779 404.696 348.852 404.805 351.978V351.978Z" fill="#FF725E"/>
<g opacity="0.2">
<path opacity="0.2" d="M404.805 351.978C404.97 356.686 403.735 361.336 401.256 365.342C398.778 369.347 395.167 372.528 390.881 374.482C386.595 376.435 381.826 377.074 377.177 376.317C372.527 375.56 368.207 373.442 364.762 370.23C361.317 367.017 358.902 362.856 357.822 358.271C356.742 353.686 357.046 348.884 358.695 344.471C360.345 340.059 363.265 336.235 367.088 333.483C370.911 330.731 375.464 329.174 380.171 329.009C383.297 328.9 386.413 329.407 389.343 330.502C392.273 331.597 394.958 333.259 397.245 335.392C399.533 337.524 401.378 340.087 402.675 342.933C403.972 345.779 404.696 348.852 404.805 351.978V351.978Z" fill="black"/>
</g>
<path d="M405.512 352.946C405.674 357.59 404.455 362.179 402.01 366.13C399.565 370.082 396.003 373.22 391.774 375.148C387.546 377.075 382.841 377.705 378.254 376.958C373.667 376.212 369.405 374.121 366.006 370.952C362.607 367.783 360.224 363.677 359.159 359.154C358.094 354.631 358.394 349.893 360.021 345.54C361.648 341.187 364.529 337.414 368.301 334.699C372.072 331.984 376.564 330.448 381.208 330.285C384.292 330.177 387.367 330.678 390.257 331.758C393.147 332.839 395.796 334.478 398.053 336.582C400.31 338.686 402.13 341.215 403.41 344.022C404.69 346.83 405.404 349.862 405.512 352.946V352.946Z" fill="#FF725E"/>
<g opacity="0.2">
<path opacity="0.2" d="M405.512 352.946C405.674 357.59 404.455 362.179 402.01 366.13C399.565 370.082 396.003 373.22 391.774 375.148C387.546 377.075 382.841 377.705 378.254 376.958C373.667 376.212 369.405 374.121 366.006 370.952C362.607 367.783 360.224 363.677 359.159 359.154C358.094 354.631 358.394 349.893 360.021 345.54C361.648 341.187 364.529 337.414 368.301 334.699C372.072 331.984 376.564 330.448 381.208 330.285C384.292 330.177 387.367 330.678 390.257 331.758C393.147 332.839 395.796 334.478 398.053 336.582C400.31 338.686 402.13 341.215 403.41 344.022C404.69 346.83 405.404 349.862 405.512 352.946V352.946Z" fill="white"/>
</g>
<path d="M382.895 351.699L382.685 345.692L382.714 345.69C383.815 345.785 384.899 346.027 385.936 346.411C386.471 346.663 386.982 346.961 387.465 347.302L387.538 347.114L388.389 344.918L388.585 344.414L387.475 343.326L386.968 343.576C385.593 342.914 384.097 342.538 382.572 342.472L382.456 339.168L381.399 338.375L381.427 339.204L380.016 339.253L380.133 342.617C375.506 343.226 373.396 345.952 373.502 348.988C373.647 353.125 377.226 354.073 380.558 354.761L380.766 360.714C378.602 360.615 376.51 359.902 374.734 358.66L373.5 361.713C375.68 363.178 378.252 363.951 380.879 363.929L380.966 366.424L379.805 366.484L380.994 367.233L383.435 367.147L383.319 363.814C387.975 363.174 390.116 360.476 390.01 357.44C389.865 353.303 386.227 352.387 382.895 351.699ZM380.432 351.16C378.688 350.714 377.385 350.104 377.335 348.675C377.289 347.366 378.145 346.263 380.247 345.861L380.432 351.16ZM382.685 345.687L382.684 345.687V345.687H382.685ZM383.205 360.569L383.021 355.301C384.824 355.745 386.158 356.383 386.209 357.842C386.254 359.122 385.366 360.166 383.205 360.569V360.569Z" fill="#FF725E"/>
<g opacity="0.3">
<path opacity="0.3" d="M382.895 351.699L382.685 345.692L382.714 345.69C383.815 345.785 384.899 346.027 385.936 346.411C386.471 346.663 386.982 346.961 387.465 347.302L387.538 347.114L388.389 344.918L388.585 344.414L387.475 343.326L386.968 343.576C385.593 342.914 384.097 342.538 382.572 342.472L382.456 339.168L381.399 338.375L381.427 339.204L380.016 339.253L380.133 342.617C375.506 343.226 373.396 345.952 373.502 348.988C373.647 353.125 377.226 354.073 380.558 354.761L380.766 360.714C378.602 360.615 376.51 359.902 374.734 358.66L373.5 361.713C375.68 363.178 378.252 363.951 380.879 363.929L380.966 366.424L379.805 366.484L380.994 367.233L383.435 367.147L383.319 363.814C387.975 363.174 390.116 360.476 390.01 357.44C389.865 353.303 386.227 352.387 382.895 351.699ZM380.432 351.16C378.688 350.714 377.385 350.104 377.335 348.675C377.289 347.366 378.145 346.263 380.247 345.861L380.432 351.16ZM382.685 345.687L382.684 345.687V345.687H382.685ZM383.205 360.569L383.021 355.301C384.824 355.745 386.158 356.383 386.209 357.842C386.254 359.122 385.366 360.166 383.205 360.569V360.569Z" fill="black"/>
</g>
<path d="M382.279 363.033L382.396 366.368L379.955 366.453L379.839 363.149C377.212 363.17 374.639 362.398 372.459 360.932L373.693 357.879C375.469 359.121 377.561 359.834 379.726 359.933L379.518 353.979C376.185 353.291 372.606 352.343 372.461 348.205C372.355 345.169 374.465 342.442 379.093 341.833L378.976 338.469L381.416 338.384L381.532 341.688C383.67 341.703 385.77 342.255 387.639 343.293L386.524 346.342C385.015 345.529 383.353 345.038 381.645 344.903L381.855 350.917C385.188 351.605 388.827 352.521 388.971 356.659C389.078 359.696 386.936 362.393 382.279 363.033ZM379.392 350.377L379.207 345.078C377.105 345.479 376.249 346.582 376.295 347.892C376.345 349.321 377.648 349.931 379.392 350.377V350.377ZM385.17 357.06C385.119 355.602 383.785 354.963 381.981 354.519L382.165 359.789C384.328 359.385 385.215 358.341 385.17 357.06V357.06Z" fill="#FF725E"/>
<path d="M374.583 350.624C374.293 350.466 374.047 350.238 373.868 349.961C373.381 349.32 373.119 348.537 373.119 347.732C373.12 346.927 373.384 346.145 373.871 345.504C374.051 345.227 374.297 345 374.587 344.843C374.614 344.873 374.327 345.111 374.006 345.599C373.581 346.229 373.353 346.972 373.353 347.732C373.352 348.493 373.579 349.236 374.003 349.866C374.323 350.355 374.61 350.594 374.583 350.624Z" fill="white"/>
<path d="M379.58 341.323C379.366 342.362 378.764 343.281 377.896 343.891C377.028 344.501 375.96 344.756 374.91 344.605C373.859 344.453 372.907 343.907 372.246 343.076C371.586 342.246 371.268 341.195 371.356 340.138C371.445 339.08 371.934 338.097 372.724 337.388C373.514 336.68 374.544 336.3 375.605 336.325C376.666 336.351 377.676 336.781 378.43 337.528C379.185 338.274 379.625 339.28 379.662 340.34C379.711 340.67 379.683 341.006 379.58 341.323Z" fill="white"/>
<path d="M382.301 328.321C382.046 328.341 381.79 328.339 381.535 328.318C381.289 328.306 380.989 328.296 380.64 328.305C380.291 328.31 379.893 328.298 379.455 328.332C379.017 328.353 378.537 328.378 378.025 328.44C377.51 328.481 376.967 328.575 376.394 328.662C373.911 329.086 371.508 329.891 369.27 331.048C368.76 331.324 368.27 331.577 367.834 331.854C367.388 332.113 366.99 332.382 366.627 332.629C366.257 332.866 365.947 333.115 365.665 333.321C365.381 333.524 365.148 333.713 364.959 333.871C364.768 334.041 364.565 334.196 364.35 334.335C364.519 334.143 364.703 333.964 364.9 333.801C365.081 333.633 365.307 333.432 365.585 333.218C365.861 333.001 366.166 332.742 366.532 332.494C366.891 332.236 367.287 331.957 367.733 331.689C368.168 331.402 368.659 331.141 369.17 330.857C371.419 329.668 373.847 328.854 376.358 328.449C376.938 328.368 377.487 328.281 378.006 328.248C378.523 328.193 379.008 328.177 379.45 328.167C379.891 328.144 380.291 328.167 380.642 328.174C380.993 328.178 381.294 328.201 381.54 328.227C381.796 328.238 382.05 328.27 382.301 328.321V328.321Z" fill="white"/>
<path d="M439.482 380.776C447.793 380.697 454.466 373.895 454.387 365.584C454.308 357.273 447.506 350.6 439.195 350.679C430.884 350.758 424.211 357.56 424.29 365.871C424.369 374.182 431.171 380.855 439.482 380.776Z" fill="#FF725E"/>
<g opacity="0.1">
<path opacity="0.1" d="M438.812 350.688C436.837 350.757 434.895 351.214 433.097 352.034C431.298 352.853 429.679 354.019 428.331 355.465C426.984 356.91 425.934 358.607 425.242 360.458C424.55 362.309 424.229 364.279 424.298 366.254C424.298 366.254 434.883 366.357 437.277 362.012C439.67 357.667 438.812 350.688 438.812 350.688Z" fill="white"/>
</g>
<path d="M450.526 365.098C450.605 367.359 450.012 369.593 448.822 371.517C447.631 373.441 445.897 374.969 443.838 375.908C441.779 376.846 439.488 377.153 437.254 376.789C435.021 376.426 432.946 375.408 431.291 373.865C429.636 372.322 428.476 370.323 427.957 368.12C427.438 365.918 427.584 363.611 428.377 361.492C429.169 359.372 430.572 357.535 432.408 356.213C434.245 354.891 436.432 354.143 438.693 354.064C440.194 354.012 441.692 354.255 443.099 354.781C444.506 355.307 445.796 356.105 446.895 357.13C447.994 358.155 448.88 359.386 449.503 360.753C450.126 362.12 450.474 363.596 450.526 365.098Z" fill="#FF725E"/>
<g opacity="0.2">
<path opacity="0.2" d="M450.526 365.098C450.605 367.359 450.012 369.593 448.822 371.517C447.631 373.441 445.897 374.969 443.838 375.908C441.779 376.846 439.488 377.153 437.254 376.789C435.021 376.426 432.946 375.408 431.291 373.865C429.636 372.322 428.476 370.323 427.957 368.12C427.438 365.918 427.584 363.611 428.377 361.492C429.169 359.372 430.572 357.535 432.408 356.213C434.245 354.891 436.432 354.143 438.693 354.064C440.194 354.012 441.692 354.255 443.099 354.781C444.506 355.307 445.796 356.105 446.895 357.13C447.994 358.155 448.88 359.386 449.503 360.753C450.126 362.12 450.474 363.596 450.526 365.098Z" fill="black"/>
</g>
<path d="M442.04 376.975C448.125 375.619 451.959 369.588 450.603 363.503C449.248 357.419 443.217 353.585 437.132 354.941C431.048 356.296 427.214 362.327 428.569 368.412C429.925 374.496 435.956 378.33 442.04 376.975Z" fill="#FF725E"/>
<g opacity="0.2">
<path opacity="0.2" d="M442.04 376.974C448.125 375.619 451.959 369.587 450.603 363.503C449.248 357.419 443.217 353.585 437.132 354.94C431.048 356.296 427.214 362.327 428.569 368.411C429.925 374.496 435.956 378.329 442.04 376.974Z" fill="white"/>
</g>
<path d="M440 364.964L439.899 362.078L439.913 362.078C440.442 362.123 440.963 362.239 441.461 362.424C441.718 362.545 441.964 362.688 442.196 362.852L442.231 362.761L442.64 361.707L442.734 361.464L442.2 360.942L441.957 361.062C441.296 360.744 440.578 360.563 439.845 360.532L439.79 358.944L439.282 358.563L439.295 358.962L438.617 358.985L438.674 360.601C436.451 360.894 435.437 362.203 435.488 363.662C435.558 365.649 437.277 366.104 438.878 366.435L438.978 369.294C437.938 369.247 436.933 368.905 436.08 368.308L435.487 369.774C436.535 370.478 437.77 370.849 439.032 370.839L439.074 372.037L438.516 372.066L439.087 372.426L440.26 372.385L440.204 370.783C442.441 370.476 443.469 369.18 443.418 367.722C443.348 365.734 441.601 365.294 440 364.964ZM438.817 364.705C437.979 364.491 437.354 364.198 437.33 363.511C437.308 362.882 437.719 362.352 438.728 362.16L438.817 364.705ZM440.149 369.225L440.061 366.694C440.927 366.907 441.568 367.214 441.592 367.915C441.614 368.529 441.187 369.031 440.149 369.225V369.225Z" fill="#FF725E"/>
<g opacity="0.3">
<path opacity="0.3" d="M440 364.964L439.899 362.078L439.913 362.078C440.442 362.123 440.963 362.239 441.461 362.424C441.718 362.545 441.964 362.688 442.196 362.852L442.231 362.761L442.64 361.707L442.734 361.464L442.2 360.942L441.957 361.062C441.296 360.744 440.578 360.563 439.845 360.532L439.79 358.944L439.282 358.563L439.295 358.962L438.617 358.985L438.674 360.601C436.451 360.894 435.437 362.203 435.488 363.662C435.558 365.649 437.277 366.104 438.878 366.435L438.978 369.294C437.938 369.247 436.933 368.905 436.08 368.308L435.487 369.774C436.535 370.478 437.77 370.849 439.032 370.839L439.074 372.037L438.516 372.066L439.087 372.426L440.26 372.385L440.204 370.783C442.441 370.476 443.469 369.18 443.418 367.722C443.348 365.734 441.601 365.294 440 364.964ZM438.817 364.705C437.979 364.491 437.354 364.198 437.33 363.511C437.308 362.882 437.719 362.352 438.728 362.16L438.817 364.705ZM440.149 369.225L440.061 366.694C440.927 366.907 441.568 367.214 441.592 367.915C441.614 368.529 441.187 369.031 440.149 369.225V369.225Z" fill="black"/>
</g>
<path d="M439.706 370.408L439.762 372.01L438.59 372.051L438.534 370.464C437.272 370.474 436.037 370.103 434.989 369.399L435.582 367.932C436.435 368.529 437.44 368.871 438.48 368.919L438.38 366.059C436.779 365.728 435.06 365.273 434.99 363.285C434.939 361.827 435.953 360.517 438.176 360.224L438.12 358.608L439.292 358.567L439.348 360.155C440.375 360.162 441.383 360.427 442.281 360.926L441.745 362.39C441.021 361.999 440.223 361.764 439.402 361.699L439.503 364.588C441.104 364.918 442.852 365.359 442.921 367.346C442.972 368.805 441.944 370.101 439.706 370.408ZM438.32 364.329L438.231 361.783C437.221 361.976 436.81 362.506 436.832 363.135C436.856 363.821 437.482 364.115 438.32 364.329V364.329ZM441.095 367.539C441.071 366.838 440.43 366.532 439.563 366.318L439.652 368.85C440.691 368.656 441.117 368.154 441.095 367.539V367.539Z" fill="#FF725E"/>
<path d="M436.008 364.447C435.869 364.372 435.75 364.262 435.664 364.129C435.431 363.821 435.304 363.445 435.305 363.058C435.305 362.672 435.432 362.296 435.666 361.988C435.752 361.855 435.87 361.746 436.01 361.67C436.023 361.685 435.885 361.799 435.731 362.034C435.526 362.336 435.417 362.693 435.417 363.058C435.417 363.424 435.525 363.781 435.729 364.084C435.883 364.318 436.021 364.433 436.008 364.447Z" fill="white"/>
<path d="M438.409 359.98C438.306 360.479 438.017 360.921 437.599 361.215C437.182 361.508 436.668 361.631 436.163 361.558C435.658 361.485 435.2 361.223 434.882 360.823C434.565 360.424 434.412 359.918 434.454 359.41C434.497 358.902 434.732 358.429 435.112 358.088C435.492 357.747 435.987 357.564 436.497 357.577C437.007 357.589 437.493 357.796 437.856 358.155C438.219 358.514 438.431 358.998 438.449 359.508C438.472 359.666 438.458 359.827 438.409 359.98V359.98Z" fill="white"/>
<path d="M439.715 353.734C439.592 353.743 439.469 353.743 439.347 353.732C439.229 353.726 439.085 353.722 438.917 353.726C438.749 353.729 438.559 353.723 438.348 353.739C438.137 353.749 437.907 353.761 437.661 353.791C437.414 353.811 437.153 353.856 436.877 353.897C435.685 354.101 434.53 354.488 433.455 355.044C433.21 355.176 432.975 355.298 432.766 355.431C432.551 355.555 432.36 355.684 432.186 355.803C432.008 355.917 431.859 356.037 431.724 356.135C431.587 356.233 431.475 356.324 431.385 356.4C431.293 356.482 431.195 356.556 431.092 356.623C431.173 356.53 431.261 356.445 431.356 356.366C431.443 356.285 431.552 356.189 431.685 356.086C431.818 355.982 431.964 355.857 432.14 355.738C432.313 355.614 432.503 355.48 432.717 355.352C432.926 355.214 433.162 355.088 433.407 354.952C434.488 354.381 435.654 353.99 436.86 353.795C437.139 353.756 437.402 353.714 437.652 353.698C437.9 353.672 438.133 353.664 438.345 353.66C438.557 353.648 438.75 353.66 438.918 353.663C439.087 353.665 439.231 353.676 439.349 353.689C439.472 353.694 439.595 353.709 439.715 353.734V353.734Z" fill="white"/>
<path d="M218.05 376.821C224.783 376.821 230.242 371.362 230.242 364.629C230.242 357.895 224.783 352.437 218.05 352.437C211.316 352.437 205.857 357.895 205.857 364.629C205.857 371.362 211.316 376.821 218.05 376.821Z" fill="#FF725E"/>
<path d="M287.104 328.036C293.838 328.036 299.296 322.577 299.296 315.844C299.296 309.11 293.838 303.651 287.104 303.651C280.371 303.651 274.912 309.11 274.912 315.844C274.912 322.577 280.371 328.036 287.104 328.036Z" fill="#FF725E"/>
<path d="M513.721 225.225C520.455 225.225 525.914 219.766 525.914 213.033C525.914 206.299 520.455 200.84 513.721 200.84C506.988 200.84 501.529 206.299 501.529 213.033C501.529 219.766 506.988 225.225 513.721 225.225Z" fill="#FF725E"/>
<path d="M357.257 82.1911C360.699 80.1118 364.403 78.5018 368.272 77.4038L370.541 66.5008L388.962 66.1777L391.613 76.9933C395.518 77.9542 399.277 79.433 402.79 81.3904L412.101 75.2878L425.355 88.0855L419.584 97.6023C421.664 101.045 423.274 104.75 424.371 108.62L435.273 110.889L435.597 129.31L424.781 131.961C423.82 135.866 422.341 139.625 420.384 143.137L426.486 152.448L413.69 165.703L404.172 159.932C400.729 162.011 397.024 163.621 393.155 164.718L390.886 175.621L372.465 175.945L369.813 165.128C365.909 164.167 362.15 162.688 358.637 160.731L349.327 166.834L336.073 154.036L341.843 144.519C339.763 141.077 338.153 137.371 337.056 133.502L326.153 131.233L325.83 112.813L336.646 110.16C337.608 106.256 339.087 102.497 341.043 98.9844L334.941 89.6741L347.737 76.4195L357.257 82.1911V82.1911ZM367.077 106.731C364.362 109.543 362.542 113.097 361.847 116.944C361.151 120.79 361.613 124.757 363.172 128.341C364.731 131.926 367.318 134.968 370.606 137.082C373.894 139.196 377.735 140.288 381.643 140.219C385.552 140.15 389.352 138.924 392.563 136.696C395.775 134.467 398.253 131.336 399.685 127.699C401.117 124.062 401.439 120.082 400.609 116.262C399.779 112.442 397.835 108.954 395.023 106.239C393.156 104.436 390.952 103.019 388.537 102.068C386.122 101.117 383.543 100.651 380.948 100.697C378.353 100.743 375.792 101.299 373.412 102.334C371.032 103.37 368.879 104.864 367.077 106.731Z" fill="#E0E0E0"/>
<path d="M421.898 9.35267C423.908 8.13826 426.072 7.19796 428.331 6.55672L429.657 0.188656L440.416 0L441.964 6.31688C444.245 6.8781 446.44 7.74179 448.492 8.88499L453.93 5.3208L461.671 12.7953L458.301 18.3537C459.515 20.3645 460.456 22.5286 461.096 24.7886L467.464 26.1137L467.653 36.8726L461.336 38.4212C460.774 40.7017 459.911 42.897 458.768 44.9487L462.331 50.3867L454.858 58.128L449.299 54.7574C447.288 55.9719 445.124 56.9121 442.864 57.5531L441.539 63.921L430.78 64.1099L429.232 57.7925C426.951 57.2309 424.756 56.3672 422.704 55.2243L417.267 58.7887L409.525 51.3141L412.896 45.7556C411.681 43.745 410.741 41.581 410.099 39.3212L403.732 37.996L403.543 27.2373L409.86 25.6883C410.422 23.4079 411.286 21.2127 412.428 19.1608L408.865 13.7231L416.338 5.98175L421.898 9.35267V9.35267ZM427.633 23.6852C426.048 25.3277 424.985 27.4036 424.579 29.6502C424.173 31.8969 424.442 34.2134 425.353 36.307C426.263 38.4005 427.774 40.177 429.695 41.4118C431.615 42.6466 433.858 43.2843 436.141 43.2441C438.424 43.2039 440.643 42.4878 442.519 41.1862C444.395 39.8846 445.842 38.0561 446.679 35.9318C447.515 33.8075 447.703 31.4829 447.218 29.2519C446.733 27.0209 445.598 24.9838 443.955 23.3981C442.865 22.3452 441.578 21.5174 440.167 20.962C438.757 20.4066 437.251 20.1345 435.735 20.1612C434.219 20.1878 432.724 20.5128 431.334 21.1174C429.944 21.7221 428.686 22.5946 427.633 23.6852V23.6852Z" fill="#E0E0E0"/>
<path d="M377.66 21.5342C379.61 21.0398 381.372 19.9844 382.728 18.4988C384.084 17.0131 384.975 15.1624 385.29 13.1757C386.261 7.57819 382.794 2.30022 377.545 1.3869C372.298 0.474122 367.256 4.27151 366.285 9.86899C365.908 11.8629 366.13 13.9239 366.923 15.7917C367.717 17.6595 369.046 19.2504 370.742 20.3635C355.735 20.0917 353.707 36.1097 353.707 36.1097L388.287 42.1253C388.287 42.1253 391.797 26.1799 377.66 21.5342Z" fill="#455A64"/>
<path d="M495.461 52.6828C496.685 51.4095 497.509 49.8052 497.83 48.0686C498.151 46.3319 497.956 44.5392 497.269 42.9122C496.904 41.8109 496.317 40.7961 495.544 39.9307C494.771 39.0652 493.828 38.3676 492.775 37.8807C491.722 37.3938 490.58 37.1282 489.42 37.1001C488.26 37.0721 487.106 37.2822 486.031 37.7176C484.955 38.153 483.98 38.8043 483.166 39.6314C482.352 40.4585 481.717 41.4436 481.299 42.5261C480.88 43.6085 480.689 44.7652 480.735 45.9246C480.782 47.0841 481.066 48.2217 481.57 49.267C482.214 50.9282 483.336 52.3613 484.794 53.3853C486.252 54.4093 487.981 54.9784 489.762 55.0206C478.45 61.7827 484.372 74.6626 484.372 74.6626L512.937 63.099C512.937 63.099 508.154 49.5852 495.461 52.6828Z" fill="#FF725E"/>
<path d="M486.663 96.42L477.346 94.29L473.143 112.672L482.461 114.802L486.663 96.42Z" fill="#455A64"/>
<path d="M471.397 100.519L462.08 98.3892L459.527 109.559L468.844 111.689L471.397 100.519Z" fill="#455A64"/>
<path d="M502.204 90.023L492.887 87.8931L486.523 115.731L495.84 117.861L502.204 90.023Z" fill="#455A64"/>
<path d="M282.559 130.011L350.273 238.498L365.379 298.656H388.781V131.819L282.559 130.011Z" fill="#FF725E"/>
<path d="M372.854 131.819V298.656H396.255L411.362 238.498L479.076 130.011L372.854 131.819Z" fill="#FF725E"/>
<path d="M476.63 142.577H285.436C284.023 142.577 282.624 142.299 281.319 141.758C280.014 141.217 278.828 140.425 277.829 139.426C276.83 138.427 276.037 137.241 275.497 135.936C274.956 134.631 274.678 133.232 274.678 131.819C274.678 130.406 274.956 129.007 275.497 127.702C276.037 126.397 276.83 125.211 277.829 124.212C278.828 123.213 280.014 122.421 281.319 121.88C282.624 121.339 284.023 121.061 285.436 121.061H476.63C478.043 121.061 479.441 121.339 480.747 121.88C482.052 122.421 483.238 123.213 484.237 124.212C485.236 125.211 486.028 126.397 486.569 127.702C487.109 129.007 487.388 130.406 487.388 131.819V131.819C487.388 133.232 487.109 134.631 486.569 135.936C486.028 137.241 485.236 138.427 484.237 139.426C483.238 140.425 482.052 141.217 480.747 141.758C479.441 142.299 478.043 142.577 476.63 142.577V142.577Z" fill="#FF725E"/>
<path d="M479.075 142.956C479.075 143.11 435.643 143.234 382.08 143.234C328.498 143.234 285.076 143.11 285.076 142.956C285.076 142.802 328.498 142.677 382.08 142.677C435.643 142.677 479.075 142.802 479.075 142.956Z" fill="#263238"/>
<g opacity="0.2">
<path opacity="0.2" d="M304.27 145.735L365.558 237.332L373.314 298.652H377.774L378.611 236.924L339.793 145.735H304.27Z" fill="white"/>
</g>
<path d="M399.846 238.498C399.846 238.652 388.99 238.777 375.602 238.777C362.209 238.777 351.355 238.652 351.355 238.498C351.355 238.344 362.209 238.219 375.602 238.219C388.99 238.219 399.846 238.344 399.846 238.498Z" fill="#263238"/>
<path d="M309.008 68.1774L322.041 56.3041C322.041 56.3041 295.427 22.641 295.245 22.4185C295.063 22.1959 294.773 22.1588 294.579 22.2706C294.377 22.3869 290.427 24.2878 290.427 24.2878C290.427 24.2878 286.253 23.1527 285.749 23.0637C285.638 23.0339 285.522 23.0302 285.41 23.0528L308.961 68.2067L309.008 68.1774ZM286.239 46.038C286.239 46.038 284.052 46.1254 282.065 47.2725C279.071 49.0011 280.046 50.9501 280.333 51.448C281.817 54.0175 289.091 51.164 292.604 57.2487C295.368 62.0354 294.155 66.8131 290.095 69.1573C285.227 71.9676 281.016 70.3215 281.016 70.3215L279.833 65.1984C279.833 65.1984 283.693 65.9388 285.833 64.7032C287.229 63.897 287.196 62.4046 286.725 61.5888C284.776 58.213 279.197 61.2271 275.986 55.6653C273.216 51.035 273.906 44.5676 280.638 40.6809C283.237 39.1805 284.945 39.1941 284.945 39.1941L286.27 45.9975L286.239 46.038ZM272.497 24.8086C272.771 24.6502 273.1 24.5688 273.492 24.614C272.018 26.7596 271.208 30.5005 273.122 35.9407C272.074 37.1121 271.007 38.2651 269.92 39.3991C268.834 35.0569 267.916 27.4865 272.51 24.8345L272.497 24.8086ZM278.602 29.4926L278.767 29.7776C277.487 31.1575 276.073 32.6814 274.704 34.1674C273.522 29.9017 274.268 27.0573 275.435 25.4817C276.433 26.2979 277.49 27.5691 278.601 29.4935L278.602 29.4926ZM277.027 24.195C278.541 23.5173 280.425 24.6364 282.088 26.1566C281.505 26.8082 280.848 27.5132 280.136 28.2941L279.835 27.7727C278.926 26.1991 277.981 25.0267 277.023 24.1872L277.027 24.195ZM284.764 23.3151C284.716 23.3429 284.659 23.4301 284.626 23.4489C284.586 23.4722 284.119 23.9484 283.403 24.7416C281.043 22.668 278.116 21.195 275.363 22.784L275.122 22.9236C273.747 22.3684 272.525 22.4876 271.692 22.9681C265.275 26.6732 266.884 36.5422 268.296 41.2071C266.263 43.3912 264.797 44.9892 264.643 45.1869C263.505 46.4409 263.489 46.5064 264.095 47.9273C264.497 48.9788 277.267 79.4675 277.267 79.4675L308.353 68.61L284.764 23.3151Z" fill="#455A64"/>
</g>
<defs>
<clipPath id="clip0_2178_1433">
<rect width="728.429" height="450" fill="white"/>
</clipPath>
</defs>
</svg>
