<svg width="869" height="389" viewBox="0 0 869 389" fill="none" xmlns="http://www.w3.org/2000/svg">
<path d="M49.2929 256.293C48.9024 256.684 48.9024 257.317 49.2929 257.707L55.6569 264.071C56.0474 264.462 56.6805 264.462 57.0711 264.071C57.4616 263.681 57.4616 263.048 57.0711 262.657L51.4142 257L57.0711 251.343C57.4616 250.953 57.4616 250.32 57.0711 249.929C56.6805 249.539 56.0474 249.539 55.6569 249.929L49.2929 256.293ZM245 257L245.082 256.004L245.041 256L245 256L245 257ZM50 258L245 258L245 256L50 256L50 258ZM244.918 257.997L360.918 267.497L361.082 265.504L245.082 256.004L244.918 257.997Z" fill="#C40000"/>
<path d="M27.2929 318.293C26.9024 318.684 26.9024 319.317 27.2929 319.707L33.6568 326.071C34.0474 326.462 34.6805 326.462 35.0711 326.071C35.4616 325.681 35.4616 325.048 35.0711 324.657L29.4142 319L35.0711 313.343C35.4616 312.953 35.4616 312.32 35.0711 311.929C34.6805 311.539 34.0474 311.539 33.6569 311.929L27.2929 318.293ZM245 319L245 320L245.212 320L245.406 319.914L245 319ZM28 320L245 320L245 318L28 318L28 320ZM245.406 319.914L361.406 268.414L360.594 266.586L244.594 318.086L245.406 319.914Z" fill="#C40000"/>
<path d="M143.293 380.293C142.902 380.684 142.902 381.317 143.293 381.707L149.657 388.071C150.047 388.462 150.681 388.462 151.071 388.071C151.462 387.681 151.462 387.048 151.071 386.657L145.414 381L151.071 375.343C151.462 374.953 151.462 374.32 151.071 373.929C150.681 373.539 150.047 373.539 149.657 373.929L143.293 380.293ZM245 381L245 382L245.41 382L245.702 381.712L245 381ZM144 382L245 382L245 380L144 380L144 382ZM245.702 381.712L362.202 266.712L360.797 265.289L244.297 380.289L245.702 381.712Z" fill="#C40000"/>
<path d="M0.292893 8.29314C-0.0976311 8.68366 -0.0976311 9.31683 0.292893 9.70735L6.65685 16.0713C7.04738 16.4618 7.68054 16.4618 8.07107 16.0713C8.46159 15.6808 8.46159 15.0476 8.07107 14.6571L2.41421 9.00024L8.07107 3.34339C8.46159 2.95287 8.46159 2.3197 8.07107 1.92918C7.68054 1.53865 7.04738 1.53865 6.65685 1.92918L0.292893 8.29314ZM245 9.00024L245.703 8.28857L245.41 8.00024H245V9.00024ZM1 10.0002H245V8.00024H1V10.0002ZM244.297 9.71192L360.797 124.712L362.203 123.289L245.703 8.28857L244.297 9.71192Z" fill="#C40000"/>
<path d="M68.2929 70.2931C67.9024 70.6837 67.9024 71.3168 68.2929 71.7074L74.6569 78.0713C75.0474 78.4618 75.6805 78.4618 76.0711 78.0713C76.4616 77.6808 76.4616 77.0476 76.0711 76.6571L70.4142 71.0002L76.0711 65.3434C76.4616 64.9529 76.4616 64.3197 76.0711 63.9292C75.6805 63.5387 75.0474 63.5387 74.6569 63.9292L68.2929 70.2931ZM245 71.0003L245.414 70.09L245.217 70.0003L245 70.0003L245 71.0003ZM69 72.0002L245 72.0003L245 70.0003L69 70.0002L69 72.0002ZM244.586 71.9105L361.086 124.91L361.914 123.09L245.414 70.09L244.586 71.9105Z" fill="#C40000"/>
<path d="M151.293 194.293C150.902 194.684 150.902 195.317 151.293 195.707L157.657 202.071C158.047 202.462 158.681 202.462 159.071 202.071C159.462 201.681 159.462 201.048 159.071 200.657L153.414 195L159.071 189.343C159.462 188.953 159.462 188.32 159.071 187.929C158.681 187.539 158.047 187.539 157.657 187.929L151.293 194.293ZM245 195L245 196L245.284 196L245.525 195.851L245 195ZM152 196L245 196L245 194L152 194L152 196ZM245.525 195.851L360.525 124.851L359.475 123.149L244.475 194.149L245.525 195.851Z" fill="#C40000"/>
<path d="M246.739 131.851C246.381 132.271 246.431 132.903 246.851 133.261L253.698 139.102C254.118 139.46 254.749 139.41 255.108 138.99C255.466 138.57 255.416 137.939 254.996 137.58L248.91 132.388L254.102 126.302C254.46 125.882 254.41 125.251 253.99 124.892C253.57 124.534 252.939 124.584 252.58 125.004L246.739 131.851ZM360.921 122.503L247.421 131.503L247.579 133.497L361.079 124.497L360.921 122.503Z" fill="#C40000"/>
<path d="M625 257V256H624.946L624.891 256.006L625 257ZM654.707 257.707C655.098 257.317 655.098 256.684 654.707 256.293L648.343 249.929C647.953 249.539 647.319 249.539 646.929 249.929C646.538 250.32 646.538 250.953 646.929 251.343L652.586 257L646.929 262.657C646.538 263.048 646.538 263.681 646.929 264.071C647.319 264.462 647.953 264.462 648.343 264.071L654.707 257.707ZM625 258H654V256H625V258ZM624.891 256.006L505.891 269.006L506.109 270.994L625.109 257.994L624.891 256.006Z" fill="#C40000"/>
<path d="M625 319L624.619 319.925L624.802 320H625V319ZM750.707 319.707C751.098 319.317 751.098 318.684 750.707 318.293L744.343 311.929C743.953 311.539 743.319 311.539 742.929 311.929C742.538 312.32 742.538 312.953 742.929 313.343L748.586 319L742.929 324.657C742.538 325.048 742.538 325.681 742.929 326.071C743.319 326.462 743.953 326.462 744.343 326.071L750.707 319.707ZM625 320H750V318H625V320ZM625.381 318.076L506.381 269.076L505.619 270.925L624.619 319.925L625.381 318.076Z" fill="#C40000"/>
<path d="M625 381L624.313 381.727L624.602 382H625V381ZM750.707 381.707C751.098 381.317 751.098 380.684 750.707 380.293L744.343 373.929C743.953 373.539 743.319 373.539 742.929 373.929C742.538 374.32 742.538 374.953 742.929 375.343L748.586 381L742.929 386.657C742.538 387.048 742.538 387.681 742.929 388.071C743.319 388.462 743.953 388.462 744.343 388.071L750.707 381.707ZM625 382H750V380H625V382ZM625.687 380.273L508.187 269.273L506.813 270.727L624.313 381.727L625.687 380.273Z" fill="#C40000"/>
<path d="M625 8.00025L625 7.00025L624.596 7.00025L624.305 7.28101L625 8.00025ZM774.707 8.70737C775.098 8.31685 775.098 7.68369 774.707 7.29316L768.343 0.929199C767.953 0.538675 767.319 0.538675 766.929 0.929199C766.538 1.31972 766.538 1.95289 766.929 2.34341L772.586 8.00027L766.929 13.6571C766.538 14.0476 766.538 14.6808 766.929 15.0713C767.319 15.4619 767.953 15.4619 768.343 15.0713L774.707 8.70737ZM625 9.00025L774 9.00027L774 7.00027L625 7.00025L625 9.00025ZM624.305 7.28101L506.805 120.781L508.195 122.219L625.695 8.7195L624.305 7.28101Z" fill="#C40000"/>
<path d="M625 133L624.903 133.995L624.951 134L625 134L625 133ZM711.707 133.707C712.098 133.317 712.098 132.684 711.707 132.293L705.343 125.929C704.953 125.539 704.319 125.539 703.929 125.929C703.538 126.32 703.538 126.953 703.929 127.343L709.586 133L703.929 138.657C703.538 139.048 703.538 139.681 703.929 140.071C704.319 140.462 704.953 140.462 705.343 140.071L711.707 133.707ZM625 134L711 134L711 132L625 132L625 134ZM625.097 132.005L507.597 120.505L507.403 122.495L624.903 133.995L625.097 132.005Z" fill="#C40000"/>
<path d="M625 195L624.47 195.848L624.713 196L625 196L625 195ZM788.707 195.707C789.098 195.317 789.098 194.684 788.707 194.293L782.343 187.929C781.953 187.539 781.319 187.539 780.929 187.929C780.538 188.32 780.538 188.953 780.929 189.343L786.586 195L780.929 200.657C780.538 201.048 780.538 201.681 780.929 202.071C781.319 202.462 781.953 202.462 782.343 202.071L788.707 195.707ZM625 196L788 196L788 194L625 194L625 196ZM625.53 194.152L508.03 120.652L506.97 122.348L624.47 195.848L625.53 194.152Z" fill="#C40000"/>
<path d="M625 71.0002L625 70.0002L624.792 70.0002L624.601 70.0834L625 71.0002ZM821.707 71.7073C822.098 71.3168 822.098 70.6836 821.707 70.2931L815.343 63.9291C814.953 63.5386 814.319 63.5386 813.929 63.9291C813.538 64.3197 813.538 64.9528 813.929 65.3434L819.586 71.0002L813.929 76.6571C813.538 77.0476 813.538 77.6808 813.929 78.0713C814.319 78.4618 814.953 78.4618 815.343 78.0713L821.707 71.7073ZM625 72.0002L821 72.0002L821 70.0002L625 70.0002L625 72.0002ZM624.601 70.0834L508.601 120.583L509.399 122.417L625.399 71.9171L624.601 70.0834Z" fill="#C40000"/>
</svg>
