<svg width="25" height="25" viewBox="0 0 25 25" fill="none" xmlns="http://www.w3.org/2000/svg">
<path d="M5.35733 12.5L12.5 5.35733L19.6427 12.5L12.5 19.6427L5.35733 12.5Z" fill="black"/>
<path d="M24.455 11.1849L13.816 0.544062C13.467 0.195672 12.994 0 12.5009 0C12.0078 0 11.5348 0.195672 11.1857 0.544062L0.544062 11.1849C0.195672 11.5339 0 12.0069 0 12.5C0 12.9931 0.195672 13.4661 0.544062 13.8151L11.1849 24.4559C11.5339 24.8043 12.0069 25 12.5 25C12.9931 25 13.4661 24.8043 13.8151 24.4559L24.4559 13.8151C24.8043 13.4661 25 12.9931 25 12.5C25 12.0069 24.8043 11.5339 24.4559 11.1849H24.455ZM12.5 23.2461L1.75474 12.5L12.5 1.75385L23.2461 12.5L12.5 23.2461Z" fill="black"/>
</svg>
