<svg width="70" height="70" viewBox="0 0 70 70" fill="none" xmlns="http://www.w3.org/2000/svg">
<g filter="url(#filter0_d_1504_793)">
<rect x="10" y="10" width="49.9974" height="50" rx="24.9987" fill="#3E5661"/>
</g>
<path d="M42.7799 34.1327C39.9251 34.134 37.0722 34.1337 34.219 34.1335C31.2069 34.1333 28.1945 34.133 25.1796 34.1346C24.7126 34.1103 24.282 34.4655 24.2447 34.9497L24.2436 34.965V34.9804V35.0272V35.0431L24.2448 35.059C24.2834 35.5423 24.7142 35.8983 25.1834 35.8714C27.9802 35.8726 30.7763 35.8723 33.5723 35.872C36.641 35.8717 39.7096 35.8714 42.7788 35.8731C42.2328 36.4192 41.6855 36.9639 41.1379 37.5089C40.6691 37.9755 40.1999 38.4424 39.731 38.9107L39.7309 38.9106L39.7237 38.9182C39.7051 38.9378 39.6864 38.9561 39.6621 38.9799C39.6541 38.9877 39.6454 38.9962 39.636 39.0055C39.6016 39.0393 39.5589 39.0821 39.5174 39.1304C39.4356 39.2257 39.3392 39.3643 39.3039 39.5523C39.2045 40.0173 39.5329 40.4765 39.98 40.5624C40.29 40.629 40.5846 40.5056 40.7742 40.3234L40.7742 40.3234L40.7794 40.3183L40.8159 40.282L40.8524 40.2456L40.8706 40.2274L40.8797 40.2183L40.8889 40.2092L40.898 40.2001L40.9071 40.191L40.9254 40.1728L40.9436 40.1547L40.9619 40.1365L40.9984 40.1001L41.0714 40.0274L41.1444 39.9546L41.2174 39.8819L41.2904 39.8091L41.2995 39.8L41.3086 39.7909L41.3177 39.7818L41.3269 39.7727L41.3634 39.7364L41.3999 39.7L41.4364 39.6636L41.5094 39.5909L41.5185 39.5818L41.5276 39.5727L41.5367 39.5636L41.5459 39.5545L41.555 39.5454L41.5641 39.5363L41.5732 39.5272L41.5824 39.5181L41.5915 39.509L41.6006 39.4999L41.6189 39.4817L41.6554 39.4454L41.6736 39.4272L41.6828 39.4181L41.6919 39.409L41.7101 39.3908L41.7193 39.3817L41.7284 39.3726L41.7466 39.3544L41.7649 39.3363L41.774 39.3272L41.7831 39.3181L41.7923 39.309L41.8014 39.2999L41.8105 39.2908L41.8196 39.2817L41.8288 39.2726L41.8379 39.2635L41.847 39.2544L41.8561 39.2453L41.8653 39.2362L41.8744 39.2271L41.8926 39.2089L41.9109 39.1908L41.92 39.1817L41.9292 39.1726L41.9383 39.1635L41.9474 39.1544L41.9565 39.1453L41.9657 39.1362L41.9748 39.1271L41.9839 39.118L42.0204 39.0816L42.0569 39.0453L42.0934 39.0089L42.2394 38.8634L42.2577 38.8452L42.2759 38.827L42.3124 38.7906L42.3307 38.7724L42.3489 38.7542L42.3854 38.7179L42.3946 38.7088L42.4037 38.6997L42.4128 38.6906L42.4219 38.6815L42.4311 38.6724L42.4402 38.6633L42.4493 38.6542L42.4585 38.6451L42.5315 38.5724L42.568 38.536L42.6045 38.4996L42.6136 38.4905L42.6227 38.4814L42.641 38.4632L42.6775 38.4269L42.6957 38.4087L42.714 38.3905L42.7505 38.3541L42.7687 38.3359L42.787 38.3177L42.8052 38.2996L42.8235 38.2814L42.8965 38.2086L42.933 38.1722L42.9695 38.1359L42.9878 38.1177L43.006 38.0995L43.0425 38.0631L43.0608 38.0449L43.0699 38.0358L43.079 38.0267L43.1155 37.9904L43.2615 37.8448L43.3346 37.7721L43.4076 37.6993L43.4806 37.6266L43.4897 37.6175L43.4988 37.6084L43.5171 37.5902L43.5353 37.572L43.5536 37.5538L43.5627 37.5447L43.5718 37.5357L43.581 37.5266L43.5901 37.5175L43.6083 37.4993L43.6175 37.4902L43.6266 37.4811L43.6448 37.4629L43.654 37.4538L43.6631 37.4447L43.6996 37.4083L43.7087 37.3992L43.7178 37.3901L43.727 37.3811L43.7361 37.372L43.7726 37.3356L43.7817 37.3265L43.7909 37.3174L43.8091 37.2992L43.8274 37.281L43.8365 37.2719L43.8456 37.2628L43.8547 37.2537L43.8639 37.2446L43.873 37.2356L43.8821 37.2265L43.8912 37.2174L43.9004 37.2083L43.9186 37.1901L43.9277 37.181L43.9369 37.1719L43.946 37.1628L43.9551 37.1537L43.9734 37.1355L43.9916 37.1173L44.1376 36.9718L44.1741 36.9355L44.2106 36.8991L44.2198 36.89L44.2289 36.8809L44.238 36.8718L44.2471 36.8627L44.2654 36.8445L44.2837 36.8263L44.2928 36.8172L44.3019 36.8081L44.3202 36.79L44.3384 36.7718L44.3567 36.7536L44.3658 36.7445L44.3749 36.7354L44.384 36.7263L44.3932 36.7172L44.4023 36.7081L44.4114 36.699L44.4205 36.6899L44.4297 36.6808L44.5027 36.6081L44.5757 36.5353L44.5848 36.5262L44.5939 36.5171L44.6031 36.508L44.6122 36.499L44.6213 36.4899L44.6304 36.4808L44.6396 36.4717L44.6487 36.4626L44.6852 36.4262L44.7217 36.3898L44.7582 36.3535L44.7764 36.3353L44.7947 36.3171L44.8129 36.2989L44.8221 36.2898L44.8312 36.2807L44.8677 36.2443L44.9407 36.1716L44.9498 36.1625L44.9589 36.1534L44.9772 36.1352L44.9863 36.1261L44.9954 36.117L45.0046 36.1079L45.0137 36.0988L45.1597 35.9534L45.2327 35.8806L45.3057 35.8079L45.4501 35.664C45.6029 35.5147 45.7188 35.3126 45.7503 35.0779L45.7538 35.0514V35.0247V34.9764V34.9494L45.7502 34.9227C45.718 34.6848 45.5993 34.4823 45.4471 34.3337C44.8298 33.72 44.2128 33.1049 43.5955 32.4895C42.6593 31.5562 41.7226 30.6223 40.7837 29.6923C40.4412 29.3205 39.8123 29.3324 39.4893 29.7298C39.1854 30.0818 39.24 30.6108 39.5517 30.9117C40.1679 31.5277 40.7832 32.1412 41.3983 32.7545C41.8588 33.2137 42.3192 33.6727 42.7799 34.1327Z" fill="white" stroke="white" stroke-width="0.8"/>
<defs>
<filter id="filter0_d_1504_793" x="0" y="0" width="69.9971" height="70" filterUnits="userSpaceOnUse" color-interpolation-filters="sRGB">
<feFlood flood-opacity="0" result="BackgroundImageFix"/>
<feColorMatrix in="SourceAlpha" type="matrix" values="0 0 0 0 0 0 0 0 0 0 0 0 0 0 0 0 0 0 127 0" result="hardAlpha"/>
<feOffset/>
<feGaussianBlur stdDeviation="5"/>
<feComposite in2="hardAlpha" operator="out"/>
<feColorMatrix type="matrix" values="0 0 0 0 0 0 0 0 0 0 0 0 0 0 0 0 0 0 0.25 0"/>
<feBlend mode="normal" in2="BackgroundImageFix" result="effect1_dropShadow_1504_793"/>
<feBlend mode="normal" in="SourceGraphic" in2="effect1_dropShadow_1504_793" result="shape"/>
</filter>
</defs>
</svg>
