<svg width="280" height="103" viewBox="0 0 280 103" fill="none" xmlns="http://www.w3.org/2000/svg">
<g clip-path="url(#clip0_1709_1051)">
<path d="M280 0H0V102.667H280V0Z" fill="#262626"/>
<path d="M89.1485 66.5495C89.1485 66.2168 89.2908 66.0742 89.6236 66.0742H94.899C95.0892 66.0742 95.1844 66.2168 95.1844 66.5495V66.7871C95.1844 67.12 95.0894 67.2624 94.899 67.2624H90.4792V70.7318H94.4239C94.6139 70.7318 94.7091 70.8743 94.7091 71.2071V71.4449C94.7091 71.7776 94.6141 71.9201 94.4239 71.9201H90.4792V75.6274H94.899C95.0892 75.6274 95.1844 75.7697 95.1844 76.1024V76.3402C95.1844 76.6729 95.0894 76.8155 94.899 76.8155H89.5762C89.2435 76.8155 89.1009 76.6729 89.1009 76.3402V66.5498H89.1485V66.5495Z" fill="#848484"/>
<path d="M97.2281 71.0638C97.2281 69.828 97.038 69.2104 97.038 69.1628C97.038 68.8777 97.6558 68.8301 97.846 68.8301C98.2263 68.8301 98.2737 69.4479 98.3687 69.828C98.9865 69.1152 99.8898 68.6875 100.745 68.6875C102.314 68.6875 103.217 69.5903 103.217 71.159V76.4342C103.217 76.6243 103.027 76.7669 102.599 76.7669H102.551C102.124 76.7669 101.934 76.6246 101.934 76.4342V71.3013C101.934 70.3983 101.363 69.828 100.365 69.828C99.6998 69.828 98.9394 70.256 98.4643 70.8736V76.4342C98.4643 76.6243 98.2742 76.7671 97.8465 76.7671H97.7989C97.3712 76.7671 97.1812 76.6246 97.1812 76.4342L97.2281 71.0638Z" fill="#848484"/>
<path d="M106.591 76.1024C106.021 75.8646 105.64 75.4848 105.64 74.8667C105.64 74.1062 106.258 73.7735 106.781 73.5836C105.878 73.1559 105.403 72.3002 105.403 71.3023C105.403 69.8766 106.448 68.6885 108.444 68.6885C108.825 68.6885 109.158 68.7358 109.442 68.7834H112.056C112.246 68.7834 112.342 68.9258 112.342 69.2585V69.4487C112.342 69.7814 112.247 69.9237 112.056 69.9237H111.011C111.344 70.3517 111.534 70.8267 111.534 71.3496C111.534 72.7753 110.488 73.9634 108.492 73.9634H108.35C107.969 73.9634 107.066 74.0586 107.066 74.5813C107.066 75.7694 112.199 74.5813 112.199 77.5754C112.199 78.9061 110.869 79.9519 108.397 79.9519C106.401 79.9519 104.975 79.5242 104.975 77.9558C104.88 77.053 105.593 76.4351 106.591 76.1024ZM108.492 78.8114C109.87 78.8114 110.773 78.2887 110.773 77.5757C110.773 76.6727 109.157 76.5777 107.731 76.3399C107.114 76.5777 106.21 77.1004 106.21 77.7656C106.211 78.6215 107.256 78.8114 108.492 78.8114ZM110.155 71.302C110.155 70.1139 109.395 69.7812 108.444 69.7812C107.494 69.7812 106.733 70.1613 106.733 71.302C106.733 72.4904 107.494 72.8231 108.444 72.8231C109.395 72.8231 110.155 72.4904 110.155 71.302Z" fill="#848484"/>
<path d="M118.425 71.7768V71.0638C118.425 70.3983 117.997 69.7807 116.762 69.7807C115.383 69.7807 114.528 70.3983 114.385 70.3983C114.195 70.3983 113.862 69.828 113.862 69.6379C113.862 69.2575 115.193 68.6875 116.714 68.6875C118.615 68.6875 119.708 69.5903 119.708 71.0638V74.4382C119.708 75.674 119.898 76.2918 119.898 76.3392C119.898 76.6246 119.28 76.6719 119.09 76.6719C118.71 76.6719 118.663 76.0543 118.568 75.6266C117.997 76.2442 117.142 76.7671 116.001 76.7671C114.528 76.7671 113.387 76.0543 113.387 74.4861C113.387 71.9668 116.144 71.7768 118.425 71.7768ZM116.049 75.674C117.142 75.674 117.807 75.1513 118.425 74.6284V72.8226C116.857 72.8226 114.765 72.8226 114.765 74.3911C114.765 75.2463 115.193 75.674 116.049 75.674Z" fill="#848484"/>
<path d="M123.178 76.1024C122.608 75.8646 122.227 75.4848 122.227 74.8667C122.227 74.1062 122.845 73.7735 123.368 73.5836C122.465 73.1559 121.99 72.3002 121.99 71.3023C121.99 69.8766 123.035 68.6885 125.031 68.6885C125.412 68.6885 125.744 68.7358 126.029 68.7834H128.643C128.833 68.7834 128.929 68.9258 128.929 69.2585V69.4487C128.929 69.7814 128.834 69.9237 128.643 69.9237H127.598C127.931 70.3517 128.121 70.8267 128.121 71.3496C128.121 72.7753 127.075 73.9634 125.079 73.9634H124.936C124.556 73.9634 123.653 74.0586 123.653 74.5813C123.653 75.7694 128.786 74.5813 128.786 77.5754C128.786 78.9061 127.455 79.9519 124.984 79.9519C122.988 79.9519 121.562 79.5242 121.562 77.9558C121.467 77.053 122.132 76.4351 123.178 76.1024ZM125.031 78.8114C126.409 78.8114 127.313 78.2887 127.313 77.5757C127.313 76.6727 125.696 76.5777 124.271 76.3399C123.653 76.5777 122.75 77.1004 122.75 77.7656C122.75 78.6215 123.795 78.8114 125.031 78.8114ZM126.695 71.302C126.695 70.1139 125.934 69.7812 124.984 69.7812C124.033 69.7812 123.273 70.1613 123.273 71.302C123.273 72.4904 124.033 72.8231 124.984 72.8231C125.934 72.8231 126.695 72.4904 126.695 71.302Z" fill="#848484"/>
<path d="M130.544 66.5492V65.6462C130.544 65.456 130.734 65.3135 131.162 65.3135H131.352C131.78 65.3135 131.97 65.4558 131.97 65.6462V66.5492C131.97 66.7391 131.78 66.8819 131.352 66.8819H131.162C130.735 66.8819 130.544 66.7394 130.544 66.5492ZM130.592 69.068C130.592 68.8781 130.782 68.7353 131.21 68.7353H131.257C131.685 68.7353 131.875 68.8779 131.875 69.068V76.3872C131.875 76.5772 131.685 76.72 131.257 76.72H131.21C130.782 76.72 130.592 76.5774 130.592 76.3872V69.068Z" fill="#848484"/>
<path d="M134.537 71.0638C134.537 69.828 134.347 69.2104 134.347 69.1628C134.347 68.8777 134.964 68.8301 135.155 68.8301C135.535 68.8301 135.583 69.4479 135.677 69.828C136.295 69.1152 137.198 68.6875 138.054 68.6875C139.622 68.6875 140.525 69.5903 140.525 71.159V76.4342C140.525 76.6243 140.335 76.7669 139.908 76.7669H139.86C139.432 76.7669 139.242 76.6246 139.242 76.4342V71.3013C139.242 70.3983 138.672 69.828 137.674 69.828C137.008 69.828 136.248 70.256 135.773 70.8736V76.4342C135.773 76.6243 135.583 76.7671 135.155 76.7671H135.108C134.68 76.7671 134.49 76.6246 134.49 76.4342L134.537 71.0638Z" fill="#848484"/>
<path d="M143.899 76.1024C143.329 75.8646 142.949 75.4848 142.949 74.8667C142.949 74.1062 143.567 73.7735 144.09 73.5836C143.187 73.1559 142.712 72.3002 142.712 71.3023C142.712 69.8766 143.757 68.6885 145.753 68.6885C146.134 68.6885 146.466 68.7358 146.751 68.7834H149.365C149.555 68.7834 149.65 68.9258 149.65 69.2585V69.4487C149.65 69.7814 149.555 69.9237 149.365 69.9237H148.272C148.605 70.3517 148.795 70.8267 148.795 71.3496C148.795 72.7753 147.749 73.9634 145.753 73.9634H145.61C145.23 73.9634 144.327 74.0586 144.327 74.5813C144.327 75.7694 149.46 74.5813 149.46 77.5754C149.46 78.9061 148.13 79.9519 145.658 79.9519C143.662 79.9519 142.236 79.5242 142.236 77.9558C142.189 77.053 142.901 76.4351 143.899 76.1024ZM145.801 78.8114C147.179 78.8114 148.082 78.2887 148.082 77.5757C148.082 76.6727 146.466 76.5777 145.04 76.3399C144.422 76.5777 143.519 77.1004 143.519 77.7656C143.519 78.6215 144.517 78.8114 145.801 78.8114ZM147.464 71.302C147.464 70.1139 146.703 69.7812 145.753 69.7812C144.802 69.7812 144.042 70.1613 144.042 71.302C144.042 72.4904 144.802 72.8231 145.753 72.8231C146.703 72.8231 147.464 72.4904 147.464 71.302Z" fill="#848484"/>
<path d="M155.211 69.8764H154.45C154.26 69.8764 154.165 69.7339 154.165 69.4011V69.2112C154.165 68.8785 154.26 68.7359 154.45 68.7359H155.211L155.401 67.1201C155.401 66.9299 155.543 66.7871 155.876 66.7871H156.019C156.351 66.7871 156.494 66.9297 156.494 67.1201V68.7359H157.777C157.967 68.7359 158.062 68.8785 158.062 69.2112V69.4011C158.062 69.7339 157.967 69.8764 157.777 69.8764H156.494V74.5816C156.494 75.4846 156.874 75.7224 157.302 75.7224C157.73 75.7224 157.825 75.6274 157.967 75.6274C158.157 75.6274 158.3 76.1974 158.3 76.3402C158.3 76.7679 157.587 76.8155 157.207 76.8155C156.446 76.8155 155.258 76.4828 155.258 74.7244L155.211 69.8764Z" fill="#848484"/>
<path d="M160.201 65.6462C160.201 65.456 160.391 65.3135 160.819 65.3135H160.867C161.294 65.3135 161.484 65.4558 161.484 65.6462V69.7335C162.007 69.2108 162.815 68.6882 163.813 68.6882C164.811 68.6882 166.237 69.0683 166.237 71.1596V76.4348C166.237 76.625 166.047 76.7676 165.619 76.7676H165.572C165.144 76.7676 164.954 76.6252 164.954 76.4348V71.302C164.954 70.399 164.431 69.8287 163.385 69.8287C162.245 69.8287 161.484 70.8743 161.484 70.8743V76.4348C161.484 76.625 161.294 76.7678 160.867 76.7678H160.819C160.391 76.7678 160.202 76.6252 160.202 76.4348V65.6462H160.201Z" fill="#848484"/>
<path d="M171.75 68.6875C173.842 68.6875 174.887 70.0656 174.887 72.632C174.887 72.8222 174.554 73.2499 174.364 73.2499H169.564C169.707 74.9133 170.42 75.6737 171.893 75.6737C173.224 75.6737 173.936 75.0561 174.127 75.0561C174.317 75.0561 174.649 75.6264 174.649 75.8165C174.649 76.1966 173.461 76.7669 171.94 76.7669C169.421 76.7669 168.233 75.4838 168.233 72.7748C168.186 70.1134 169.421 68.6875 171.75 68.6875ZM173.509 72.1569C173.509 70.5885 172.891 69.7804 171.703 69.7804C170.372 69.7804 169.707 70.5885 169.564 72.1569H173.509Z" fill="#848484"/>
<path d="M180.638 66.407C180.638 66.217 180.828 66.0742 181.256 66.0742H181.398C181.826 66.0742 182.016 66.2168 182.016 66.407V76.4351C182.016 76.6253 181.826 76.7679 181.398 76.7679H181.256C180.828 76.7679 180.638 76.6255 180.638 76.4351V66.407Z" fill="#848484"/>
<path d="M184.772 71.0638C184.772 69.828 184.583 69.2104 184.583 69.1628C184.583 68.8777 185.2 68.8301 185.391 68.8301C185.771 68.8301 185.818 69.4479 185.913 69.828C186.531 69.1152 187.434 68.6875 188.29 68.6875C189.858 68.6875 190.761 69.5903 190.761 71.159V76.4342C190.761 76.6243 190.571 76.7669 190.143 76.7669H190.096C189.668 76.7669 189.478 76.6246 189.478 76.4342V71.3013C189.478 70.3983 188.908 69.828 187.91 69.828C187.244 69.828 186.484 70.256 186.009 70.8736V76.4342C186.009 76.6243 185.819 76.7671 185.391 76.7671H185.343C184.916 76.7671 184.726 76.6246 184.726 76.4342L184.772 71.0638Z" fill="#848484"/>
<path d="M193.518 69.8764H192.757C192.567 69.8764 192.472 69.7339 192.472 69.4011V69.2112C192.472 68.8785 192.567 68.7359 192.757 68.7359H193.518L193.708 67.1201C193.708 66.9299 193.898 66.7871 194.183 66.7871H194.325C194.658 66.7871 194.801 66.9297 194.801 67.1201V68.7359H196.084C196.274 68.7359 196.369 68.8785 196.369 69.2112V69.4011C196.369 69.7339 196.274 69.8764 196.084 69.8764H194.801V74.5816C194.801 75.4846 195.181 75.7224 195.609 75.7224C196.036 75.7224 196.131 75.6274 196.274 75.6274C196.464 75.6274 196.607 76.1974 196.607 76.3402C196.607 76.7679 195.894 76.8155 195.514 76.8155C194.753 76.8155 193.565 76.4828 193.565 74.7244L193.518 69.8764Z" fill="#848484"/>
<path d="M201.455 68.6875C203.546 68.6875 204.591 70.0656 204.591 72.632C204.591 72.8222 204.259 73.2499 204.069 73.2499H199.269C199.411 74.9133 200.124 75.6737 201.597 75.6737C202.928 75.6737 203.641 75.0561 203.831 75.0561C204.021 75.0561 204.354 75.6264 204.354 75.8165C204.354 76.1966 203.165 76.7669 201.645 76.7669C199.126 76.7669 197.938 75.4838 197.938 72.7748C197.938 70.1134 199.126 68.6875 201.455 68.6875ZM203.213 72.1569C203.213 70.5885 202.595 69.7804 201.407 69.7804C200.077 69.7804 199.411 70.5885 199.269 72.1569H203.213Z" fill="#848484"/>
<path d="M206.635 71.0638C206.635 69.828 206.445 69.2104 206.445 69.1628C206.445 68.8777 207.063 68.8301 207.253 68.8301C207.633 68.8301 207.681 69.4479 207.776 69.828C208.299 69.1152 208.917 68.6875 209.534 68.6875C210.105 68.6875 210.437 68.925 210.437 69.2575C210.437 69.5429 210.295 70.0656 210.152 70.0656C209.962 70.0656 209.819 69.9232 209.296 69.9232C208.488 69.9232 207.918 70.8262 207.918 70.8262V76.3868C207.918 76.5767 207.728 76.7195 207.301 76.7195H207.253C206.825 76.7195 206.635 76.577 206.635 76.3868V71.0638H206.635Z" fill="#848484"/>
<path d="M212.101 71.0638C212.101 69.828 211.911 69.2104 211.911 69.1628C211.911 68.8777 212.528 68.8301 212.719 68.8301C213.099 68.8301 213.146 69.4479 213.241 69.828C213.859 69.1152 214.762 68.6875 215.618 68.6875C217.186 68.6875 218.089 69.5903 218.089 71.159V76.4342C218.089 76.6243 217.899 76.7669 217.472 76.7669H217.424C216.996 76.7669 216.806 76.6246 216.806 76.4342V71.3013C216.806 70.3983 216.236 69.828 215.238 69.828C214.572 69.828 213.812 70.256 213.337 70.8736V76.4342C213.337 76.6243 213.147 76.7671 212.719 76.7671H212.672C212.244 76.7671 212.054 76.6246 212.054 76.4342L212.101 71.0638Z" fill="#848484"/>
<path d="M223.65 68.6875C225.741 68.6875 226.786 70.0656 226.786 72.632C226.786 72.8222 226.454 73.2499 226.264 73.2499H221.464C221.606 74.9133 222.319 75.6737 223.792 75.6737C225.123 75.6737 225.836 75.0561 226.026 75.0561C226.216 75.0561 226.549 75.6264 226.549 75.8165C226.549 76.1966 225.361 76.7669 223.84 76.7669C221.321 76.7669 220.133 75.4838 220.133 72.7748C220.085 70.1134 221.321 68.6875 223.65 68.6875ZM225.408 72.1569C225.408 70.5885 224.791 69.7804 223.602 69.7804C222.271 69.7804 221.606 70.5885 221.464 72.1569H225.408Z" fill="#848484"/>
<path d="M229.068 69.8764H228.307C228.117 69.8764 228.022 69.7339 228.022 69.4011V69.2112C228.022 68.8785 228.117 68.7359 228.307 68.7359H229.068L229.258 67.1201C229.258 66.9299 229.4 66.7871 229.733 66.7871H229.875C230.208 66.7871 230.351 66.9297 230.351 67.1201V68.7359H231.634C231.824 68.7359 231.919 68.8785 231.919 69.2112V69.4011C231.919 69.7339 231.824 69.8764 231.634 69.8764H230.351V74.5816C230.351 75.4846 230.731 75.7224 231.159 75.7224C231.586 75.7224 231.681 75.6274 231.824 75.6274C232.014 75.6274 232.157 76.1974 232.157 76.3402C232.157 76.7679 231.444 76.8155 231.064 76.8155C230.303 76.8155 229.115 76.4828 229.115 74.7244L229.068 69.8764Z" fill="#848484"/>
<path d="M101.125 27.8154C105.117 27.8154 108.825 29.2411 108.825 30.3343C108.825 30.9997 107.969 32.6629 107.446 32.6629C107.019 32.6629 105.07 30.9045 101.173 30.9045C94.0436 30.9045 91.7149 35.0394 91.7149 42.0733C91.7149 48.2517 93.5683 53.4798 100.745 53.4798C102.836 53.4798 104.88 53.2422 105.925 52.9571V44.8301H101.22C100.65 44.8301 100.412 44.4498 100.412 43.6417V42.9763C100.412 42.1209 100.65 41.7881 101.22 41.7881H108.302C109.157 41.7881 109.49 42.1682 109.49 42.9763V53.6699C109.49 55.951 105.118 56.5691 100.507 56.5691C92.4754 56.5691 88.0553 52.0539 88.0553 42.4536C88.0553 32.378 92.7129 27.8154 101.125 27.8154Z" fill="white"/>
<path d="M113.673 41.3605C113.673 38.0334 113.197 36.4652 113.197 36.275C113.197 35.5146 114.861 35.3247 115.383 35.3247C116.334 35.3247 116.572 36.9405 116.809 37.9861C118.187 36.0373 119.803 34.9443 121.467 34.9443C123.035 34.9443 123.795 35.6098 123.795 36.5128C123.795 37.2732 123.463 38.6991 122.987 38.6991C122.465 38.6991 122.132 38.2712 120.754 38.2712C118.663 38.2712 117.047 40.7427 117.047 40.7427V55.5236C117.047 56.0939 116.571 56.4266 115.431 56.4266H115.288C114.147 56.4266 113.672 56.0939 113.672 55.5236V41.3605H113.673Z" fill="white"/>
<path d="M134.822 34.9443C140.335 34.9443 143.139 38.6039 143.139 45.4478C143.139 45.9231 142.284 47.1113 141.808 47.1113H129.071C129.404 51.5787 131.305 53.6224 135.297 53.6224C138.814 53.6224 140.763 51.9114 141.191 51.9114C141.761 51.9114 142.616 53.4799 142.616 53.9078C142.616 54.8582 139.432 56.4742 135.345 56.4742C128.643 56.4742 125.459 53.0522 125.459 45.8282C125.412 38.7465 128.643 34.9443 134.822 34.9443ZM139.527 44.2597C139.527 40.0298 137.911 37.8911 134.679 37.8911C131.162 37.8911 129.309 40.0298 129.024 44.2597H139.527Z" fill="white"/>
<path d="M155.734 34.9443C161.247 34.9443 164.051 38.6039 164.051 45.4478C164.051 45.9231 163.195 47.1113 162.72 47.1113H149.983C150.316 51.5787 152.217 53.6224 156.209 53.6224C159.726 53.6224 161.675 51.9114 162.102 51.9114C162.673 51.9114 163.528 53.4799 163.528 53.9078C163.528 54.8582 160.344 56.4742 156.257 56.4742C149.555 56.4742 146.371 53.0522 146.371 45.8282C146.371 38.7465 149.555 34.9443 155.734 34.9443ZM160.486 44.2597C160.486 40.0298 158.87 37.8911 155.639 37.8911C152.122 37.8911 150.268 40.0298 149.983 44.2597H160.486Z" fill="white"/>
<path d="M167.71 41.3605C167.71 38.0334 167.235 36.4652 167.235 36.275C167.235 35.5146 168.899 35.3247 169.421 35.3247C170.372 35.3247 170.61 36.9405 170.847 37.9861C172.558 36.0851 174.887 34.9443 177.121 34.9443C181.256 34.9443 183.679 37.4158 183.679 41.4555V55.4284C183.679 55.9987 183.204 56.3314 182.063 56.3314H181.921C180.78 56.3314 180.305 55.9987 180.305 55.4284V41.7406C180.305 39.2692 178.832 37.8435 176.17 37.8435C174.364 37.8435 172.415 38.9367 171.085 40.6477V55.4287C171.085 55.9989 170.609 56.3317 169.469 56.3317H169.326C168.185 56.3317 167.71 55.9989 167.71 55.4287L167.71 41.3605Z" fill="white"/>
<path d="M190.904 49.4869C191.617 49.4869 193.613 51.3405 196.845 51.3405C198.555 51.3405 200.647 50.8176 200.647 48.3938C200.647 43.641 189.003 45.4946 189.003 35.9893C189.003 30.0484 193.85 27.7197 198.555 27.7197C202.833 27.7197 205.827 29.1928 205.827 30.5237C205.827 31.6171 204.591 34.0407 203.593 34.0407C203.071 34.0407 201.835 33.0428 199.126 33.0428C195.989 33.0428 195.371 34.516 195.371 35.4193C195.371 40.0295 207.015 38.1756 207.015 47.6338C207.015 54.3351 202.31 56.5688 197.89 56.5688C191.759 56.5688 188.432 54.3825 188.432 53.0044C188.432 51.8158 190.048 49.4869 190.904 49.4869Z" fill="#88CE02"/>
<path d="M219.182 34.8965C225.598 34.8965 228.925 38.7463 228.925 45.7327C228.925 52.7668 225.598 56.6163 219.182 56.6163C212.766 56.6163 209.391 52.7668 209.391 45.7327C209.391 38.6987 212.766 34.8965 219.182 34.8965ZM222.889 45.7327C222.889 41.693 221.749 39.6017 219.182 39.6017C216.616 39.6017 215.427 41.693 215.427 45.7327C215.427 49.7724 216.616 51.9112 219.182 51.9112C221.749 51.9112 222.889 49.7727 222.889 45.7327Z" fill="#88CE02"/>
<path d="M241.9 34.8965C244.752 34.8965 248.602 35.8471 248.602 37.7007C248.602 38.4614 247.128 40.79 246.463 40.79C246.32 40.79 246.083 40.6475 245.75 40.5047C245.037 40.1246 243.944 39.6017 242.233 39.6017C239.001 39.6017 237.67 41.5981 237.67 45.7327C237.67 49.8674 238.906 51.9112 241.995 51.9112C243.896 51.9112 245.179 51.3411 245.94 50.9608C246.273 50.8182 246.51 50.723 246.653 50.723C247.556 50.723 248.744 53.0043 248.744 53.7648C248.744 56.0458 242.993 56.569 241.71 56.569C234.819 56.569 231.539 53.0519 231.539 45.8279C231.539 38.6987 234.676 34.8965 241.9 34.8965Z" fill="#88CE02"/>
<path d="M251.643 27.1972C251.643 26.3418 252.356 25.9141 254.067 25.9141H255.208C256.919 25.9141 257.632 26.3418 257.632 27.1972V43.1663L257.774 43.2136L262.669 35.8947C263.144 35.2292 263.953 35.134 265.141 35.134H266.614C268.135 35.134 268.895 35.3718 268.895 35.7519C268.895 35.9418 268.753 36.2272 268.515 36.5599L262.907 44.5443L269.465 54.9526C269.655 55.333 269.798 55.5705 269.798 55.8083C269.798 56.1884 269.085 56.4259 267.517 56.4259H265.806C264.618 56.4259 263.762 56.2833 263.382 55.6655L257.774 46.3977L257.631 46.4451V55.1426C257.631 55.998 256.918 56.4257 255.207 56.4257H254.067C252.356 56.4257 251.643 55.998 251.643 55.1426V27.1972H251.643Z" fill="#88CE02"/>
<path d="M13.6283 45.3995C11.2042 46.5398 4.78823 51.6729 3.5525 53.1938C2.26916 54.7147 1.88907 52.3384 3.21977 48.3937C4.2651 45.2094 6.92697 40.8843 11.3944 37.1773C14.0082 35.0386 19.7591 31.9495 23.2759 30.1433C23.989 29.7629 33.2092 25.8658 41.4314 23.9172C42.1444 23.7271 40.576 25.1054 40.3382 25.8658C39.1025 29.4778 14.4359 44.9716 14.4359 44.9716L13.6283 45.3995Z" fill="black"/>
<path d="M48.3702 88.9817C48.7979 91.5481 48.4178 91.7383 45.7564 92.071C43.0948 92.4037 41.1462 91.4055 40.4334 90.7403C39.7203 90.0746 39.578 88.6016 40.2908 87.2709C40.7188 86.4152 41.1465 86.1301 41.3842 85.0845C41.6218 84.0866 41.8119 83.8488 42.0019 83.4687C42.1918 83.1357 42.2396 82.803 42.287 80.4743C42.3346 78.1457 42.287 73.773 42.5248 71.9196C42.7625 70.0187 50.9847 72.775 50.9847 72.775C50.9847 72.775 49.0359 77.6228 48.5133 78.8109C47.9904 79.9993 48.038 82.2803 48.038 82.7556C48.038 83.2309 47.848 84.1813 47.7052 84.2289C47.5627 84.2763 48.1805 85.512 47.8952 86.2251C47.705 86.8905 48.3229 88.6016 48.3702 88.9817Z" fill="black"/>
<path d="M51.5072 16.3131C51.2218 14.5071 51.5072 10.9423 51.8873 10.3722C53.0756 8.75616 59.349 8.56623 60.68 10.4672C61.2502 11.3226 61.2026 13.3188 61.1077 14.6021C61.0127 15.8852 60.68 18.6418 60.6324 19.545C60.585 20.2105 53.6935 21.2558 52.1726 19.4498C51.7447 18.9748 51.5072 16.3131 51.5072 16.3131Z" fill="black"/>
<path d="M65.4801 84.3712C68.3793 86.4626 70.613 86.8427 72.0862 87.6031C73.5595 88.3638 73.1794 89.8371 70.7079 90.2648C68.7118 90.6449 65.5751 89.8844 63.4839 89.8844C61.3928 89.8844 56.735 90.1222 55.4993 89.2668C54.0736 88.2688 54.6912 86.415 54.6912 86.415C55.0716 85.3697 56.0219 83.0405 55.7368 81.1396C55.4517 79.2386 55.0713 78.193 54.3585 76.4344C53.6457 74.676 53.123 70.3512 53.7885 70.1134C54.4539 69.8756 54.2635 70.1134 55.1192 70.3033C55.9746 70.4933 56.9252 70.7786 58.7788 70.7786C60.6324 70.7786 62.6759 70.4933 63.389 70.3509C64.1018 70.2084 64.6721 70.0656 64.4343 71.5391C64.1968 73.0123 63.4839 75.7689 63.4363 77.9077C63.389 80.0464 63.389 82.5179 63.5315 82.9456C63.6739 83.3733 64.7197 83.8486 65.4801 84.3712Z" fill="black"/>
<path d="M55.3093 21.0657C50.0815 25.581 39.9581 26.8164 24.9398 32.6148C21.0901 34.088 10.8243 38.5081 8.35287 43.1183C16.67 38.3182 19.7594 44.9243 20.4246 51.7206C21.0422 58.0892 24.2268 61.4163 32.4014 61.2259C40.8137 61.036 43.3802 65.9311 45.7088 71.682C50.2238 49.6768 57.4481 45.3996 62.1054 41.645C71.9913 33.6128 59.8243 19.4497 55.3093 21.0657Z" fill="#88CE02"/>
<path d="M55.3093 21.0654C42.7623 25.4379 30.3576 26.531 15.767 35.5137C12.2976 37.6524 4.97841 42.4999 3.55251 51.7679C8.87531 45.8744 21.1848 38.4604 36.2509 33.7553C43.8552 31.3788 49.416 29.8105 56.1647 27.1965C55.6897 24.1545 55.6897 22.9664 55.3093 21.0654Z" fill="#88CE02"/>
<path d="M71.3258 47.1105C71.3258 47.1105 70.4228 50.1998 68.6168 51.198C68.6168 51.198 67.2861 51.6733 64.6247 50.2C63.8643 49.7723 63.294 48.2991 63.3414 47.8235C63.389 46.6828 64.1018 46.1601 64.1018 46.1601C64.1018 46.1601 64.8625 44.8768 65.7652 44.9244C66.6685 44.9717 68.1893 45.1143 68.6646 44.6866C69.0921 44.2113 71.421 45.542 71.3258 47.1105Z" fill="black"/>
<path d="M51.9349 17.2159C51.9349 17.2159 51.7449 19.64 51.4122 21.1606C51.3646 21.446 49.9389 21.5883 48.8931 22.0163C50.8893 27.7194 62.9137 27.6718 64.4821 24.8678C63.7217 24.3452 62.2008 23.5371 61.488 23.252C60.7749 22.9666 60.8225 23.0142 60.7749 21.6835C60.7276 20.3526 60.6324 17.8814 60.5372 17.2159C60.4422 16.5504 53.0754 16.5504 51.9349 17.2159Z" fill="black"/>
<path d="M52.4102 17.2161C52.4102 17.2161 52.4102 18.5944 52.2676 19.9251C52.2202 20.5429 52.1726 20.923 52.0777 21.3983C52.0301 21.6837 53.6935 22.824 54.1688 25.3431C56.4501 30.4283 61.7258 27.9095 63.9119 25.4856C63.1514 24.9627 61.9157 24.2499 60.49 23.6796C59.777 23.3943 60.1097 22.7766 60.0623 21.4459C60.0147 20.1152 59.8246 18.1664 59.7296 17.4536C59.6342 16.7408 53.5509 16.5506 52.4102 17.2161Z" fill="#EFEFEF"/>
<path d="M51.9349 17.2159C51.9349 17.2159 51.8873 18.0715 51.7449 19.0695C52.3626 19.6871 53.1706 20.5428 53.7887 21.0657C54.2164 21.446 55.2617 21.3984 56.2126 21.3984C57.068 21.3984 57.8284 21.4934 58.1611 21.3034C58.9218 20.9231 60.0147 19.9727 60.6326 19.2597C60.5852 18.4043 60.5376 17.5962 60.4903 17.2159C60.4422 16.5504 53.0754 16.5504 51.9349 17.2159Z" fill="black"/>
<path d="M56.2599 20.8275C55.6894 20.8275 55.024 20.7802 54.5013 20.685C54.2635 20.6376 54.026 20.495 53.8358 20.3998C53.5031 20.1621 53.1704 19.8772 52.7905 19.5918C52.0298 19.0215 51.9825 18.6888 51.9825 18.5465C52.3152 15.5521 51.8873 13.0333 51.8873 13.0333C51.8873 13.0333 51.5545 11.7499 53.3605 11.4172C55.1665 11.0845 56.2597 11.0371 56.2597 11.0371C56.2597 11.0371 57.4005 11.0371 59.1589 11.4172C60.9649 11.7499 60.6321 13.0333 60.6321 13.0333C60.6321 13.0333 60.2044 15.5521 60.5372 18.5465C60.5372 18.6888 60.4898 19.0215 59.7291 19.5918C59.0637 20.0671 58.541 20.5898 58.0183 20.685C57.4954 20.7802 56.83 20.8275 56.2599 20.8275Z" fill="black"/>
<path d="M56.2599 9.80176C53.1232 9.80176 52.5051 10.6572 51.6021 11.6078C51.4122 11.8453 51.5545 13.2712 51.8875 16.3129H52.3152C52.3152 16.3129 52.0298 15.4573 52.0774 14.4593C52.125 13.4614 52.3152 13.509 52.1724 13.2712C51.9825 12.9858 51.6021 12.5105 52.4578 12.0355C53.3132 11.5602 54.6439 12.4156 56.2599 12.4632C57.8758 12.4156 59.2541 11.5602 60.1095 12.0355C60.9649 12.5105 60.5848 12.9858 60.3948 13.2712C60.2047 13.5563 60.4422 13.4611 60.4898 14.4593C60.5372 15.4573 60.252 16.3129 60.252 16.3129H60.6797C60.9649 13.2712 61.155 11.9405 61.0125 11.7027C60.2044 10.6572 59.3966 9.84912 56.2599 9.80176Z" fill="black"/>
<path d="M71.3258 47.2533C71.3258 47.2533 70.4228 50.1524 68.6644 51.1504C68.2841 50.9605 68.3317 50.6753 67.9989 50.2474C67.9037 50.1051 67.571 50.0096 67.4287 49.8673C67.2861 49.7247 67.3337 49.487 67.0959 49.297C66.9058 49.1069 66.7632 49.2494 66.573 49.1069C66.3831 48.9169 66.3353 48.6792 66.1929 48.5368C66.0977 48.4416 65.7176 48.3943 65.6227 48.2991C65.3849 48.0613 63.294 47.6336 63.389 47.1583C63.5789 46.4452 63.9592 45.9226 63.9592 45.9226C63.9592 45.9226 64.8622 44.5919 65.765 44.6392C66.668 44.6868 67.5236 44.877 67.9989 44.4493C68.5218 43.9738 71.4686 45.7324 71.3258 47.2533Z" fill="black"/>
<path d="M65.1474 26.2465C65.1474 26.2465 68.1415 25.5334 70.1853 27.4822C72.229 29.4784 72.0862 31.9496 71.4686 33.4705C71.9913 34.0883 72.9419 35.7991 72.229 37.8429C75.3657 40.5043 73.9874 44.5918 71.1835 47.3008C71.1835 47.3008 70.518 44.8294 67.8566 44.6868C67.9516 43.7364 65.3851 42.9758 66.5733 40.5043C64.7673 40.0766 64.8149 38.8409 64.5297 37.3202C64.292 35.7991 65.1474 26.2465 65.1474 26.2465Z" fill="black"/>
<path d="M64.0542 27.5769C64.0542 27.5769 67.5236 25.8185 69.5674 27.8146C71.6109 29.8108 71.0404 31.9969 70.4228 33.5178C70.9455 34.1354 72.1812 35.8943 71.4208 37.9852C71.2782 38.4605 70.2326 38.4605 69.472 39.6962C71.3729 38.6028 72.5613 38.8882 72.989 40.2663C73.6545 42.405 72.181 44.9714 70.8979 46.3973C70.8979 46.3497 70.8503 46.3021 70.8503 46.2547C70.6603 46.9678 70.4226 48.3459 68.9969 49.8667C68.2838 50.6272 67.7136 50.5322 66.9055 50.3421C65.9552 50.1043 65.6224 49.6763 64.2917 48.9637C63.5313 48.536 63.959 48.0131 63.959 47.5854C63.959 47.4905 64.054 47.3477 64.1968 47.1578C64.2917 46.92 64.5769 46.5401 65.0046 46.1122C65.0046 46.1122 65.6224 45.2568 66.5257 45.3042C67.4287 45.3518 68.379 45.1618 68.6168 44.9241C68.6168 43.2606 66.7158 43.213 67.3811 40.3614C67.4287 40.2189 67.6664 39.9811 68.4266 39.8862C67.2859 39.6484 66.7632 39.6008 65.9552 38.8406C65.3849 38.3179 64.9572 37.6524 64.8144 36.797C64.5295 35.3238 64.0542 27.5769 64.0542 27.5769Z" fill="#EFEFEF"/>
<path d="M54.026 24.5827C53.7409 24.2024 52.2676 22.3014 49.4634 21.541C48.6554 21.3032 48.1327 21.9687 47.3249 22.444C47.0871 22.3014 46.0416 21.8261 45.4713 22.1586C44.901 22.4911 44.5209 22.8241 43.9504 23.0616C43.6651 22.9191 42.9049 22.9191 42.287 23.1566C41.6691 23.3468 40.7185 23.7745 39.8155 25.0102C39.2453 27.054 49.8911 25.5329 49.8911 25.5329L54.026 24.5827Z" fill="black"/>
<path d="M54.1212 24.5831C52.6001 24.0602 52.8379 22.3018 49.4634 22.0167C48.7979 21.9691 48.3702 22.4918 47.8949 22.8245C48.1327 23.0623 48.3702 23.4424 48.5128 23.8225C48.0851 23.3474 47.3247 22.7293 46.564 22.5867C45.8512 22.4444 45.3759 22.9671 44.6154 23.3474C44.7578 23.4897 44.9006 23.7275 45.0905 24.0129C44.425 23.5852 43.95 23.4426 43.047 23.7751C42.4291 23.965 41.241 24.4879 40.338 25.7713C39.7677 27.815 49.9385 25.5335 49.9385 25.5335L54.1212 24.5831Z" fill="#88CE02"/>
<path d="M63.0562 25.3433C63.0562 25.3433 63.0562 24.8204 63.0086 24.3453C63.0086 24.2504 62.6285 24.0126 62.6285 23.9176L62.5336 23.8224C62.5336 23.8224 63.294 23.3947 63.8643 23.6325C64.4819 23.8224 64.8146 24.6305 64.8146 24.6305C65.9078 24.2504 66.0028 24.6781 66.5257 25.2483C67.6664 25.0106 67.8088 25.4383 68.5218 26.4841C68.5218 26.4841 67.6664 26.3415 66.003 26.6264C64.3869 26.8639 63.0562 25.2957 63.0562 25.3433Z" fill="black"/>
<path d="M62.8661 25.105C62.8661 25.105 63.1512 24.8672 63.056 24.8196C63.5787 24.5345 64.2917 24.202 64.6245 25.105C65.7176 24.7247 65.8602 25.2476 66.3829 25.8181C67.7136 25.2002 67.8085 25.9604 67.9037 26.2931C67.476 26.2931 66.8584 26.3407 66.0028 26.4357C64.3869 26.6735 62.8185 25.0574 62.8661 25.105Z" fill="#88CE02"/>
<path d="M46.707 23.917C46.707 23.917 49.416 24.8674 51.6973 24.7248C53.9786 24.5349 57.8758 24.3447 59.9669 25.5804C59.9669 25.5804 62.1056 24.8198 64.1018 25.3427C66.0982 25.8653 69.7576 29.2874 68.6646 32.8994C68.5694 33.1372 67.9516 33.5173 67.2387 33.755C67.2387 33.755 67.6191 35.3709 66.9536 36.7016C66.2881 37.9849 64.8149 40.4564 64.7673 43.8782C64.7199 44.4485 64.6249 45.6366 64.5297 46.2069C60.8225 46.0645 55.1194 44.686 49.5112 44.7812C49.5586 44.1636 49.6062 43.7832 49.6538 43.1654H49.7961C49.511 41.5969 49.416 40.7889 49.1307 39.6007C47.3247 38.4602 45.4235 37.1295 43.8079 34.6104C42.2394 32.0914 46.707 23.917 46.707 23.917Z" fill="black"/>
<path d="M65.0524 49.582C65.0524 49.582 67.9992 60.1331 64.5297 64.5532C64.5297 64.5532 65.0524 66.5967 63.8643 68.783C63.6741 69.7334 63.4363 70.589 63.294 71.5394C62.6761 75.4841 61.6303 77.1476 61.3452 83.4686L58.4934 83.4212C58.4934 83.4212 58.1607 78.8586 57.1627 76.4347C56.5927 75.0567 54.3585 73.2028 54.4539 71.3495C54.5489 69.9236 54.834 68.7354 57.2581 66.8342C57.4481 64.0779 54.6915 61.4636 55.1194 51.1979L65.0524 49.582Z" fill="black"/>
<path d="M64.197 49.1543C64.9574 54.002 66.7158 61.1787 63.5315 64.6955C63.6739 65.3609 63.7691 66.3115 63.5789 67.4045C63.4839 67.9747 63.2938 68.5926 63.0562 69.2578C62.5809 70.3986 62.3908 72.062 62.2482 73.06C61.6303 77.0047 61.6303 77.1951 61.3452 83.5161L58.4934 83.4685C58.4934 83.4685 58.1607 78.9059 57.1627 76.4823C56.5927 75.104 55.4043 73.9159 55.3093 72.0623C55.2144 70.6366 56.2123 67.785 58.5888 67.88C58.4463 62.1293 55.7846 63.2698 55.0718 51.293L64.197 49.1543Z" fill="#EFEFEF"/>
<path d="M46.707 23.917C46.707 23.917 47.7526 24.2497 48.8931 24.3447C50.0339 24.4397 51.2696 24.3447 52.3626 24.2971C54.6439 24.1072 57.8758 23.8694 60.0145 25.1051C60.0145 25.1051 61.2026 24.7248 62.486 24.8198C63.0562 24.8674 63.6267 25.3427 64.292 25.5328C66.3831 26.0555 68.3793 29.5249 67.476 32.6619C67.3811 32.8996 66.7156 32.6619 65.9552 32.8996C66.0975 33.5651 66.1929 35.086 65.4323 36.7018C64.6245 38.3179 63.5789 40.409 63.7688 44.4013C58.7785 44.1636 56.5448 43.8311 51.6019 43.5933C51.1742 41.8347 50.8888 40.0763 50.8415 39.1733C51.5069 38.8405 51.8868 38.5556 52.4099 37.9851C50.9843 38.2229 50.4138 38.1277 49.5581 37.6524C48.7027 37.1771 47.1819 35.6562 46.4214 34.6583C46.3265 34.5631 45.8038 36.1313 44.6157 36.1791C44.1877 35.5613 45.9937 33.8026 45.661 33.1374C44.4731 30.7133 46.707 23.917 46.707 23.917Z" fill="#EFEFEF"/>
<path d="M64.5769 45.2088C64.5769 45.2088 64.6718 46.9198 64.6718 47.3475C64.6718 47.8228 65.0522 49.2485 65.0995 49.914C64.5769 50.817 62.2956 52.8607 58.1607 53.6212C54.0734 54.4766 48.6554 48.0606 48.6554 48.0606C48.7979 47.4427 49.2732 45.6365 49.606 44.6861C49.6536 44.5912 49.7485 44.3534 49.7485 44.2584C50.1765 43.6406 64.5769 45.2088 64.5769 45.2088Z" fill="black"/>
<path d="M63.5315 45.3521C63.5315 46.5402 63.7215 47.3959 63.8643 48.1563C64.1018 49.5346 64.4819 50.4376 64.4819 51.3406C64.4819 54.097 60.8699 53.6217 57.8279 53.7169C53.7406 54.5725 50.2712 48.1563 50.2712 48.1563C50.5563 47.0631 50.7465 45.8276 51.1742 44.7818C51.2216 44.2116 51.3168 43.4987 51.3641 43.166C57.1625 43.166 61.2498 43.4987 63.6263 43.736C63.7215 44.2589 63.6265 45.1619 63.5315 45.3521Z" fill="#EFEFEF"/>
<path d="M58.9687 51.4824C58.9687 51.4824 56.4499 45.8743 48.8929 47.5379C47.0871 52.6232 44.663 58.4692 46.2315 64.7902C44.663 66.9289 42.857 68.1173 42.857 72.0618C42.857 76.0065 43.0472 76.6719 43.0472 76.6719L48.6078 76.9573C48.6078 76.9573 50.4138 74.6287 51.1266 72.1096C51.3168 71.3965 51.5069 70.1134 51.3644 68.6402C51.5543 68.355 52.3623 67.6898 52.4575 66.4065C52.4575 66.4065 55.1665 64.9808 56.735 61.5114C58.2085 58.374 57.8282 55.6649 58.9687 51.4824Z" fill="black"/>
<path d="M58.9687 51.4828C58.8264 50.9601 56.9252 45.8273 49.8911 47.3479C45.7564 58.3743 47.2773 62.9369 47.8949 64.9328C45.0907 68.4972 43.8076 69.2577 44.3781 76.4819H48.0853C49.7961 73.7729 50.1765 72.7747 50.2714 69.2103C50.2714 69.0677 49.7488 69.4954 49.3684 69.9707C49.6538 68.4975 50.4616 68.2123 51.0795 67.3093C51.3646 66.929 51.6021 66.3587 51.6021 65.5983C54.929 63.3646 56.1647 60.5604 56.8776 57.6612C57.4481 55.6653 58.1133 52.3858 58.9687 51.4828Z" fill="#EFEFEF"/>
<path d="M47.2297 43.8311C47.2297 43.8311 48.513 43.8784 49.6538 44.2588C50.747 44.6389 50.747 44.8764 51.1747 45.3519C51.6024 45.8275 52.6479 46.5401 52.458 47.2529C52.3628 47.6332 52.1253 47.7282 51.7925 48.0609C51.65 48.2035 50.6042 49.344 50.3666 49.4866C50.2241 49.5816 50.0339 49.7244 49.8913 49.8193C49.749 49.9143 49.3213 50.1997 49.1785 50.2946C48.7032 50.5324 48.3705 50.675 47.8478 50.6274C47.8478 50.6274 46.6597 50.5798 45.899 49.772C45.899 49.772 45.804 49.3916 45.9942 49.2017C45.9942 49.2017 44.996 48.3461 44.7109 47.7758C44.4255 47.2058 44.4255 46.3977 44.6159 45.97C44.7109 45.5419 46.5642 44.3537 47.2297 43.8311Z" fill="black"/>
<path d="M48.4181 90.0748L48.2755 91.2632C48.2755 91.2632 47.8478 91.7858 44.6635 91.7385C41.4316 91.6909 40.5762 90.6929 40.2911 90.17L40.1011 88.9342C40.1011 88.9342 40.719 88.0312 40.8616 88.0312C41.9071 88.1262 45.4718 89.5521 47.9432 89.9322C48.1803 89.9322 48.2277 90.0272 48.4181 90.0748Z" fill="black"/>
<path d="M55.3093 87.6509C55.3093 88.1735 55.2617 88.1735 55.2617 88.6964C55.832 89.1241 57.2581 89.3619 59.9669 89.3141C63.9116 89.2191 67.5712 90.5024 72.0386 89.7418L72.0862 88.8864L71.6585 88.839L55.832 87.5557L55.3093 87.6509Z" fill="black"/>
<path d="M58.7788 89.3143C59.1591 89.3143 59.5392 89.3143 59.9669 89.3143C62.5336 89.2193 64.9574 89.7896 67.5712 89.9321C68.9495 89.8845 70.6606 89.5518 70.518 88.5538L57.0204 87.4131C56.2123 88.3161 56.83 89.0765 58.7788 89.3143Z" fill="black"/>
<path d="M43.285 69.3057C43.7127 69.5908 46.6118 71.3018 51.317 71.0641C51.2218 71.9671 51.2694 73.7257 49.1783 76.8148C48.1327 78.3357 47.2295 80.9973 47.0395 84.3718C47.0871 85.1322 47.5148 85.7974 46.9446 86.7956C47.1345 87.4133 47.8949 88.649 48.2753 89.4094C48.6554 90.1701 48.8455 91.0255 46.3265 91.0731C43.76 91.1205 39.6251 90.8353 40.1956 88.8394C40.481 87.7938 41.2888 86.7007 41.384 86.2727C41.479 85.845 41.479 84.5619 42.2868 83.7063C42.9998 81.33 42.7621 79.0487 42.6197 76.91C42.382 74.6761 42.3344 71.1117 43.285 69.3057Z" fill="black"/>
<path d="M47.705 30.5708C51.0795 26.0555 48.2277 22.4438 42.8099 23.5367C40.6236 23.9644 38.4375 25.4855 38.2947 28.2419C37.5818 28.3368 35.966 28.4318 35.158 31.3786C34.5403 33.6599 34.2076 34.0876 33.1142 35.2281C32.4014 36.0361 33.1618 37.6996 33.6845 38.8879C35.4431 42.9752 40.8611 43.3553 44.5207 46.4447C45.7564 46.1119 47.0395 44.7339 47.4199 43.8309C44.3305 40.171 44.9958 38.7454 43.76 36.8444C45.091 36.3689 48.1327 34.5155 47.705 30.5708Z" fill="black"/>
<path d="M47.0395 30.2856C47.2295 30.0002 47.5622 29.3825 47.705 29.1448C47.7526 29.0972 48.2753 30.0002 48.3229 29.9528C49.606 27.8615 49.9387 24.8197 48.4652 24.5346C48.1325 24.487 47.5148 24.3446 46.9919 24.1542C46.0416 23.8215 45.1862 23.8215 43.6651 24.1069C41.5739 24.487 39.4828 26.0079 39.4828 28.1942C39.4828 28.3368 40.9558 28.7645 41.3838 30.5231C40.6707 29.5249 39.435 28.4317 37.9617 29.3823C36.3932 30.3803 37.2013 32.6616 35.1101 35.0379C34.3971 35.8459 34.4923 36.7965 35.2525 38.6974C36.4882 41.6918 42.3341 43.3076 45.5184 46.1592C46.2789 45.8265 46.8015 45.066 47.1819 44.4958C45.0431 42.2621 44.1875 40.1707 43.5699 38.6499C42.8094 36.8915 41.9538 35.8935 40.2904 34.5623C41.146 34.8951 41.8115 35.2278 42.1913 35.5129C42.619 35.7981 43.2369 35.8457 43.8074 35.6555C45.8514 34.9431 46.9446 32.0913 47.0395 30.2856Z" fill="#EFEFEF"/>
<path d="M67.7138 31.0467C67.5712 32.8527 66.2405 31.9497 65.5277 31.617C64.1018 30.9991 62.6759 30.5714 61.0125 30.5714C59.349 30.5714 57.2103 30.714 55.3569 31.1893C52.7905 31.9021 52.0298 31.8547 50.8893 31.2842C49.7488 30.6664 47.7528 29.1455 47.7528 29.1455C47.7528 29.1455 47.7052 29.6208 48.1805 30.2387C48.7982 30.9991 50.1767 31.9497 52.0301 32.5673C52.9331 32.8527 53.6461 32.6623 54.4542 32.4724C58.684 31.4268 63.1514 31.2366 66.906 33.5179C67.0962 33.6129 67.7616 33.3278 68.0468 32.9001C68.4266 32.2824 67.7138 31.0467 67.7138 31.0467Z" fill="black"/>
<path d="M46.0892 49.1543C46.4693 49.3921 46.9446 49.5346 47.4672 49.9623C47.4672 49.9623 47.0395 49.9623 46.8496 49.7724C46.6118 49.6298 46.1365 49.2021 46.0892 49.1543Z" fill="#001423"/>
<path d="M59.8243 11.4647C59.6818 11.037 58.636 10.2764 56.2123 10.2764C53.5983 10.2764 52.8379 11.0844 52.7905 11.5121C52.7905 11.6547 52.6003 13.1758 52.5527 13.7934C52.5527 13.7934 52.5527 14.5538 52.6001 15.6944C52.6477 16.4548 52.8379 16.8825 52.9328 17.8807C53.0278 18.926 53.3132 19.5915 53.8358 20.4471C54.0736 20.5895 54.2635 20.7323 54.5013 20.7799C55.4519 20.9698 57.1153 21.0174 58.0183 20.7799C58.541 20.6373 59.2065 19.7343 59.349 18.9263C59.539 17.9283 59.7291 17.2152 59.7767 16.5976C59.8717 15.98 59.9193 14.6014 59.9667 14.2211C60.1095 13.1758 59.8717 11.5597 59.8243 11.4647Z" fill="#EFEFEF"/>
<path d="M54.834 70.208C54.834 70.208 57.3531 71.3012 63.5791 70.3506C63.5791 70.3506 61.8207 79.1906 62.6288 83.6104C62.6288 83.6104 63.4366 84.7512 69.4251 86.9373C69.4251 86.9373 72.0865 87.6028 71.9915 88.9337C71.9915 88.9337 72.0865 89.2188 68.8548 89.1236C65.6231 89.0284 62.5812 88.4582 60.4424 88.4582C58.3037 88.4582 56.0224 88.5531 55.6423 87.9355C55.2146 87.3652 55.7373 85.8917 56.3551 85.0361C57.0208 84.1333 56.8304 83.4676 56.7831 81.852C56.64 77.6222 53.4081 73.2497 54.834 70.208Z" fill="black"/>
<path d="M54.3111 71.0167C53.9784 71.492 54.3585 73.2977 54.8338 75.0564C55.3091 76.8148 56.3549 77.8606 56.5924 80.7595C56.83 83.6111 56.8776 83.9914 56.0695 85.6546C55.2615 87.3178 55.024 88.8389 57.8279 88.8865C60.6319 88.9341 62.153 88.8389 65.0046 89.2668C67.8564 89.6945 68.8543 89.8371 70.4228 89.5996C71.9913 89.362 72.3238 88.8389 71.6585 88.3638C70.9931 87.8885 68.2365 87.3659 67.0483 86.415C65.9076 85.5596 62.6759 84.1337 62.6285 83.7536C62.486 82.4703 62.4384 77.8127 62.6759 76.2919C62.9137 74.7708 63.2462 72.5847 63.3414 72.0144C63.4366 71.4441 63.9116 70.8736 63.1036 71.0638C62.2958 71.2537 59.2541 71.6817 56.9728 71.5391C54.6915 71.3968 54.4539 70.8739 54.3111 71.0167Z" fill="#88CE02"/>
<path opacity="0.3" d="M55.9272 85.7021C56.735 86.0822 57.9234 86.3676 58.8264 86.3676C58.8264 86.3676 58.4934 87.9361 59.0163 88.8865C59.539 89.8371 55.2141 89.2668 55.2141 89.2668L55.0242 85.8923L55.9272 85.7021Z" fill="black"/>
<path opacity="0.3" d="M68.5218 89.7895C69.2823 89.5517 69.8052 88.6963 69.1873 87.8885C68.5218 87.0805 67.9516 86.9379 68.807 86.8905C69.6626 86.8429 72.7993 88.7439 72.7993 88.7439L71.1832 90.2172L68.5218 89.7895Z" fill="black"/>
<path opacity="0.3" d="M54.1686 72.8695C55.2617 73.2499 56.9252 73.3448 58.3511 73.2972C59.7767 73.2499 61.9155 73.0595 63.294 72.5844C64.6721 72.1091 64.1018 73.1071 64.1018 73.1071L63.3414 73.8201C63.3414 73.8201 61.5354 74.533 58.5888 74.4856C55.1194 74.438 54.0736 74.0579 54.0736 74.0579L54.1686 72.8695Z" fill="black"/>
<path opacity="0.3" d="M54.2635 75.2467C55.3569 75.627 57.0201 75.722 58.446 75.6744C59.8717 75.627 61.7729 75.627 63.1512 75.1041C63.7215 74.9142 63.389 75.722 63.389 75.722L63.1512 76.1497C63.1512 76.1497 61.2976 76.8151 58.3984 76.7673C54.929 76.7199 54.3111 76.4346 54.3111 76.4346L54.2635 75.2467Z" fill="black"/>
<path d="M51.1268 41.9297C51.1268 42.2624 54.834 44.1158 56.8776 44.4961C58.9213 44.8762 63.1988 44.4961 63.864 44.3536L63.7688 45.019C63.7688 45.019 58.6836 45.7795 54.7864 44.7339C50.8891 43.6883 51.317 43.4506 51.317 43.4506L51.1268 41.9297Z" fill="black"/>
<path d="M43.1898 82.4704C43.76 82.7557 45.8038 83.2784 47.1345 82.9933C47.3244 82.9457 47.1345 79.7138 47.6574 78.2405C48.4178 76.1967 49.6536 74.5333 50.2236 70.9215C48.2274 70.7314 45.9464 70.2085 44.758 69.8281C43.2374 74.4859 43.7603 78.478 43.1898 82.4704Z" fill="#EFEFEF"/>
<path d="M46.3743 85.465C46.707 85.56 46.9446 85.9401 47.0398 85.7028C47.2297 85.2748 46.707 84.467 46.6594 83.8968C46.6594 83.8492 46.6594 83.8968 46.6594 83.8492C46.2317 83.4691 43.3326 83.4215 43.5227 83.6114C43.19 84.2293 42.6673 84.1343 42.4774 85.37C42.3824 85.9877 43.1429 85.465 43.8555 85.4174C42.5724 86.2728 41.0991 87.3662 40.8613 88.3166C40.5762 89.6473 41.0515 90.0276 42.4774 90.7407C43.7131 91.0258 45.1864 91.0734 46.3269 91.0258C47.6103 90.788 47.848 90.1704 47.4677 89.3148C46.897 88.0314 46.5169 86.368 46.3743 85.465Z" fill="#EFEFEF"/>
<path d="M46.897 23.7275C48.4654 24.6305 50.6518 24.393 51.4596 24.3454C51.6497 24.3454 53.5509 24.0127 53.6459 24.06C53.8358 24.1076 53.8358 24.2502 53.8358 24.2502C53.8358 24.2502 53.123 24.6303 51.5072 24.7253C49.9863 24.8202 48.1803 24.7253 47.1823 24.2502C45.994 23.7275 46.897 23.7275 46.897 23.7275Z" fill="black"/>
<path d="M63.0562 24.63C63.3414 24.8199 65.195 25.533 66.003 26.3884C66.7158 27.149 66.3357 27.1014 66.1929 26.9113C66.003 26.6735 64.5295 25.6755 63.9592 25.438C63.389 25.2005 62.6759 24.7725 62.6759 24.6776C62.6759 24.5826 63.0562 24.63 63.0562 24.63Z" fill="black"/>
<path d="M46.6592 44.3535C48.0375 44.2585 49.4634 44.5912 50.3664 45.5416C50.8417 46.0169 51.6021 46.5395 51.5072 47.0148C51.5072 47.1574 51.2218 47.5378 50.9845 47.8229C50.8419 48.0128 50.4142 48.4405 50.2714 48.5833C50.0815 48.7259 49.416 49.2488 49.2735 49.3438C49.1309 49.439 48.9407 49.6767 48.7982 49.7241C48.3231 49.9619 47.8002 49.7717 47.3249 49.5341C46.8498 49.2964 47.4201 49.2488 46.8972 48.8687C45.6141 47.9657 44.901 47.3476 45.4239 45.5892C45.4713 45.2565 45.994 44.8761 46.6592 44.3535Z" fill="#EFEFEF"/>
<path opacity="0.4" d="M34.5401 33.4699C30.2626 35.1809 19.3788 40.5992 16.2897 42.2626C18.8561 43.8784 20.0443 47.7756 20.4246 51.7203C20.472 52.1006 20.5196 52.4334 20.5672 52.8135C20.6145 53.1462 20.6621 53.3837 20.7095 53.5265C20.7095 53.5741 20.7095 53.6691 20.7571 53.7165C23.5613 46.0648 33.5893 37.9851 33.9696 37.3673C34.1595 37.0821 33.7318 35.8464 34.3973 34.6585C35.2529 33.1372 36.9166 32.4717 34.5401 33.4699Z" fill="black"/>
<path opacity="0.4" d="M44.7109 69.3537C46.897 64.9813 46.9446 60.7988 46.897 55.9035C46.897 53.8597 48.3702 50.9605 47.61 51.7686C44.7582 54.9526 37.5818 60.9414 32.4014 61.2739C39.673 61.0363 42.5245 64.6959 44.7109 69.3537Z" fill="black"/>
<path d="M12.1072 46.3021C14.8162 44.3536 28.8367 36.892 32.2112 35.8462C35.5854 34.7531 34.5399 33.4697 34.5399 33.4697C34.5399 33.4697 20.8521 39.363 12.6775 44.4485" fill="black"/>
<path opacity="0.4" d="M52.0298 32.5673C50.9367 32.1396 50.0813 33.423 50.3664 34.6587C50.6518 35.8944 53.2182 37.2725 53.0754 41.7877C52.9804 45.4949 52.1724 47.0156 52.1724 47.0156L50.3664 44.7345C50.3664 44.7345 50.0813 39.6014 49.4634 38.841C48.8458 38.0805 46.897 36.7022 46.1365 35.9894C45.3761 35.2763 46.9919 34.326 46.897 32.995C46.802 31.7119 47.705 29.1455 47.705 29.1455L52.0298 32.5673Z" fill="black"/>
<path opacity="0.4" d="M58.6362 52.8135C58.5412 56.3779 59.3493 61.6535 59.6818 64.1726C60.0145 66.6914 60.4422 66.8816 59.6818 68.0224C58.9213 69.1155 57.9234 70.9215 57.9234 70.9215L54.6439 70.6362C54.6439 70.6362 57.2579 67.3093 57.4002 66.6914C57.5428 66.0738 56.0695 61.3686 56.0695 61.3686L58.6362 52.8135Z" fill="black"/>
<path opacity="0.4" d="M52.3152 19.5454C52.9807 21.0184 53.7885 21.6839 55.0716 22.1118C55.832 22.3969 58.8261 22.7773 60.0145 21.4463C60.5372 20.8285 60.2044 19.165 60.2044 19.165L57.4954 21.3511L53.8358 20.6859L53.4081 19.5927L52.3152 19.5454Z" fill="black"/>
<path d="M52.6001 22.8242C53.8358 23.6323 56.9252 24.3927 57.7806 24.5353C58.636 24.7252 60.0143 23.6323 60.6797 23.3471C61.3928 23.0144 62.6285 22.8242 64.0542 24.1076C64.1968 24.2501 63.7215 24.868 63.7215 24.868C63.6739 24.8204 63.3887 24.8204 63.0084 24.6302C62.6283 24.4403 62.2956 24.2975 61.7253 24.3451C59.3488 24.6302 58.9687 25.4383 56.8776 24.9627C54.7864 24.4872 54.2635 24.1073 52.22 24.2023" fill="#88CE02"/>
<path d="M52.6001 22.8242C53.8358 23.6323 56.9252 24.3927 57.7806 24.5353C58.636 24.7252 60.0143 23.6323 60.6797 23.3471C61.3928 23.0144 62.6285 22.8242 64.0542 24.1076C64.1968 24.2501 63.7215 24.868 63.7215 24.868C63.6739 24.8204 63.3887 24.8204 63.0084 24.6302C62.6283 24.4403 62.2956 24.2975 61.7253 24.3451C59.3488 24.6302 58.9687 25.4383 56.8776 24.9627C54.7864 24.4872 54.2635 24.1073 52.22 24.2023" stroke="black" stroke-width="1.586" stroke-miterlimit="10" stroke-linejoin="round"/>
<path d="M52.1724 22.9668C53.7409 23.6323 56.7826 24.3451 57.638 24.5353C58.4934 24.7254 59.8717 23.8698 60.5372 23.4421C61.7255 22.6817 63.2462 23.2995 63.9592 24.1076C64.4343 24.6302 64.6247 24.963 64.6247 25.1055C64.6247 25.2955 64.0544 25.1055 64.0544 25.1055C63.7217 24.963 63.3414 24.9156 63.0565 24.7252C62.6761 24.5353 62.2958 24.2501 61.7258 24.2975C59.3493 24.5829 58.874 25.3907 56.8304 24.9154C54.7869 24.4401 54.264 24.0124 52.0779 24.1547" fill="#88CE02"/>
<path d="M44.8058 67.3571C44.7109 67.2621 44.9008 67.1671 44.8058 67.1671C44.1882 67.1671 43.3326 66.6918 42.857 66.0264C40.8135 63.0798 37.8191 61.1313 32.4011 61.2738C24.2739 61.4638 21.042 58.1371 20.4244 51.7685C20.0916 48.2991 19.141 44.9246 17.1925 43.0234L16.0517 43.7365C18.2378 45.6375 18.9509 48.7268 19.4262 52.9567C20.1866 59.3253 25.3195 62.272 31.308 62.367C37.534 62.462 39.7677 63.7453 42.0964 66.8822C42.8568 67.8802 43.7124 68.2129 44.3777 68.3555L44.8058 67.3571Z" fill="black"/>
<path opacity="0.4" d="M66.8584 36.7969C67.001 37.5097 67.3811 38.888 68.1415 39.5532C68.4745 39.886 68.5218 39.9809 68.2367 39.9809C67.9513 39.9809 65.8602 39.886 65.8602 39.886L65.2899 38.888L66.8584 36.7969Z" fill="black"/>
</g>
<defs>
<clipPath id="clip0_1709_1051">
<rect width="280" height="102.667" rx="10" fill="white"/>
</clipPath>
</defs>
</svg>
