<svg width="48" height="49" viewBox="0 0 48 49" fill="none" xmlns="http://www.w3.org/2000/svg">
<path d="M24.3333 47.9466C24.3302 47.9451 24.3271 47.9436 24.3239 47.942C24.1834 47.8733 23.9813 47.7712 23.7381 47.6395C23.2507 47.3755 22.6039 46.9953 21.9602 46.5285C21.3136 46.0598 20.6872 45.5161 20.2268 44.9289C19.8966 44.508 19.6674 44.0851 19.5633 43.6667H29.1034C28.9993 44.0851 28.7701 44.508 28.4399 44.9289C27.9794 45.5161 27.3531 46.0598 26.7065 46.5285C26.0627 46.9953 25.416 47.3755 24.9285 47.6395C24.6854 47.7712 24.4832 47.8733 24.3428 47.942C24.3396 47.9436 24.3364 47.9451 24.3333 47.9466ZM24.3205 16.9998L24.3333 17.0002L24.3462 16.9998C25.5266 16.9696 26.6504 16.4871 27.4854 15.6521C28.3204 14.8171 28.8029 13.6933 28.8332 12.5128L28.8333 12.5128V12.5C28.8333 11.3065 28.3592 10.1619 27.5153 9.31802C26.6714 8.4741 25.5268 8 24.3333 8C23.1399 8 21.9953 8.4741 21.1514 9.31802C20.3074 10.1619 19.8333 11.3065 19.8333 12.5H19.8332L19.8335 12.5128C19.8638 13.6933 20.3462 14.8171 21.1812 15.6521C22.0162 16.4871 23.14 16.9696 24.3205 16.9998ZM32.6441 28.9303L32.6074 29.1043L32.6888 29.2623L36.8466 37.3333H30.4667H30.1282L30.0024 37.6476C29.7317 38.3244 29.6503 38.8188 29.5861 39.2082C29.5818 39.2341 29.5776 39.2595 29.5735 39.2845C29.5255 39.5723 29.4836 39.7826 29.3788 40H19.372L18.6789 37.6897L18.572 37.3333H18.2H11.7783L15.7214 28.7079L15.7899 28.5581L15.7559 28.397C14.7094 23.426 15.1648 16.5098 16.7809 10.837C17.5884 8.00225 18.6758 5.51456 19.9813 3.74707C21.291 1.97401 22.7603 1 24.3333 1C25.8981 1 27.3501 1.99776 28.6373 3.82164C29.9196 5.63851 30.9751 8.19301 31.7503 11.0957C33.3013 16.9038 33.6912 23.9562 32.6441 28.9303ZM24.5387 48.0441C24.5387 48.0441 24.5387 48.0441 24.5387 48.0441L24.5387 48.0441Z" stroke="#D62F2F"/>
</svg>
