<svg width="280" height="103" viewBox="0 0 280 103" fill="none" xmlns="http://www.w3.org/2000/svg">
<rect width="280" height="102.667" rx="10" fill="#D62F2F" fill-opacity="0.8"/>
<path d="M48.328 63H43.464V40.664H54.056C55.08 40.664 56.008 40.8347 56.84 41.176C57.672 41.5173 58.376 42.008 58.952 42.648C59.5493 43.2667 60.008 44.0133 60.328 44.888C60.648 45.7627 60.808 46.7333 60.808 47.8C60.808 49.3147 60.4667 50.6373 59.784 51.768C59.1227 52.8987 58.1093 53.72 56.744 54.232L61.128 63H55.72L51.816 54.808H48.328V63ZM53.448 50.712C54.1733 50.712 54.7387 50.5307 55.144 50.168C55.5707 49.784 55.784 49.2293 55.784 48.504V47.096C55.784 46.3707 55.5707 45.8267 55.144 45.464C54.7387 45.08 54.1733 44.888 53.448 44.888H48.328V50.712H53.448ZM71.3098 63.384C70.0298 63.384 68.8884 63.1813 67.8858 62.776C66.8831 62.3493 66.0298 61.7627 65.3258 61.016C64.6431 60.248 64.1204 59.32 63.7578 58.232C63.4164 57.144 63.2458 55.928 63.2458 54.584C63.2458 53.2613 63.4164 52.0667 63.7578 51C64.0991 49.912 64.6004 48.984 65.2618 48.216C65.9444 47.448 66.7764 46.8613 67.7578 46.456C68.7391 46.0293 69.8591 45.816 71.1178 45.816C72.5044 45.816 73.6884 46.0507 74.6698 46.52C75.6724 46.9893 76.4831 47.6187 77.1018 48.408C77.7418 49.1973 78.2004 50.1147 78.4778 51.16C78.7764 52.184 78.9258 53.2613 78.9258 54.392V55.8H68.1418V56.056C68.1418 57.1653 68.4404 58.0507 69.0378 58.712C69.6351 59.352 70.5738 59.672 71.8538 59.672C72.8351 59.672 73.6351 59.48 74.2538 59.096C74.8724 58.6907 75.4484 58.2107 75.9818 57.656L78.3498 60.6C77.6031 61.4747 76.6218 62.1573 75.4058 62.648C74.2111 63.1387 72.8458 63.384 71.3098 63.384ZM71.2138 49.304C70.2538 49.304 69.4964 49.624 68.9418 50.264C68.4084 50.8827 68.1418 51.7147 68.1418 52.76V53.016H74.0298V52.728C74.0298 51.704 73.7951 50.8827 73.3258 50.264C72.8778 49.624 72.1738 49.304 71.2138 49.304ZM94.6865 63C93.8332 63 93.1185 62.7333 92.5425 62.2C91.9878 61.6667 91.6358 60.952 91.4865 60.056H91.2945C91.0385 61.144 90.4732 61.976 89.5985 62.552C88.7238 63.1067 87.6465 63.384 86.3665 63.384C84.6812 63.384 83.3905 62.936 82.4945 62.04C81.5985 61.144 81.1505 59.96 81.1505 58.488C81.1505 56.7173 81.7905 55.4053 83.0705 54.552C84.3718 53.6773 86.1318 53.24 88.3505 53.24H91.0065V52.184C91.0065 51.3733 90.7932 50.7333 90.3665 50.264C89.9398 49.7733 89.2252 49.528 88.2225 49.528C87.2838 49.528 86.5372 49.7307 85.9825 50.136C85.4278 50.5413 84.9692 51 84.6065 51.512L81.7905 49.016C82.4732 48.0133 83.3265 47.2347 84.3505 46.68C85.3958 46.104 86.8038 45.816 88.5745 45.816C90.9638 45.816 92.7558 46.3387 93.9505 47.384C95.1452 48.4293 95.7425 49.9547 95.7425 51.96V59.32H97.3105V63H94.6865ZM88.1265 60.088C88.9158 60.088 89.5878 59.9173 90.1425 59.576C90.7185 59.2347 91.0065 58.68 91.0065 57.912V55.928H88.7025C86.8465 55.928 85.9185 56.5573 85.9185 57.816V58.296C85.9185 58.9147 86.1105 59.3733 86.4945 59.672C86.8785 59.9493 87.4225 60.088 88.1265 60.088ZM107.273 63.384C106.015 63.384 104.895 63.1813 103.913 62.776C102.932 62.3493 102.111 61.7627 101.449 61.016C100.788 60.248 100.287 59.32 99.9453 58.232C99.6039 57.144 99.4333 55.928 99.4333 54.584C99.4333 53.24 99.6039 52.0347 99.9453 50.968C100.287 49.88 100.788 48.952 101.449 48.184C102.111 47.416 102.932 46.8293 103.913 46.424C104.895 46.0187 106.015 45.816 107.273 45.816C108.98 45.816 110.399 46.2 111.529 46.968C112.681 47.736 113.503 48.8133 113.993 50.2L110.153 51.864C110.004 51.224 109.695 50.68 109.225 50.232C108.756 49.784 108.105 49.56 107.273 49.56C106.313 49.56 105.588 49.88 105.097 50.52C104.607 51.1387 104.361 51.9813 104.361 53.048V56.184C104.361 57.2507 104.607 58.0933 105.097 58.712C105.588 59.3307 106.313 59.64 107.273 59.64C108.127 59.64 108.799 59.416 109.289 58.968C109.801 58.4987 110.175 57.8907 110.409 57.144L114.089 58.744C113.535 60.344 112.671 61.5173 111.497 62.264C110.345 63.0107 108.937 63.384 107.273 63.384ZM122.909 63C121.266 63 120.018 62.584 119.165 61.752C118.333 60.92 117.917 59.704 117.917 58.104V49.88H115.549V46.2H116.733C117.373 46.2 117.81 46.0507 118.045 45.752C118.279 45.432 118.397 44.984 118.397 44.408V41.656H122.653V46.2H125.981V49.88H122.653V59.32H125.725V63H122.909ZM153.793 48.344H153.697L152.065 51.608L147.713 59.512L143.457 51.64L141.761 48.12H141.665V63H137.089V40.664H142.241L147.713 51.128H147.777L153.185 40.664H158.369V63H153.793V48.344ZM169.868 63.384C168.63 63.384 167.521 63.1813 166.54 62.776C165.58 62.3707 164.758 61.784 164.076 61.016C163.414 60.248 162.902 59.32 162.54 58.232C162.177 57.144 161.996 55.928 161.996 54.584C161.996 53.24 162.177 52.024 162.54 50.936C162.902 49.848 163.414 48.9307 164.076 48.184C164.758 47.416 165.58 46.8293 166.54 46.424C167.521 46.0187 168.63 45.816 169.868 45.816C171.105 45.816 172.204 46.0187 173.164 46.424C174.145 46.8293 174.966 47.416 175.628 48.184C176.31 48.9307 176.833 49.848 177.196 50.936C177.558 52.024 177.74 53.24 177.74 54.584C177.74 55.928 177.558 57.144 177.196 58.232C176.833 59.32 176.31 60.248 175.628 61.016C174.966 61.784 174.145 62.3707 173.164 62.776C172.204 63.1813 171.105 63.384 169.868 63.384ZM169.868 59.64C170.806 59.64 171.532 59.352 172.044 58.776C172.556 58.2 172.812 57.3787 172.812 56.312V52.888C172.812 51.8213 172.556 51 172.044 50.424C171.532 49.848 170.806 49.56 169.868 49.56C168.929 49.56 168.204 49.848 167.692 50.424C167.18 51 166.924 51.8213 166.924 52.888V56.312C166.924 57.3787 167.18 58.2 167.692 58.776C168.204 59.352 168.929 59.64 169.868 59.64ZM186.815 63C185.172 63 183.924 62.584 183.071 61.752C182.239 60.92 181.823 59.704 181.823 58.104V49.88H179.455V46.2H180.639C181.279 46.2 181.716 46.0507 181.951 45.752C182.185 45.432 182.303 44.984 182.303 44.408V41.656H186.559V46.2H189.887V49.88H186.559V59.32H189.631V63H186.815ZM195.545 44.408C194.585 44.408 193.881 44.1947 193.433 43.768C193.006 43.32 192.793 42.7547 192.793 42.072V41.368C192.793 40.6853 193.006 40.1307 193.433 39.704C193.881 39.256 194.585 39.032 195.545 39.032C196.505 39.032 197.198 39.256 197.625 39.704C198.073 40.1307 198.297 40.6853 198.297 41.368V42.072C198.297 42.7547 198.073 43.32 197.625 43.768C197.198 44.1947 196.505 44.408 195.545 44.408ZM193.177 46.2H197.913V63H193.177V46.2ZM209.149 63.384C207.912 63.384 206.802 63.1813 205.821 62.776C204.861 62.3707 204.04 61.784 203.357 61.016C202.696 60.248 202.184 59.32 201.821 58.232C201.458 57.144 201.277 55.928 201.277 54.584C201.277 53.24 201.458 52.024 201.821 50.936C202.184 49.848 202.696 48.9307 203.357 48.184C204.04 47.416 204.861 46.8293 205.821 46.424C206.802 46.0187 207.912 45.816 209.149 45.816C210.386 45.816 211.485 46.0187 212.445 46.424C213.426 46.8293 214.248 47.416 214.909 48.184C215.592 48.9307 216.114 49.848 216.477 50.936C216.84 52.024 217.021 53.24 217.021 54.584C217.021 55.928 216.84 57.144 216.477 58.232C216.114 59.32 215.592 60.248 214.909 61.016C214.248 61.784 213.426 62.3707 212.445 62.776C211.485 63.1813 210.386 63.384 209.149 63.384ZM209.149 59.64C210.088 59.64 210.813 59.352 211.325 58.776C211.837 58.2 212.093 57.3787 212.093 56.312V52.888C212.093 51.8213 211.837 51 211.325 50.424C210.813 49.848 210.088 49.56 209.149 49.56C208.21 49.56 207.485 49.848 206.973 50.424C206.461 51 206.205 51.8213 206.205 52.888V56.312C206.205 57.3787 206.461 58.2 206.973 58.776C207.485 59.352 208.21 59.64 209.149 59.64ZM220.396 63V46.2H225.132V49.048H225.324C225.622 48.1733 226.145 47.416 226.892 46.776C227.638 46.136 228.673 45.816 229.996 45.816C231.724 45.816 233.025 46.392 233.9 47.544C234.796 48.696 235.244 50.3387 235.244 52.472V63H230.508V52.856C230.508 51.768 230.337 50.968 229.996 50.456C229.654 49.9227 229.046 49.656 228.172 49.656C227.788 49.656 227.414 49.7093 227.052 49.816C226.689 49.9013 226.358 50.0507 226.06 50.264C225.782 50.4773 225.558 50.744 225.388 51.064C225.217 51.3627 225.132 51.7147 225.132 52.12V63H220.396Z" fill="white"/>
</svg>
