<svg width="1440" height="529" viewBox="0 0 1440 529" fill="none" xmlns="http://www.w3.org/2000/svg">
<g clip-path="url(#clip0_2137_719)">
<rect width="1440" height="529" fill="#C5CCE2"/>
<path d="M1441.62 705.056C1447.28 727.927 1441.62 717.738 1303.05 717.738C1157.1 717.738 1182.9 454.487 1029.21 454.487C866.846 454.487 857.512 533.958 752.426 470.545C632.277 398.041 741.738 48.6614 849.725 53.0408C936.114 56.5443 1273.81 60.212 1441.62 54.2106L1441.62 705.056Z" fill="url(#paint0_linear_2137_719)"/>
<path d="M1441.29 700.782C1446.93 725.602 1441.29 714.545 1302.77 714.545C1156.89 714.545 1182.68 428.851 1029.06 428.851C866.768 428.851 857.439 515.098 752.401 446.278C632.306 367.593 741.717 -11.5729 849.655 -6.82011C936.005 -3.01792 1273.55 0.962506 1441.29 -5.55055L1441.29 700.782Z" fill="#394149"/>
</g>
<defs>
<linearGradient id="paint0_linear_2137_719" x1="861" y1="581" x2="1285" y2="361" gradientUnits="userSpaceOnUse">
<stop offset="0.133722" stop-color="#A4ABC1"/>
<stop offset="0.37826" stop-color="#E7ECF6"/>
<stop offset="0.486755" stop-color="#323C45" stop-opacity="0.8"/>
</linearGradient>
<clipPath id="clip0_2137_719">
<rect width="1440" height="529" fill="white"/>
</clipPath>
</defs>
</svg>
