<svg width="587" height="381" viewBox="0 0 587 381" fill="none" xmlns="http://www.w3.org/2000/svg">
<g filter="url(#filter0_d_2137_730)">
<rect width="500" height="300" rx="10" fill="url(#paint0_linear_2137_730)"/>
</g>
<rect x="10.5" y="10.5" width="479" height="279" rx="9.5" fill="white" stroke="#C4C4C4"/>
<rect x="160" y="25" width="150" height="20" rx="10" fill="#C4C4C4"/>
<rect x="400" y="25" width="70" height="25" rx="12.5" fill="#1CABF2"/>
<rect x="160" y="55" width="160" height="130" rx="10" fill="#F2F2F2"/>
<rect x="175" y="170" width="100" height="10" rx="5" transform="rotate(-90 175 170)" fill="#C4C4C4"/>
<rect x="175" y="170" width="55" height="10" rx="5" transform="rotate(-90 175 170)" fill="#C40000" fill-opacity="0.8"/>
<rect x="195" y="170" width="100" height="10" rx="5" transform="rotate(-90 195 170)" fill="#C4C4C4"/>
<rect x="195" y="170" width="64" height="10" rx="5" transform="rotate(-90 195 170)" fill="#C40000" fill-opacity="0.8"/>
<rect x="215" y="170" width="100" height="10" rx="5" transform="rotate(-90 215 170)" fill="#C4C4C4"/>
<rect x="215" y="170" width="53" height="10" rx="5" transform="rotate(-90 215 170)" fill="#C40000" fill-opacity="0.8"/>
<rect x="235" y="170" width="100" height="10" rx="5" transform="rotate(-90 235 170)" fill="#C4C4C4"/>
<rect x="235" y="170" width="73" height="10" rx="5" transform="rotate(-90 235 170)" fill="#C40000" fill-opacity="0.8"/>
<rect x="255" y="170" width="100" height="10" rx="5" transform="rotate(-90 255 170)" fill="#C4C4C4"/>
<rect x="255" y="170" width="78" height="10" rx="5" transform="rotate(-90 255 170)" fill="#C40000" fill-opacity="0.8"/>
<rect x="275" y="170" width="100" height="10" rx="5" transform="rotate(-90 275 170)" fill="#C4C4C4"/>
<rect x="275" y="170" width="89" height="10" rx="5" transform="rotate(-90 275 170)" fill="#C40000" fill-opacity="0.8"/>
<rect x="295" y="170" width="100" height="10" rx="5" transform="rotate(-90 295 170)" fill="#C4C4C4"/>
<rect x="295" y="170" width="92" height="10" rx="5" transform="rotate(-90 295 170)" fill="#C40000" fill-opacity="0.8"/>
<rect x="340" y="105" width="80" height="80" rx="10" fill="#F2F2F2"/>
<path d="M406 144.5C406 159.136 394.136 171 379.5 171C364.864 171 353 159.136 353 144.5C353 129.864 364.864 118 379.5 118C394.136 118 406 129.864 406 144.5ZM360.95 144.5C360.95 154.745 369.255 163.05 379.5 163.05C389.745 163.05 398.05 154.745 398.05 144.5C398.05 134.255 389.745 125.95 379.5 125.95C369.255 125.95 360.95 134.255 360.95 144.5Z" fill="#C4C4C4"/>
<path d="M399.174 133.532C401.092 132.463 401.801 130.018 400.458 128.282C398.29 125.481 395.574 123.131 392.461 121.386C388.187 118.989 383.333 117.825 378.437 118.021C373.541 118.218 368.796 119.768 364.728 122.499C360.66 125.23 357.429 129.036 355.394 133.493C353.359 137.95 352.599 142.883 353.2 147.746C353.8 152.609 355.736 157.21 358.794 161.038C361.852 164.867 365.911 167.772 370.521 169.433C373.879 170.642 377.433 171.156 380.97 170.959C383.162 170.837 384.544 168.7 384.096 166.551V166.551C383.648 164.402 381.532 163.069 379.337 163.049C377.258 163.031 375.188 162.663 373.215 161.953C369.988 160.791 367.146 158.757 365.006 156.077C362.865 153.397 361.51 150.176 361.09 146.772C360.67 143.368 361.201 139.915 362.626 136.795C364.051 133.675 366.312 131.011 369.16 129.099C372.007 127.187 375.329 126.102 378.756 125.965C382.183 125.827 385.581 126.643 388.573 128.32C390.402 129.346 392.036 130.67 393.411 132.228C394.863 133.875 397.257 134.601 399.174 133.532V133.532Z" fill="#C40000" fill-opacity="0.8"/>
<rect x="30" y="25" width="110" height="251" rx="10" fill="#F2F2F2"/>
<g filter="url(#filter1_d_2137_730)">
<circle cx="85" cy="57.5" r="22.5" fill="#C40000" fill-opacity="0.8" shape-rendering="crispEdges"/>
</g>
<rect x="40" y="93" width="90" height="10" rx="5" fill="#C4C4C4"/>
<rect x="45" y="116" width="80" height="10" rx="5" fill="#C40000" fill-opacity="0.8"/>
<rect x="40" y="139" width="90" height="10" rx="5" fill="#C4C4C4"/>
<rect x="40" y="185" width="90" height="10" rx="5" fill="#C4C4C4"/>
<rect x="50" y="231" width="70" height="25" rx="12.5" fill="#1CABF2"/>
<rect x="160" y="195" width="310.001" height="85" rx="10" fill="#F2F2F2"/>
<rect x="170" y="200" width="40" height="15" rx="5" fill="#C4C4C4"/>
<rect x="220" y="200" width="40" height="15" rx="5" fill="#FF9003"/>
<path d="M170 275C220.098 211.875 265.309 257.188 328.848 257.188C392.387 257.188 429.316 233.125 452.668 215" stroke="#FF9003" stroke-width="3" stroke-linecap="round"/>
<path d="M171.223 245.314C175.839 251.043 200.223 259.626 220.099 261.876C244.945 264.688 281.194 213.126 312.557 220.001C347.629 227.689 296.265 277.189 375.281 273.439C438.495 270.439 458.1 267.814 460.001 269.064" stroke="#C4C4C4" stroke-width="3" stroke-linecap="round"/>
<path d="M255.535 251.5C257.524 251.5 259.379 250.883 260.769 249.817C262.16 248.75 263.145 247.17 263.145 245.313C263.145 243.455 262.16 241.875 260.769 240.808C259.379 239.742 257.524 239.125 255.535 239.125C253.547 239.125 251.692 239.742 250.302 240.808C248.911 241.875 247.926 243.455 247.926 245.313C247.926 247.17 248.911 248.75 250.302 249.817C251.692 250.883 253.547 251.5 255.535 251.5Z" fill="#FF9003" stroke="white" stroke-width="3"/>
<g filter="url(#filter2_d_2137_730)">
<rect x="409" y="58" width="155" height="295" rx="15" fill="url(#paint1_linear_2137_730)"/>
</g>
<g clip-path="url(#clip0_2137_730)">
<path d="M557 74.7732V333.244C556.996 335.617 556.143 337.923 554.574 339.802L554.328 340.087C554.063 340.377 553.798 340.655 553.515 340.911C553.232 341.167 552.998 341.361 552.727 341.571C552.38 341.833 552.019 342.078 551.644 342.305C551.274 342.527 550.88 342.732 550.48 342.925L549.864 343.187C549.661 343.266 549.446 343.34 549.249 343.414C548.816 343.553 548.377 343.671 547.931 343.767C547.385 343.88 546.832 343.958 546.275 344H546.121H427.916H427.756C424.832 343.774 422.106 342.544 420.115 340.553C418.124 338.562 417.013 335.954 417 333.244V74.7732C417.003 72.0337 418.131 69.3973 420.158 67.3974C422.184 65.3974 424.957 64.1831 427.916 64H428.015H428.175H445.518C445.984 64.0206 446.425 64.1942 446.764 64.4894C447.103 64.7846 447.316 65.182 447.365 65.6097C447.365 65.6723 447.365 65.7292 447.365 65.7917V65.8486C447.383 66.171 447.422 66.492 447.482 66.8099C447.482 66.9237 447.519 67.0317 447.544 67.1398C447.575 67.2763 447.606 67.4015 447.643 67.5323C447.679 67.6631 447.71 67.7655 447.747 67.8793C447.784 67.993 447.747 67.9361 447.747 67.9589V68.0442C447.747 68.0442 447.747 68.0954 447.747 68.1182C447.747 68.1409 447.778 68.1921 447.79 68.2319L447.833 68.3457C447.87 68.4481 447.92 68.5504 447.963 68.6585C448.006 68.7666 448.055 68.8576 448.11 68.9543C448.104 68.9689 448.104 68.9852 448.11 68.9998C448.154 69.0851 448.203 69.1648 448.246 69.2444C448.289 69.324 448.326 69.3923 448.369 69.4605L448.406 69.5288C448.425 69.5667 448.448 69.6029 448.474 69.6369L448.566 69.7848V69.8189L448.603 69.8757L448.665 69.9725C448.688 70.0106 448.714 70.0468 448.745 70.0805L448.806 70.1715L448.843 70.217C448.874 70.2569 448.892 70.291 448.923 70.3251C448.94 70.3503 448.961 70.3733 448.985 70.3934C449.008 70.4316 449.035 70.4677 449.065 70.5014C449.065 70.5014 449.065 70.5014 449.065 70.5014L449.157 70.6152L449.194 70.6607L449.305 70.7802C449.326 70.8107 449.351 70.8393 449.379 70.8655C449.421 70.9186 449.468 70.9681 449.52 71.0134L449.594 71.093C449.622 71.1278 449.653 71.1602 449.687 71.1897L449.791 71.2921L449.896 71.3888C449.957 71.4457 450.013 71.5025 450.087 71.5594C450.133 71.6058 450.182 71.6495 450.235 71.6902L450.327 71.7642L450.425 71.8438C450.466 71.8791 450.509 71.9114 450.555 71.9405V71.9405C450.622 71.9974 450.696 72.0486 450.77 72.0998L450.906 72.1908L451.016 72.2761H451.066C451.115 72.3116 451.166 72.3439 451.22 72.3728C451.241 72.3918 451.266 72.4072 451.294 72.4183L451.386 72.4866L451.546 72.5719C451.612 72.617 451.682 72.657 451.755 72.6913C451.84 72.7423 451.929 72.7879 452.02 72.8278L452.125 72.8847L452.322 72.9814L452.5 73.0611L452.666 73.1293C452.694 73.1441 452.722 73.1556 452.753 73.1634L452.827 73.1919L452.9 73.226L453.258 73.3512L453.467 73.4194L453.658 73.4706L453.805 73.5104L454.101 73.5844H454.163L454.55 73.664C454.652 73.6866 454.755 73.7036 454.858 73.7152H455.012H455.049C455.163 73.7322 455.278 73.7436 455.394 73.7493H455.474H455.505H455.659H455.751H455.973C456.083 73.755 456.194 73.755 456.305 73.7493H517.258C517.368 73.755 517.479 73.755 517.59 73.7493H517.812H517.904H518.058H518.138C518.252 73.7436 518.365 73.7322 518.477 73.7152H518.52H518.674C518.777 73.7036 518.88 73.6866 518.982 73.664L519.363 73.5844H519.431L519.727 73.5104L519.874 73.4706L520.065 73.4194L520.268 73.3512L520.626 73.226C520.653 73.217 520.68 73.2056 520.706 73.1919L520.779 73.1634C520.809 73.1545 520.838 73.1431 520.866 73.1293C520.921 73.11 520.974 73.0872 521.026 73.0611C521.089 73.0391 521.151 73.0125 521.21 72.9814L521.407 72.8847L521.512 72.8278C521.604 72.7879 521.692 72.7423 521.777 72.6913C521.85 72.657 521.92 72.617 521.986 72.5719L522.146 72.4866L522.245 72.4183C522.271 72.4085 522.294 72.3929 522.312 72.3728C522.449 72.405 522.592 72.4108 522.731 72.3899V72.3899H522.774L522.891 72.3046L523.02 72.2135C523.094 72.1624 523.174 72.1112 523.242 72.0543L523.371 71.9576L523.47 71.878L523.562 71.804L523.71 71.6732L523.901 71.5025L524.006 71.4058L524.11 71.3035L524.203 71.2068C524.258 71.1611 524.308 71.1095 524.35 71.0532L524.412 70.9849C524.443 70.9619 524.468 70.9327 524.486 70.8996V70.8996C524.523 70.8655 524.56 70.82 524.597 70.7802L524.634 70.7347L524.726 70.6209C524.76 70.5888 524.789 70.5524 524.812 70.5128C524.836 70.4927 524.857 70.4698 524.874 70.4446L524.954 70.3365L524.991 70.291C524.991 70.2569 525.034 70.2284 525.052 70.2C525.083 70.1675 525.107 70.1311 525.126 70.0919C525.126 70.0635 525.169 70.0293 525.194 69.9952L525.231 69.9383V69.9042L525.323 69.7563C525.323 69.7222 525.366 69.688 525.385 69.6482C525.404 69.6282 525.418 69.605 525.428 69.58C525.471 69.5117 525.514 69.4378 525.551 69.3638C525.588 69.2899 525.643 69.2046 525.686 69.1192C525.73 69.0339 525.686 69.1192 525.686 69.1192C525.686 69.1192 525.686 69.0908 525.686 69.0737C525.686 69.0567 525.785 68.8803 525.828 68.778C525.871 68.6756 525.927 68.5675 525.963 68.4651L526.007 68.3514C526.017 68.3123 526.032 68.2742 526.05 68.2376C526.053 68.2131 526.053 68.1882 526.05 68.1637C526.065 68.1362 526.077 68.1077 526.087 68.0783C526.087 68.0499 526.087 68.0271 526.087 67.9987C526.087 67.9703 526.16 67.7655 526.191 67.6517C526.222 67.538 526.259 67.3958 526.29 67.2593C526.29 67.1512 526.333 67.0431 526.351 66.9293C526.413 66.6117 526.45 66.2905 526.462 65.9681C526.465 65.9568 526.465 65.9452 526.462 65.9339V65.9339C526.462 65.8714 526.462 65.8145 526.462 65.7519C526.51 65.3237 526.723 64.9257 527.062 64.6303C527.401 64.3349 527.844 64.1617 528.309 64.1422H545.918L546.226 64.1706H546.379C546.478 64.1706 546.583 64.1706 546.681 64.2048L547.044 64.2503L547.568 64.3356H547.66L548.085 64.4323L548.701 64.5972L549.181 64.7451L549.692 64.9385C550.024 65.0694 550.357 65.2172 550.677 65.3765C550.997 65.5358 551.25 65.6723 551.527 65.8429L551.711 65.9567L552.044 66.1785C552.192 66.2752 552.333 66.3776 552.475 66.48C552.752 66.6904 553.023 66.9123 553.275 67.1398C553.404 67.2593 553.534 67.3787 553.651 67.4981C553.768 67.6176 553.891 67.7427 554.008 67.8679C554.472 68.372 554.884 68.9147 555.239 69.489C555.424 69.7791 555.584 70.0578 555.738 70.382C555.892 70.7062 556.027 70.9963 556.144 71.3205C556.206 71.4798 556.261 71.639 556.317 71.7983C556.431 72.1516 556.523 72.5105 556.594 72.8734C556.594 73.0156 556.649 73.1578 556.674 73.3056C556.819 73.7874 556.928 74.2777 557 74.7732V74.7732Z" fill="#E9E9E9"/>
<rect x="425" y="132" width="125" height="101" rx="10" fill="white"/>
<rect x="436.719" y="221.347" width="77.6923" height="7.8125" rx="3.90625" transform="rotate(-90 436.719 221.347)" fill="#C4C4C4"/>
<rect x="436.719" y="221.347" width="42.7308" height="7.8125" rx="3.90625" transform="rotate(-90 436.719 221.347)" fill="#C40000" fill-opacity="0.8"/>
<rect x="452.344" y="221.347" width="77.6923" height="7.8125" rx="3.90625" transform="rotate(-90 452.344 221.347)" fill="#C4C4C4"/>
<rect x="452.344" y="221.347" width="49.7231" height="7.8125" rx="3.90625" transform="rotate(-90 452.344 221.347)" fill="#C40000" fill-opacity="0.8"/>
<rect x="467.969" y="221.347" width="77.6923" height="7.8125" rx="3.90625" transform="rotate(-90 467.969 221.347)" fill="#C4C4C4"/>
<rect x="467.969" y="221.347" width="41.1769" height="7.8125" rx="3.90625" transform="rotate(-90 467.969 221.347)" fill="#C40000" fill-opacity="0.8"/>
<rect x="483.594" y="221.347" width="77.6923" height="7.8125" rx="3.90625" transform="rotate(-90 483.594 221.347)" fill="#C4C4C4"/>
<rect x="483.594" y="221.347" width="56.7154" height="7.8125" rx="3.90625" transform="rotate(-90 483.594 221.347)" fill="#C40000" fill-opacity="0.8"/>
<rect x="499.219" y="221.347" width="77.6923" height="7.8125" rx="3.90625" transform="rotate(-90 499.219 221.347)" fill="#C4C4C4"/>
<rect x="499.219" y="221.347" width="60.6" height="7.8125" rx="3.90625" transform="rotate(-90 499.219 221.347)" fill="#C40000" fill-opacity="0.8"/>
<rect x="514.844" y="221.347" width="77.6923" height="7.8125" rx="3.90625" transform="rotate(-90 514.844 221.347)" fill="#C4C4C4"/>
<rect x="514.844" y="221.347" width="69.1461" height="7.8125" rx="3.90625" transform="rotate(-90 514.844 221.347)" fill="#C40000" fill-opacity="0.8"/>
<rect x="530.469" y="221.347" width="77.6923" height="7.8125" rx="3.90625" transform="rotate(-90 530.469 221.347)" fill="#C4C4C4"/>
<rect x="530.469" y="221.347" width="71.4769" height="7.8125" rx="3.90625" transform="rotate(-90 530.469 221.347)" fill="#C40000" fill-opacity="0.8"/>
<rect x="475" y="96" width="75" height="12" rx="6" fill="#C4C4C4"/>
<rect x="425" y="243" width="48" height="48" rx="10" fill="white"/>
<path d="M464.6 266.7C464.6 275.481 457.481 282.6 448.7 282.6C439.918 282.6 432.8 275.481 432.8 266.7C432.8 257.918 439.918 250.8 448.7 250.8C457.481 250.8 464.6 257.918 464.6 266.7ZM437.57 266.7C437.57 272.847 442.553 277.83 448.7 277.83C454.847 277.83 459.83 272.847 459.83 266.7C459.83 260.553 454.847 255.57 448.7 255.57C442.553 255.57 437.57 260.553 437.57 266.7Z" fill="#C4C4C4"/>
<path d="M460.504 260.119C461.655 259.477 462.081 258.011 461.274 256.969C459.974 255.288 458.344 253.879 456.476 252.831C453.912 251.393 451 250.695 448.062 250.813C445.125 250.931 442.277 251.86 439.837 253.499C437.396 255.138 435.457 257.421 434.236 260.095C433.015 262.77 432.559 265.73 432.92 268.648C433.28 271.565 434.442 274.326 436.276 276.623C438.111 278.92 440.547 280.663 443.313 281.659C445.327 282.385 447.46 282.693 449.582 282.575C450.897 282.502 451.726 281.22 451.458 279.93V279.93C451.189 278.641 449.919 277.841 448.602 277.829C447.355 277.818 446.113 277.598 444.929 277.171C442.993 276.474 441.288 275.254 440.003 273.646C438.719 272.038 437.906 270.106 437.654 268.063C437.402 266.021 437.721 263.949 438.575 262.077C439.43 260.205 440.787 258.606 442.496 257.459C444.204 256.312 446.197 255.661 448.253 255.579C450.31 255.496 452.348 255.985 454.143 256.992C455.241 257.607 456.221 258.402 457.046 259.337C457.918 260.325 459.354 260.76 460.504 260.119V260.119Z" fill="#C40000" fill-opacity="0.8"/>
<rect x="480" y="254" width="45" height="5" rx="2.5" fill="#C4C4C4"/>
<rect x="480" y="264" width="45" height="5" rx="2.5" fill="#C4C4C4"/>
<rect x="480" y="274" width="45" height="5" rx="2.5" fill="#C4C4C4"/>
<g filter="url(#filter3_d_2137_730)">
<circle cx="444" cy="102" r="19" fill="#C40000" fill-opacity="0.8" shape-rendering="crispEdges"/>
</g>
<rect x="430" y="303" width="114" height="50" rx="10" fill="white"/>
<path d="M435.134 341C453.077 313.646 469.269 333.281 492.026 333.281C514.783 333.281 528.01 322.854 536.373 315" stroke="#FF9003" stroke-width="3" stroke-linecap="round"/>
<path d="M435.572 328.135C437.226 330.618 445.959 334.337 453.078 335.312C461.976 336.531 474.959 314.187 486.192 317.166C498.754 320.498 480.357 341.948 508.657 340.323C531.298 339.023 538.319 337.885 539 338.427" stroke="#C4C4C4" stroke-width="3" stroke-linecap="round"/>
<path d="M465.769 331.666C467.699 331.666 469.457 330.188 469.457 328.135C469.457 326.081 467.699 324.604 465.769 324.604C463.839 324.604 462.081 326.081 462.081 328.135C462.081 330.188 463.839 331.666 465.769 331.666Z" fill="#FF9003" stroke="white" stroke-width="3"/>
<circle cx="523.5" cy="302.5" r="12.5" fill="#1CABF2"/>
</g>
<circle cx="466" cy="67" r="4" fill="#E9E9E9"/>
<rect x="480" y="64" width="32" height="6" rx="3" fill="#E9E9E9"/>
<defs>
<filter id="filter0_d_2137_730" x="0" y="0" width="523" height="328" filterUnits="userSpaceOnUse" color-interpolation-filters="sRGB">
<feFlood flood-opacity="0" result="BackgroundImageFix"/>
<feColorMatrix in="SourceAlpha" type="matrix" values="0 0 0 0 0 0 0 0 0 0 0 0 0 0 0 0 0 0 127 0" result="hardAlpha"/>
<feOffset dx="15" dy="20"/>
<feGaussianBlur stdDeviation="4"/>
<feComposite in2="hardAlpha" operator="out"/>
<feColorMatrix type="matrix" values="0 0 0 0 0 0 0 0 0 0 0 0 0 0 0 0 0 0 0.25 0"/>
<feBlend mode="normal" in2="BackgroundImageFix" result="effect1_dropShadow_2137_730"/>
<feBlend mode="normal" in="SourceGraphic" in2="effect1_dropShadow_2137_730" result="shape"/>
</filter>
<filter id="filter1_d_2137_730" x="58.5" y="31" width="53" height="53" filterUnits="userSpaceOnUse" color-interpolation-filters="sRGB">
<feFlood flood-opacity="0" result="BackgroundImageFix"/>
<feColorMatrix in="SourceAlpha" type="matrix" values="0 0 0 0 0 0 0 0 0 0 0 0 0 0 0 0 0 0 127 0" result="hardAlpha"/>
<feOffset/>
<feGaussianBlur stdDeviation="2"/>
<feComposite in2="hardAlpha" operator="out"/>
<feColorMatrix type="matrix" values="0 0 0 0 0 0 0 0 0 0 0 0 0 0 0 0 0 0 0.25 0"/>
<feBlend mode="normal" in2="BackgroundImageFix" result="effect1_dropShadow_2137_730"/>
<feBlend mode="normal" in="SourceGraphic" in2="effect1_dropShadow_2137_730" result="shape"/>
</filter>
<filter id="filter2_d_2137_730" x="409" y="58" width="178" height="323" filterUnits="userSpaceOnUse" color-interpolation-filters="sRGB">
<feFlood flood-opacity="0" result="BackgroundImageFix"/>
<feColorMatrix in="SourceAlpha" type="matrix" values="0 0 0 0 0 0 0 0 0 0 0 0 0 0 0 0 0 0 127 0" result="hardAlpha"/>
<feOffset dx="15" dy="20"/>
<feGaussianBlur stdDeviation="4"/>
<feComposite in2="hardAlpha" operator="out"/>
<feColorMatrix type="matrix" values="0 0 0 0 0 0 0 0 0 0 0 0 0 0 0 0 0 0 0.25 0"/>
<feBlend mode="normal" in2="BackgroundImageFix" result="effect1_dropShadow_2137_730"/>
<feBlend mode="normal" in="SourceGraphic" in2="effect1_dropShadow_2137_730" result="shape"/>
</filter>
<filter id="filter3_d_2137_730" x="421" y="79" width="46" height="46" filterUnits="userSpaceOnUse" color-interpolation-filters="sRGB">
<feFlood flood-opacity="0" result="BackgroundImageFix"/>
<feColorMatrix in="SourceAlpha" type="matrix" values="0 0 0 0 0 0 0 0 0 0 0 0 0 0 0 0 0 0 127 0" result="hardAlpha"/>
<feOffset/>
<feGaussianBlur stdDeviation="2"/>
<feComposite in2="hardAlpha" operator="out"/>
<feColorMatrix type="matrix" values="0 0 0 0 0 0 0 0 0 0 0 0 0 0 0 0 0 0 0.25 0"/>
<feBlend mode="normal" in2="BackgroundImageFix" result="effect1_dropShadow_2137_730"/>
<feBlend mode="normal" in="SourceGraphic" in2="effect1_dropShadow_2137_730" result="shape"/>
</filter>
<linearGradient id="paint0_linear_2137_730" x1="541.146" y1="49.1379" x2="1.34602" y2="302.864" gradientUnits="userSpaceOnUse">
<stop offset="0.209813" stop-color="#595959"/>
<stop offset="0.277348" stop-color="#F9F9F9"/>
<stop offset="0.37108" stop-color="#595959"/>
<stop offset="0.648235" stop-color="#595959"/>
<stop offset="0.754947" stop-color="#F9F9F9"/>
<stop offset="0.813535" stop-color="#595959"/>
</linearGradient>
<linearGradient id="paint1_linear_2137_730" x1="584" y1="66.5" x2="369" y2="344.5" gradientUnits="userSpaceOnUse">
<stop offset="0.179943" stop-color="#595959"/>
<stop offset="0.29376" stop-color="#F9F9F9"/>
<stop offset="0.409348" stop-color="#595959"/>
</linearGradient>
<clipPath id="clip0_2137_730">
<rect width="140" height="280" fill="white" transform="translate(417 64)"/>
</clipPath>
</defs>
</svg>
