<svg width="600" height="317" viewBox="0 0 600 317" fill="none" xmlns="http://www.w3.org/2000/svg">
<g clip-path="url(#clip0_2137_1119)">
<path d="M599.703 26.2358H395.138V209.429H599.703V26.2358Z" fill="#F8F9FD"/>
<path d="M394.84 18.1304V211.173H600V18.1304H394.84ZM599.404 210.576H395.436V18.7267H599.404V210.576Z" fill="#FEBD54"/>
<path d="M576.749 69.0176H544.28V195.79H576.749V69.0176Z" fill="#D1E8FF"/>
<path d="M576.749 117.72H544.28V195.79H576.749V117.72Z" fill="#4D78EB"/>
<path d="M484.639 195.791H517.105V39.8748H484.639V195.791Z" fill="#D1E8FF"/>
<path d="M484.639 195.791H517.105V96.9042H484.639V195.791Z" fill="#4D78EB"/>
<path d="M424.824 195.791H457.29V57.0431H424.824V195.791Z" fill="#D1E8FF"/>
<path d="M424.824 195.791H457.29V107.793H424.824V195.791Z" fill="#4D78EB"/>
<path d="M9.12832 148.083L7.33936 145.983L21.9615 133.435H39.9921L80.9019 98.5888L106.488 120.383H125.357L134.894 128.506L164.523 103.268H179.562L278.203 19.4268L279.992 21.5266L180.578 106.027H165.539L134.894 132.13L124.341 123.142H105.473L80.9019 102.212L41.0079 136.194H22.9773L9.12832 148.083Z" fill="#FEBD54"/>
<path d="M302.937 63.2801V247.05H42.4858V63.2801C42.4874 60.8613 43.4491 58.5421 45.1595 56.8319C46.87 55.1217 49.1894 54.1604 51.6081 54.1592H293.815C296.234 54.1604 298.553 55.1217 300.264 56.8319C301.974 58.5421 302.936 60.8613 302.937 63.2801V63.2801Z" fill="#84A4FD"/>
<path d="M51.693 211.986L293.267 211.986V63.6082L51.693 63.6082L51.693 211.986Z" fill="#2A4387"/>
<path d="M302.961 219.31H172.788H42.6143L14.1245 292.991H173.642H331.451L302.961 219.31Z" fill="#6A91FD"/>
<path d="M52.4266 232.125H68.4225C69.0915 232.125 69.5953 232.484 69.4704 232.873L67.9211 237.687C67.8256 237.984 67.3856 238.199 66.8734 238.199H50.604C49.9212 238.199 49.4142 237.825 49.5633 237.432L51.3858 232.617C51.4947 232.33 51.9272 232.125 52.4266 232.125Z" fill="#325BC7"/>
<path d="M76.4768 232.125H86.7862C87.3396 232.125 87.7576 232.472 87.6578 232.849L86.3731 237.697C86.2959 237.988 85.9292 238.199 85.5015 238.199H75.0086C74.4461 238.199 74.0259 237.841 74.1412 237.46L75.6094 232.612C75.6955 232.328 76.0573 232.125 76.4768 232.125Z" fill="#325BC7"/>
<path d="M94.6153 232.125H105.005C105.524 232.125 105.922 232.443 105.848 232.799L104.829 237.694C104.769 237.984 104.41 238.199 103.986 238.2L93.4098 238.207C92.8817 238.207 92.4803 237.878 92.569 237.518L93.7752 232.616C93.8449 232.332 94.1999 232.125 94.6153 232.125Z" fill="#325BC7"/>
<path d="M112.873 232.125H123.067C123.634 232.125 124.076 232.465 124.017 232.855L123.297 237.607C123.246 237.944 122.836 238.199 122.347 238.199H111.974C111.397 238.199 110.951 237.848 111.026 237.452L111.926 232.7C111.988 232.371 112.393 232.125 112.873 232.125Z" fill="#325BC7"/>
<path d="M131.102 232.125H141.18C141.768 232.125 142.233 232.469 142.195 232.875L141.753 237.541C141.718 237.911 141.274 238.199 140.738 238.199H130.483C129.885 238.199 129.416 237.843 129.47 237.431L130.088 232.765C130.136 232.402 130.576 232.125 131.102 232.125Z" fill="#325BC7"/>
<path d="M149.438 232.125H159.187C159.854 232.125 160.39 232.506 160.373 232.967L160.205 237.401C160.188 237.845 159.663 238.199 159.02 238.2L149.103 238.206C148.423 238.207 147.882 237.813 147.917 237.343L148.253 232.903C148.286 232.467 148.807 232.125 149.438 232.125Z" fill="#325BC7"/>
<path d="M292.391 232.125H277.054C276.166 232.125 275.507 232.694 275.7 233.294L277.036 237.448C277.178 237.887 277.741 238.199 278.391 238.199H293.964C294.873 238.199 295.537 237.604 295.306 236.996L293.734 232.842C293.574 232.42 293.022 232.125 292.391 232.125Z" fill="#325BC7"/>
<path d="M268.229 232.125H258.734C257.928 232.125 257.319 232.631 257.464 233.18L258.6 237.467C258.713 237.891 259.247 238.199 259.871 238.199H269.527C270.347 238.199 270.959 237.678 270.791 237.122L269.493 232.835C269.367 232.421 268.84 232.125 268.229 232.125Z" fill="#325BC7"/>
<path d="M250.196 232.125H240.335C239.655 232.125 239.133 232.542 239.23 233.008L240.173 237.537C240.252 237.917 240.722 238.199 241.277 238.2L251.311 238.206C252.003 238.207 252.529 237.776 252.413 237.304L251.297 232.768C251.205 232.397 250.74 232.125 250.196 232.125Z" fill="#325BC7"/>
<path d="M231.978 232.125H222.2C221.509 232.125 220.97 232.539 221.042 233.014L221.718 237.478C221.78 237.888 222.28 238.199 222.876 238.199H232.823C233.526 238.199 234.069 237.771 233.977 237.289L233.133 232.826C233.057 232.425 232.563 232.125 231.978 232.125Z" fill="#325BC7"/>
<path d="M213.88 232.125H203.917C203.295 232.125 202.803 232.489 202.844 232.918L203.278 237.504C203.315 237.895 203.784 238.199 204.351 238.199H214.488C215.12 238.199 215.616 237.823 215.558 237.387L214.951 232.801C214.9 232.418 214.436 232.125 213.88 232.125Z" fill="#325BC7"/>
<path d="M195.658 232.125H185.782C185.15 232.125 184.643 232.485 184.66 232.922L184.831 237.444C184.847 237.864 185.344 238.199 185.952 238.2L195.999 238.206C196.643 238.207 197.155 237.834 197.121 237.389L196.778 232.861C196.747 232.448 196.255 232.125 195.658 232.125Z" fill="#325BC7"/>
<path d="M167.602 232.125H177.418C178.044 232.125 178.555 232.471 178.569 232.903L178.717 237.384C178.732 237.831 178.212 238.199 177.566 238.199H167.602C166.966 238.199 166.451 237.843 166.451 237.403V232.921C166.451 232.482 166.966 232.125 167.602 232.125Z" fill="#325BC7"/>
<path d="M47.9761 242.724H71.1174C71.7772 242.724 72.2809 243.132 72.1773 243.583L71.0794 248.363C70.9965 248.723 70.5471 248.989 70.0195 248.989H46.5121C45.8299 248.989 45.3207 248.554 45.4622 248.092L46.9261 243.312C47.0312 242.969 47.4691 242.724 47.9761 242.724Z" fill="#325BC7"/>
<path d="M296.335 242.724H267.863C266.987 242.724 266.33 243.277 266.499 243.871L267.731 248.213C267.859 248.664 268.431 248.989 269.095 248.989H297.979C298.889 248.989 299.554 248.393 299.323 247.784L297.679 243.442C297.519 243.019 296.967 242.724 296.335 242.724Z" fill="#325BC7"/>
<path d="M258.706 242.724H249.145C248.245 242.724 247.559 243.279 247.698 243.894L248.661 248.133C248.773 248.626 249.387 248.989 250.108 248.989H259.829C260.744 248.989 261.435 248.415 261.27 247.793L260.146 243.554C260.019 243.073 259.413 242.724 258.706 242.724Z" fill="#325BC7"/>
<path d="M240.066 242.724H230.146C229.372 242.724 228.772 243.191 228.862 243.723L229.625 248.199C229.701 248.65 230.253 248.989 230.909 248.989H240.998C241.785 248.989 242.39 248.506 242.277 247.967L241.345 243.491C241.254 243.05 240.708 242.724 240.066 242.724Z" fill="#325BC7"/>
<path d="M221.134 242.724H211.525C210.677 242.724 210.008 243.224 210.074 243.809L210.557 248.061C210.617 248.585 211.248 248.989 212.008 248.989H221.778C222.642 248.989 223.315 248.472 223.225 247.877L222.581 243.626C222.504 243.113 221.879 242.724 221.134 242.724Z" fill="#325BC7"/>
<path d="M202.456 242.724H192.598C191.841 242.724 191.236 243.159 191.265 243.683L191.516 248.103C191.544 248.598 192.133 248.989 192.849 248.989H202.874C203.645 248.989 204.255 248.538 204.205 248.006L203.786 243.586C203.74 243.101 203.158 242.724 202.456 242.724Z" fill="#325BC7"/>
<path d="M44.2254 253.893H67.7396C68.4745 253.893 69.0233 254.36 68.8726 254.858L67.4728 259.48C67.3605 259.851 66.8877 260.116 66.3398 260.116H42.4757C41.7172 260.116 41.1636 259.62 41.3558 259.112L43.1055 254.491C43.2389 254.138 43.699 253.893 44.2254 253.893Z" fill="#325BC7"/>
<path d="M76.5102 253.893H87.2615C87.9296 253.893 88.437 254.309 88.3248 254.764L87.1607 259.495C87.0724 259.854 86.6231 260.116 86.0973 260.116H75.1669C74.4877 260.116 73.9775 259.687 74.1085 259.226L75.4517 254.495C75.5511 254.145 75.9946 253.893 76.5102 253.893Z" fill="#325BC7"/>
<path d="M94.8151 254.697C94.9203 254.234 95.4969 253.893 96.1743 253.893H190.543C191.281 253.893 191.888 254.296 191.918 254.806L192.168 259.126C192.199 259.667 191.575 260.116 190.793 260.116H95.193C94.348 260.116 93.7027 259.594 93.8339 259.017L94.8151 254.697Z" fill="#325BC7"/>
<path d="M200.209 253.893H209.598C210.529 253.893 211.303 254.388 211.376 255.03L211.802 258.786C211.884 259.503 211.064 260.116 210.024 260.116H200.494C199.545 260.116 198.762 259.602 198.713 258.947L198.428 255.191C198.375 254.485 199.188 253.893 200.209 253.893Z" fill="#325BC7"/>
<path d="M219.562 253.893H229.115C229.974 253.893 230.697 254.337 230.798 254.928L231.459 258.807C231.577 259.504 230.79 260.116 229.776 260.116H220.076C219.2 260.116 218.468 259.655 218.388 259.051L217.874 255.172C217.783 254.485 218.565 253.893 219.562 253.893Z" fill="#325BC7"/>
<path d="M238.846 253.893H248.671C249.434 253.893 250.084 254.277 250.202 254.799L251.129 258.877C251.276 259.528 250.549 260.116 249.597 260.116H239.618C238.84 260.116 238.182 259.717 238.081 259.183L237.309 255.104C237.188 254.462 237.91 253.893 238.846 253.893Z" fill="#325BC7"/>
<path d="M257.993 253.893H268.303C268.923 253.893 269.457 254.197 269.577 254.618L270.834 259.045C270.991 259.6 270.377 260.116 269.559 260.116H259.082C258.449 260.116 257.908 259.8 257.802 259.369L256.713 254.942C256.578 254.393 257.188 253.893 257.993 253.893Z" fill="#325BC7"/>
<path d="M276.906 253.893H300.987C301.385 253.893 301.733 254.078 301.833 254.345L303.731 259.358C303.876 259.741 303.458 260.116 302.885 260.116H278.425C278.011 260.116 277.653 259.916 277.568 259.635L276.05 254.622C275.936 254.246 276.351 253.893 276.906 253.893Z" fill="#325BC7"/>
<path d="M183.566 242.724H174.059C173.252 242.724 172.597 243.177 172.597 243.735V247.977C172.597 248.536 173.252 248.989 174.059 248.989H183.727C184.55 248.989 185.21 248.52 185.189 247.951L185.028 243.709C185.007 243.161 184.359 242.724 183.566 242.724Z" fill="#325BC7"/>
<path d="M165.055 242.724H154.89C154.257 242.724 153.737 243.07 153.712 243.508L153.449 248.141C153.422 248.604 153.958 248.989 154.627 248.989H164.968C165.613 248.989 166.138 248.63 166.147 248.184L166.234 243.55C166.243 243.096 165.713 242.724 165.055 242.724Z" fill="#325BC7"/>
<path d="M146.107 242.724H136.246C135.551 242.724 134.974 243.093 134.919 243.572L134.417 247.996C134.356 248.531 134.967 248.989 135.743 248.989H145.772C146.48 248.989 147.064 248.605 147.101 248.116L147.436 243.693C147.476 243.166 146.869 242.724 146.107 242.724Z" fill="#325BC7"/>
<path d="M127.395 242.724H117.39C116.754 242.724 116.219 243.053 116.145 243.49L115.373 248.019C115.285 248.536 115.868 248.989 116.619 248.989H126.794C127.443 248.989 127.984 248.647 128.043 248.2L128.644 243.671C128.711 243.162 128.132 242.724 127.395 242.724Z" fill="#325BC7"/>
<path d="M108.429 242.724H98.734C98.0433 242.724 97.4554 243.072 97.3481 243.544L96.366 247.868C96.2322 248.457 96.8902 248.989 97.7518 248.989H107.611C108.315 248.989 108.911 248.628 109.002 248.144L109.821 243.82C109.931 243.239 109.277 242.724 108.429 242.724Z" fill="#325BC7"/>
<path d="M89.7742 242.724H79.8451C79.2344 242.724 78.7091 243.023 78.5914 243.437L77.3144 247.935C77.1593 248.481 77.7636 248.989 78.5681 248.989H88.6675C89.2905 248.989 89.8225 248.678 89.9271 248.253L91.0336 243.756C91.1665 243.216 90.5655 242.724 89.7742 242.724Z" fill="#325BC7"/>
<path d="M53.3701 227.376L54.8604 223.44C54.9841 223.113 55.4111 222.885 55.8994 222.885H59.5733C60.2698 222.885 60.7821 223.336 60.6167 223.805L59.2257 227.741C59.1082 228.074 58.6773 228.308 58.1822 228.308H54.4091C53.7054 228.308 53.1917 227.847 53.3701 227.376Z" fill="#325BC7"/>
<path d="M67.5067 222.885H77.476C78.0325 222.885 78.4481 223.239 78.334 223.616L77.059 227.826C76.9739 228.107 76.6159 228.308 76.201 228.308H66.0723C65.5069 228.308 65.0894 227.943 65.2191 227.562L66.6535 223.352C66.7468 223.078 67.1 222.885 67.5067 222.885Z" fill="#325BC7"/>
<path d="M85.1152 222.885H95.1786C95.6967 222.885 96.0903 223.207 96.0033 223.561L94.9537 227.826C94.8852 228.104 94.5368 228.308 94.129 228.308H83.9043C83.3775 228.308 82.9818 227.975 83.0833 227.617L84.2943 223.352C84.3713 223.081 84.7153 222.885 85.1152 222.885Z" fill="#325BC7"/>
<path d="M102.941 222.885H112.584C113.22 222.885 113.71 223.272 113.628 223.708L112.877 227.674C112.809 228.037 112.362 228.308 111.833 228.308H102.04C101.394 228.308 100.9 227.908 101 227.466L101.901 223.5C101.982 223.146 102.423 222.885 102.941 222.885Z" fill="#325BC7"/>
<path d="M120.616 222.885H130.213C130.849 222.885 131.348 223.263 131.29 223.701L130.769 227.628C130.718 228.013 130.251 228.308 129.693 228.308H119.947C119.3 228.308 118.798 227.917 118.873 227.472L119.542 223.545C119.607 223.169 120.068 222.885 120.616 222.885Z" fill="#325BC7"/>
<path d="M138.321 222.885H147.813C148.465 222.885 148.983 223.263 148.949 223.713L148.658 227.562C148.626 227.98 148.127 228.308 147.521 228.308H137.884C137.22 228.308 136.698 227.917 136.75 227.459L137.187 223.61C137.233 223.201 137.727 222.885 138.321 222.885Z" fill="#325BC7"/>
<path d="M155.916 222.885H165.537C166.136 222.885 166.619 223.224 166.612 223.638L166.537 227.574C166.529 227.981 166.051 228.308 165.463 228.308H155.693C155.083 228.308 154.595 227.957 154.619 227.535L154.843 223.599C154.865 223.2 155.339 222.885 155.916 222.885Z" fill="#325BC7"/>
<path d="M173.446 222.885H183.315C183.83 222.885 184.25 223.168 184.264 223.524L184.42 227.634C184.434 228.003 184.005 228.308 183.471 228.308H173.446C172.922 228.308 172.497 228.014 172.497 227.651V223.542C172.497 223.179 172.922 222.885 173.446 222.885Z" fill="#325BC7"/>
<path d="M191.317 222.885H200.768C201.379 222.885 201.885 223.213 201.925 223.634L202.286 227.454C202.33 227.916 201.8 228.308 201.13 228.308H191.533C190.911 228.308 190.4 227.968 190.375 227.537L190.159 223.718C190.133 223.263 190.659 222.885 191.317 222.885Z" fill="#325BC7"/>
<path d="M208.843 222.885H218.537C219.066 222.885 219.51 223.161 219.565 223.525L220.17 227.518C220.233 227.94 219.755 228.308 219.142 228.308H209.296C208.757 228.308 208.309 228.021 208.266 227.649L207.813 223.656C207.766 223.24 208.24 222.885 208.843 222.885Z" fill="#325BC7"/>
<path d="M226.562 222.885H236.14C236.681 222.885 237.139 223.16 237.216 223.53L238.032 227.449C238.126 227.902 237.618 228.308 236.956 228.308H227.229C226.678 228.308 226.214 228.023 226.15 227.644L225.482 223.725C225.406 223.278 225.911 222.885 226.562 222.885Z" fill="#325BC7"/>
<path d="M244.32 222.885H253.722C254.286 222.885 254.77 223.164 254.871 223.548L255.88 227.353C256.012 227.85 255.46 228.308 254.731 228.308H245.184C244.609 228.308 244.119 228.018 244.03 227.625L243.165 223.819C243.054 223.328 243.602 222.885 244.32 222.885Z" fill="#325BC7"/>
<path d="M261.961 222.885H271.391C271.928 222.885 272.393 223.143 272.51 223.506L273.744 227.342C273.904 227.838 273.359 228.308 272.625 228.308H263.05C262.502 228.308 262.031 228.04 261.925 227.668L260.836 223.831C260.697 223.341 261.239 222.885 261.961 222.885Z" fill="#325BC7"/>
<path d="M279.504 222.885H289.116C289.592 222.885 290.008 223.107 290.129 223.426L291.633 227.4C291.807 227.859 291.306 228.308 290.62 228.308H280.858C280.372 228.308 279.95 228.077 279.839 227.75L278.485 223.776C278.33 223.321 278.829 222.885 279.504 222.885Z" fill="#325BC7"/>
<path d="M52.4266 231.568H68.4225C69.0915 231.568 69.5953 231.928 69.4704 232.316L67.9211 237.13C67.8256 237.427 67.3856 237.642 66.8734 237.642H50.604C49.9212 237.642 49.4142 237.269 49.5633 236.875L51.3858 232.061C51.4947 231.773 51.9272 231.568 52.4266 231.568Z" fill="#F2F3F7"/>
<path d="M76.4768 231.568H86.7862C87.3396 231.568 87.7576 231.915 87.6578 232.292L86.3731 237.14C86.2959 237.431 85.9292 237.642 85.5015 237.642H75.0086C74.4461 237.642 74.0259 237.284 74.1412 236.904L75.6094 232.056C75.6955 231.772 76.0573 231.568 76.4768 231.568Z" fill="#F2F3F7"/>
<path d="M94.6153 231.568H105.005C105.524 231.568 105.922 231.887 105.848 232.242L104.829 237.137C104.769 237.427 104.41 237.643 103.986 237.643L93.4098 237.65C92.8817 237.65 92.4803 237.321 92.569 236.961L93.7752 232.059C93.8449 231.776 94.1999 231.568 94.6153 231.568Z" fill="#F2F3F7"/>
<path d="M112.873 231.568H123.067C123.634 231.568 124.076 231.908 124.017 232.298L123.297 237.05C123.246 237.387 122.836 237.642 122.347 237.642H111.974C111.397 237.642 110.951 237.291 111.026 236.896L111.926 232.144C111.988 231.814 112.393 231.568 112.873 231.568Z" fill="#F2F3F7"/>
<path d="M131.102 231.568H141.18C141.768 231.568 142.233 231.912 142.195 232.318L141.753 236.984C141.718 237.355 141.274 237.642 140.738 237.642H130.483C129.885 237.642 129.416 237.287 129.47 236.874L130.088 232.208C130.136 231.846 130.576 231.568 131.102 231.568Z" fill="#F2F3F7"/>
<path d="M149.438 231.568H159.187C159.854 231.568 160.39 231.949 160.373 232.411L160.205 236.844C160.188 237.288 159.663 237.643 159.02 237.643L149.103 237.65C148.423 237.65 147.882 237.256 147.917 236.786L148.253 232.346C148.286 231.91 148.807 231.568 149.438 231.568Z" fill="#F2F3F7"/>
<path d="M292.391 231.568H277.054C276.166 231.568 275.507 232.137 275.7 232.737L277.036 236.891C277.178 237.33 277.741 237.642 278.391 237.642H293.964C294.873 237.642 295.537 237.048 295.306 236.439L293.734 232.285C293.574 231.863 293.022 231.568 292.391 231.568Z" fill="#F2F3F7"/>
<path d="M268.229 231.568H258.734C257.928 231.568 257.319 232.074 257.464 232.623L258.6 236.91C258.713 237.334 259.247 237.642 259.871 237.642H269.527C270.347 237.642 270.959 237.121 270.791 236.566L269.493 232.279C269.367 231.865 268.84 231.568 268.229 231.568Z" fill="#F2F3F7"/>
<path d="M250.196 231.568H240.335C239.655 231.568 239.133 231.986 239.23 232.451L240.173 236.98C240.252 237.361 240.722 237.643 241.277 237.643L251.311 237.65C252.003 237.65 252.529 237.219 252.413 236.747L251.297 232.211C251.205 231.84 250.74 231.568 250.196 231.568Z" fill="#F2F3F7"/>
<path d="M231.978 231.568H222.2C221.509 231.568 220.97 231.982 221.042 232.458L221.718 236.921C221.78 237.331 222.28 237.642 222.876 237.642H232.823C233.526 237.642 234.069 237.215 233.977 236.732L233.133 232.269C233.057 231.868 232.563 231.568 231.978 231.568Z" fill="#F2F3F7"/>
<path d="M213.88 231.568H203.917C203.295 231.568 202.803 231.932 202.844 232.361L203.278 236.947C203.315 237.338 203.784 237.642 204.351 237.642H214.488C215.12 237.642 215.616 237.266 215.558 236.831L214.951 232.244C214.9 231.861 214.436 231.568 213.88 231.568Z" fill="#F2F3F7"/>
<path d="M195.658 231.568H185.782C185.15 231.568 184.643 231.928 184.66 232.365L184.831 236.887C184.847 237.308 185.344 237.643 185.952 237.643L195.999 237.65C196.643 237.65 197.155 237.277 197.121 236.833L196.778 232.304C196.747 231.892 196.255 231.568 195.658 231.568Z" fill="#F2F3F7"/>
<path d="M167.602 231.568H177.418C178.044 231.568 178.555 231.914 178.569 232.347L178.717 236.828C178.732 237.275 178.212 237.642 177.566 237.642H167.602C166.966 237.642 166.451 237.286 166.451 236.846V232.365C166.451 231.925 166.966 231.568 167.602 231.568Z" fill="#F2F3F7"/>
<path d="M47.9761 242.168H71.1174C71.7772 242.168 72.2809 242.576 72.1773 243.027L71.0794 247.807C70.9965 248.168 70.5471 248.433 70.0195 248.433H46.5121C45.8299 248.433 45.3207 247.999 45.4622 247.537L46.9261 242.757C47.0312 242.413 47.4691 242.168 47.9761 242.168Z" fill="#F2F3F7"/>
<path d="M296.335 242.168H267.863C266.987 242.168 266.33 242.721 266.499 243.315L267.731 247.657C267.859 248.108 268.431 248.433 269.095 248.433H297.979C298.889 248.433 299.554 247.837 299.323 247.228L297.679 242.886C297.519 242.463 296.967 242.168 296.335 242.168Z" fill="#F2F3F7"/>
<path d="M258.706 242.168H249.145C248.245 242.168 247.559 242.724 247.698 243.338L248.661 247.577C248.773 248.07 249.387 248.433 250.108 248.433H259.829C260.744 248.433 261.435 247.86 261.27 247.237L260.146 242.998C260.019 242.517 259.413 242.168 258.706 242.168Z" fill="#F2F3F7"/>
<path d="M240.066 242.168H230.146C229.372 242.168 228.772 242.635 228.862 243.167L229.625 247.643C229.701 248.094 230.253 248.433 230.909 248.433H240.998C241.785 248.433 242.39 247.95 242.277 247.411L241.345 242.935C241.254 242.495 240.708 242.168 240.066 242.168Z" fill="#F2F3F7"/>
<path d="M221.134 242.168H211.525C210.677 242.168 210.008 242.668 210.074 243.254L210.557 247.505C210.617 248.029 211.248 248.433 212.008 248.433H221.778C222.642 248.433 223.315 247.916 223.225 247.321L222.581 243.07C222.504 242.557 221.879 242.168 221.134 242.168Z" fill="#F2F3F7"/>
<path d="M202.456 242.168H192.598C191.841 242.168 191.236 242.603 191.265 243.127L191.516 247.547C191.544 248.042 192.133 248.433 192.849 248.433H202.874C203.645 248.433 204.255 247.982 204.205 247.45L203.786 243.03C203.74 242.545 203.158 242.168 202.456 242.168Z" fill="#F2F3F7"/>
<path d="M44.2254 253.336H67.7396C68.4745 253.336 69.0233 253.804 68.8726 254.301L67.4728 258.923C67.3605 259.294 66.8877 259.56 66.3398 259.56H42.4757C41.7172 259.56 41.1636 259.063 41.3558 258.556L43.1055 253.934C43.2389 253.582 43.699 253.336 44.2254 253.336Z" fill="#F2F3F7"/>
<path d="M76.5102 253.336H87.2615C87.9296 253.336 88.437 253.752 88.3248 254.208L87.1607 258.939C87.0724 259.297 86.6231 259.56 86.0973 259.56H75.1669C74.4877 259.56 73.9775 259.131 74.1085 258.669L75.4517 253.938C75.5511 253.588 75.9946 253.336 76.5102 253.336Z" fill="#F2F3F7"/>
<path d="M94.8151 254.14C94.9203 253.677 95.4969 253.336 96.1743 253.336H190.543C191.281 253.336 191.888 253.739 191.918 254.25L192.168 258.57C192.199 259.11 191.575 259.56 190.793 259.56H95.193C94.348 259.56 93.7027 259.038 93.8339 258.46L94.8151 254.14Z" fill="#F2F3F7"/>
<path d="M200.209 253.336H209.598C210.529 253.336 211.303 253.831 211.376 254.473L211.802 258.229C211.884 258.946 211.064 259.56 210.024 259.56H200.494C199.545 259.56 198.762 259.046 198.713 258.39L198.428 254.634C198.375 253.929 199.188 253.336 200.209 253.336Z" fill="#F2F3F7"/>
<path d="M219.562 253.336H229.115C229.974 253.336 230.697 253.781 230.798 254.371L231.459 258.25C231.577 258.947 230.79 259.56 229.776 259.56H220.076C219.2 259.56 218.468 259.098 218.388 258.494L217.874 254.616C217.783 253.929 218.565 253.336 219.562 253.336Z" fill="#F2F3F7"/>
<path d="M238.846 253.336H248.671C249.434 253.336 250.084 253.72 250.202 254.242L251.129 258.321C251.276 258.971 250.549 259.56 249.597 259.56H239.618C238.84 259.56 238.182 259.16 238.081 258.626L237.309 254.548C237.188 253.906 237.91 253.336 238.846 253.336Z" fill="#F2F3F7"/>
<path d="M257.993 253.336H268.303C268.923 253.336 269.457 253.64 269.577 254.061L270.834 258.488C270.991 259.043 270.377 259.56 269.559 259.56H259.082C258.449 259.56 257.908 259.244 257.802 258.812L256.713 254.385C256.578 253.837 257.188 253.336 257.993 253.336Z" fill="#F2F3F7"/>
<path d="M276.906 253.336H300.987C301.385 253.336 301.733 253.522 301.833 253.788L303.731 258.801C303.876 259.185 303.458 259.56 302.885 259.56H278.425C278.011 259.56 277.653 259.359 277.568 259.079L276.05 254.065C275.936 253.689 276.351 253.336 276.906 253.336Z" fill="#F2F3F7"/>
<path d="M183.566 242.168H174.059C173.252 242.168 172.597 242.621 172.597 243.18V247.422C172.597 247.98 173.252 248.433 174.059 248.433H183.727C184.55 248.433 185.21 247.964 185.189 247.395L185.028 243.153C185.007 242.605 184.359 242.168 183.566 242.168Z" fill="#F2F3F7"/>
<path d="M165.055 242.168H154.89C154.257 242.168 153.737 242.514 153.712 242.952L153.449 247.585C153.422 248.048 153.958 248.433 154.627 248.433H164.968C165.613 248.433 166.138 248.074 166.147 247.628L166.234 242.995C166.243 242.54 165.713 242.168 165.055 242.168Z" fill="#F2F3F7"/>
<path d="M146.107 242.168H136.246C135.551 242.168 134.974 242.537 134.919 243.017L134.417 247.44C134.356 247.976 134.967 248.433 135.743 248.433H145.772C146.48 248.433 147.064 248.05 147.101 247.561L147.436 243.137C147.476 242.61 146.869 242.168 146.107 242.168Z" fill="#F2F3F7"/>
<path d="M127.395 242.168H117.39C116.754 242.168 116.219 242.497 116.145 242.934L115.373 247.464C115.285 247.98 115.868 248.433 116.619 248.433H126.794C127.443 248.433 127.984 248.091 128.043 247.645L128.644 243.115C128.711 242.607 128.132 242.168 127.395 242.168Z" fill="#F2F3F7"/>
<path d="M108.429 242.168H98.734C98.0433 242.168 97.4554 242.516 97.3481 242.988L96.366 247.312C96.2322 247.901 96.8902 248.433 97.7518 248.433H107.611C108.315 248.433 108.911 248.072 109.002 247.589L109.821 243.265C109.931 242.683 109.277 242.168 108.429 242.168Z" fill="#F2F3F7"/>
<path d="M89.7742 242.168H79.8451C79.2344 242.168 78.7091 242.467 78.5914 242.882L77.3144 247.379C77.1593 247.925 77.7636 248.433 78.5681 248.433H88.6675C89.2905 248.433 89.8225 248.122 89.9271 247.698L91.0336 243.2C91.1665 242.661 90.5655 242.168 89.7742 242.168Z" fill="#F2F3F7"/>
<path d="M53.3701 226.821L54.8604 222.884C54.9841 222.557 55.4111 222.329 55.8994 222.329H59.5733C60.2698 222.329 60.7821 222.781 60.6167 223.249L59.2257 227.185C59.1082 227.518 58.6773 227.752 58.1822 227.752H54.4091C53.7054 227.752 53.1917 227.292 53.3701 226.821Z" fill="#F2F3F7"/>
<path d="M67.5067 222.329H77.476C78.0325 222.329 78.4481 222.683 78.334 223.06L77.059 227.27C76.9739 227.551 76.6159 227.752 76.201 227.752H66.0723C65.5069 227.752 65.0894 227.387 65.2191 227.006L66.6535 222.796C66.7468 222.523 67.1 222.329 67.5067 222.329Z" fill="#F2F3F7"/>
<path d="M85.1152 222.329H95.1786C95.6967 222.329 96.0903 222.652 96.0033 223.005L94.9537 227.27C94.8852 227.549 94.5368 227.752 94.129 227.752H83.9043C83.3775 227.752 82.9818 227.419 83.0833 227.062L84.2943 222.796C84.3713 222.525 84.7153 222.329 85.1152 222.329Z" fill="#F2F3F7"/>
<path d="M102.941 222.329H112.584C113.22 222.329 113.71 222.716 113.628 223.152L112.877 227.118C112.809 227.481 112.362 227.752 111.833 227.752H102.04C101.394 227.752 100.9 227.353 101 226.911L101.901 222.944C101.982 222.59 102.423 222.329 102.941 222.329Z" fill="#F2F3F7"/>
<path d="M120.616 222.329H130.213C130.849 222.329 131.348 222.707 131.29 223.145L130.769 227.073C130.718 227.458 130.251 227.752 129.693 227.752H119.947C119.3 227.752 118.798 227.361 118.873 226.917L119.542 222.989C119.607 222.613 120.068 222.329 120.616 222.329Z" fill="#F2F3F7"/>
<path d="M138.321 222.329H147.813C148.465 222.329 148.983 222.707 148.949 223.158L148.658 227.006C148.626 227.424 148.127 227.752 147.521 227.752H137.884C137.22 227.752 136.698 227.361 136.75 226.903L137.187 223.055C137.233 222.645 137.727 222.329 138.321 222.329Z" fill="#F2F3F7"/>
<path d="M155.916 222.329H165.537C166.136 222.329 166.619 222.668 166.612 223.082L166.537 227.018C166.529 227.425 166.051 227.752 165.463 227.752H155.693C155.083 227.752 154.595 227.401 154.619 226.979L154.843 223.043C154.865 222.644 155.339 222.329 155.916 222.329Z" fill="#F2F3F7"/>
<path d="M173.446 222.329H183.315C183.83 222.329 184.25 222.613 184.264 222.969L184.42 227.078C184.434 227.448 184.005 227.752 183.471 227.752H173.446C172.922 227.752 172.497 227.458 172.497 227.095V222.986C172.497 222.623 172.922 222.329 173.446 222.329Z" fill="#F2F3F7"/>
<path d="M191.317 222.329H200.768C201.379 222.329 201.885 222.657 201.925 223.079L202.286 226.898C202.33 227.36 201.8 227.752 201.13 227.752H191.533C190.911 227.752 190.4 227.412 190.375 226.982L190.159 223.162C190.133 222.708 190.659 222.329 191.317 222.329Z" fill="#F2F3F7"/>
<path d="M208.843 222.329H218.537C219.066 222.329 219.51 222.606 219.565 222.97L220.17 226.963C220.233 227.385 219.755 227.752 219.142 227.752H209.296C208.757 227.752 208.309 227.465 208.266 227.093L207.813 223.1C207.766 222.684 208.24 222.329 208.843 222.329Z" fill="#F2F3F7"/>
<path d="M226.562 222.329H236.14C236.681 222.329 237.139 222.604 237.216 222.974L238.032 226.893C238.126 227.346 237.618 227.752 236.956 227.752H227.229C226.678 227.752 226.214 227.467 226.15 227.088L225.482 223.169C225.406 222.722 225.911 222.329 226.562 222.329Z" fill="#F2F3F7"/>
<path d="M244.32 222.329H253.722C254.286 222.329 254.77 222.608 254.871 222.992L255.88 226.798C256.012 227.294 255.46 227.752 254.731 227.752H245.184C244.609 227.752 244.119 227.462 244.03 227.069L243.165 223.263C243.054 222.773 243.602 222.329 244.32 222.329Z" fill="#F2F3F7"/>
<path d="M261.961 222.329H271.391C271.928 222.329 272.393 222.587 272.51 222.95L273.744 226.787C273.904 227.282 273.359 227.752 272.625 227.752H263.05C262.502 227.752 262.031 227.484 261.925 227.112L260.836 223.275C260.697 222.785 261.239 222.329 261.961 222.329Z" fill="#F2F3F7"/>
<path d="M279.504 222.329H289.116C289.592 222.329 290.008 222.551 290.129 222.87L291.633 226.844C291.807 227.303 291.306 227.752 290.62 227.752H280.858C280.372 227.752 279.95 227.521 279.839 227.194L278.485 223.22C278.33 222.765 278.829 222.329 279.504 222.329Z" fill="#F2F3F7"/>
<path d="M323.124 301.169H22.3778C20.1792 301.169 18.0706 300.296 16.5159 298.741C14.9611 297.187 14.0876 295.078 14.0874 292.88H331.414C331.414 295.078 330.541 297.187 328.986 298.741C327.431 300.296 325.322 301.169 323.124 301.169V301.169Z" fill="#3D6FF5"/>
<path d="M209.639 269.069C209.331 267.772 207.703 266.825 205.804 266.825H139.685C137.786 266.825 136.171 267.772 135.863 269.069L131.719 287.166C131.719 287.149 131.732 287.123 131.732 287.106L135.863 269.811C136.171 268.515 137.786 267.567 139.685 267.567H205.804C207.703 267.567 209.331 268.515 209.639 269.811L213.77 287.106C213.77 287.123 213.782 287.14 213.782 287.157L209.639 269.069Z" fill="#325BC7"/>
<path d="M209.639 269.813C209.329 268.516 207.708 267.564 205.808 267.564H139.693C137.793 267.564 136.172 268.516 135.862 269.813L131.732 287.107C131.341 288.744 133.165 290.232 135.562 290.232H209.939C212.336 290.232 214.16 288.744 213.77 287.107L209.639 269.813Z" fill="#4D78EB"/>
<path d="M199.704 119.601C199.271 115.224 199.504 110.806 200.395 106.498L242.923 115.357L218.363 151.159C213.133 147.585 208.751 142.906 205.527 137.453C202.303 132 200.315 125.906 199.704 119.601V119.601Z" fill="#FE5454"/>
<path d="M200.395 106.498C204.162 88.4042 219.312 74.0462 238.677 72.1444C246.29 71.3855 253.967 72.6604 260.926 75.8391C255.416 87.8825 246.543 107.394 243.776 113.484L243.57 113.932C243.505 114.072 243.444 114.207 243.389 114.328L242.922 115.357L200.395 106.498Z" fill="#FEBD54"/>
<path d="M242.922 115.357L243.389 114.328L243.57 113.932L243.776 113.484L244.364 112.193L244.529 111.823L245.082 110.615L260.97 75.8594C267.048 78.6354 272.403 82.7768 276.618 87.9609C280.834 93.1451 283.795 99.2322 285.273 105.748C286.751 112.264 286.706 119.034 285.139 125.529C283.573 132.025 280.529 138.071 276.244 143.198L242.922 115.357Z" fill="#4D78EB"/>
<path d="M218.362 151.159L242.922 115.357L276.244 143.198C269.317 151.489 259.546 156.9 248.843 158.372C238.139 159.844 227.271 157.272 218.362 151.159V151.159Z" fill="#F7F7F7"/>
<path d="M272.872 115.565C272.987 99.0283 259.672 85.5296 243.132 85.415C226.592 85.3004 213.092 98.6134 212.977 115.15C212.862 131.687 226.178 145.186 242.717 145.301C259.257 145.415 272.758 132.102 272.872 115.565Z" fill="#2A4387"/>
<path d="M342.431 19.225L337.311 0L307.426 27.6498L311.104 48.2087L342.431 19.225Z" fill="#4956BD"/>
<path d="M334.967 57.4962L316.289 50.9465L346.188 23.2842L366.385 28.6107L334.967 57.4962Z" fill="#333C85"/>
<path d="M243.343 118.437L346.188 23.2845L342.43 19.2251L239.539 114.42C239.015 114.922 238.71 115.609 238.688 116.334C238.666 117.058 238.93 117.763 239.422 118.295C239.915 118.827 240.597 119.144 241.321 119.178C242.045 119.213 242.754 118.961 243.294 118.477L243.296 118.48L243.322 118.456C243.326 118.453 243.33 118.451 243.334 118.447C243.337 118.444 243.34 118.44 243.343 118.437Z" fill="#A1D0FF"/>
<path d="M60.6475 201.938C60.6475 201.938 71.774 124.335 109.833 124.341C150.24 124.347 151.918 191.91 172.48 191.762C185.931 191.664 189.56 162.879 204.207 163.241C218.854 163.603 221.123 194.776 234.302 194.639C247.716 194.5 242.291 175.848 255.899 175.835C271.213 175.821 273.772 201.938 273.772 201.938H60.6475Z" fill="#4D78EB"/>
<path d="M124.289 124.158H95.377V124.524H124.289V124.158Z" fill="#8DA6EB"/>
<path d="M210.71 163.062H197.407V163.427H210.71V163.062Z" fill="#8DA6EB"/>
<path d="M111.063 123.111H108.603V125.571H111.063V123.111Z" fill="white"/>
<path d="M205.289 162.015H202.829V164.474H205.289V162.015Z" fill="white"/>
<path d="M59.6218 127.514H59.5723V113.906H72.1908V113.955H59.6218V127.514Z" fill="#8DA6EB"/>
<path d="M415.595 65.2291H414.999V51.3477H427.891V51.9438H415.595V65.2291Z" fill="#8DA6EB"/>
<path d="M286.449 206.32H281.844V206.271H286.4V201.938H286.449V206.32Z" fill="#8DA6EB"/>
<path d="M149.601 154.152L145.958 157.796L146.23 158.067L149.872 154.424L149.601 154.152Z" fill="white"/>
<path d="M146.23 154.153L145.958 154.424L149.601 158.067L149.873 157.795L146.23 154.153Z" fill="white"/>
<path d="M188.832 176.821L185.189 180.465L185.461 180.736L189.103 177.093L188.832 176.821Z" fill="white"/>
<path d="M185.461 176.822L185.189 177.093L188.832 180.736L189.104 180.464L185.461 176.822Z" fill="white"/>
<path d="M60.6475 201.938C60.6475 201.938 73.1608 160.821 100.987 162.014C128.813 163.207 123.655 195.064 136.746 192.818C149.836 190.572 145.679 175.68 156.191 175.714C166.702 175.749 163.466 196.857 175.618 196.461C187.771 196.064 183.639 183.949 193.666 184.028C204.059 184.11 205.288 201.938 205.288 201.938H60.6475Z" fill="#FEBD54"/>
<path d="M60.5767 191.51L75.8132 199.884L91.1144 175.809L72.608 169.382L60.5767 191.51Z" fill="#292C47"/>
<path d="M61.543 190.786L75.7919 198.617L90.101 176.103L72.7943 170.093L61.543 190.786Z" fill="#F7F7F7"/>
<path d="M56.3247 186.576C56.3247 186.576 58.9768 185.308 60.1407 184.645C61.3048 183.982 64.2992 183.072 64.541 182.856C64.7828 182.64 73.4171 182.107 73.9408 181.656C74.4646 181.204 74.9737 182.714 72.7359 183.204C70.4981 183.694 67.3839 184.893 67.2136 185.767C67.0432 186.642 69.5121 186.849 69.7622 187.569C70.0122 188.29 69.6919 188.128 69.3381 188.283C68.9843 188.437 66.4016 187.007 65.2658 187.413C64.1301 187.819 62.3941 187.257 61.5236 187.555C60.653 187.853 56.4205 189.276 56.4205 189.276L56.3247 186.576Z" fill="#EEA886"/>
<path d="M76.556 196.863C76.556 196.863 78.7839 194.858 79.8619 194.019C80.9399 193.181 82.9634 190.714 83.2613 190.57C83.5592 190.426 87.4232 182.498 88.0528 182.181C88.6825 181.863 87.4571 180.795 86.1238 182.713C84.7906 184.63 82.4484 187.098 81.5579 186.918C80.6673 186.738 81.4335 184.331 80.8519 183.815C80.2704 183.299 80.2979 183.664 80.0145 183.937C79.7311 184.21 80.0734 187.2 79.2486 188.112C78.4239 189.025 78.2776 190.879 77.6577 191.583C77.038 192.288 74.0479 195.721 74.0479 195.721L76.556 196.863Z" fill="#EEA886"/>
<path d="M28.5757 304.021C28.5757 304.021 28.0938 307.366 28.0336 307.868C27.9734 308.371 22.6724 307.572 22.6724 307.572L22.2432 303.591C22.2432 303.591 27.913 303.55 28.5757 304.021Z" fill="#424773"/>
<path d="M28.0899 307.443C28.0899 307.443 29.7694 309.459 31.3938 310.337C33.0182 311.216 35.5709 311.564 36.5314 312.473C37.2248 313.129 39.0568 315.955 32.3103 315.898C25.5638 315.841 22.3109 316.297 21.5881 315.214C20.8652 314.13 22.6339 307.217 22.6339 307.217C22.6339 307.217 24.2318 307.792 28.0899 307.443Z" fill="#292C47"/>
<path d="M66.5571 304.021C66.5571 304.021 66.0752 307.366 66.015 307.868C65.9547 308.371 60.6538 307.572 60.6538 307.572L60.2246 303.591C60.2246 303.591 65.8945 303.55 66.5571 304.021Z" fill="#424773"/>
<path d="M66.0713 307.443C66.0713 307.443 67.7509 309.459 69.3752 310.337C70.9996 311.216 76.9775 311.937 77.938 312.846C78.6313 313.503 79.7845 316.145 70.2917 315.898C63.5474 315.722 60.2924 316.297 59.5696 315.214C58.8467 314.13 60.6155 307.217 60.6155 307.217C60.6155 307.217 62.1207 307.831 66.0713 307.443Z" fill="#292C47"/>
<path d="M32.9652 218.081C32.9652 218.081 27.9843 225.993 28.3559 233.145C28.7275 240.298 26.5499 248.106 25.8017 255.578C24.9676 263.907 21.554 283.625 21.4302 288.081C21.3063 292.536 21.96 306.763 21.96 306.763L28.7932 306.92C28.7932 306.92 34.5324 272.447 36.0187 268.929C37.505 265.412 44.876 240.335 45.1238 237.521C45.3715 234.707 32.9652 218.081 32.9652 218.081Z" fill="#292C47"/>
<path d="M59.1852 219.153C59.1852 219.153 62.9387 238.756 63.4342 243.133C63.9296 247.511 64.26 264.317 64.5077 267.053C64.7554 269.789 66.1592 302.855 67.4804 306.92H58.7445C58.7445 306.92 52.0386 282.882 52.0386 271.509C52.0386 260.136 46.8577 246.784 43.5135 239.28C40.1694 231.776 32.5142 231.598 30.4585 217.676C30.4585 217.676 56.4018 214.737 59.1852 219.153Z" fill="#292C47"/>
<path d="M41.2765 151.559C41.2765 151.559 47.9619 149.062 51.0445 154.15C54.1271 159.239 53.8301 169.425 50.4602 170.678C47.0903 171.93 42.0281 171.276 40.3029 168.092C38.5777 164.908 37.02 160.305 37.0949 157.229C37.1697 154.153 39.5212 152.447 41.2765 151.559Z" fill="#EEA886"/>
<path d="M49.7346 170.911C49.7346 170.911 49.4564 172.716 49.9162 173.605C50.376 174.494 41.2549 174.517 41.2549 174.517C41.2549 174.517 40.5143 169.681 39.1105 165.596C37.7069 161.51 49.7346 170.911 49.7346 170.911Z" fill="#EEA886"/>
<path d="M39.1108 165.596C39.1108 165.596 39.7403 166.634 42.3101 166.231C44.8799 165.828 48.0147 162.41 49.0877 162.034C50.1606 161.659 50.1708 161.029 50.1708 161.029L50.0549 162.153L51.9823 162.082C51.9823 162.082 50.9427 159.024 52.5108 157.777C54.0788 156.53 51.2681 143.334 38.7734 152.141C38.7734 152.141 36.3124 152.504 36.5425 156.104C36.7726 159.703 37.6945 163.803 39.1108 165.596Z" fill="#292C47"/>
<path d="M50.4579 173.498C50.4579 173.498 50.4291 171.799 49.6591 171.636C48.889 171.473 41.159 170.73 40.2139 171.102V173.08C40.2139 173.08 42.035 174.201 50.4579 173.498Z" fill="#292C47"/>
<path d="M50.0005 159.72C49.8564 159.117 48.3209 157.391 47.733 159.239C47.145 161.086 48.6213 163.57 49.4446 163.358C50.2681 163.145 50.3659 161.251 50.0005 159.72Z" fill="#EEA886"/>
<path d="M81.1356 193.567C81.1316 193.565 81.1272 193.565 81.123 193.566C81.176 193.589 81.1836 193.591 81.1356 193.567Z" fill="#323657"/>
<path d="M27.3459 236.93C27.3459 236.93 31.4457 238.137 38.4373 238.907C45.429 239.678 62.898 238.629 63.008 237.803C63.1185 236.977 59.2502 207.051 59.4702 205.51C59.6903 203.969 59.8084 198.477 59.8084 198.477C59.8946 199.982 61.4278 206.128 63.2785 209.478C63.9471 210.689 66.1903 214.483 67.2713 213.62C72.5047 209.442 80.6086 193.699 81.1223 193.566C80.6904 193.379 77.2818 191.809 76.8034 191.65C76.3846 191.51 72.6092 195.507 70.3215 197.984C69.3016 199.089 68.5774 199.891 68.5774 199.891C67.9168 198.405 65.5106 189.044 64.7631 185.804C63.0766 178.497 63.336 178.193 63.336 178.193C58.2212 176.646 50.4575 173.497 50.4575 173.497L40.2133 173.08C40.2133 173.08 30.8114 175.149 27.1086 176.822C26.7575 176.98 26.7559 185.208 25.792 187.365L28.8618 193.841C28.8618 193.841 30.6352 206.668 31.0031 212.373C31.1722 214.991 27.3459 236.93 27.3459 236.93Z" fill="#FE5454"/>
<path d="M25.3669 198.047C25.6344 198.911 26.8489 199.64 27.6377 199.959C28.1574 200.169 28.7266 200.227 29.2778 200.124L29.6791 200.05V200.049L36.6995 198.747C36.6995 198.747 38.2356 181.06 27.1088 176.822C26.8147 176.918 22.9096 190.128 25.3669 198.047Z" fill="#FE5454"/>
<path d="M27.6377 199.959V199.959C28.1574 200.169 28.7266 200.227 29.2778 200.124L29.679 200.05V200.049L28.9867 191.011L27.6377 199.959Z" fill="#B52828"/>
<path d="M68.5776 199.891L69.4356 203.524C69.4356 203.524 70.3667 199.879 70.3218 197.984C69.3019 199.089 68.5776 199.891 68.5776 199.891Z" fill="#B52828"/>
<path d="M39.3726 152.159C39.3726 152.159 30.6109 151.062 39.2239 165.695L39.3726 152.159Z" fill="#292C47"/>
<path d="M84.0705 174.517L84.9612 172.987L77.9461 170.567L77.0557 172.089L84.0705 174.517Z" fill="#292C47"/>
<path d="M3.65752 123.111H0V120.352H2.51465L17.9219 104.948L29.1246 116.148L55.8853 89.3921L64.1169 97.6221L91.2496 70.4938L107.508 86.7501H126.046L154.658 58.1425H179.334L197.576 39.9034H219.906L242.062 17.751L244.013 19.7015L221.048 42.6618H198.719L180.477 60.9011H155.801L127.189 89.5087H106.366L91.2496 74.3949L64.1169 101.523L55.8853 93.2931L29.1246 120.05L17.9219 108.849L3.65752 123.111Z" fill="#FEBD54"/>
<path d="M194.075 118.374L187.445 111.745H168.479V111.646H187.486L194.145 118.304L194.075 118.374Z" fill="#4D78EB"/>
<path d="M147.001 106.587H174.239C174.342 106.587 174.441 106.628 174.514 106.7C174.586 106.773 174.627 106.872 174.627 106.975V107.785C174.627 107.888 174.586 107.987 174.514 108.06C174.441 108.132 174.342 108.173 174.239 108.173H147.001C146.898 108.173 146.8 108.132 146.727 108.06C146.654 107.987 146.613 107.888 146.613 107.785V106.975C146.613 106.872 146.654 106.773 146.727 106.7C146.8 106.628 146.898 106.587 147.001 106.587Z" fill="#84A4FD"/>
<path d="M147.001 102.993H163.683C163.786 102.993 163.884 103.034 163.957 103.106C164.03 103.179 164.071 103.278 164.071 103.38V104.191C164.071 104.294 164.03 104.393 163.957 104.465C163.884 104.538 163.786 104.579 163.683 104.579H147.001C146.898 104.579 146.8 104.538 146.727 104.465C146.654 104.393 146.613 104.294 146.613 104.191V103.381C146.613 103.278 146.654 103.179 146.727 103.106C146.8 103.034 146.898 102.993 147.001 102.993Z" fill="#84A4FD"/>
<path d="M85.0595 119.343H103.811C103.897 119.343 103.979 119.377 104.04 119.438C104.1 119.498 104.134 119.58 104.134 119.666V120.607C104.134 120.692 104.1 120.775 104.04 120.835C103.979 120.896 103.897 120.93 103.811 120.93H85.0596C84.974 120.93 84.8919 120.896 84.8314 120.835C84.7708 120.775 84.7368 120.692 84.7368 120.607V119.666C84.7368 119.58 84.7708 119.498 84.8313 119.438C84.8919 119.377 84.9739 119.343 85.0595 119.343Z" fill="#8DA6EB"/>
<path d="M85.0595 115.749H96.5018C96.5874 115.749 96.6695 115.783 96.7301 115.844C96.7906 115.904 96.8246 115.986 96.8246 116.072V117.013C96.8246 117.098 96.7906 117.18 96.7301 117.241C96.6696 117.301 96.5875 117.335 96.5019 117.335H85.0595C84.9739 117.335 84.8919 117.301 84.8313 117.241C84.7708 117.18 84.7368 117.098 84.7368 117.013V116.072C84.7368 116.029 84.7452 115.987 84.7614 115.948C84.7776 115.909 84.8014 115.874 84.8313 115.844C84.8613 115.814 84.8969 115.79 84.936 115.774C84.9752 115.757 85.0172 115.749 85.0595 115.749V115.749Z" fill="#8DA6EB"/>
<path d="M196.239 156.989H204.366C204.438 156.989 204.508 157.018 204.559 157.069C204.61 157.121 204.639 157.19 204.639 157.262V158.302C204.639 158.338 204.632 158.374 204.618 158.407C204.604 158.44 204.584 158.47 204.559 158.496C204.534 158.521 204.503 158.541 204.47 158.555C204.437 158.569 204.402 158.576 204.366 158.576H196.239C196.167 158.576 196.097 158.547 196.046 158.496C195.995 158.444 195.966 158.375 195.966 158.302V157.263C195.966 157.19 195.995 157.121 196.046 157.069C196.097 157.018 196.167 156.989 196.239 156.989V156.989Z" fill="#8DA6EB"/>
<path d="M196.276 153.645H206.8C206.882 153.645 206.961 153.677 207.019 153.735C207.077 153.793 207.11 153.872 207.11 153.954V154.921C207.11 155.003 207.077 155.082 207.019 155.14C206.961 155.198 206.882 155.231 206.8 155.231H196.276C196.193 155.231 196.115 155.198 196.057 155.14C195.998 155.082 195.966 155.003 195.966 154.921V153.954C195.966 153.914 195.974 153.873 195.989 153.836C196.005 153.798 196.028 153.764 196.057 153.735C196.085 153.707 196.12 153.684 196.157 153.668C196.195 153.653 196.235 153.645 196.276 153.645V153.645Z" fill="#8DA6EB"/>
<path d="M195.18 97.5952L187.445 89.8622H163.917V89.7632H187.486L195.25 97.5253L195.18 97.5952Z" fill="#4D78EB"/>
<path d="M147.001 84.7036H166.147C166.25 84.7036 166.349 84.7445 166.422 84.8172C166.494 84.8899 166.535 84.9886 166.535 85.0914V85.9022C166.535 86.005 166.494 86.1036 166.422 86.1764C166.349 86.2491 166.25 86.29 166.147 86.29H147.001C146.898 86.29 146.8 86.2491 146.727 86.1764C146.654 86.1036 146.613 86.005 146.613 85.9022V85.0914C146.613 84.9886 146.654 84.8899 146.727 84.8172C146.8 84.7445 146.898 84.7036 147.001 84.7036Z" fill="#84A4FD"/>
<path d="M147.001 81.1094H170.748C170.851 81.1094 170.949 81.1502 171.022 81.223C171.095 81.2957 171.136 81.3943 171.136 81.4972V82.3079C171.136 82.3588 171.126 82.4092 171.106 82.4563C171.087 82.5033 171.058 82.5461 171.022 82.5821C170.986 82.6181 170.943 82.6467 170.896 82.6662C170.849 82.6857 170.799 82.6957 170.748 82.6957H147.001C146.898 82.6957 146.8 82.6549 146.727 82.5822C146.654 82.5095 146.613 82.4108 146.613 82.308V81.4972C146.613 81.3943 146.654 81.2957 146.727 81.223C146.8 81.1502 146.898 81.1094 147.001 81.1094Z" fill="#84A4FD"/>
<path d="M521.044 92.5349L520.743 92.2335L529.239 83.7388H554.957V84.1649H529.415L521.044 92.5349Z" fill="#4956BD"/>
<path d="M562.178 80.3027H533.025C532.868 80.3027 532.718 80.2405 532.607 80.1298C532.496 80.019 532.434 79.8688 532.434 79.7122V78.4779C532.434 78.3212 532.496 78.171 532.607 78.0602C532.718 77.9495 532.868 77.8872 533.025 77.8872H562.178C562.334 77.8872 562.484 77.9495 562.595 78.0602C562.706 78.171 562.768 78.3211 562.768 78.4778V79.7122C562.768 79.8688 562.706 80.019 562.595 80.1298C562.484 80.2405 562.334 80.3027 562.178 80.3027V80.3027Z" fill="#84A4FD"/>
<path d="M569.182 74.8301H533.025C532.868 74.8301 532.718 74.7679 532.607 74.6571C532.496 74.5464 532.434 74.3962 532.434 74.2395V73.0051C532.434 72.8485 532.496 72.6983 532.607 72.5875C532.718 72.4768 532.868 72.4146 533.025 72.4146H569.182C569.339 72.4146 569.489 72.4768 569.6 72.5875C569.711 72.6983 569.773 72.8485 569.773 73.0051V74.2395C569.773 74.3962 569.711 74.5464 569.6 74.6571C569.489 74.7679 569.339 74.8301 569.182 74.8301V74.8301Z" fill="#84A4FD"/>
<path d="M476.047 99.3149L449.117 99.3149C448.964 99.3149 448.818 99.2542 448.71 99.1461C448.602 99.038 448.541 98.8914 448.541 98.7385V97.4759C448.541 97.323 448.602 97.1764 448.71 97.0683C448.818 96.9602 448.964 96.8994 449.117 96.8994H476.047C476.123 96.8994 476.198 96.9143 476.268 96.9433C476.338 96.9723 476.401 97.0147 476.455 97.0682C476.508 97.1217 476.551 97.1852 476.58 97.2552C476.609 97.3251 476.624 97.4 476.624 97.4757V98.7385C476.624 98.8142 476.609 98.8892 476.58 98.9591C476.551 99.029 476.508 99.0926 476.455 99.1461C476.401 99.1996 476.338 99.2421 476.268 99.2711C476.198 99.3 476.123 99.3149 476.047 99.3149V99.3149Z" fill="#84A4FD"/>
<path d="M458.918 104.787L449.058 104.787C448.921 104.787 448.79 104.733 448.693 104.636C448.596 104.539 448.541 104.407 448.541 104.27V102.889C448.541 102.752 448.596 102.62 448.693 102.523C448.79 102.426 448.921 102.372 449.058 102.372H458.918C459.056 102.372 459.187 102.426 459.284 102.523C459.381 102.62 459.436 102.752 459.436 102.889V104.27C459.436 104.407 459.381 104.539 459.284 104.636C459.187 104.733 459.056 104.787 458.918 104.787V104.787Z" fill="#84A4FD"/>
<path d="M470.817 93.8423L449.117 93.8423C448.965 93.8423 448.818 93.7816 448.71 93.6735C448.602 93.5655 448.541 93.4189 448.541 93.2661V92.0032C448.541 91.8503 448.602 91.7037 448.71 91.5956C448.818 91.4875 448.965 91.4268 449.118 91.4268H470.817C470.97 91.4268 471.117 91.4875 471.225 91.5956C471.333 91.7036 471.394 91.8502 471.394 92.003V93.2659C471.394 93.3416 471.379 93.4165 471.35 93.4865C471.321 93.5564 471.278 93.6199 471.225 93.6735C471.171 93.727 471.108 93.7694 471.038 93.7984C470.968 93.8274 470.893 93.8423 470.817 93.8423V93.8423Z" fill="#84A4FD"/>
<path d="M442.85 310.146L441.992 310.111L446.308 201.771H371.656L367.339 310.146L366.481 310.111L370.832 200.913H447.201L442.85 310.146Z" fill="#2A4387"/>
<path d="M449.842 310.146L445.524 201.771H370.872L375.189 310.111L374.331 310.146L369.979 200.913H446.349L450.699 310.111L449.842 310.146Z" fill="#2A4387"/>
<path d="M374.76 274.898H450.27L445.936 166.112H370.426L374.76 274.898Z" fill="#4D78EB"/>
<path d="M440.291 274.898H364.78L369.114 166.112H444.625L440.291 274.898Z" fill="#F7F7F7"/>
<path d="M377.432 184.653H397.406C397.849 184.653 398.274 184.829 398.588 185.142C398.901 185.456 399.077 185.881 399.077 186.324V187.811C399.077 188.254 398.901 188.68 398.588 188.993C398.274 189.307 397.849 189.483 397.406 189.483H377.432C376.988 189.483 376.563 189.306 376.249 188.993C375.936 188.679 375.76 188.254 375.76 187.811V186.325C375.76 185.881 375.936 185.456 376.249 185.142C376.563 184.829 376.988 184.653 377.432 184.653Z" fill="#DED7D5"/>
<path d="M377.431 176.209H397.406C397.849 176.209 398.274 176.386 398.588 176.699C398.901 177.013 399.077 177.438 399.077 177.881V179.368C399.077 179.811 398.901 180.236 398.588 180.55C398.274 180.863 397.849 181.039 397.406 181.039H377.432C376.988 181.039 376.563 180.863 376.249 180.55C375.936 180.236 375.76 179.811 375.76 179.367V177.881C375.76 177.662 375.803 177.444 375.887 177.241C375.971 177.039 376.094 176.854 376.249 176.699C376.405 176.544 376.589 176.421 376.792 176.337C376.995 176.253 377.212 176.209 377.431 176.209V176.209Z" fill="#88A3EB"/>
<path d="M380.787 226.505H394.049C394.195 226.505 394.339 226.534 394.474 226.589C394.609 226.645 394.731 226.727 394.834 226.83C394.937 226.933 395.019 227.055 395.075 227.19C395.131 227.325 395.159 227.469 395.159 227.615V228.602C395.159 228.896 395.043 229.178 394.834 229.387C394.626 229.595 394.344 229.712 394.05 229.712H380.787C380.493 229.712 380.21 229.595 380.002 229.387C379.794 229.178 379.677 228.896 379.677 228.602V227.615C379.677 227.32 379.794 227.038 380.002 226.83C380.21 226.622 380.493 226.505 380.787 226.505V226.505Z" fill="#88A3EB"/>
<path d="M407.965 232.538H383.536V232.052H407.48V224.383H407.965V232.538Z" fill="#88A3EB"/>
<path d="M436.843 180.306C436.405 179.08 435.729 177.951 434.855 176.986C433.981 176.021 432.925 175.237 431.748 174.68C430.57 174.122 429.295 173.802 427.994 173.738C426.693 173.674 425.392 173.867 424.166 174.305C422.94 174.744 421.812 175.419 420.847 176.294C419.881 177.169 419.098 178.225 418.541 179.402C417.984 180.579 417.665 181.855 417.601 183.156C417.537 184.457 417.73 185.757 418.169 186.984C418.244 187.194 418.325 187.4 418.413 187.602C419.439 189.96 421.342 191.828 423.72 192.809C426.097 193.791 428.763 193.811 431.155 192.864C433.547 191.917 435.477 190.078 436.538 187.735C437.599 185.392 437.709 182.728 436.843 180.306V180.306ZM430.009 190.644C428.234 191.281 426.283 191.219 424.552 190.47C422.821 189.721 421.44 188.342 420.689 186.611C420.623 186.46 420.562 186.306 420.505 186.148C420.01 184.763 419.937 183.263 420.294 181.837C420.652 180.41 421.424 179.122 422.513 178.135C423.603 177.147 424.961 176.505 426.415 176.29C427.87 176.074 429.356 176.295 430.685 176.924C432.014 177.552 433.127 178.561 433.883 179.822C434.639 181.084 435.003 182.541 434.931 184.009C434.859 185.478 434.353 186.892 433.477 188.073C432.601 189.254 431.394 190.149 430.009 190.644V190.644Z" fill="#88A3EB"/>
<path d="M420.408 181.429L418.039 180.69C418.656 178.721 419.87 176.994 421.513 175.747C423.156 174.5 425.147 173.796 427.209 173.732L427.283 176.212C425.737 176.261 424.245 176.789 423.013 177.723C421.781 178.658 420.871 179.954 420.408 181.429V181.429Z" fill="#FE5454"/>
<path d="M420.689 186.612L418.413 187.602C418.326 187.4 418.244 187.194 418.169 186.984C417.44 184.956 417.395 182.746 418.04 180.69L420.409 181.43C419.925 182.971 419.959 184.628 420.506 186.148C420.562 186.306 420.623 186.46 420.689 186.612Z" fill="#4D78EB"/>
<path d="M419.95 190.07C419.318 189.328 418.8 188.496 418.413 187.602L420.688 186.611C420.979 187.282 421.367 187.905 421.841 188.462L419.95 190.07Z" fill="#4D78EB"/>
<path d="M365.215 274.916H364.346L368.697 165.678H445.936V166.547H369.532L365.215 274.916Z" fill="#AEBEEB"/>
<path d="M440.291 274.899L444.625 165.678H445.937L450.27 274.899H440.291Z" fill="#88A3EB"/>
<path d="M374.101 252.357L373.672 251.601L392.471 240.929L403.375 248.33L434.732 230.969L435.153 231.729L403.329 249.349L392.43 241.951L374.101 252.357Z" fill="#88A3EB"/>
<path d="M419.061 199.052C417.508 198.317 415.826 197.895 414.11 197.81C412.394 197.725 410.678 197.979 409.061 198.557C407.443 199.135 405.955 200.027 404.682 201.18C403.408 202.334 402.375 203.726 401.64 205.279C400.905 206.832 400.483 208.515 400.399 210.231C400.314 211.947 400.568 213.662 401.147 215.28C401.726 216.898 402.617 218.385 403.771 219.658C404.925 220.931 406.318 221.965 407.871 222.699C408.137 222.825 408.406 222.942 408.675 223.048C411.833 224.291 415.35 224.259 418.484 222.957C421.619 221.656 424.124 219.187 425.472 216.073C426.82 212.958 426.905 209.442 425.709 206.266C424.513 203.09 422.129 200.503 419.061 199.052ZM422.332 215.07C421.27 217.32 419.391 219.082 417.078 219.998C414.764 220.914 412.189 220.915 409.874 220.002C409.672 219.922 409.471 219.835 409.271 219.74C407.518 218.91 406.05 217.579 405.053 215.915C404.057 214.251 403.576 212.329 403.672 210.392C403.767 208.455 404.435 206.59 405.591 205.032C406.747 203.474 408.339 202.295 410.165 201.641C411.991 200.988 413.97 200.892 415.852 201.363C417.733 201.835 419.432 202.854 420.735 204.291C422.037 205.728 422.884 207.52 423.168 209.438C423.453 211.357 423.162 213.317 422.332 215.07V215.07Z" fill="#88A3EB"/>
<path d="M404.778 215.428L401.877 216.948C400.616 214.537 400.137 211.793 400.506 209.097C400.876 206.401 402.076 203.887 403.94 201.904L406.324 204.149C404.926 205.636 404.027 207.521 403.75 209.542C403.473 211.563 403.832 213.621 404.778 215.428V215.428Z" fill="#4D78EB"/>
<path d="M409.874 220.002L408.675 223.048C408.405 222.942 408.136 222.825 407.871 222.699C405.299 221.488 403.194 219.468 401.877 216.948L404.778 215.429C405.765 217.318 407.342 218.832 409.27 219.74C409.47 219.835 409.671 219.922 409.874 220.002Z" fill="#FE5454"/>
<path d="M412.412 223.917C411.13 223.814 409.871 223.521 408.675 223.049L409.874 220.002C410.771 220.357 411.715 220.576 412.676 220.654L412.412 223.917Z" fill="#FE5454"/>
<path d="M372.935 265.58L372.483 264.838L392.268 252.786L400.486 260.014L414.203 255.857L426.39 256.524L433.808 249.587L434.402 250.222L426.713 257.412L414.309 256.733L400.275 260.985L392.174 253.861L372.935 265.58Z" fill="#88A3EB"/>
<path d="M383.357 219.549C383.114 219.551 382.874 219.506 382.648 219.418C382.435 219.335 382.239 219.213 382.071 219.058C381.907 218.906 381.775 218.723 381.682 218.521C381.588 218.312 381.54 218.086 381.54 217.858C381.54 217.629 381.588 217.403 381.682 217.195C381.874 216.778 382.22 216.453 382.648 216.287C383.104 216.111 383.609 216.111 384.065 216.287C384.493 216.453 384.839 216.778 385.031 217.195C385.125 217.403 385.174 217.629 385.174 217.858C385.174 218.086 385.125 218.312 385.031 218.521C384.938 218.723 384.806 218.906 384.642 219.058C384.474 219.213 384.279 219.335 384.065 219.418C383.84 219.506 383.599 219.551 383.357 219.549V219.549ZM382.054 223.926L385.265 220.12L388.283 216.201L388.877 216.715L385.722 220.475L382.637 224.451L382.054 223.926ZM383.357 218.898C383.482 218.899 383.605 218.869 383.717 218.812C383.827 218.755 383.926 218.677 384.008 218.583C384.094 218.485 384.161 218.373 384.208 218.252C384.258 218.127 384.283 217.993 384.282 217.858C384.283 217.717 384.258 217.578 384.208 217.446C384.162 217.323 384.094 217.209 384.008 217.109C383.926 217.015 383.824 216.939 383.711 216.887C383.54 216.806 383.348 216.786 383.165 216.828C382.981 216.871 382.817 216.974 382.7 217.121C382.569 217.277 382.481 217.465 382.447 217.666C382.413 217.867 382.433 218.073 382.505 218.264C382.552 218.385 382.62 218.497 382.705 218.595C382.786 218.688 382.885 218.764 382.997 218.818C383.109 218.872 383.232 218.899 383.357 218.898V218.898ZM387.563 224.497C387.32 224.499 387.08 224.454 386.854 224.366C386.426 224.2 386.08 223.874 385.888 223.457C385.794 223.249 385.745 223.023 385.745 222.794C385.745 222.566 385.794 222.34 385.888 222.132C385.981 221.929 386.113 221.746 386.277 221.594C386.445 221.439 386.641 221.317 386.854 221.235C387.31 221.059 387.815 221.059 388.271 221.235C388.484 221.317 388.68 221.439 388.848 221.594C389.011 221.746 389.144 221.929 389.237 222.132C389.331 222.34 389.38 222.566 389.38 222.794C389.38 223.023 389.331 223.249 389.237 223.457C389.045 223.874 388.699 224.199 388.271 224.366C388.045 224.454 387.805 224.499 387.563 224.497V224.497ZM387.563 223.846C387.688 223.847 387.813 223.819 387.926 223.766C388.04 223.713 388.14 223.634 388.22 223.537C388.351 223.38 388.438 223.191 388.472 222.989C388.506 222.787 388.486 222.58 388.414 222.389C388.366 222.266 388.297 222.154 388.208 222.057C388.124 221.965 388.023 221.889 387.911 221.834C387.802 221.782 387.683 221.754 387.563 221.754C387.437 221.753 387.314 221.783 387.203 221.84C387.092 221.897 386.993 221.975 386.911 222.069C386.826 222.167 386.758 222.279 386.711 222.4C386.661 222.526 386.636 222.659 386.637 222.794C386.636 222.935 386.661 223.074 386.711 223.206C386.757 223.329 386.825 223.443 386.911 223.543C386.992 223.636 387.091 223.712 387.203 223.766C387.315 223.819 387.438 223.847 387.563 223.846V223.846Z" fill="#88A3EB"/>
<g style="mix-blend-mode:multiply" opacity="0.15">
<path d="M393.957 199.725C393.596 199.61 388.163 199.787 386.433 199.848C386.426 199.817 386.41 199.779 386.403 199.748C387.756 199.425 391.475 198.534 391.951 198.411C392.536 198.257 392.505 197.904 392.036 197.635C391.613 197.389 386.457 198.442 385.465 198.641C384.497 198.711 382.314 199.548 382.529 198.964C382.775 198.296 384.451 195.453 383.867 194.946C383.29 194.446 382.53 196.444 382.114 196.943C381.799 197.32 380.785 198.526 380.554 199.571C380.484 199.847 380.341 200.1 380.139 200.301L380.124 200.171C380.124 200.171 378.902 200.547 377.035 200.916C375.583 201.214 374.115 201.427 372.639 201.554C372.393 201.577 372.124 201.6 371.839 201.631C371.509 201.669 371.163 201.708 370.802 201.761C370.548 201.792 370.287 201.823 370.018 201.861C369.38 201.946 368.735 202.038 368.12 202.115C367.966 202.138 367.82 202.153 367.674 202.176C367.528 202.192 367.382 202.215 367.244 202.23L366.975 208.969C367.113 208.953 367.259 208.938 367.405 208.915C367.551 208.9 367.705 208.877 367.851 208.861C368.627 208.754 369.442 208.623 370.279 208.477C370.364 208.462 370.448 208.446 370.533 208.431C370.733 208.4 370.933 208.362 371.132 208.323C371.217 208.308 371.309 208.293 371.394 208.277C371.632 208.231 371.862 208.185 372.101 208.139C376.581 207.255 380.946 206.11 380.946 206.11L380.708 204.404C380.785 204.379 380.859 204.348 380.931 204.312C381.269 204.143 383.713 204.904 385.742 204.335C385.773 204.32 385.803 204.305 385.834 204.289V204.305C385.834 204.305 389.008 204.159 390.338 204.243C391.667 204.328 391.56 203.744 391.46 203.521C391.337 203.229 388.094 203.068 386.733 203.014C386.742 202.986 386.747 202.958 386.749 202.929C388.401 202.775 392.843 202.361 393.273 202.315C393.408 202.303 393.533 202.24 393.622 202.138C393.711 202.037 393.757 201.904 393.75 201.769C393.752 201.7 393.738 201.631 393.708 201.568C393.679 201.505 393.635 201.451 393.581 201.408C393.312 201.224 388.508 201.354 386.772 201.408C386.765 201.393 386.763 201.377 386.764 201.362C387.725 201.269 389.638 201.085 391.26 200.916C392.682 200.778 393.888 200.639 394.003 200.593C394.311 200.486 394.219 199.802 393.957 199.725Z" fill="#243973"/>
</g>
<path d="M322.977 305.819C322.977 305.819 321.715 308.174 320.89 309.108C320.066 310.043 316.908 311.713 316.891 314.488C316.872 317.498 322.214 316.662 324.303 316.553C326.392 316.443 326.55 314.835 327.43 313.131C328.31 311.427 329.196 311.715 329.361 310.341C329.526 308.967 328.509 305.819 328.509 305.819H322.977Z" fill="#202338"/>
<path d="M328.437 304.911C328.437 304.911 328.681 306.196 328.634 306.226C328.587 306.257 322.713 307.306 322.746 306.24C322.773 305.393 323.288 304.405 323.288 304.405L328.437 304.911Z" fill="#81807E"/>
<path d="M382.225 194.258C382.225 194.258 388.386 192.961 388.847 193.229C389.307 193.496 389.336 193.845 388.763 193.991C388.191 194.136 382.836 195.421 382.836 195.421C382.836 195.421 390.306 195.149 390.735 195.279C390.985 195.356 391.08 196.024 390.779 196.131C390.478 196.238 383.064 196.949 383.064 196.949C383.064 196.949 390.039 196.708 390.36 196.93C390.432 196.998 390.484 197.085 390.508 197.182C390.532 197.278 390.528 197.379 390.497 197.474C390.465 197.568 390.407 197.651 390.33 197.713C390.252 197.775 390.159 197.814 390.06 197.824C389.542 197.879 383.059 198.484 383.059 198.484C383.059 198.484 388.128 198.64 388.284 199.002C388.379 199.222 388.487 199.795 387.182 199.711C385.878 199.628 382.762 199.77 382.762 199.77L382.225 194.258Z" fill="#EEA886"/>
<path d="M354.801 305.374C354.801 305.374 357.375 308.248 359.989 308.85C362.602 309.452 364.43 310.22 364.45 311.869C364.469 313.518 356.929 314.605 353.938 312.942C349.474 310.461 349.02 311.209 348.526 309.969C348.031 308.729 349.12 305.412 349.088 305.018C349.048 304.53 354.801 305.374 354.801 305.374Z" fill="#202338"/>
<path d="M354.511 303.999C354.511 303.999 354.851 305.346 354.801 305.374C354.75 305.403 348.911 306.098 349.088 305.018C349.231 304.142 349.435 303.189 349.435 303.189L354.511 303.999Z" fill="#81807E"/>
<path d="M349.203 223.408C349.203 223.408 351.326 244.026 352.431 251.085C353.722 259.337 354.159 266.156 354.52 270.428C354.973 275.8 355.06 302.229 355.377 303.799C355.694 305.37 348.343 304.233 348.343 304.233C348.343 304.233 344.727 269.702 343.378 263.98C342.122 258.652 337.46 235.715 336.314 237.17C335.168 238.625 333.747 263.937 332.898 268.139C332.049 272.341 329.468 305.237 329.468 305.237C329.468 305.237 323.617 306.402 322.061 305.085C322.061 305.085 321.353 276.735 321.894 268.857C322.1 265.855 318.376 232.86 323.151 219.577C325.675 212.557 349.203 223.408 349.203 223.408Z" fill="#292C47"/>
<path d="M312.808 226.335C312.808 226.335 316.388 227.423 317.887 227.147C319.389 226.872 318.629 208.477 318.688 204.649C318.734 201.544 320.433 193.347 320.433 193.347C320.433 193.352 320.434 193.357 320.435 193.361C320.437 193.364 320.438 193.367 320.437 193.37C320.437 193.375 320.44 193.379 320.44 193.384C320.608 193.998 322.901 202.504 322.981 206.591C323.065 210.833 322.428 227.059 322.428 227.059L328.748 227.674L346.912 228.119L350.701 227.672C350.701 227.672 350.248 220.734 350.08 217.438C349.975 215.343 349.568 211.593 349.673 207.94C349.673 207.94 349.607 204.089 349.989 202.431C350.03 195.112 350.473 187.864 350.473 187.864C350.719 184.545 350.891 181.44 350.988 178.548C350.187 178.125 349.224 177.629 348.453 177.263C346.07 176.128 342.748 174.6 340.617 173.622C339.368 173.048 338.146 172.63 338.146 172.63C338.146 172.63 329.627 171.813 328.936 171.857C328.718 171.87 327.653 172.241 326.256 172.773C323.235 173.919 317.412 176.253 316.484 176.919C315.124 177.893 312.248 201.028 312.119 202.647C311.884 205.565 312.808 226.335 312.808 226.335Z" fill="#CAC7D1"/>
<path d="M350.154 224.773C350.154 224.773 337.687 225.835 326.768 224.773V228.356C326.768 228.356 343.166 230.723 350.701 227.673L350.154 224.773Z" fill="#1D2033"/>
<path d="M339.521 173.15C339.521 173.15 341.549 177.914 343.071 188.561C343.655 192.65 344.739 199.534 345.526 206.559V206.562C346.147 212.1 347.564 217.784 348.014 222.023C348.481 226.415 349.887 239.354 349.887 239.354L353.296 237.205C353.783 236.754 354.466 236.17 354.268 235.538C353.331 232.51 351.536 222.503 350.476 213.781C350.476 213.774 350.473 213.769 350.473 213.763C350.423 213.342 350.374 212.925 350.326 212.512C350.323 212.491 350.321 212.468 350.319 212.446C350.119 210.701 349.953 209.029 349.834 207.499C349.758 206.35 349.809 205.196 349.987 204.058C350.462 196.228 350.698 187.974 350.698 187.974C350.948 184.594 351.091 181.437 351.187 178.494C350.635 178.071 349.415 177.421 348.56 177.014C348.56 177.014 340.946 173.563 339.521 173.15Z" fill="#4D78EB"/>
<path d="M338.881 175.634C338.881 175.634 339.109 178.894 336.35 178.97C333.592 179.046 331.403 176.398 331.403 176.398L335.981 177.579L338.767 175.217L338.881 175.634Z" fill="#CAC7D1"/>
<path d="M375.307 196.89C375.307 196.89 377.316 196.33 377.584 195.129C377.812 194.108 378.808 192.918 379.113 192.552C379.523 192.061 380.265 190.099 380.836 190.595C381.407 191.092 379.759 193.882 379.522 194.532C379.285 195.183 382.067 194.04 382.711 194.24C383.355 194.439 384.653 199.242 382.669 199.801C380.685 200.359 378.284 199.612 377.95 199.782C377.482 199.965 377.004 200.12 376.518 200.247L375.307 196.89Z" fill="#EEA886"/>
<path d="M335.158 150.663C335.158 150.663 341.483 151.73 340.41 161.632C339.337 171.533 333.754 170.66 333.38 170.646C333.007 170.632 327.764 170.765 327.488 158.659C327.488 158.659 327.407 149.708 335.158 150.663Z" fill="#EEA987"/>
<path d="M337.929 167.776C337.929 167.776 337.929 171.855 338.096 172.737C338.276 173.687 333.017 176.431 329.622 173.234C329.622 173.234 330.308 168.78 330.095 167.207C329.882 165.634 337.929 167.776 337.929 167.776Z" fill="#EEA987"/>
<path d="M340.435 159.326C340.435 159.326 341.137 158.593 341.383 159.346C341.629 160.099 340.493 163.281 340.347 163.587C340.347 163.587 340.217 163.877 340.052 163.715C339.888 163.553 340.435 159.326 340.435 159.326Z" fill="#EEA987"/>
<path d="M327.56 158.567C327.56 158.567 326.889 157.805 326.612 158.547C326.335 159.289 327.346 162.622 327.472 162.828C327.472 162.828 327.69 163.17 327.862 163.014C328.033 162.859 327.56 158.567 327.56 158.567Z" fill="#EEA987"/>
<path d="M340.943 157.992C340.725 159.347 340.52 160.353 340.52 160.353L339.599 161.555C339.599 161.555 339.653 158.898 339.513 158.48C339.459 158.322 339.397 158.042 339.332 157.738C339.227 157.237 339.119 156.672 339.044 156.483C338.926 156.183 333.623 154.634 328.9 156.808C328.9 156.808 328.94 157.217 328.937 157.673C328.935 158.204 328.877 158.798 328.633 158.888C328.181 159.053 328.37 161.998 328.37 161.998L327.634 161.149C327.634 161.149 327.421 159.61 327.211 157.842C327.211 157.842 327.21 157.838 327.209 157.829C327.162 157.417 327.113 156.993 327.067 156.572C326.962 154.793 327.138 151.564 329.454 149.667C331.017 148.998 333.513 148.429 337.673 149.702C337.673 149.702 338.71 149.998 338.978 150.255C341.568 153.106 340.943 157.992 340.943 157.992Z" fill="#353A3D"/>
<path d="M330.529 169.322C330.529 169.322 331.539 170.724 333.884 170.671C336.23 170.618 337.248 169.395 337.248 169.395C337.248 169.395 336.137 171.718 333.873 171.693C331.608 171.668 330.529 169.322 330.529 169.322Z" fill="#C78D71"/>
<path d="M338.341 175.833L335.981 177.579C335.981 177.579 337.964 173.376 338.004 171.693L338.341 175.833Z" fill="#A09EA6"/>
<path d="M338.004 171.693L339.609 173.186L341.298 178.222L338.341 175.833L338.004 171.693Z" fill="#EAE6F2"/>
<path d="M377.964 201.548C377.964 201.548 364.035 205.215 360.63 204.377C359.056 203.99 356.982 201.817 355.012 199.263C354.363 198.422 353.726 197.539 353.12 196.666C353.119 196.665 353.118 196.663 353.118 196.662C350.701 193.173 348.807 189.828 348.807 189.828C348.807 189.828 341.662 181.456 347.395 177.724C347.395 177.724 349.812 177.481 351.186 178.494C352.455 179.43 355.542 185.324 356.044 186.416C356.545 187.507 361.974 197.653 362.338 197.881C362.702 198.109 367.357 197.277 369.815 197.073C372.3 196.856 374.759 196.402 377.158 195.719L377.964 201.548Z" fill="#4D78EB"/>
<path d="M337.7 173.195C337.252 174.702 336.677 176.169 335.981 177.579C335.981 177.579 333.504 175.409 332.724 174.636C331.945 173.863 337.7 173.195 337.7 173.195Z" fill="#EEA987"/>
<path d="M333.389 175.153L335.981 177.579C335.981 177.579 332.917 177.375 332.345 176.865L333.389 175.153Z" fill="#A09EA6"/>
<path d="M329.951 170.685C329.951 170.685 332.025 174.054 333.389 175.154L331.09 178.97L327.403 172.275L329.951 170.685Z" fill="#EAE6F2"/>
<path d="M318.948 204.823C318.684 208.375 320.187 228.031 318.687 228.308C317.188 228.583 311.676 227.372 311.676 227.372C311.676 227.372 310.984 206.175 311.206 203.953C311.367 202.336 313.942 178.077 315.302 177.103C316.087 176.539 321.906 174.477 324.761 173.352C325.283 173.146 326.936 172.452 327.404 172.274C328.009 172.948 333.286 185.328 333.787 194.983C333.94 197.922 333.251 204.128 332.727 209.198C332.168 214.606 331.549 218.828 331.095 223.351C330.201 232.263 329.575 239.354 329.575 239.354L320.705 235.405C319.269 234.687 317.282 231.741 317.821 230.23C319.872 224.487 322.454 214.675 322.457 209.636C322.457 209.636 321.468 197.296 320.683 194.584C320.683 194.584 319.284 200.307 318.948 204.823Z" fill="#4D78EB"/>
<path d="M341.281 224.993H335.404V229.361H341.281V224.993Z" fill="#3A4066"/>
<path d="M322.232 248.059H302.899L307.436 235.187H326.768L322.232 248.059Z" fill="#EDDAD3"/>
<path d="M322.232 248.059H302.899L307.436 235.187H326.768L322.232 248.059Z" fill="#F7F7F7"/>
<path d="M307.436 260.931H326.768L322.232 248.059H302.899L307.436 260.931Z" fill="#C1C5DB"/>
<path d="M322.232 273.804H302.899L307.436 260.932H326.768L322.232 273.804Z" fill="#F7F7F7"/>
<path d="M307.436 286.675H326.768L322.232 273.803H302.899L307.436 286.675Z" fill="#C1C5DB"/>
<path d="M319.594 237.814H308.569L308.724 237.337H319.749L319.594 237.814Z" fill="#AEBDF2"/>
<path d="M318.939 239.541H307.913L308.068 239.064H319.094L318.939 239.541Z" fill="#AEBDF2"/>
<path d="M316.118 241.27H307.198L307.353 240.793H316.273L316.118 241.27Z" fill="#AEBDF2"/>
<path d="M319.594 263.467H308.569L308.724 262.99H319.749L319.594 263.467Z" fill="#AEBDF2"/>
<path d="M313.426 265.194H307.913L308.068 264.718H313.581L313.426 265.194Z" fill="#AEBDF2"/>
<path d="M317.584 228.553C317.584 228.553 317.688 228.882 317.869 229.433C318.183 230.384 319.194 231.471 318.571 232.769C317.948 234.068 313.27 233.251 312.559 232.646C311.847 232.04 312.14 230.051 313.774 227.501C315.408 224.95 317.584 228.553 317.584 228.553Z" fill="#EEA886"/>
<path d="M318.717 232.302C318.669 233.815 318.539 235.323 318.327 236.821C318.024 238.907 317.358 241.454 316.832 241.385C316.033 241.279 316.819 239.253 316.979 237.165C317.126 235.243 316.771 235.598 316.771 235.598C316.771 235.598 316.878 235.502 316.305 237.566C315.69 239.786 314.936 242.144 314.504 242.095C313.969 242.035 313.907 241.982 313.998 241.14C313.841 241.613 313.687 241.637 313.482 241.591C312.418 241.35 312.809 237.949 312.964 236.599C312.838 237.635 312.634 238.383 312.078 237.816C311.442 237.166 312.213 232.382 312.324 230.642C312.443 228.744 318.717 232.302 318.717 232.302Z" fill="#EEA886"/>
<path d="M319.182 214.76L319.091 230.381C319.091 230.381 315.973 230.242 311.675 228.655L311.377 206.627L319.182 214.76Z" fill="#4D78EB"/>
<path d="M101.519 160.057L97.877 163.7L98.1486 163.972L101.791 160.328L101.519 160.057Z" fill="white"/>
<path d="M98.1481 160.057L97.8765 160.329L101.519 163.972L101.791 163.7L98.1481 160.057Z" fill="white"/>
<path d="M426.649 165.695C426.649 166.577 426.387 167.439 425.898 168.172C425.408 168.905 424.712 169.476 423.898 169.813C423.083 170.151 422.187 170.239 421.323 170.067C420.458 169.895 419.664 169.471 419.04 168.848C418.417 168.225 417.993 167.43 417.821 166.566C417.649 165.701 417.737 164.805 418.074 163.991C418.411 163.176 418.983 162.48 419.716 161.99C420.448 161.501 421.31 161.239 422.192 161.239C423.374 161.239 424.507 161.709 425.343 162.544C426.179 163.38 426.648 164.513 426.649 165.695V165.695Z" fill="#C3D2FD"/>
<path d="M307.394 128.835C307.395 129.717 307.133 130.579 306.644 131.312C306.154 132.045 305.458 132.616 304.644 132.953C303.829 133.291 302.933 133.379 302.069 133.207C301.204 133.035 300.41 132.611 299.787 131.988C299.163 131.365 298.739 130.57 298.567 129.706C298.395 128.841 298.483 127.945 298.82 127.131C299.157 126.316 299.729 125.62 300.462 125.131C301.194 124.641 302.056 124.379 302.938 124.379C303.523 124.379 304.102 124.495 304.643 124.718C305.184 124.942 305.675 125.271 306.089 125.684C306.503 126.098 306.831 126.589 307.055 127.13C307.279 127.671 307.394 128.25 307.394 128.835Z" fill="#C3D2FD"/>
<path d="M445.514 57.4966C445.514 58.3781 445.253 59.2398 444.763 59.9728C444.274 60.7058 443.578 61.2771 442.763 61.6145C441.949 61.952 441.053 62.0403 440.188 61.8684C439.324 61.6965 438.529 61.2721 437.906 60.6488C437.283 60.0256 436.858 59.2315 436.686 58.3669C436.514 57.5024 436.602 56.6062 436.94 55.7918C437.277 54.9774 437.848 54.2814 438.581 53.7916C439.314 53.3019 440.176 53.0405 441.057 53.0405C441.643 53.0405 442.222 53.1557 442.763 53.3796C443.303 53.6036 443.795 53.9318 444.209 54.3456C444.622 54.7593 444.951 55.2506 445.175 55.7912C445.399 56.3319 445.514 56.9114 445.514 57.4966V57.4966Z" fill="#C3D2FD"/>
<path d="M421.356 164.702L420.235 163.582L420.375 163.442L421.496 164.562L421.356 164.702ZM419.115 162.462L417.995 161.342L418.135 161.202L419.255 162.322L419.115 162.462ZM416.875 160.222L415.755 159.102L415.895 158.962L417.015 160.082L416.875 160.222ZM414.635 157.982L413.514 156.862L413.654 156.722L414.775 157.842L414.635 157.982ZM412.394 155.742L411.274 154.622L411.414 154.482L412.534 155.602L412.394 155.742ZM410.154 153.502L409.034 152.382L409.174 152.242L410.294 153.362L410.154 153.502ZM407.914 151.262L406.793 150.142L406.933 150.002L408.054 151.122L407.914 151.262ZM405.673 149.023L404.911 148.261V147.672H405.109V148.179L405.813 148.883L405.673 149.023ZM405.109 146.088H404.911V144.504H405.109V146.088ZM405.109 142.92H404.911V141.336H405.109V142.92ZM405.109 139.752H404.911V138.168H405.109V139.752ZM405.109 136.584H404.911V135H405.109V136.584ZM405.109 133.416H404.911V131.832H405.109V133.416ZM405.109 130.248H404.911V128.664H405.109V130.248ZM405.109 127.08H404.911V125.496H405.109V127.08ZM405.109 123.912H404.911V122.328H405.109V123.912ZM405.109 120.744H404.911V119.16H405.109V120.744ZM405.109 117.576H404.911V115.991H405.109V117.576ZM405.109 114.407H404.911V112.823H405.109V114.407ZM405.109 111.239H404.911V109.655H405.109V111.239ZM405.109 108.071H404.911V106.487H405.109V108.071ZM405.109 104.903H404.911V103.319H405.109V104.903ZM405.109 101.735H404.911V100.151H405.109V101.735ZM405.109 98.5672H404.911V96.9831H405.109V98.5672ZM405.109 95.3991H404.911V93.8151H405.109V95.3991ZM404.317 92.5593L403.197 91.4393L403.337 91.2993L404.457 92.4193L404.317 92.5593ZM402.077 90.3194L400.956 89.1993L401.096 89.0593L402.217 90.1794L402.077 90.3194ZM399.836 88.0793L398.716 86.9594L398.856 86.8194L399.976 87.9394L399.836 88.0793ZM397.596 85.8393L396.476 84.7194L396.616 84.5794L397.736 85.6993L397.596 85.8393ZM395.356 83.5994L394.235 82.4794L394.375 82.3394L395.496 83.4594L395.356 83.5994ZM393.115 81.3594L391.995 80.2394L392.135 80.0994L393.255 81.2194L393.115 81.3594ZM390.875 79.1195L389.755 77.9994L389.895 77.8594L391.015 78.9795L390.875 79.1195ZM388.635 76.8795L387.514 75.7595L387.654 75.6195L388.775 76.7395L388.635 76.8795ZM386.394 74.6395L385.274 73.5195L385.414 73.3795L386.534 74.4995L386.394 74.6395ZM384.154 72.3995L383.034 71.2795L383.174 71.1395L384.294 72.2595L384.154 72.3995ZM381.914 70.1595L380.793 69.0396L380.933 68.8996L382.054 70.0195L381.914 70.1595ZM379.673 67.9195L378.553 66.7996L378.693 66.6596L379.813 67.7795L379.673 67.9195ZM377.433 65.6796L376.313 64.5595L376.453 64.4196L377.573 65.5396L377.433 65.6796ZM375.193 63.4396L374.072 62.3196L374.212 62.1796L375.333 63.2996L375.193 63.4396ZM372.952 61.1996L371.832 60.0796L371.972 59.9396L373.092 61.0596L372.952 61.1996ZM370.712 58.9597L369.592 57.8397L369.732 57.6997L370.852 58.8197L370.712 58.9597ZM368.472 56.7197L367.351 55.5997L367.491 55.4597L368.612 56.5797L368.472 56.7197ZM366.231 54.4797L365.111 53.3597L365.251 53.2197L366.371 54.3397L366.231 54.4797ZM363.991 52.2397L362.871 51.1198L363.011 50.9798L364.131 52.0997L363.991 52.2397ZM361.751 49.9997L360.63 48.8798L360.77 48.7397L361.891 49.8597L361.751 49.9997Z" fill="#C3D2FD"/>
<path d="M513.924 119.99C510.981 119.989 508.104 119.116 505.657 117.481C503.211 115.846 501.304 113.521 500.178 110.802C499.052 108.083 498.758 105.091 499.332 102.205C499.907 99.3189 501.324 96.6677 503.405 94.5869C505.486 92.5061 508.138 91.0892 511.024 90.5152C513.91 89.9413 516.902 90.2361 519.621 91.3624C522.34 92.4887 524.664 94.396 526.299 96.8429C527.934 99.2899 528.806 102.167 528.806 105.11C528.801 109.055 527.232 112.837 524.442 115.627C521.652 118.417 517.869 119.986 513.924 119.99ZM513.924 91.0818C511.149 91.0823 508.437 91.9054 506.131 93.4471C503.824 94.9888 502.027 97.1798 500.965 99.7431C499.904 102.306 499.627 105.127 500.168 107.848C500.71 110.569 502.046 113.068 504.008 115.03C505.97 116.991 508.469 118.327 511.19 118.868C513.911 119.409 516.732 119.131 519.295 118.069C521.858 117.008 524.049 115.21 525.59 112.903C527.131 110.596 527.954 107.884 527.954 105.11C527.949 101.39 526.47 97.8244 523.839 95.1946C521.209 92.5647 517.643 91.0857 513.924 91.0818V91.0818Z" fill="#4956BD"/>
<path d="M300.746 129.939L300.606 129.799L301.726 128.679L301.866 128.819L300.746 129.939ZM302.986 127.699L302.846 127.559L303.966 126.439L304.106 126.579L302.986 127.699ZM305.227 125.459L305.087 125.319L306.207 124.199L306.347 124.339L305.227 125.459ZM307.467 123.219L307.327 123.079L308.447 121.959L308.587 122.099L307.467 123.219ZM309.707 120.979L309.567 120.839L310.688 119.719L310.828 119.859L309.707 120.979ZM311.948 118.739L311.808 118.599L312.928 117.479L313.068 117.619L311.948 118.739ZM314.188 116.499L314.048 116.359L315.168 115.239L315.308 115.379L314.188 116.499ZM316.428 114.259L316.288 114.119L317.408 112.999L317.548 113.139L316.428 114.259ZM318.669 112.019L318.529 111.879L319.649 110.759L319.789 110.899L318.669 112.019ZM320.909 109.779L320.769 109.639L321.295 109.114H322.217V109.312H321.377L320.909 109.779ZM365.607 109.312H364.986V109.114H365.525L366.206 108.433L366.346 108.573L365.607 109.312ZM363.402 109.312H361.818V109.114H363.402V109.312ZM360.234 109.312H358.65V109.114H360.234V109.312ZM357.066 109.312H355.482V109.114H357.066V109.312ZM353.898 109.312H352.314V109.114H353.898V109.312ZM350.73 109.312H349.146V109.114H350.73V109.312ZM347.562 109.312H345.978V109.114H347.562V109.312ZM344.394 109.312H342.81V109.114H344.394V109.312ZM341.226 109.312H339.642V109.114H341.226V109.312ZM338.058 109.312H336.474V109.114H338.058V109.312ZM334.89 109.312H333.306V109.114H334.89V109.312ZM331.722 109.312H330.138V109.114H331.722V109.312ZM328.553 109.312H326.969V109.114H328.553V109.312ZM325.385 109.312H323.801V109.114H325.385V109.312ZM367.466 107.453L367.326 107.313L368.446 106.193L368.586 106.333L367.466 107.453ZM369.707 105.213L369.567 105.073L370.687 103.953L370.827 104.093L369.707 105.213ZM371.947 102.973L371.807 102.833L372.927 101.713L373.067 101.853L371.947 102.973ZM374.187 100.733L374.047 100.593L375.167 99.4728L375.307 99.6128L374.187 100.733ZM376.427 98.4929L376.287 98.3529L377.408 97.2329L377.548 97.3729L376.427 98.4929ZM378.668 96.2529L378.528 96.1129L379.648 94.9929L379.788 95.1329L378.668 96.2529ZM380.908 94.0129L380.768 93.873L381.888 92.7529L382.028 92.8929L380.908 94.0129ZM383.149 91.7729L383.009 91.6329L384.129 90.513L384.269 90.653L383.149 91.7729ZM385.389 89.5329L385.249 89.3929L386.369 88.2729L386.509 88.413L385.389 89.5329Z" fill="#C3D2FD"/>
<path d="M599.703 18.4316H395.138V30.3593H599.703V18.4316Z" fill="#FEBD54"/>
<path d="M404.643 23.126H429.27C429.357 23.126 429.442 23.143 429.522 23.176C429.601 23.209 429.674 23.2573 429.735 23.3183C429.796 23.3793 429.844 23.4517 429.877 23.5313C429.91 23.611 429.927 23.6964 429.927 23.7826V24.8927C429.927 25.0669 429.858 25.2339 429.735 25.357C429.612 25.4801 429.445 25.5493 429.27 25.5493H404.643C404.469 25.5493 404.302 25.4801 404.179 25.357C404.056 25.2339 403.987 25.0669 403.987 24.8928V23.7826C403.987 23.6084 404.056 23.4414 404.179 23.3183C404.302 23.1952 404.469 23.126 404.643 23.126V23.126Z" fill="#F7F7F7"/>
<path d="M439.189 55.3398L438.846 54.997L438.986 54.857L439.329 55.1998L439.189 55.3398ZM437.725 53.8769L436.605 52.7569L436.745 52.617L437.865 53.7369L437.725 53.8769ZM435.485 51.637L434.365 50.5169L434.505 50.3769L435.625 51.497L435.485 51.637ZM433.245 49.397L432.125 48.277L432.265 48.137L433.385 49.257L433.245 49.397ZM431.005 47.157L429.884 46.037L430.024 45.897L431.145 47.017L431.005 47.157ZM400.9 47.0682L400.76 46.9282L401.88 45.8082L402.02 45.9481L400.9 47.0682ZM362.814 46.8363L362.674 46.6963L363.794 45.5763L363.934 45.7163L362.814 46.8363ZM399.64 46.2944L398.52 45.1744L398.66 45.0344L399.78 46.1544L399.64 46.2944ZM428.764 44.917L427.644 43.797L427.784 43.657L428.904 44.7771L428.764 44.917ZM403.14 44.8282L403 44.6882L404.12 43.5682L404.26 43.7082L403.14 44.8282ZM365.055 44.5963L364.915 44.4563L366.035 43.3363L366.175 43.4763L365.055 44.5963ZM397.399 44.0544L396.279 42.9344L396.419 42.7944L397.539 43.9144L397.399 44.0544ZM426.524 42.677L425.404 41.5571L425.544 41.4171L426.664 42.537L426.524 42.677ZM405.381 42.5883L405.241 42.4483L406.361 41.3282L406.501 41.4682L405.381 42.5883ZM367.295 42.3563L367.155 42.2163L368.275 41.0963L368.415 41.2363L367.295 42.3563ZM395.159 41.8144L394.039 40.6944L394.179 40.5544L395.299 41.6744L395.159 41.8144ZM424.283 40.437L423.163 39.3171L423.303 39.1771L424.423 40.297L424.283 40.437ZM407.621 40.3483L407.481 40.2083L408.601 39.0883L408.741 39.2283L407.621 40.3483ZM369.535 40.1163L369.395 39.9763L370.515 38.8564L370.655 38.9964L369.535 40.1163ZM392.919 39.5744L391.799 38.4545L391.939 38.3145L393.059 39.4344L392.919 39.5744ZM422.043 38.1971L420.923 37.0771L421.063 36.9371L422.183 38.0571L422.043 38.1971ZM409.861 38.1084L409.721 37.9683L410.841 36.8483L410.981 36.9883L409.861 38.1084ZM371.776 37.8763L371.636 37.7363L372.756 36.6164L372.896 36.7564L371.776 37.8763ZM390.678 37.3344L389.558 36.2145L389.698 36.0745L390.818 37.1944L390.678 37.3344ZM419.803 35.9571L418.683 34.8371L418.823 34.6972L419.943 35.8171L419.803 35.9571ZM412.102 35.8683L411.962 35.7283L413.082 34.6084L413.222 34.7484L412.102 35.8683ZM374.016 35.6364L373.876 35.4964L374.996 34.3763L375.136 34.5164L374.016 35.6364ZM388.438 35.0945L387.318 33.9744L387.458 33.8344L388.578 34.9545L388.438 35.0945ZM417.563 33.7171L416.442 32.5971L416.582 32.4571L417.702 33.5771L417.563 33.7171ZM414.342 33.6284L414.202 33.4884L415.322 32.3684L415.462 32.5084L414.342 33.6284ZM376.256 33.3964L376.116 33.2564L377.236 32.1364L377.376 32.2764L376.256 33.3964ZM386.198 32.8545L385.078 31.7345L385.218 31.5945L386.338 32.7145L386.198 32.8545ZM378.497 31.1564L378.357 31.0164L379.477 29.8964L379.617 30.0364L378.497 31.1564ZM383.957 30.6145L382.837 29.4945L382.977 29.3545L384.097 30.4745L383.957 30.6145ZM380.737 28.9165L380.597 28.7765L381.498 27.8755L381.857 28.2346L381.717 28.3746L381.498 28.1555L380.737 28.9165Z" fill="#C3D2FD"/>
<path d="M586.289 131.399H586.091V56.073H553.357V55.875H586.289V131.399Z" fill="#4D78EB"/>
<path d="M190.288 134.674C189.549 132.605 188.409 130.702 186.935 129.074C185.46 127.446 183.679 126.124 181.693 125.184C179.708 124.244 177.556 123.704 175.362 123.596C173.168 123.488 170.974 123.813 168.905 124.552C166.837 125.292 164.934 126.432 163.306 127.907C161.678 129.382 160.357 131.164 159.417 133.149C158.478 135.135 157.939 137.287 157.831 139.481C157.723 141.675 158.049 143.869 158.789 145.938C158.916 146.292 159.053 146.639 159.201 146.98C160.933 150.958 164.142 154.108 168.153 155.764C172.163 157.421 176.66 157.454 180.694 155.857C184.728 154.26 187.984 151.158 189.774 147.205C191.564 143.253 191.748 138.76 190.288 134.674V134.674ZM178.761 152.112C175.767 153.187 172.476 153.082 169.556 151.818C166.636 150.555 164.306 148.228 163.04 145.31C162.929 145.054 162.826 144.794 162.73 144.528C161.895 142.193 161.771 139.662 162.374 137.256C162.977 134.85 164.279 132.677 166.117 131.012C167.955 129.346 170.246 128.263 172.699 127.899C175.153 127.536 177.659 127.908 179.901 128.968C182.143 130.029 184.02 131.731 185.295 133.858C186.57 135.986 187.185 138.444 187.063 140.921C186.941 143.398 186.087 145.784 184.61 147.776C183.132 149.768 181.097 151.277 178.761 152.112V152.112Z" fill="#88A3EB"/>
<path d="M162.567 136.569L158.571 135.321C159.611 132.001 161.659 129.087 164.431 126.983C167.202 124.88 170.56 123.692 174.038 123.585L174.163 127.769C171.556 127.85 169.038 128.741 166.96 130.318C164.882 131.895 163.347 134.079 162.567 136.569V136.569Z" fill="#FE5454"/>
<path d="M163.039 145.309L159.201 146.98C159.053 146.64 158.916 146.292 158.789 145.937C157.559 142.517 157.483 138.789 158.571 135.321L162.567 136.569C161.751 139.168 161.808 141.964 162.73 144.528C162.825 144.793 162.928 145.054 163.039 145.309Z" fill="#FEBD54"/>
<path d="M161.794 151.143C160.728 149.891 159.855 148.488 159.201 146.98L163.04 145.31C163.529 146.44 164.184 147.492 164.983 148.431L161.794 151.143Z" fill="#FEBD54"/>
<g style="mix-blend-mode:multiply" opacity="0.15">
<g style="mix-blend-mode:multiply" opacity="0.15">
<path d="M510.167 259.62C510.196 259.699 510.219 259.748 510.222 259.758C510.204 259.714 510.186 259.666 510.167 259.62Z" fill="#243973"/>
</g>
<g style="mix-blend-mode:multiply" opacity="0.15">
<path d="M557.543 205.199L557.03 210.577L556.976 211.173H516.081C516.183 210.976 516.296 210.78 516.421 210.577C516.713 210.076 517.053 209.563 517.411 209.045C517.286 203.273 519.897 200.435 522.008 198.73C524.113 197.025 524.257 191.921 523.284 188.571C522.313 185.22 522.014 180.409 523.153 177.767C524.292 175.12 530.315 170.237 537.411 173.618C544.507 176.998 540.786 187.897 540.786 187.897C540.327 192.345 539.164 194.759 537.954 196.071C537.888 196.81 537.745 198.933 538.079 200.632C538.437 200.68 538.806 200.745 539.188 200.817C539.319 200.835 539.457 200.847 539.588 200.87C542.772 201.312 545.73 202.516 547.578 204.299C548.759 204.358 549.934 204.436 551.049 204.525C553.333 204.674 555.527 204.889 557.543 205.199Z" fill="#243973"/>
</g>
</g>
<path d="M476.168 156.429L508.116 156.576L508.01 179.729L507.987 184.606L503.132 179.707L476.061 179.582L476.168 156.429Z" fill="#FFC655"/>
<path d="M564.617 223.156C563.964 222.721 563.062 222.825 562.436 222.981L562.665 221.342H553.943L555.34 231.359H561.27L561.4 230.423L561.526 229.524C562.397 229.517 563.235 229.186 563.877 228.596C564.82 227.733 565.361 226.342 565.361 224.779C565.361 223.846 564.957 223.381 564.617 223.156ZM563.235 227.895C562.803 228.295 562.246 228.532 561.659 228.567L562.292 224.015C562.758 223.857 563.641 223.649 564.091 223.948C564.17 224 564.409 224.16 564.409 224.779C564.409 226.076 563.981 227.211 563.235 227.895V227.895Z" fill="#FEBD54"/>
<path d="M561.27 231.359H555.34L553.943 221.342H557.155C557.155 221.342 556.001 230.383 561.27 231.359V231.359Z" fill="#DEA549"/>
<path d="M557.957 214.444C557.957 214.444 556.122 215.056 556.802 216.686C557.481 218.315 558.65 219.342 557.549 221.342C557.549 221.342 559.587 220.115 558.636 218.078C557.685 216.04 557.107 215.463 557.957 214.444Z" fill="#FDFDFD"/>
<path d="M560.586 216.282C560.586 216.282 559.241 216.731 559.739 217.926C560.237 219.122 561.095 219.875 560.287 221.342C560.287 221.342 561.782 220.442 561.084 218.948C560.387 217.453 559.963 217.029 560.586 216.282Z" fill="#FDFDFD"/>
<path d="M555.695 216.282C555.695 216.282 554.35 216.731 554.848 217.926C555.346 219.122 556.204 219.875 555.396 221.342C555.396 221.342 556.891 220.442 556.193 218.948C555.496 217.453 555.072 217.029 555.695 216.282Z" fill="#FDFDFD"/>
<path d="M547.197 304.998L540.252 258.818L541.59 258.612L548.534 304.792L547.197 304.998Z" fill="#2A4387"/>
<path d="M538.717 304.998L531.772 258.818L533.109 258.612L540.054 304.792L538.717 304.998Z" fill="#2A4387"/>
<path d="M496.946 304.998L495.609 304.792L502.553 258.612L503.891 258.818L496.946 304.998Z" fill="#2A4387"/>
<path d="M542.425 259.289L547.865 202.064C547.865 202.064 538.351 200.819 532.601 201.126L523.96 259.289H542.425Z" fill="#BAAFA3"/>
<path d="M542.425 256.381H523.96V259.289H542.425V256.381Z" fill="#BAAFA3"/>
<path d="M511.881 256.958L508.995 202.424C508.995 202.424 533.075 199.809 547.866 202.064L511.881 256.958Z" fill="#BAAFA3"/>
<path d="M531.11 184.766C531.11 184.766 534.828 173.864 527.733 170.484C520.637 167.104 514.612 171.989 513.474 174.633C512.336 177.277 512.637 182.084 513.608 185.437C514.579 188.789 514.437 193.892 512.329 195.599C510.22 197.306 507.605 200.14 507.735 205.91C507.816 209.49 521.823 196.753 521.823 196.753L531.11 184.766Z" fill="#292C47"/>
<path d="M521.642 302.085C521.642 302.085 521.421 309.789 522.521 310.253C523.622 310.716 527.786 308.037 529.623 305.388C531.46 302.738 527.322 296.571 526.643 293.169C526.358 291.745 523.122 289.182 521.544 289.917C519.966 290.651 518.814 292.532 518.814 292.532C518.814 292.532 522.829 295.283 521.642 302.085Z" fill="#D4C3BD"/>
<path d="M518.814 292.533C518.814 292.533 520.181 295.161 520.883 297.202C521.586 299.242 521.717 304.891 522.16 305.284C522.602 305.676 526.092 303.915 526.558 301.803C527.024 299.691 525.609 295.468 524.261 293.248C522.914 291.028 521.544 289.917 521.544 289.917C521.544 289.917 519.165 290.379 518.814 292.533Z" fill="#DE9673"/>
<path d="M526.643 293.169L530.393 298.641L529.683 299.128L526.784 294.898L526.643 293.169Z" fill="#D4C3BD"/>
<path d="M513.143 232.663C513.143 232.663 514.977 235.759 513.143 238.013C511.309 240.267 498.98 246.459 499.07 250.036C499.16 253.613 501.419 259.211 502.23 260.632C503.042 262.052 506.036 267.945 507.592 271.394C509.148 274.843 518.144 291.344 519.902 295.064C521.661 298.783 520.579 280.186 520.579 280.186L511.583 253.811L532.601 233.338C532.601 233.338 530.057 227.677 513.143 232.663Z" fill="#DE9673"/>
<path d="M521.14 197.736C521.14 197.736 515.308 199.028 512.993 200.381C510.678 201.733 505.537 207.955 505.537 210.63C505.537 213.306 528.018 215.805 528.018 215.805L532.28 231.359C532.28 231.359 543.643 228.587 544.996 226.287C546.348 223.988 540.521 207.622 539.71 204.173C538.898 200.724 534.647 198.399 529.912 197.736C527.002 197.339 524.051 197.339 521.14 197.736V197.736Z" fill="#FE5454"/>
<path d="M534.923 233.174C534.923 233.174 534.518 235.834 535.6 236.961C536.682 238.088 541.667 244.661 539.027 251.118C536.603 257.047 531.902 256.935 531.902 256.935H524.627C524.627 256.935 526.739 267.607 526.057 274.64C525.375 281.674 522.166 297.734 522.098 298.546C522.031 299.357 519.023 301.894 518.143 300.609C518.143 300.609 518.062 290.938 517.588 287.287C517.115 283.635 515.1 269.027 514.491 266.863C513.882 264.699 510.297 258.14 510.297 257.463C510.297 256.787 506.796 246.2 514.439 243.495C522.082 240.79 524.784 233.23 534.923 233.174Z" fill="#EEA886"/>
<path d="M514.521 308.068C514.521 308.068 509.504 313.92 510.068 314.972C510.632 316.024 515.555 316.56 518.65 315.655C521.745 314.75 522.405 307.353 524.017 304.281C524.692 302.994 523.787 298.967 522.098 298.546C520.409 298.125 518.331 298.863 518.331 298.863C518.331 298.863 519.722 303.527 514.521 308.068Z" fill="#E6D3CC"/>
<path d="M518.331 298.863C518.331 298.863 517.74 301.766 517.003 303.795C516.265 305.823 512.815 310.297 512.912 310.881C513.01 311.464 516.83 312.29 518.521 310.94C520.212 309.591 521.767 305.418 522.116 302.844C522.465 300.271 522.098 298.546 522.098 298.546C522.098 298.546 519.958 297.409 518.331 298.863Z" fill="#EEA886"/>
<path d="M524.017 304.28L523.491 310.893L522.633 310.825L523.04 305.714L524.017 304.28Z" fill="#E6D3CC"/>
<path d="M539.027 251.118C536.739 257.126 531.902 256.934 531.902 256.934H524.627C524.627 256.934 521.592 252.126 514.162 251.3C512.295 251.105 510.412 251.15 508.557 251.433C508.532 251.437 508.507 251.44 508.482 251.444C498.608 252.907 500.514 256.53 500.545 256.625C499.724 254.622 498.862 251.436 499.07 249.72C500.017 241.906 511.309 240.267 513.143 238.013C514.977 235.758 513.143 232.663 513.143 232.663C530.058 227.677 532.601 233.338 532.601 233.338C533.343 233.235 535.243 232.141 536.051 232.137C536.051 232.137 536.898 233.985 537.494 235.653C538.02 237.125 541.511 244.599 539.027 251.118Z" fill="#292C47"/>
<path d="M532.009 208.096L534.512 231.359H501.572L499.07 208.096H532.009Z" fill="#2A4387"/>
<path d="M537.133 229.266H531.632V231.359H537.133V229.266Z" fill="#2A4387"/>
<path d="M567.844 231.359H480.314V234.527H567.844V231.359Z" fill="#DBD5D2"/>
<path d="M524.784 172.343C524.784 172.343 532.164 174.526 531.11 184.766C530.055 195.005 525.236 194.478 524.784 194.554C524.332 194.629 518.609 195.005 516.802 182.582C514.995 170.159 524.784 172.343 524.784 172.343Z" fill="#EEA886"/>
<path d="M528.301 192.671C528.301 192.671 527.911 196.061 528.563 198.17C529.216 200.278 519.967 200.336 519.973 198.602C519.979 196.633 520.919 194.988 520.033 191.612C519.147 188.237 528.301 192.671 528.301 192.671Z" fill="#EEA886"/>
<path d="M522.879 176.908C522.879 176.908 526.889 183.286 531.11 184.766C531.11 184.766 533.414 174.064 523.896 171.822C514.378 169.58 515.869 182.631 516.579 186.111C516.579 186.111 518.562 180.991 522.879 176.908Z" fill="#292C47"/>
<path d="M521.127 193.104C521.127 193.104 524.047 196.145 527.781 193.421C527.781 193.421 527.473 195.365 524.787 195.616C522.102 195.867 521.127 193.104 521.127 193.104Z" fill="#A77860"/>
<path opacity="0.72" d="M517.501 175.948C517.501 175.948 519.612 171.861 523.176 171.679C526.741 171.496 528.86 174.587 528.86 174.587C528.86 174.587 527.469 171.106 523.181 171.106C518.892 171.106 517.501 175.948 517.501 175.948Z" fill="white"/>
<path d="M529.508 197.682C529.508 197.682 529.377 204.769 523.755 204.979C518.134 205.19 519.304 198.182 519.304 198.182C519.304 198.182 523.416 196.516 529.508 197.682Z" fill="#EEA886"/>
<path d="M567.844 234.526H565.514V307.265H567.844V234.526Z" fill="#7C95D6"/>
<path d="M482.644 234.526H480.314V307.265H482.644V234.526Z" fill="#7C95D6"/>
<g filter="url(#filter0_d_2137_1119)">
<rect x="456" y="85" width="100" height="100" rx="50" fill="#FDECFF"/>
<path d="M496 165C501.52 165 506 160.52 506 155V145H496C490.48 145 486 149.48 486 155C486 160.52 490.48 165 496 165Z" fill="#0ACF83"/>
<path d="M486 135C486 129.48 490.48 125 496 125H506V145H496C490.48 145 486 140.52 486 135Z" fill="#A259FF"/>
<path d="M486 115C486 109.48 490.48 105 496 105H506V125H496C490.48 125 486 120.52 486 115Z" fill="#F24E1E"/>
<path d="M506 105H516C521.52 105 526 109.48 526 115C526 120.52 521.52 125 516 125H506V105Z" fill="#FF7262"/>
<path d="M526 135C526 140.52 521.52 145 516 145C510.48 145 506 140.52 506 135C506 129.48 510.48 125 516 125C521.52 125 526 129.48 526 135Z" fill="#1ABCFE"/>
</g>
<g filter="url(#filter1_d_2137_1119)">
<rect x="17" y="44" width="100" height="100" rx="50" fill="#B8E7D6"/>
<path d="M86.8305 75.6822C86.789 75.3807 86.5248 75.2138 86.3065 75.1954C84.6967 75.0744 83.0868 74.9544 81.4769 74.8354C81.4769 74.8354 78.2741 71.6557 77.9225 71.3037C77.5708 70.952 76.8838 71.059 76.6172 71.1375C76.5779 71.149 75.9174 71.3529 74.8248 71.691C73.7549 68.6123 71.8667 65.7831 68.5449 65.7831C68.4532 65.7831 68.3588 65.7868 68.2644 65.7922C67.3197 64.5428 66.1494 64 65.1386 64C57.4005 64 53.7036 73.6734 52.5445 78.5891C49.5377 79.5208 47.4016 80.1832 47.1288 80.2689C45.4504 80.7954 45.3974 80.8482 45.177 82.4297C45.0111 83.6271 40.6196 117.589 40.6196 117.589L74.8391 124L93.3803 119.989C93.3803 119.989 86.8714 75.9838 86.8305 75.6822ZM72.9335 72.2759L70.038 73.1721C70.039 72.968 70.0401 72.7673 70.0401 72.5477C70.0401 70.6343 69.7745 69.0937 69.3484 67.8725C71.06 68.0873 72.1999 70.0347 72.9335 72.2759ZM67.2251 68.2519C67.701 69.4442 68.0104 71.1554 68.0104 73.4646C68.0104 73.5827 68.0094 73.6907 68.0083 73.8C66.1253 74.3833 64.0791 75.0165 62.0283 75.6519C63.1798 71.2079 65.3381 69.0615 67.2251 68.2519ZM64.9261 66.0755C65.2601 66.0755 65.5965 66.1889 65.9185 66.4105C63.4386 67.5775 60.7804 70.5166 59.6578 76.3859L54.9309 77.8499C56.2458 73.3731 59.3681 66.0755 64.9261 66.0755Z" fill="#95BF46"/>
<path d="M86.3065 75.1954C84.6967 75.0744 83.0868 74.9544 81.4769 74.8354C81.4769 74.8354 78.2741 71.6557 77.9225 71.3037C77.791 71.1728 77.6135 71.1057 77.4281 71.0767L74.8407 124L93.3803 119.989C93.3803 119.989 86.8714 75.9838 86.8305 75.6822C86.789 75.3807 86.5248 75.2138 86.3065 75.1954Z" fill="#5E8E3E"/>
<path d="M68.5449 85.4403L66.2587 92.2409C66.2587 92.2409 64.2557 91.1718 61.8003 91.1718C58.2007 91.1718 58.0195 93.4308 58.0195 94C58.0195 97.106 66.116 98.2961 66.116 105.571C66.116 111.295 62.4856 114.981 57.5906 114.981C51.7165 114.981 48.7126 111.325 48.7126 111.325L50.2854 106.129C50.2854 106.129 53.3732 108.78 55.9787 108.78C57.6812 108.78 58.3738 107.439 58.3738 106.46C58.3738 102.408 51.7314 102.227 51.7314 95.5699C51.7314 89.9666 55.7532 84.5443 63.8715 84.5443C66.9996 84.5443 68.5449 85.4403 68.5449 85.4403Z" fill="white"/>
</g>
</g>
<defs>
<filter id="filter0_d_2137_1119" x="436" y="65" width="140" height="140" filterUnits="userSpaceOnUse" color-interpolation-filters="sRGB">
<feFlood flood-opacity="0" result="BackgroundImageFix"/>
<feColorMatrix in="SourceAlpha" type="matrix" values="0 0 0 0 0 0 0 0 0 0 0 0 0 0 0 0 0 0 127 0" result="hardAlpha"/>
<feOffset/>
<feGaussianBlur stdDeviation="10"/>
<feComposite in2="hardAlpha" operator="out"/>
<feColorMatrix type="matrix" values="0 0 0 0 0 0 0 0 0 0 0 0 0 0 0 0 0 0 0.4 0"/>
<feBlend mode="normal" in2="BackgroundImageFix" result="effect1_dropShadow_2137_1119"/>
<feBlend mode="normal" in="SourceGraphic" in2="effect1_dropShadow_2137_1119" result="shape"/>
</filter>
<filter id="filter1_d_2137_1119" x="-3" y="24" width="140" height="140" filterUnits="userSpaceOnUse" color-interpolation-filters="sRGB">
<feFlood flood-opacity="0" result="BackgroundImageFix"/>
<feColorMatrix in="SourceAlpha" type="matrix" values="0 0 0 0 0 0 0 0 0 0 0 0 0 0 0 0 0 0 127 0" result="hardAlpha"/>
<feOffset/>
<feGaussianBlur stdDeviation="10"/>
<feComposite in2="hardAlpha" operator="out"/>
<feColorMatrix type="matrix" values="0 0 0 0 0 0 0 0 0 0 0 0 0 0 0 0 0 0 0.4 0"/>
<feBlend mode="normal" in2="BackgroundImageFix" result="effect1_dropShadow_2137_1119"/>
<feBlend mode="normal" in="SourceGraphic" in2="effect1_dropShadow_2137_1119" result="shape"/>
</filter>
<clipPath id="clip0_2137_1119">
<rect width="600" height="316.742" fill="white"/>
</clipPath>
</defs>
</svg>
