<svg id="Capa_1" data-name="Capa 1" xmlns="http://www.w3.org/2000/svg" viewBox="0 0 1218.9 1218.9"><defs><style>.cls-1,.cls-10,.cls-11,.cls-12,.cls-13,.cls-14,.cls-15,.cls-16,.cls-17,.cls-18,.cls-19,.cls-2,.cls-20,.cls-21,.cls-22,.cls-23,.cls-24,.cls-25,.cls-26,.cls-27,.cls-28,.cls-29,.cls-3,.cls-30,.cls-31,.cls-32,.cls-33,.cls-34,.cls-35,.cls-36,.cls-37,.cls-38,.cls-39,.cls-4,.cls-40,.cls-41,.cls-42,.cls-5,.cls-6,.cls-7,.cls-8,.cls-9{fill:#221f1f;}.cls-1{opacity:0;}.cls-2{opacity:0.02;}.cls-3{opacity:0.05;}.cls-4{opacity:0.07;}.cls-5{opacity:0.1;}.cls-6{opacity:0.12;}.cls-7{opacity:0.15;}.cls-8{opacity:0.17;}.cls-9{opacity:0.2;}.cls-10{opacity:0.22;}.cls-11{opacity:0.24;}.cls-12{opacity:0.27;}.cls-13{opacity:0.29;}.cls-14{opacity:0.32;}.cls-15{opacity:0.34;}.cls-16{opacity:0.37;}.cls-17{opacity:0.39;}.cls-18{opacity:0.41;}.cls-19{opacity:0.44;}.cls-20{opacity:0.46;}.cls-21{opacity:0.49;}.cls-22{opacity:0.51;}.cls-23{opacity:0.54;}.cls-24{opacity:0.56;}.cls-25{opacity:0.59;}.cls-26{opacity:0.61;}.cls-27{opacity:0.63;}.cls-28{opacity:0.66;}.cls-29{opacity:0.68;}.cls-30{opacity:0.71;}.cls-31{opacity:0.73;}.cls-32{opacity:0.76;}.cls-33{opacity:0.78;}.cls-34{opacity:0.8;}.cls-35{opacity:0.83;}.cls-36{opacity:0.85;}.cls-37{opacity:0.88;}.cls-38{opacity:0.9;}.cls-39{opacity:0.93;}.cls-40{opacity:0.95;}.cls-41{opacity:0.98;}.cls-43{fill:#d0d2d3;}.cls-44{fill:#bbbdbf;}.cls-45{fill:#e6e6e7;}.cls-46{fill:#f0f1f1;}.cls-47{fill:#929597;}.cls-48{fill:#914e93;}.cls-49{fill:#29a9e0;}.cls-50{fill:#f69322;}.cls-51{fill:#d34040;}.cls-52{fill:#8bc543;}.cls-53,.cls-55{opacity:0.3;}.cls-54,.cls-55{fill:#fff;}.cls-56{fill:#403f41;}</style></defs><path class="cls-1" d="M673.41,784.1c0,4.82-81.17,8.74-181.3,8.74s-181.29-3.92-181.29-8.74,81.16-8.75,181.29-8.75S673.41,779.27,673.41,784.1Z"/><path class="cls-2" d="M669.68,784.1c0,4.72-79.5,8.56-177.57,8.56s-177.57-3.84-177.57-8.56,79.5-8.57,177.57-8.57S669.68,779.37,669.68,784.1Z"/><path class="cls-3" d="M666,784.1c0,4.63-77.82,8.38-173.84,8.38s-173.84-3.75-173.84-8.38,77.82-8.39,173.84-8.39S666,779.47,666,784.1Z"/><path class="cls-4" d="M662.23,784.1c0,4.53-76.16,8.2-170.12,8.2S322,788.63,322,784.1s76.15-8.21,170.11-8.21S662.23,779.57,662.23,784.1Z"/><path class="cls-5" d="M658.5,784.1c0,4.43-74.49,8-166.39,8s-166.39-3.59-166.39-8,74.49-8,166.39-8S658.5,779.67,658.5,784.1Z"/><path class="cls-6" d="M654.77,784.1c0,4.33-72.82,7.84-162.66,7.84s-162.66-3.51-162.66-7.84,72.82-7.85,162.66-7.85S654.77,779.77,654.77,784.1Z"/><path class="cls-7" d="M651.05,784.1c0,4.23-71.16,7.66-158.94,7.66s-158.93-3.43-158.93-7.66,71.15-7.67,158.93-7.67S651.05,779.87,651.05,784.1Z"/><ellipse class="cls-8" cx="492.11" cy="784.1" rx="155.21" ry="7.48"/><ellipse class="cls-9" cx="492.11" cy="784.1" rx="151.48" ry="7.3"/><path class="cls-10" d="M639.87,784.1c0,3.93-66.15,7.12-147.76,7.12S344.35,788,344.35,784.1,410.5,777,492.11,777,639.87,780.17,639.87,784.1Z"/><path class="cls-11" d="M636.14,784.1c0,3.83-64.48,6.94-144,6.94s-144-3.11-144-6.94,64.48-7,144-7S636.14,780.27,636.14,784.1Z"/><path class="cls-12" d="M632.41,784.1c0,3.73-62.81,6.76-140.3,6.76s-140.3-3-140.3-6.76,62.81-6.77,140.3-6.77S632.41,780.36,632.41,784.1Z"/><path class="cls-13" d="M628.69,784.1c0,3.63-61.15,6.58-136.58,6.58s-136.57-2.95-136.57-6.58,61.14-6.59,136.57-6.59S628.69,780.46,628.69,784.1Z"/><path class="cls-14" d="M625,784.1c0,3.53-59.48,6.4-132.85,6.4s-132.85-2.87-132.85-6.4,59.47-6.41,132.85-6.41S625,780.56,625,784.1Z"/><ellipse class="cls-15" cx="492.11" cy="784.1" rx="129.12" ry="6.23"/><ellipse class="cls-16" cx="492.11" cy="784.1" rx="125.4" ry="6.05"/><path class="cls-17" d="M613.78,784.1c0,3.24-54.47,5.86-121.67,5.86s-121.67-2.62-121.67-5.86,54.47-5.87,121.67-5.87S613.78,780.86,613.78,784.1Z"/><path class="cls-18" d="M610.05,784.1c0,3.14-52.8,5.68-117.94,5.68s-117.94-2.54-117.94-5.68,52.8-5.69,117.94-5.69S610.05,781,610.05,784.1Z"/><path class="cls-19" d="M606.33,784.1c0,3-51.14,5.5-114.22,5.5s-114.22-2.46-114.22-5.5,51.13-5.51,114.22-5.51S606.33,781.06,606.33,784.1Z"/><path class="cls-20" d="M602.6,784.1c0,2.94-49.47,5.32-110.49,5.32S381.62,787,381.62,784.1s49.46-5.33,110.49-5.33S602.6,781.16,602.6,784.1Z"/><path class="cls-21" d="M598.87,784.1c0,2.84-47.79,5.14-106.76,5.14s-106.76-2.3-106.76-5.14S433.14,779,492.11,779,598.87,781.26,598.87,784.1Z"/><path class="cls-22" d="M595.15,784.1c0,2.74-46.13,5-103,5s-103-2.22-103-5,46.13-5,103-5S595.15,781.36,595.15,784.1Z"/><path class="cls-23" d="M591.42,784.1c0,2.64-44.46,4.78-99.31,4.78s-99.31-2.14-99.31-4.78,44.46-4.79,99.31-4.79S591.42,781.46,591.42,784.1Z"/><path class="cls-24" d="M587.69,784.1c0,2.54-42.79,4.61-95.58,4.61s-95.58-2.07-95.58-4.61,42.79-4.61,95.58-4.61S587.69,781.55,587.69,784.1Z"/><path class="cls-25" d="M584,784.1c0,2.44-41.13,4.43-91.86,4.43s-91.86-2-91.86-4.43,41.12-4.43,91.86-4.43S584,781.65,584,784.1Z"/><path class="cls-26" d="M580.24,784.1c0,2.34-39.46,4.25-88.13,4.25S404,786.44,404,784.1s39.45-4.25,88.13-4.25S580.24,781.75,580.24,784.1Z"/><path class="cls-27" d="M576.51,784.1c0,2.24-37.78,4.07-84.4,4.07s-84.4-1.83-84.4-4.07,37.78-4.07,84.4-4.07S576.51,781.85,576.51,784.1Z"/><path class="cls-28" d="M572.79,784.1c0,2.15-36.12,3.89-80.68,3.89s-80.68-1.74-80.68-3.89,36.12-3.89,80.68-3.89S572.79,782,572.79,784.1Z"/><path class="cls-29" d="M569.06,784.1c0,2-34.45,3.71-76.95,3.71s-76.95-1.66-76.95-3.71,34.45-3.71,76.95-3.71S569.06,782.05,569.06,784.1Z"/><path class="cls-30" d="M565.33,784.1c0,1.95-32.78,3.53-73.22,3.53s-73.22-1.58-73.22-3.53,32.77-3.53,73.22-3.53S565.33,782.15,565.33,784.1Z"/><path class="cls-31" d="M561.61,784.1c0,1.85-31.12,3.35-69.5,3.35s-69.5-1.5-69.5-3.35,31.11-3.35,69.5-3.35S561.61,782.25,561.61,784.1Z"/><path class="cls-32" d="M557.88,784.1c0,1.75-29.45,3.17-65.77,3.17s-65.77-1.42-65.77-3.17,29.44-3.17,65.77-3.17S557.88,782.35,557.88,784.1Z"/><path class="cls-33" d="M554.15,784.1c0,1.65-27.77,3-62,3s-62-1.34-62-3,27.77-3,62-3S554.15,782.45,554.15,784.1Z"/><path class="cls-34" d="M550.43,784.1c0,1.55-26.11,2.81-58.32,2.81s-58.32-1.26-58.32-2.81,26.11-2.81,58.32-2.81S550.43,782.55,550.43,784.1Z"/><path class="cls-35" d="M546.7,784.1c0,1.45-24.44,2.63-54.59,2.63s-54.59-1.18-54.59-2.63,24.44-2.63,54.59-2.63S546.7,782.65,546.7,784.1Z"/><path class="cls-36" d="M543,784.1c0,1.35-22.78,2.45-50.87,2.45s-50.86-1.1-50.86-2.45,22.76-2.45,50.86-2.45S543,782.75,543,784.1Z"/><path class="cls-37" d="M539.25,784.1c0,1.25-21.11,2.27-47.14,2.27s-47.14-1-47.14-2.27,21.1-2.27,47.14-2.27S539.25,782.84,539.25,784.1Z"/><path class="cls-38" d="M535.52,784.1c0,1.15-19.44,2.09-43.41,2.09s-43.41-.94-43.41-2.09S468.13,782,492.11,782,535.52,782.94,535.52,784.1Z"/><path class="cls-39" d="M531.8,784.1c0,1-17.77,1.91-39.69,1.91s-39.68-.86-39.68-1.91,17.76-1.91,39.68-1.91S531.8,783,531.8,784.1Z"/><path class="cls-40" d="M528.07,784.1c0,.95-16.1,1.73-36,1.73s-36-.78-36-1.73,16.1-1.73,36-1.73S528.07,783.14,528.07,784.1Z"/><path class="cls-41" d="M524.34,784.1c0,.86-14.43,1.55-32.23,1.55s-32.23-.69-32.23-1.55,14.42-1.55,32.23-1.55S524.34,783.24,524.34,784.1Z"/><path class="cls-42" d="M520.62,784.1c0,.76-12.77,1.37-28.51,1.37s-28.5-.61-28.5-1.37,12.75-1.38,28.5-1.38S520.62,783.34,520.62,784.1Z"/><polygon class="cls-43" points="574.8 771.49 413.68 771.49 436.98 662.78 551.51 662.78 574.8 771.49"/><polygon class="cls-44" points="564.68 724.25 551.51 662.78 436.98 662.78 423.8 724.25 564.68 724.25"/><path class="cls-45" d="M608.57,784H379.92c-12.13,0-14-16-14-16H622.56S620.7,784,608.57,784Z"/><path class="cls-42" d="M796.65,641a26.69,26.69,0,0,1-26.7,26.7H218.54a26.69,26.69,0,0,1-26.7-26.7V320.65a26.69,26.69,0,0,1,26.7-26.7H770a26.69,26.69,0,0,1,26.7,26.7Z"/><path class="cls-45" d="M191.84,633.81v52.54a26.69,26.69,0,0,0,26.7,26.7H770a26.69,26.69,0,0,0,26.7-26.7V633.81Z"/><rect class="cls-46" x="211.35" y="319.17" width="565.78" height="290.7"/><circle class="cls-47" cx="494.24" cy="672.03" r="19.32"/><rect class="cls-48" x="286.61" y="332.97" width="123.23" height="27.09"/><rect class="cls-44" x="432.63" y="332.97" width="269.24" height="27.09"/><rect class="cls-49" x="286.61" y="372.41" width="415.26" height="74.64"/><rect class="cls-50" x="286.62" y="462.07" width="123.23" height="75.52"/><rect class="cls-51" x="432.63" y="462.07" width="123.23" height="75.52"/><rect class="cls-52" x="578.65" y="462.07" width="123.23" height="75.52"/><rect class="cls-47" x="286.62" y="549.09" width="123.23" height="10.73"/><rect class="cls-44" x="286.62" y="568.06" width="123.23" height="10.73"/><rect class="cls-44" x="286.62" y="587.03" width="123.23" height="10.73"/><rect class="cls-47" x="432.63" y="549.09" width="123.23" height="10.73"/><rect class="cls-44" x="432.63" y="568.06" width="123.23" height="10.73"/><rect class="cls-44" x="432.63" y="587.03" width="123.23" height="10.73"/><rect class="cls-47" x="578.65" y="549.09" width="123.23" height="10.73"/><rect class="cls-44" x="578.65" y="568.06" width="123.23" height="10.73"/><rect class="cls-44" x="578.65" y="587.03" width="123.23" height="10.73"/><g class="cls-53"><path class="cls-54" d="M770,294.36H387.2l253,419.1H770a26.69,26.69,0,0,0,26.7-26.7V321.06A26.69,26.69,0,0,0,770,294.36Z"/></g><path class="cls-1" d="M1181.05,858.19c0,6.27-148.62,11.36-332,11.36s-332-5.09-332-11.36,148.62-11.37,332-11.37S1181.05,851.92,1181.05,858.19Z"/><path class="cls-2" d="M1174.22,858.19c0,6.15-145.56,11.13-325.14,11.13s-325.16-5-325.16-11.13,145.57-11.13,325.16-11.13S1174.22,852.05,1174.22,858.19Z"/><path class="cls-3" d="M1167.4,858.19c0,6-142.51,10.89-318.32,10.89s-318.33-4.87-318.33-10.89,142.51-10.9,318.33-10.9S1167.4,852.18,1167.4,858.19Z"/><path class="cls-4" d="M1160.58,858.19c0,5.89-139.46,10.66-311.5,10.66s-311.51-4.77-311.51-10.66S677,847.53,849.08,847.53,1160.58,852.31,1160.58,858.19Z"/><path class="cls-5" d="M1153.75,858.19c0,5.76-136.39,10.43-304.67,10.43S544.4,864,544.4,858.19s136.39-10.43,304.68-10.43S1153.75,852.43,1153.75,858.19Z"/><path class="cls-6" d="M1146.93,858.19c0,5.63-133.34,10.19-297.85,10.19s-297.86-4.56-297.86-10.19S684.56,848,849.08,848,1146.93,852.56,1146.93,858.19Z"/><path class="cls-7" d="M1140.1,858.19c0,5.5-130.28,10-291,10s-291-4.46-291-10,130.29-10,291-10S1140.1,852.69,1140.1,858.19Z"/><path class="cls-8" d="M1133.28,858.19c0,5.37-127.23,9.73-284.2,9.73s-284.21-4.36-284.21-9.73,127.23-9.73,284.21-9.73S1133.28,852.82,1133.28,858.19Z"/><path class="cls-9" d="M1126.46,858.19c0,5.24-124.18,9.49-277.38,9.49s-277.39-4.25-277.39-9.49,124.18-9.5,277.39-9.5S1126.46,853,1126.46,858.19Z"/><path class="cls-10" d="M1119.63,858.19c0,5.11-121.12,9.26-270.55,9.26s-270.56-4.15-270.56-9.26,121.12-9.26,270.56-9.26S1119.63,853.08,1119.63,858.19Z"/><path class="cls-11" d="M1112.81,858.19c0,5-118.07,9-263.73,9s-263.74-4-263.74-9,118.07-9,263.74-9S1112.81,853.21,1112.81,858.19Z"/><path class="cls-12" d="M1106,858.19c0,4.86-115,8.79-256.91,8.79s-256.92-3.93-256.92-8.79,115-8.8,256.92-8.8S1106,853.34,1106,858.19Z"/><path class="cls-13" d="M1099.16,858.19c0,4.73-112,8.56-250.08,8.56S599,862.92,599,858.19s112-8.56,250.09-8.56S1099.16,853.47,1099.16,858.19Z"/><path class="cls-14" d="M1092.34,858.19c0,4.6-108.91,8.33-243.26,8.33s-243.27-3.73-243.27-8.33,108.9-8.33,243.27-8.33S1092.34,853.6,1092.34,858.19Z"/><path class="cls-15" d="M1085.51,858.19c0,4.47-105.85,8.09-236.43,8.09s-236.45-3.62-236.45-8.09,105.85-8.09,236.45-8.09S1085.51,853.72,1085.51,858.19Z"/><ellipse class="cls-16" cx="849.07" cy="858.19" rx="229.62" ry="7.86"/><path class="cls-17" d="M1071.87,858.19c0,4.21-99.74,7.62-222.79,7.62s-222.8-3.41-222.8-7.62,99.74-7.63,222.8-7.63S1071.87,854,1071.87,858.19Z"/><path class="cls-18" d="M1065,858.19c0,4.08-96.68,7.39-216,7.39s-216-3.31-216-7.39,96.68-7.39,216-7.39S1065,854.11,1065,858.19Z"/><ellipse class="cls-19" cx="849.08" cy="858.19" rx="209.14" ry="7.16"/><ellipse class="cls-20" cx="849.08" cy="858.19" rx="202.32" ry="6.92"/><ellipse class="cls-21" cx="849.08" cy="858.19" rx="195.5" ry="6.69"/><path class="cls-22" d="M1037.75,858.19c0,3.57-84.47,6.46-188.67,6.46s-188.68-2.89-188.68-6.46,84.46-6.46,188.68-6.46S1037.75,854.63,1037.75,858.19Z"/><path class="cls-23" d="M1030.92,858.19c0,3.44-81.41,6.22-181.84,6.22s-181.85-2.78-181.85-6.22S748.63,852,849.08,852,1030.92,854.76,1030.92,858.19Z"/><path class="cls-24" d="M1024.1,858.19c0,3.31-78.36,6-175,6s-175-2.68-175-6,78.35-6,175-6S1024.1,854.88,1024.1,858.19Z"/><path class="cls-25" d="M1017.28,858.19c0,3.18-75.31,5.76-168.2,5.76s-168.21-2.58-168.21-5.76,75.3-5.76,168.21-5.76S1017.28,855,1017.28,858.19Z"/><path class="cls-26" d="M1010.45,858.19c0,3-72.25,5.52-161.37,5.52s-161.38-2.47-161.38-5.52,72.24-5.52,161.38-5.52S1010.45,855.14,1010.45,858.19Z"/><path class="cls-27" d="M1003.63,858.19c0,2.92-69.2,5.29-154.55,5.29s-154.56-2.37-154.56-5.29,69.19-5.29,154.56-5.29S1003.63,855.27,1003.63,858.19Z"/><path class="cls-28" d="M996.81,858.19c0,2.79-66.15,5.06-147.73,5.06S701.35,861,701.35,858.19s66.13-5.06,147.73-5.06S996.81,855.4,996.81,858.19Z"/><path class="cls-29" d="M990,858.19c0,2.66-63.08,4.82-140.9,4.82s-140.91-2.16-140.91-4.82,63.07-4.82,140.91-4.82S990,855.53,990,858.19Z"/><path class="cls-30" d="M983.16,858.19c0,2.54-60,4.59-134.08,4.59S715,860.73,715,858.19s60-4.59,134.09-4.59S983.16,855.66,983.16,858.19Z"/><path class="cls-31" d="M976.33,858.19c0,2.41-57,4.36-127.25,4.36s-127.26-1.95-127.26-4.36,57-4.35,127.26-4.35S976.33,855.79,976.33,858.19Z"/><path class="cls-32" d="M969.51,858.19c0,2.28-53.92,4.12-120.43,4.12s-120.44-1.84-120.44-4.12,53.91-4.12,120.44-4.12S969.51,855.92,969.51,858.19Z"/><path class="cls-33" d="M962.69,858.19c0,2.15-50.87,3.89-113.61,3.89s-113.61-1.74-113.61-3.89,50.85-3.89,113.61-3.89S962.69,856.05,962.69,858.19Z"/><path class="cls-34" d="M955.86,858.19c0,2-47.81,3.66-106.78,3.66s-106.79-1.64-106.79-3.66,47.8-3.65,106.79-3.65S955.86,856.17,955.86,858.19Z"/><path class="cls-35" d="M949,858.19c0,1.89-44.76,3.42-100,3.42s-100-1.53-100-3.42,44.75-3.42,100-3.42S949,856.3,949,858.19Z"/><path class="cls-36" d="M942.22,858.19c0,1.76-41.71,3.19-93.14,3.19s-93.14-1.43-93.14-3.19S797.63,855,849.08,855,942.22,856.43,942.22,858.19Z"/><path class="cls-37" d="M935.39,858.19c0,1.63-38.65,2.95-86.31,2.95s-86.32-1.32-86.32-2.95,38.63-3,86.32-3S935.39,856.56,935.39,858.19Z"/><path class="cls-38" d="M928.57,858.19c0,1.5-35.6,2.72-79.49,2.72s-79.5-1.22-79.5-2.72,35.58-2.72,79.5-2.72S928.57,856.69,928.57,858.19Z"/><path class="cls-39" d="M921.75,858.19c0,1.37-32.54,2.49-72.67,2.49s-72.67-1.12-72.67-2.49,32.52-2.48,72.67-2.48S921.75,856.82,921.75,858.19Z"/><path class="cls-40" d="M914.92,858.19c0,1.25-29.48,2.25-65.84,2.25s-65.85-1-65.85-2.25,29.47-2.25,65.85-2.25S914.92,857,914.92,858.19Z"/><path class="cls-41" d="M908.1,858.19c0,1.12-26.43,2-59,2s-59-.9-59-2,26.41-2,59-2S908.1,857.08,908.1,858.19Z"/><path class="cls-42" d="M901.27,858.19c0,1-23.37,1.79-52.19,1.79s-52.2-.8-52.2-1.79,23.36-1.78,52.2-1.78S901.27,857.21,901.27,858.19Z"/><path class="cls-42" d="M1070,842.34V566.77A23.78,23.78,0,0,0,1046.2,543H649.38a23.78,23.78,0,0,0-23.78,23.78V842.34Z"/><path class="cls-44" d="M1105.42,858.56H590.16c-10.69,0-12.33-14.15-12.33-14.15h539.92S1116.1,858.56,1105.42,858.56Z"/><rect class="cls-45" x="577.83" y="838.89" width="539.92" height="7.93"/><rect class="cls-44" x="795.69" y="838.89" width="104.2" height="4.5"/><rect class="cls-46" x="642.98" y="565.45" width="409.62" height="258.86"/><rect class="cls-48" x="661.56" y="577.7" width="109.73" height="24.12"/><rect class="cls-44" x="791.59" y="577.7" width="239.75" height="24.12"/><rect class="cls-49" x="661.56" y="612.83" width="369.78" height="66.46"/><rect class="cls-50" x="661.56" y="692.67" width="109.73" height="67.25"/><rect class="cls-51" x="791.59" y="692.67" width="109.73" height="67.25"/><rect class="cls-52" x="921.61" y="692.67" width="109.73" height="67.25"/><rect class="cls-47" x="661.56" y="770.15" width="109.73" height="9.55"/><rect class="cls-44" x="661.56" y="787.05" width="109.73" height="9.55"/><rect class="cls-44" x="661.56" y="803.94" width="109.73" height="9.55"/><rect class="cls-47" x="791.59" y="770.15" width="109.73" height="9.55"/><rect class="cls-44" x="791.59" y="787.05" width="109.73" height="9.55"/><rect class="cls-44" x="791.59" y="803.94" width="109.73" height="9.55"/><rect class="cls-47" x="921.61" y="770.15" width="109.73" height="9.55"/><rect class="cls-44" x="921.61" y="787.05" width="109.73" height="9.55"/><rect class="cls-44" x="921.61" y="803.94" width="109.73" height="9.55"/><path class="cls-55" d="M1070.12,837.93V566.77A23.77,23.77,0,0,0,1046.35,543H773.1l178,294.94Z"/><path class="cls-1" d="M340.42,804.19c0,7.85-62.42,14.22-139.43,14.22S61.57,812,61.57,804.19,124,790,201,790,340.42,796.34,340.42,804.19Z"/><path class="cls-2" d="M337.55,804.19c0,7.69-61.13,13.93-136.56,13.93S64.43,811.88,64.43,804.19,125.57,790.26,201,790.26,337.55,796.5,337.55,804.19Z"/><path class="cls-3" d="M334.69,804.19c0,7.53-59.85,13.64-133.7,13.64S67.3,811.72,67.3,804.19,127.15,790.56,201,790.56,334.69,796.66,334.69,804.19Z"/><path class="cls-4" d="M331.82,804.19c0,7.37-58.57,13.34-130.83,13.34s-130.82-6-130.82-13.34S128.74,790.85,201,790.85,331.82,796.83,331.82,804.19Z"/><path class="cls-5" d="M329,804.19c0,7.21-57.28,13-128,13s-128-5.84-128-13,57.29-13.05,128-13.05S329,797,329,804.19Z"/><path class="cls-6" d="M326.09,804.19c0,7-56,12.76-125.1,12.76S75.9,811.24,75.9,804.19s56-12.76,125.09-12.76S326.09,797.15,326.09,804.19Z"/><path class="cls-7" d="M323.22,804.19c0,6.89-54.72,12.47-122.23,12.47S78.76,811.08,78.76,804.19,133.48,791.72,201,791.72,323.22,797.31,323.22,804.19Z"/><path class="cls-8" d="M320.36,804.19c0,6.72-53.44,12.17-119.37,12.17S81.63,810.91,81.63,804.19,135.07,792,201,792,320.36,797.47,320.36,804.19Z"/><path class="cls-9" d="M317.49,804.19c0,6.56-52.15,11.88-116.5,11.88S84.5,810.75,84.5,804.19,136.65,792.31,201,792.31,317.49,797.63,317.49,804.19Z"/><path class="cls-10" d="M314.63,804.19c0,6.4-50.88,11.59-113.64,11.59S87.36,810.59,87.36,804.19,138.23,792.6,201,792.6,314.63,797.79,314.63,804.19Z"/><path class="cls-11" d="M311.76,804.19c0,6.24-49.59,11.3-110.77,11.3s-110.76-5.06-110.76-11.3,49.59-11.3,110.76-11.3S311.76,798,311.76,804.19Z"/><path class="cls-12" d="M308.89,804.19c0,6.08-48.3,11-107.9,11s-107.9-4.93-107.9-11,48.31-11,107.9-11S308.89,798.12,308.89,804.19Z"/><path class="cls-13" d="M306,804.19c0,5.92-47,10.71-105,10.71S96,810.11,96,804.19s47-10.71,105-10.71S306,798.28,306,804.19Z"/><path class="cls-14" d="M303.16,804.19c0,5.76-45.74,10.42-102.17,10.42S98.83,810,98.83,804.19,144.56,793.77,201,793.77,303.16,798.44,303.16,804.19Z"/><path class="cls-15" d="M300.3,804.19c0,5.6-44.46,10.13-99.31,10.13s-99.3-4.53-99.3-10.13,44.46-10.13,99.3-10.13S300.3,798.6,300.3,804.19Z"/><path class="cls-16" d="M297.43,804.19c0,5.43-43.17,9.84-96.44,9.84s-96.43-4.41-96.43-9.84,43.17-9.83,96.43-9.83S297.43,798.76,297.43,804.19Z"/><path class="cls-17" d="M294.56,804.19c0,5.27-41.89,9.54-93.57,9.54s-93.57-4.27-93.57-9.54,41.89-9.54,93.57-9.54S294.56,798.92,294.56,804.19Z"/><path class="cls-18" d="M291.7,804.19c0,5.11-40.61,9.25-90.71,9.25s-90.7-4.14-90.7-9.25,40.61-9.25,90.7-9.25S291.7,799.09,291.7,804.19Z"/><path class="cls-19" d="M288.83,804.19c0,4.95-39.32,9-87.84,9s-87.83-4-87.83-9,39.32-9,87.83-9S288.83,799.25,288.83,804.19Z"/><path class="cls-20" d="M286,804.19c0,4.79-38.05,8.67-85,8.67s-85-3.88-85-8.67,38-8.66,85-8.66S286,799.41,286,804.19Z"/><path class="cls-21" d="M283.1,804.19c0,4.63-36.76,8.38-82.11,8.38s-82.1-3.75-82.1-8.38,36.75-8.37,82.1-8.37S283.1,799.57,283.1,804.19Z"/><path class="cls-22" d="M280.23,804.19c0,4.47-35.47,8.08-79.24,8.08s-79.24-3.61-79.24-8.08,35.48-8.08,79.24-8.08S280.23,799.73,280.23,804.19Z"/><path class="cls-23" d="M277.37,804.19c0,4.31-34.19,7.79-76.38,7.79s-76.37-3.48-76.37-7.79,34.19-7.79,76.37-7.79S277.37,799.89,277.37,804.19Z"/><path class="cls-24" d="M274.5,804.19c0,4.14-32.91,7.5-73.51,7.5s-73.51-3.36-73.51-7.5,32.91-7.5,73.51-7.5S274.5,800.05,274.5,804.19Z"/><path class="cls-25" d="M271.64,804.19c0,4-31.63,7.21-70.65,7.21s-70.64-3.23-70.64-7.21S162,797,201,797,271.64,800.21,271.64,804.19Z"/><path class="cls-26" d="M268.77,804.19c0,3.82-30.34,6.91-67.78,6.91s-67.77-3.09-67.77-6.91,30.34-6.91,67.77-6.91S268.77,800.38,268.77,804.19Z"/><path class="cls-27" d="M265.91,804.19c0,3.66-29.07,6.62-64.92,6.62s-64.91-3-64.91-6.62,29.06-6.62,64.91-6.62S265.91,800.54,265.91,804.19Z"/><path class="cls-28" d="M263,804.19c0,3.5-27.78,6.33-62.05,6.33s-62-2.83-62-6.33,27.77-6.33,62-6.33S263,800.7,263,804.19Z"/><path class="cls-29" d="M260.17,804.19c0,3.34-26.49,6-59.18,6s-59.18-2.7-59.18-6,26.5-6,59.18-6S260.17,800.86,260.17,804.19Z"/><path class="cls-30" d="M257.31,804.19c0,3.18-25.22,5.74-56.32,5.74s-56.31-2.56-56.31-5.74,25.21-5.74,56.31-5.74S257.31,801,257.31,804.19Z"/><path class="cls-31" d="M254.44,804.19c0,3-23.93,5.45-53.45,5.45s-53.44-2.43-53.44-5.45,23.92-5.45,53.44-5.45S254.44,801.18,254.44,804.19Z"/><path class="cls-32" d="M251.58,804.19c0,2.85-22.65,5.16-50.59,5.16s-50.58-2.31-50.58-5.16S173.06,799,201,799,251.58,801.34,251.58,804.19Z"/><path class="cls-33" d="M248.71,804.19c0,2.69-21.36,4.87-47.72,4.87s-47.71-2.18-47.71-4.87,21.36-4.86,47.71-4.86S248.71,801.5,248.71,804.19Z"/><path class="cls-34" d="M245.84,804.19c0,2.53-20.08,4.58-44.85,4.58s-44.85-2-44.85-4.58,20.08-4.57,44.85-4.57S245.84,801.67,245.84,804.19Z"/><path class="cls-35" d="M243,804.19c0,2.37-18.8,4.28-42,4.28s-42-1.91-42-4.28,18.79-4.28,42-4.28S243,801.83,243,804.19Z"/><path class="cls-36" d="M240.11,804.19c0,2.21-17.51,4-39.12,4s-39.11-1.78-39.11-4,17.51-4,39.11-4S240.11,802,240.11,804.19Z"/><path class="cls-37" d="M237.25,804.19c0,2-16.24,3.7-36.26,3.7s-36.25-1.65-36.25-3.7S181,800.5,201,800.5,237.25,802.15,237.25,804.19Z"/><path class="cls-38" d="M234.38,804.19c0,1.89-14.95,3.41-33.39,3.41s-33.38-1.52-33.38-3.41,14.94-3.4,33.38-3.4S234.38,802.31,234.38,804.19Z"/><path class="cls-39" d="M231.51,804.19c0,1.73-13.66,3.11-30.52,3.11s-30.52-1.38-30.52-3.11,13.66-3.11,30.52-3.11S231.51,802.47,231.51,804.19Z"/><path class="cls-40" d="M228.65,804.19c0,1.56-12.39,2.82-27.66,2.82s-27.65-1.26-27.65-2.82,12.38-2.82,27.65-2.82S228.65,802.63,228.65,804.19Z"/><path class="cls-41" d="M225.78,804.19c0,1.4-11.1,2.53-24.79,2.53s-24.78-1.13-24.78-2.53,11.09-2.52,24.78-2.52S225.78,802.8,225.78,804.19Z"/><path class="cls-42" d="M222.92,804.19c0,1.24-9.82,2.24-21.93,2.24s-21.92-1-21.92-2.24S188.88,802,201,802,222.92,803,222.92,804.19Z"/><rect class="cls-42" x="100.29" y="512.91" width="205.74" height="294.46" rx="13.3"/><rect class="cls-46" x="114.31" y="541.56" width="177.7" height="237.16"/><path class="cls-56" d="M217,793.8a4.87,4.87,0,0,1-4.88,4.87H196.83A4.87,4.87,0,0,1,192,793.8h0a4.86,4.86,0,0,1,4.87-4.87h15.32A4.87,4.87,0,0,1,217,793.8Z"/><rect class="cls-48" x="123.7" y="554.64" width="55" height="23.4"/><rect class="cls-44" x="188.44" y="554.64" width="94.13" height="23.4"/><rect class="cls-49" x="123.7" y="590.63" width="158.86" height="65.76"/><rect class="cls-50" x="123.7" y="668.94" width="72.26" height="44.29"/><rect class="cls-51" x="209.32" y="668.94" width="72.26" height="44.29"/><rect class="cls-47" x="123.7" y="724.06" width="72.26" height="6.29"/><rect class="cls-44" x="123.7" y="736.89" width="72.26" height="6.29"/><rect class="cls-44" x="123.7" y="749.73" width="72.26" height="6.29"/><rect class="cls-44" x="123.7" y="762.56" width="72.26" height="6.29"/><rect class="cls-47" x="209.32" y="724.06" width="72.26" height="6.29"/><rect class="cls-44" x="209.32" y="736.89" width="72.26" height="6.29"/><rect class="cls-44" x="209.32" y="749.73" width="72.26" height="6.29"/><rect class="cls-44" x="209.32" y="762.56" width="72.26" height="6.29"/><path class="cls-55" d="M286.19,807.36h6.54a13.29,13.29,0,0,0,13.3-13.3V526.21a13.29,13.29,0,0,0-13.3-13.3H113.59a13.22,13.22,0,0,0-4.64.85Z"/><path class="cls-1" d="M401,860.18c0,5.41-36.9,9.8-82.42,9.8s-82.41-4.39-82.41-9.8,36.9-9.81,82.41-9.81S401,854.76,401,860.18Z"/><ellipse class="cls-2" cx="318.6" cy="860.18" rx="80.72" ry="9.61"/><path class="cls-3" d="M397.63,860.18c0,5.19-35.38,9.4-79,9.4s-79-4.21-79-9.4,35.38-9.41,79-9.41S397.63,855,397.63,860.18Z"/><ellipse class="cls-4" cx="318.6" cy="860.18" rx="77.33" ry="9.2"/><path class="cls-5" d="M394.24,860.18c0,5-33.86,9-75.64,9s-75.63-4-75.63-9,33.86-9,75.63-9S394.24,855.21,394.24,860.18Z"/><ellipse class="cls-6" cx="318.6" cy="860.18" rx="73.94" ry="8.8"/><ellipse class="cls-7" cx="318.6" cy="860.18" rx="72.25" ry="8.6"/><path class="cls-8" d="M389.16,860.18c0,4.63-31.59,8.39-70.56,8.39s-70.55-3.76-70.55-8.39,31.59-8.4,70.55-8.4S389.16,855.54,389.16,860.18Z"/><ellipse class="cls-9" cx="318.6" cy="860.18" rx="68.86" ry="8.2"/><path class="cls-10" d="M385.77,860.18c0,4.41-30.07,8-67.17,8s-67.16-3.58-67.16-8,30.07-8,67.16-8S385.77,855.76,385.77,860.18Z"/><path class="cls-11" d="M384.08,860.18c0,4.3-29.31,7.79-65.48,7.79s-65.47-3.49-65.47-7.79,29.31-7.8,65.47-7.8S384.08,855.88,384.08,860.18Z"/><ellipse class="cls-12" cx="318.6" cy="860.18" rx="63.78" ry="7.59"/><path class="cls-13" d="M380.69,860.18c0,4.08-27.8,7.38-62.09,7.38s-62.08-3.3-62.08-7.38,27.79-7.39,62.08-7.39S380.69,856.1,380.69,860.18Z"/><path class="cls-14" d="M379,860.18c0,4-27,7.18-60.4,7.18s-60.39-3.22-60.39-7.18,27-7.19,60.39-7.19S379,856.21,379,860.18Z"/><path class="cls-15" d="M377.3,860.18c0,3.85-26.28,7-58.7,7s-58.69-3.13-58.69-7,26.27-7,58.69-7S377.3,856.32,377.3,860.18Z"/><path class="cls-16" d="M375.61,860.18c0,3.74-25.52,6.78-57,6.78s-57-3-57-6.78,25.52-6.79,57-6.79S375.61,856.43,375.61,860.18Z"/><ellipse class="cls-17" cx="318.6" cy="860.18" rx="55.31" ry="6.58"/><path class="cls-18" d="M372.22,860.18c0,3.52-24,6.38-53.62,6.38S265,863.7,265,860.18s24-6.38,53.61-6.38S372.22,856.65,372.22,860.18Z"/><path class="cls-19" d="M370.53,860.18c0,3.41-23.25,6.18-51.93,6.18s-51.92-2.77-51.92-6.18S289.93,854,318.6,854,370.53,856.76,370.53,860.18Z"/><path class="cls-20" d="M368.83,860.18c0,3.3-22.49,6-50.23,6s-50.22-2.67-50.22-6,22.48-6,50.22-6S368.83,856.88,368.83,860.18Z"/><path class="cls-21" d="M367.14,860.18c0,3.19-21.73,5.77-48.54,5.77s-48.53-2.58-48.53-5.77,21.73-5.78,48.53-5.78S367.14,857,367.14,860.18Z"/><path class="cls-22" d="M365.44,860.18c0,3.07-21,5.57-46.84,5.57s-46.84-2.5-46.84-5.57,21-5.58,46.84-5.58S365.44,857.1,365.44,860.18Z"/><path class="cls-23" d="M363.75,860.18c0,3-20.21,5.37-45.15,5.37s-45.14-2.41-45.14-5.37,20.21-5.38,45.14-5.38S363.75,857.21,363.75,860.18Z"/><path class="cls-24" d="M362.06,860.18c0,2.85-19.46,5.17-43.46,5.17s-43.45-2.32-43.45-5.17S294.6,855,318.6,855,362.06,857.32,362.06,860.18Z"/><path class="cls-25" d="M360.36,860.18c0,2.74-18.69,5-41.76,5s-41.75-2.23-41.75-5,18.69-5,41.75-5S360.36,857.43,360.36,860.18Z"/><path class="cls-26" d="M358.67,860.18c0,2.63-17.94,4.76-40.07,4.76s-40.06-2.13-40.06-4.76,17.94-4.77,40.06-4.77S358.67,857.54,358.67,860.18Z"/><path class="cls-27" d="M357,860.18c0,2.52-17.18,4.56-38.37,4.56s-38.37-2-38.37-4.56,17.18-4.57,38.37-4.57S357,857.66,357,860.18Z"/><path class="cls-28" d="M355.28,860.18c0,2.41-16.42,4.36-36.68,4.36s-36.67-1.95-36.67-4.36,16.42-4.37,36.67-4.37S355.28,857.77,355.28,860.18Z"/><path class="cls-29" d="M353.58,860.18c0,2.3-15.66,4.16-35,4.16s-35-1.86-35-4.16,15.66-4.17,35-4.17S353.58,857.88,353.58,860.18Z"/><path class="cls-30" d="M351.89,860.18c0,2.19-14.9,4-33.29,4s-33.28-1.77-33.28-4,14.9-4,33.28-4S351.89,858,351.89,860.18Z"/><path class="cls-31" d="M350.2,860.18c0,2.07-14.15,3.76-31.6,3.76S287,862.25,287,860.18s14.14-3.76,31.59-3.76S350.2,858.1,350.2,860.18Z"/><path class="cls-32" d="M348.5,860.18c0,2-13.38,3.55-29.9,3.55s-29.9-1.59-29.9-3.55,13.39-3.56,29.9-3.56S348.5,858.21,348.5,860.18Z"/><path class="cls-33" d="M346.81,860.18c0,1.85-12.63,3.35-28.21,3.35s-28.2-1.5-28.2-3.35,12.62-3.36,28.2-3.36S346.81,858.32,346.81,860.18Z"/><path class="cls-34" d="M345.11,860.18c0,1.74-11.87,3.15-26.51,3.15s-26.51-1.41-26.51-3.15S304,857,318.6,857,345.11,858.43,345.11,860.18Z"/><path class="cls-35" d="M343.42,860.18c0,1.63-11.11,3-24.82,3s-24.81-1.32-24.81-3,11.11-3,24.81-3S343.42,858.55,343.42,860.18Z"/><path class="cls-36" d="M341.73,860.18c0,1.52-10.36,2.75-23.13,2.75s-23.12-1.23-23.12-2.75,10.35-2.75,23.12-2.75S341.73,858.66,341.73,860.18Z"/><path class="cls-37" d="M340,860.18c0,1.41-9.59,2.55-21.43,2.55s-21.42-1.14-21.42-2.55,9.59-2.55,21.42-2.55S340,858.77,340,860.18Z"/><path class="cls-38" d="M338.34,860.18c0,1.3-8.84,2.35-19.74,2.35s-19.73-1-19.73-2.35,8.83-2.35,19.73-2.35S338.34,858.88,338.34,860.18Z"/><path class="cls-39" d="M336.64,860.18c0,1.19-8.07,2.14-18,2.14s-18-1-18-2.14,8.08-2.15,18-2.15S336.64,859,336.64,860.18Z"/><path class="cls-40" d="M335,860.18c0,1.07-7.32,1.94-16.35,1.94s-16.34-.87-16.34-1.94,7.31-1.95,16.34-1.95S335,859.1,335,860.18Z"/><path class="cls-41" d="M333.26,860.18c0,1-6.57,1.74-14.66,1.74S304,861.14,304,860.18s6.56-1.75,14.65-1.75S333.26,859.21,333.26,860.18Z"/><path class="cls-42" d="M331.56,860.18c0,.85-5.8,1.54-13,1.54s-13-.69-13-1.54,5.8-1.54,13-1.54S331.56,859.32,331.56,860.18Z"/><rect class="cls-42" x="259.59" y="654.68" width="119.42" height="206.9" rx="11.77"/><rect class="cls-46" x="266.94" y="680.69" width="104.72" height="151.87"/><path class="cls-56" d="M323.7,669.07a4.4,4.4,0,1,1-4.4-4.4A4.39,4.39,0,0,1,323.7,669.07Z"/><path class="cls-56" d="M331.75,847.21a4.84,4.84,0,0,1-4.84,4.84H311.69a4.84,4.84,0,0,1-4.85-4.84h0a4.85,4.85,0,0,1,4.85-4.84h15.22a4.84,4.84,0,0,1,4.84,4.84Z"/><rect class="cls-48" x="272.2" y="685.52" width="94.49" height="15.26"/><rect class="cls-44" x="272.21" y="705.89" width="94.48" height="16.89"/><rect class="cls-49" x="272.21" y="729.03" width="94.49" height="38.13"/><rect class="cls-50" x="272.2" y="773.2" width="94.49" height="52.67"/><path class="cls-55" d="M377.28,855.19a11.72,11.72,0,0,0,1.31-5.38V666.45a11.77,11.77,0,0,0-11.77-11.77H270.94a11.73,11.73,0,0,0-10.63,6.75Z"/></svg>